G04 #@! TF.GenerationSoftware,KiCad,Pcbnew,7.0.9*
G04 #@! TF.CreationDate,2024-04-05T23:36:11+09:00*
G04 #@! TF.ProjectId,bottom_plate,626f7474-6f6d-45f7-906c-6174652e6b69,rev?*
G04 #@! TF.SameCoordinates,Original*
G04 #@! TF.FileFunction,Legend,Bot*
G04 #@! TF.FilePolarity,Positive*
%FSLAX46Y46*%
G04 Gerber Fmt 4.6, Leading zero omitted, Abs format (unit mm)*
G04 Created by KiCad (PCBNEW 7.0.9) date 2024-04-05 23:36:11*
%MOMM*%
%LPD*%
G01*
G04 APERTURE LIST*
%ADD10C,0.150000*%
G04 APERTURE END LIST*
D10*
G36*
X208250596Y-82597678D02*
G01*
X208250596Y-85317567D01*
X208722473Y-85317567D01*
X208722473Y-82597678D01*
X209469856Y-82597678D01*
X209469856Y-82128732D01*
X207547176Y-82128732D01*
X207547176Y-82597678D01*
X208250596Y-82597678D01*
G37*
G36*
X207353736Y-83301098D02*
G01*
X206881859Y-83301098D01*
X206881859Y-83493072D01*
X206858211Y-83468278D01*
X206835079Y-83445004D01*
X206812461Y-83423250D01*
X206790359Y-83403016D01*
X206761691Y-83378400D01*
X206733939Y-83356487D01*
X206707103Y-83337276D01*
X206681183Y-83320767D01*
X206656178Y-83306959D01*
X206623896Y-83291761D01*
X206589789Y-83279139D01*
X206561190Y-83270895D01*
X206531423Y-83264301D01*
X206500488Y-83259355D01*
X206468385Y-83256058D01*
X206435115Y-83254409D01*
X206418041Y-83254203D01*
X206383691Y-83255214D01*
X206349056Y-83258247D01*
X206314139Y-83263303D01*
X206278938Y-83270380D01*
X206243453Y-83279480D01*
X206207685Y-83290602D01*
X206171634Y-83303746D01*
X206135300Y-83318912D01*
X206098682Y-83336100D01*
X206061781Y-83355311D01*
X206037023Y-83369241D01*
X206248048Y-83816938D01*
X206272589Y-83800177D01*
X206305150Y-83780394D01*
X206337527Y-83763541D01*
X206369721Y-83749619D01*
X206401733Y-83738628D01*
X206433560Y-83730568D01*
X206465205Y-83725439D01*
X206496667Y-83723241D01*
X206504503Y-83723149D01*
X206550199Y-83725362D01*
X206592946Y-83731999D01*
X206632745Y-83743062D01*
X206669596Y-83758549D01*
X206703499Y-83778462D01*
X206734454Y-83802799D01*
X206762461Y-83831562D01*
X206787520Y-83864749D01*
X206809631Y-83902361D01*
X206828793Y-83944399D01*
X206845008Y-83990861D01*
X206858274Y-84041749D01*
X206868592Y-84097061D01*
X206872646Y-84126377D01*
X206875962Y-84156799D01*
X206878542Y-84188327D01*
X206880385Y-84220961D01*
X206881490Y-84254702D01*
X206881859Y-84289548D01*
X206881859Y-85317567D01*
X207353736Y-85317567D01*
X207353736Y-83301098D01*
G37*
G36*
X205249339Y-83301098D02*
G01*
X205249339Y-85317567D01*
X205721217Y-85317567D01*
X205721217Y-83301098D01*
X205249339Y-83301098D01*
G37*
G36*
X205768111Y-82477511D02*
G01*
X205766715Y-82447263D01*
X205762524Y-82418068D01*
X205753358Y-82383056D01*
X205739827Y-82349690D01*
X205721931Y-82317969D01*
X205704471Y-82293778D01*
X205684218Y-82270639D01*
X205678718Y-82265019D01*
X205655649Y-82244068D01*
X205631503Y-82225910D01*
X205606281Y-82210546D01*
X205573241Y-82195269D01*
X205538518Y-82184356D01*
X205509530Y-82178769D01*
X205479465Y-82175976D01*
X205464029Y-82175627D01*
X205432922Y-82177023D01*
X205402983Y-82181214D01*
X205374212Y-82188197D01*
X205339891Y-82200856D01*
X205313747Y-82214125D01*
X205288772Y-82230188D01*
X205264964Y-82249044D01*
X205247874Y-82265019D01*
X205226923Y-82287448D01*
X205208765Y-82311135D01*
X205189996Y-82342516D01*
X205175591Y-82375865D01*
X205167211Y-82403960D01*
X205161624Y-82433315D01*
X205158830Y-82463929D01*
X205158481Y-82479709D01*
X205159878Y-82510976D01*
X205164068Y-82541029D01*
X205171052Y-82569869D01*
X205183710Y-82604212D01*
X205200733Y-82636659D01*
X205217494Y-82661251D01*
X205237049Y-82684630D01*
X205247874Y-82695864D01*
X205270291Y-82716815D01*
X205293944Y-82734973D01*
X205325250Y-82753742D01*
X205358487Y-82768146D01*
X205393657Y-82778186D01*
X205423184Y-82783074D01*
X205453947Y-82785169D01*
X205461831Y-82785257D01*
X205492949Y-82783871D01*
X205522922Y-82779715D01*
X205551750Y-82772789D01*
X205579434Y-82763092D01*
X205605972Y-82750624D01*
X205631366Y-82735385D01*
X205655615Y-82717376D01*
X205678718Y-82696597D01*
X205699670Y-82673619D01*
X205717828Y-82649381D01*
X205733192Y-82623885D01*
X205745763Y-82597129D01*
X205755540Y-82569113D01*
X205762524Y-82539838D01*
X205766715Y-82509304D01*
X205768111Y-82477511D01*
G37*
G36*
X203637325Y-83255256D02*
G01*
X203679240Y-83258416D01*
X203720582Y-83263683D01*
X203761351Y-83271056D01*
X203801548Y-83280535D01*
X203841173Y-83292122D01*
X203880225Y-83305814D01*
X203918704Y-83321614D01*
X203956612Y-83339520D01*
X203993947Y-83359533D01*
X204030709Y-83381652D01*
X204066899Y-83405878D01*
X204102516Y-83432210D01*
X204137561Y-83460649D01*
X204172034Y-83491195D01*
X204205934Y-83523847D01*
X204205934Y-83301098D01*
X204677811Y-83301098D01*
X204677811Y-86396143D01*
X204205934Y-86396143D01*
X204205934Y-85080895D01*
X204171487Y-85115233D01*
X204136474Y-85147356D01*
X204100893Y-85177263D01*
X204064746Y-85204955D01*
X204028033Y-85230432D01*
X203990752Y-85253693D01*
X203952905Y-85274739D01*
X203914491Y-85293570D01*
X203875511Y-85310185D01*
X203835963Y-85324585D01*
X203795849Y-85336769D01*
X203755169Y-85346738D01*
X203713921Y-85354492D01*
X203672107Y-85360030D01*
X203629726Y-85363353D01*
X203586778Y-85364461D01*
X203537216Y-85363299D01*
X203488730Y-85359813D01*
X203441320Y-85354003D01*
X203394987Y-85345868D01*
X203349729Y-85335410D01*
X203305548Y-85322627D01*
X203262443Y-85307520D01*
X203220414Y-85290089D01*
X203179461Y-85270334D01*
X203139585Y-85248255D01*
X203100785Y-85223852D01*
X203063061Y-85197124D01*
X203026413Y-85168073D01*
X202990841Y-85136697D01*
X202956346Y-85102997D01*
X202922926Y-85066973D01*
X202890895Y-85028929D01*
X202860931Y-84989716D01*
X202833033Y-84949336D01*
X202807201Y-84907788D01*
X202783436Y-84865072D01*
X202761738Y-84821189D01*
X202742106Y-84776137D01*
X202724540Y-84729918D01*
X202709041Y-84682531D01*
X202695609Y-84633977D01*
X202684243Y-84584254D01*
X202674944Y-84533364D01*
X202667711Y-84481306D01*
X202662544Y-84428080D01*
X202659445Y-84373686D01*
X202658425Y-84318857D01*
X203130289Y-84318857D01*
X203130904Y-84352214D01*
X203132750Y-84384872D01*
X203135827Y-84416831D01*
X203140135Y-84448092D01*
X203145673Y-84478655D01*
X203152442Y-84508520D01*
X203160442Y-84537686D01*
X203169673Y-84566153D01*
X203180134Y-84593923D01*
X203191826Y-84620994D01*
X203204749Y-84647366D01*
X203218903Y-84673040D01*
X203234287Y-84698016D01*
X203250903Y-84722293D01*
X203268748Y-84745872D01*
X203287825Y-84768753D01*
X203307200Y-84790491D01*
X203337474Y-84820470D01*
X203369204Y-84847292D01*
X203402389Y-84870959D01*
X203437030Y-84891471D01*
X203473126Y-84908826D01*
X203510678Y-84923027D01*
X203549685Y-84934071D01*
X203590147Y-84941960D01*
X203632065Y-84946694D01*
X203675439Y-84948271D01*
X203690915Y-84948098D01*
X203721306Y-84946713D01*
X203750948Y-84943942D01*
X203794003Y-84937189D01*
X203835372Y-84927318D01*
X203875053Y-84914331D01*
X203913047Y-84898227D01*
X203949353Y-84879006D01*
X203983972Y-84856667D01*
X204016904Y-84831212D01*
X204048149Y-84802640D01*
X204077707Y-84770951D01*
X204096428Y-84747764D01*
X204113942Y-84723816D01*
X204130248Y-84699106D01*
X204145347Y-84673635D01*
X204159237Y-84647403D01*
X204171919Y-84620410D01*
X204183394Y-84592655D01*
X204193661Y-84564138D01*
X204202720Y-84534861D01*
X204210571Y-84504822D01*
X204217214Y-84474021D01*
X204222649Y-84442460D01*
X204226877Y-84410137D01*
X204229897Y-84377052D01*
X204231708Y-84343206D01*
X204232312Y-84308599D01*
X204232161Y-84290801D01*
X204230953Y-84255854D01*
X204228538Y-84221770D01*
X204224914Y-84188551D01*
X204220083Y-84156197D01*
X204214043Y-84124707D01*
X204206796Y-84094081D01*
X204198341Y-84064319D01*
X204188678Y-84035422D01*
X204177808Y-84007390D01*
X204165729Y-83980222D01*
X204152443Y-83953918D01*
X204130248Y-83916083D01*
X204105336Y-83880193D01*
X204077707Y-83846248D01*
X204057923Y-83824953D01*
X204026873Y-83795586D01*
X203994175Y-83769311D01*
X203959829Y-83746127D01*
X203923834Y-83726034D01*
X203886190Y-83709033D01*
X203846897Y-83695122D01*
X203805956Y-83684303D01*
X203763366Y-83676575D01*
X203734057Y-83673140D01*
X203704015Y-83671080D01*
X203673240Y-83670393D01*
X203629972Y-83671996D01*
X203588095Y-83676807D01*
X203547609Y-83684825D01*
X203508514Y-83696050D01*
X203470810Y-83710482D01*
X203434497Y-83728121D01*
X203399575Y-83748967D01*
X203366044Y-83773021D01*
X203333904Y-83800281D01*
X203303155Y-83830749D01*
X203283429Y-83852842D01*
X203264884Y-83875700D01*
X203247537Y-83899393D01*
X203231385Y-83923923D01*
X203216430Y-83949288D01*
X203202671Y-83975488D01*
X203190109Y-84002525D01*
X203178743Y-84030397D01*
X203168574Y-84059105D01*
X203159601Y-84088649D01*
X203151824Y-84119029D01*
X203145244Y-84150244D01*
X203139860Y-84182295D01*
X203135672Y-84215182D01*
X203132681Y-84248905D01*
X203130887Y-84283463D01*
X203130289Y-84318857D01*
X202658425Y-84318857D01*
X202658411Y-84318125D01*
X202659453Y-84261404D01*
X202662579Y-84205914D01*
X202667788Y-84151655D01*
X202675081Y-84098627D01*
X202684458Y-84046829D01*
X202695918Y-83996262D01*
X202709462Y-83946926D01*
X202725090Y-83898821D01*
X202742801Y-83851946D01*
X202762596Y-83806302D01*
X202784475Y-83761889D01*
X202808438Y-83718707D01*
X202834484Y-83676755D01*
X202862614Y-83636035D01*
X202892827Y-83596545D01*
X202925125Y-83558285D01*
X202958567Y-83521463D01*
X202993131Y-83487016D01*
X203028817Y-83454945D01*
X203065625Y-83425249D01*
X203103555Y-83397929D01*
X203142608Y-83372985D01*
X203182782Y-83350416D01*
X203224078Y-83330224D01*
X203266496Y-83312406D01*
X203310036Y-83296965D01*
X203354698Y-83283898D01*
X203400482Y-83273208D01*
X203447388Y-83264893D01*
X203495416Y-83258954D01*
X203544566Y-83255391D01*
X203594838Y-83254203D01*
X203637325Y-83255256D01*
G37*
G36*
X201688279Y-81847364D02*
G01*
X201688279Y-85317567D01*
X202160156Y-85317567D01*
X202160156Y-81847364D01*
X201688279Y-81847364D01*
G37*
G36*
X200297437Y-83255334D02*
G01*
X200350191Y-83258725D01*
X200401599Y-83264378D01*
X200451662Y-83272292D01*
X200500380Y-83282467D01*
X200547752Y-83294904D01*
X200593780Y-83309601D01*
X200638462Y-83326560D01*
X200681799Y-83345780D01*
X200723790Y-83367261D01*
X200764437Y-83391003D01*
X200803738Y-83417006D01*
X200841694Y-83445270D01*
X200878305Y-83475796D01*
X200913570Y-83508583D01*
X200947490Y-83543631D01*
X200963674Y-83562126D01*
X200994500Y-83600176D01*
X201023271Y-83639640D01*
X201049987Y-83680519D01*
X201074648Y-83722811D01*
X201097254Y-83766517D01*
X201117805Y-83811637D01*
X201136300Y-83858171D01*
X201152741Y-83906119D01*
X201167126Y-83955481D01*
X201179457Y-84006256D01*
X201189732Y-84058446D01*
X201197952Y-84112050D01*
X201204118Y-84167067D01*
X201208228Y-84223499D01*
X201210283Y-84281345D01*
X201210540Y-84310797D01*
X201209478Y-84369691D01*
X201206292Y-84427118D01*
X201200983Y-84483080D01*
X201193550Y-84537577D01*
X201183993Y-84590608D01*
X201172312Y-84642174D01*
X201158507Y-84692274D01*
X201142579Y-84740909D01*
X201124527Y-84788079D01*
X201104351Y-84833782D01*
X201082052Y-84878021D01*
X201057628Y-84920794D01*
X201031081Y-84962102D01*
X201002411Y-85001944D01*
X200971616Y-85040320D01*
X200938697Y-85077232D01*
X200903936Y-85112013D01*
X200867795Y-85144551D01*
X200830274Y-85174845D01*
X200791373Y-85202894D01*
X200751093Y-85228700D01*
X200709434Y-85252262D01*
X200666394Y-85273580D01*
X200621976Y-85292654D01*
X200576177Y-85309484D01*
X200528999Y-85324069D01*
X200480442Y-85336411D01*
X200430504Y-85346509D01*
X200379188Y-85354363D01*
X200326491Y-85359973D01*
X200272415Y-85363339D01*
X200216960Y-85364461D01*
X200178297Y-85363946D01*
X200140344Y-85362400D01*
X200103101Y-85359824D01*
X200066567Y-85356218D01*
X200030744Y-85351581D01*
X199995630Y-85345914D01*
X199961226Y-85339216D01*
X199927532Y-85331488D01*
X199894296Y-85322661D01*
X199861632Y-85312666D01*
X199829541Y-85301504D01*
X199798022Y-85289173D01*
X199767076Y-85275675D01*
X199736702Y-85261009D01*
X199706901Y-85245175D01*
X199677672Y-85228174D01*
X199648969Y-85209810D01*
X199620748Y-85190255D01*
X199593007Y-85169510D01*
X199565747Y-85147573D01*
X199538968Y-85124447D01*
X199512670Y-85100129D01*
X199486853Y-85074621D01*
X199461517Y-85047922D01*
X199436398Y-85019758D01*
X199411600Y-84990220D01*
X199393211Y-84967165D01*
X199375003Y-84943337D01*
X199356976Y-84918736D01*
X199339128Y-84893362D01*
X199321461Y-84867216D01*
X199303974Y-84840297D01*
X199286668Y-84812605D01*
X199269542Y-84784140D01*
X199660819Y-84572382D01*
X199678467Y-84598783D01*
X199695875Y-84624131D01*
X199713043Y-84648425D01*
X199738344Y-84682892D01*
X199763103Y-84714989D01*
X199787322Y-84744716D01*
X199811000Y-84772073D01*
X199834136Y-84797060D01*
X199856732Y-84819677D01*
X199886018Y-84846147D01*
X199914343Y-84868404D01*
X199936035Y-84882677D01*
X199966621Y-84899524D01*
X199999107Y-84913875D01*
X200033494Y-84925731D01*
X200069781Y-84935090D01*
X200107969Y-84941954D01*
X200137857Y-84945463D01*
X200168814Y-84947569D01*
X200200840Y-84948271D01*
X200228280Y-84947725D01*
X200268270Y-84944855D01*
X200306856Y-84939524D01*
X200344039Y-84931734D01*
X200379817Y-84921484D01*
X200414192Y-84908773D01*
X200447163Y-84893603D01*
X200478729Y-84875972D01*
X200508892Y-84855882D01*
X200537651Y-84833331D01*
X200565006Y-84808320D01*
X200590577Y-84780935D01*
X200613984Y-84751811D01*
X200635228Y-84720949D01*
X200654307Y-84688347D01*
X200671223Y-84654007D01*
X200685975Y-84617928D01*
X200698563Y-84580110D01*
X200708987Y-84540554D01*
X200717247Y-84499258D01*
X200723344Y-84456224D01*
X200726206Y-84426569D01*
X199287860Y-84426569D01*
X199287860Y-84317392D01*
X199288109Y-84286419D01*
X199288856Y-84255871D01*
X199290101Y-84225751D01*
X199291844Y-84196057D01*
X199296825Y-84137948D01*
X199303797Y-84081545D01*
X199308735Y-84051412D01*
X199764134Y-84051412D01*
X200695432Y-84051412D01*
X200692512Y-84040403D01*
X200682792Y-84008272D01*
X200671629Y-83977480D01*
X200659024Y-83948028D01*
X200644976Y-83919915D01*
X200629486Y-83893142D01*
X200626723Y-83888767D01*
X200609481Y-83863384D01*
X200591105Y-83839496D01*
X200571596Y-83817102D01*
X200550954Y-83796202D01*
X200525439Y-83773707D01*
X200506111Y-83758709D01*
X200477971Y-83739636D01*
X200448569Y-83722806D01*
X200417905Y-83708220D01*
X200390617Y-83697504D01*
X200381323Y-83694221D01*
X200352927Y-83685643D01*
X200323758Y-83678971D01*
X200293816Y-83674205D01*
X200263102Y-83671346D01*
X200231614Y-83670393D01*
X200186340Y-83671881D01*
X200143206Y-83676346D01*
X200102213Y-83683788D01*
X200063362Y-83694206D01*
X200026651Y-83707602D01*
X199992081Y-83723974D01*
X199959652Y-83743322D01*
X199929364Y-83765647D01*
X199901217Y-83790949D01*
X199875211Y-83819228D01*
X199851345Y-83850484D01*
X199829621Y-83884716D01*
X199810038Y-83921925D01*
X199792596Y-83962110D01*
X199777294Y-84005273D01*
X199764134Y-84051412D01*
X199308735Y-84051412D01*
X199312761Y-84026848D01*
X199323718Y-83973857D01*
X199336667Y-83922572D01*
X199351607Y-83872992D01*
X199368540Y-83825119D01*
X199387465Y-83778951D01*
X199408382Y-83734489D01*
X199431292Y-83691733D01*
X199456193Y-83650683D01*
X199483086Y-83611339D01*
X199511972Y-83573701D01*
X199542850Y-83537769D01*
X199575811Y-83503431D01*
X199610215Y-83471308D01*
X199646061Y-83441401D01*
X199683350Y-83413709D01*
X199722082Y-83388232D01*
X199762256Y-83364971D01*
X199803873Y-83343925D01*
X199846932Y-83325094D01*
X199891434Y-83308479D01*
X199937378Y-83294079D01*
X199984765Y-83281895D01*
X200033595Y-83271926D01*
X200083867Y-83264172D01*
X200135581Y-83258634D01*
X200188738Y-83255311D01*
X200243338Y-83254203D01*
X200297437Y-83255334D01*
G37*
G36*
X197406213Y-85317567D02*
G01*
X196934336Y-85317567D01*
X196934336Y-84004517D01*
X196847141Y-84004517D01*
X195934162Y-85317567D01*
X195345781Y-85317567D01*
X196325439Y-83958355D01*
X196286444Y-83949153D01*
X196248410Y-83938583D01*
X196211339Y-83926645D01*
X196175229Y-83913338D01*
X196140081Y-83898663D01*
X196105895Y-83882621D01*
X196072670Y-83865210D01*
X196040407Y-83846431D01*
X196009106Y-83826284D01*
X195978766Y-83804768D01*
X195949389Y-83781885D01*
X195920972Y-83757633D01*
X195893518Y-83732013D01*
X195867025Y-83705026D01*
X195841494Y-83676670D01*
X195816925Y-83646945D01*
X195793589Y-83616162D01*
X195771759Y-83584629D01*
X195751434Y-83552346D01*
X195732615Y-83519313D01*
X195715302Y-83485530D01*
X195699494Y-83450998D01*
X195685191Y-83415715D01*
X195672394Y-83379683D01*
X195661103Y-83342900D01*
X195651317Y-83305368D01*
X195643036Y-83267086D01*
X195636262Y-83228054D01*
X195630992Y-83188272D01*
X195627228Y-83147740D01*
X195624970Y-83106458D01*
X195624440Y-83076883D01*
X196096095Y-83076883D01*
X196096764Y-83108348D01*
X196098771Y-83138815D01*
X196106799Y-83196752D01*
X196120180Y-83250694D01*
X196138913Y-83300640D01*
X196162999Y-83346590D01*
X196192437Y-83388544D01*
X196227227Y-83426503D01*
X196267370Y-83460466D01*
X196312865Y-83490433D01*
X196363712Y-83516405D01*
X196391143Y-83527893D01*
X196419912Y-83538381D01*
X196450019Y-83547871D01*
X196481464Y-83556362D01*
X196514247Y-83563854D01*
X196548368Y-83570347D01*
X196583828Y-83575841D01*
X196620625Y-83580336D01*
X196658761Y-83583832D01*
X196698234Y-83586329D01*
X196739046Y-83587828D01*
X196781196Y-83588327D01*
X196934336Y-83588327D01*
X196934336Y-82597678D01*
X196762878Y-82597678D01*
X196721855Y-82598146D01*
X196682134Y-82599550D01*
X196643716Y-82601890D01*
X196606600Y-82605166D01*
X196570787Y-82609377D01*
X196536275Y-82614525D01*
X196503067Y-82620609D01*
X196471160Y-82627628D01*
X196440556Y-82635584D01*
X196411254Y-82644475D01*
X196383254Y-82654303D01*
X196331162Y-82676766D01*
X196284278Y-82702972D01*
X196242604Y-82732922D01*
X196206140Y-82766616D01*
X196174884Y-82804054D01*
X196148838Y-82845236D01*
X196128001Y-82890161D01*
X196112373Y-82938831D01*
X196101955Y-82991244D01*
X196096746Y-83047400D01*
X196096095Y-83076883D01*
X195624440Y-83076883D01*
X195624217Y-83064426D01*
X195625425Y-83010868D01*
X195629049Y-82958639D01*
X195635088Y-82907737D01*
X195643543Y-82858163D01*
X195654414Y-82809918D01*
X195667700Y-82763000D01*
X195683402Y-82717411D01*
X195701520Y-82673149D01*
X195722054Y-82630216D01*
X195745003Y-82588611D01*
X195770368Y-82548333D01*
X195798149Y-82509384D01*
X195828345Y-82471763D01*
X195860957Y-82435470D01*
X195895985Y-82400505D01*
X195933429Y-82366869D01*
X195969873Y-82338032D01*
X196009049Y-82311055D01*
X196050954Y-82285939D01*
X196095591Y-82262684D01*
X196142958Y-82241289D01*
X196193055Y-82221754D01*
X196245883Y-82204080D01*
X196301442Y-82188266D01*
X196330245Y-82181057D01*
X196359731Y-82174313D01*
X196389899Y-82168034D01*
X196420751Y-82162220D01*
X196452284Y-82156871D01*
X196484501Y-82151987D01*
X196517400Y-82147569D01*
X196550982Y-82143615D01*
X196585246Y-82140127D01*
X196620193Y-82137104D01*
X196655823Y-82134546D01*
X196692135Y-82132453D01*
X196729130Y-82130825D01*
X196766807Y-82129662D01*
X196805168Y-82128964D01*
X196844210Y-82128732D01*
X197406213Y-82128732D01*
X197406213Y-85317567D01*
G37*
G36*
X194148894Y-83255391D02*
G01*
X194202461Y-83258954D01*
X194254980Y-83264893D01*
X194306451Y-83273208D01*
X194356875Y-83283898D01*
X194406251Y-83296965D01*
X194454579Y-83312406D01*
X194501860Y-83330224D01*
X194548094Y-83350416D01*
X194593280Y-83372985D01*
X194637418Y-83397929D01*
X194680509Y-83425249D01*
X194722552Y-83454945D01*
X194763548Y-83487016D01*
X194803496Y-83521463D01*
X194842396Y-83558285D01*
X194879573Y-83596708D01*
X194914352Y-83636138D01*
X194946733Y-83676575D01*
X194976714Y-83718020D01*
X195004298Y-83760473D01*
X195029482Y-83803933D01*
X195052268Y-83848400D01*
X195072656Y-83893875D01*
X195090645Y-83940357D01*
X195106236Y-83987847D01*
X195119427Y-84036345D01*
X195130221Y-84085850D01*
X195138616Y-84136362D01*
X195144612Y-84187882D01*
X195148210Y-84240410D01*
X195149409Y-84293945D01*
X195148233Y-84350763D01*
X195144704Y-84406361D01*
X195138822Y-84460741D01*
X195130587Y-84513901D01*
X195120000Y-84565841D01*
X195107060Y-84616563D01*
X195091767Y-84666065D01*
X195074121Y-84714348D01*
X195054123Y-84761411D01*
X195031772Y-84807255D01*
X195007068Y-84851880D01*
X194980012Y-84895286D01*
X194950602Y-84937472D01*
X194918840Y-84978439D01*
X194884725Y-85018187D01*
X194848258Y-85056715D01*
X194810139Y-85093981D01*
X194770886Y-85128843D01*
X194730500Y-85161301D01*
X194688981Y-85191354D01*
X194646328Y-85219003D01*
X194602542Y-85244248D01*
X194557622Y-85267088D01*
X194511569Y-85287525D01*
X194464382Y-85305557D01*
X194416062Y-85321184D01*
X194366609Y-85334408D01*
X194316022Y-85345227D01*
X194264302Y-85353642D01*
X194211448Y-85359653D01*
X194157461Y-85363259D01*
X194102340Y-85364461D01*
X194046656Y-85363282D01*
X193992076Y-85359744D01*
X193938601Y-85353848D01*
X193886231Y-85345593D01*
X193834966Y-85334980D01*
X193784805Y-85322009D01*
X193735750Y-85306679D01*
X193687799Y-85288990D01*
X193640953Y-85268943D01*
X193595212Y-85246538D01*
X193550576Y-85221774D01*
X193507044Y-85194651D01*
X193464617Y-85165170D01*
X193423295Y-85133331D01*
X193383078Y-85099133D01*
X193343966Y-85062577D01*
X193306700Y-85024092D01*
X193271838Y-84984473D01*
X193239381Y-84943720D01*
X193209327Y-84901835D01*
X193181678Y-84858815D01*
X193156433Y-84814663D01*
X193133593Y-84769377D01*
X193113157Y-84722957D01*
X193095125Y-84675404D01*
X193079497Y-84626718D01*
X193066273Y-84576898D01*
X193055454Y-84525945D01*
X193047039Y-84473858D01*
X193041029Y-84420638D01*
X193037422Y-84366284D01*
X193036220Y-84310797D01*
X193508097Y-84310797D01*
X193508253Y-84328819D01*
X193509501Y-84364179D01*
X193511997Y-84398628D01*
X193515741Y-84432168D01*
X193520733Y-84464797D01*
X193526972Y-84496516D01*
X193534460Y-84527325D01*
X193543195Y-84557224D01*
X193553179Y-84586213D01*
X193564410Y-84614291D01*
X193576889Y-84641459D01*
X193590617Y-84667717D01*
X193605592Y-84693065D01*
X193630394Y-84729380D01*
X193648489Y-84752452D01*
X193667832Y-84774615D01*
X193688128Y-84795643D01*
X193720150Y-84824643D01*
X193754065Y-84850589D01*
X193789874Y-84873484D01*
X193827576Y-84893325D01*
X193867171Y-84910114D01*
X193908659Y-84923851D01*
X193937370Y-84931313D01*
X193966923Y-84937418D01*
X193997317Y-84942166D01*
X194028552Y-84945558D01*
X194060629Y-84947593D01*
X194093547Y-84948271D01*
X194126208Y-84947584D01*
X194158062Y-84945524D01*
X194189108Y-84942089D01*
X194219348Y-84937280D01*
X194248780Y-84931098D01*
X194277405Y-84923542D01*
X194318829Y-84909631D01*
X194358437Y-84892630D01*
X194396229Y-84872537D01*
X194432205Y-84849353D01*
X194466365Y-84823078D01*
X194498709Y-84793711D01*
X194519263Y-84772416D01*
X194529000Y-84761441D01*
X194556357Y-84727056D01*
X194573050Y-84702916D01*
X194588506Y-84677803D01*
X194602725Y-84651717D01*
X194615708Y-84624657D01*
X194627455Y-84596625D01*
X194637965Y-84567619D01*
X194647238Y-84537640D01*
X194655275Y-84506688D01*
X194662076Y-84474763D01*
X194667640Y-84441864D01*
X194671968Y-84407993D01*
X194675059Y-84373148D01*
X194676914Y-84337330D01*
X194677532Y-84300539D01*
X194676902Y-84266135D01*
X194675013Y-84232533D01*
X194671865Y-84199732D01*
X194667457Y-84167732D01*
X194661790Y-84136534D01*
X194654863Y-84106137D01*
X194646677Y-84076542D01*
X194637232Y-84047748D01*
X194626527Y-84019755D01*
X194614563Y-83992564D01*
X194601340Y-83966175D01*
X194586857Y-83940586D01*
X194571115Y-83915800D01*
X194554113Y-83891814D01*
X194535852Y-83868630D01*
X194516332Y-83846248D01*
X194495704Y-83824953D01*
X194463313Y-83795586D01*
X194429183Y-83769311D01*
X194393314Y-83746127D01*
X194355707Y-83726034D01*
X194316361Y-83709033D01*
X194275276Y-83695122D01*
X194246920Y-83687566D01*
X194217791Y-83681384D01*
X194187889Y-83676575D01*
X194157215Y-83673140D01*
X194125767Y-83671080D01*
X194093547Y-83670393D01*
X194060887Y-83671080D01*
X194029033Y-83673140D01*
X193997986Y-83676575D01*
X193967747Y-83681384D01*
X193938315Y-83687566D01*
X193909690Y-83695122D01*
X193868266Y-83709033D01*
X193828657Y-83726034D01*
X193790865Y-83746127D01*
X193754889Y-83769311D01*
X193720730Y-83795586D01*
X193688386Y-83824953D01*
X193667832Y-83846248D01*
X193648489Y-83868413D01*
X193630394Y-83891494D01*
X193613547Y-83915490D01*
X193597948Y-83940403D01*
X193583597Y-83966232D01*
X193570494Y-83992976D01*
X193558638Y-84020637D01*
X193548031Y-84049213D01*
X193538672Y-84078706D01*
X193530560Y-84109114D01*
X193523696Y-84140438D01*
X193518081Y-84172678D01*
X193513713Y-84205834D01*
X193510593Y-84239906D01*
X193508721Y-84274894D01*
X193508097Y-84310797D01*
X193036220Y-84310797D01*
X193037414Y-84255743D01*
X193040994Y-84201770D01*
X193046962Y-84148879D01*
X193055317Y-84097070D01*
X193066059Y-84046343D01*
X193079188Y-83996697D01*
X193094704Y-83948134D01*
X193112607Y-83900653D01*
X193132897Y-83854253D01*
X193155575Y-83808936D01*
X193180639Y-83764700D01*
X193208091Y-83721546D01*
X193237929Y-83679475D01*
X193270155Y-83638485D01*
X193304768Y-83598577D01*
X193341768Y-83559751D01*
X193380943Y-83522751D01*
X193421166Y-83488138D01*
X193462436Y-83455912D01*
X193504754Y-83426074D01*
X193548120Y-83398622D01*
X193592533Y-83373558D01*
X193637993Y-83350880D01*
X193684502Y-83330590D01*
X193732058Y-83312687D01*
X193780661Y-83297171D01*
X193830312Y-83284042D01*
X193881010Y-83273300D01*
X193932756Y-83264945D01*
X193985550Y-83258977D01*
X194039391Y-83255396D01*
X194094280Y-83254203D01*
X194148894Y-83255391D01*
G37*
G36*
X192036778Y-83723149D02*
G01*
X192036778Y-85317567D01*
X192508656Y-85317567D01*
X192508656Y-83723149D01*
X192696234Y-83723149D01*
X192696234Y-83306959D01*
X192508656Y-83306959D01*
X192508656Y-82550784D01*
X192036778Y-82550784D01*
X192036778Y-83306959D01*
X191664552Y-83306959D01*
X191664552Y-83723149D01*
X192036778Y-83723149D01*
G37*
G36*
X190528116Y-83255374D02*
G01*
X190576920Y-83258886D01*
X190624676Y-83264739D01*
X190671385Y-83272933D01*
X190717046Y-83283469D01*
X190761659Y-83296346D01*
X190805225Y-83311565D01*
X190847743Y-83329124D01*
X190889214Y-83349025D01*
X190929637Y-83371268D01*
X190969013Y-83395851D01*
X191007341Y-83422776D01*
X191044621Y-83452042D01*
X191080854Y-83483650D01*
X191116039Y-83517599D01*
X191150177Y-83553889D01*
X191182652Y-83591934D01*
X191213031Y-83631146D01*
X191241316Y-83671526D01*
X191267505Y-83713074D01*
X191291599Y-83755790D01*
X191313598Y-83799674D01*
X191333502Y-83844725D01*
X191351311Y-83890944D01*
X191367024Y-83938331D01*
X191380643Y-83986886D01*
X191392166Y-84036608D01*
X191401594Y-84087498D01*
X191408927Y-84139557D01*
X191414165Y-84192782D01*
X191417308Y-84247176D01*
X191418356Y-84302737D01*
X191417308Y-84359209D01*
X191414165Y-84414501D01*
X191408927Y-84468615D01*
X191401594Y-84521549D01*
X191392166Y-84573303D01*
X191380643Y-84623879D01*
X191367024Y-84673275D01*
X191351311Y-84721492D01*
X191333502Y-84768530D01*
X191313598Y-84814388D01*
X191291599Y-84859067D01*
X191267505Y-84902567D01*
X191241316Y-84944888D01*
X191213031Y-84986030D01*
X191182652Y-85025992D01*
X191150177Y-85064775D01*
X191115733Y-85101065D01*
X191080178Y-85135014D01*
X191043513Y-85166622D01*
X191005738Y-85195888D01*
X190966852Y-85222813D01*
X190926855Y-85247396D01*
X190885748Y-85269639D01*
X190843530Y-85289540D01*
X190800202Y-85307099D01*
X190755763Y-85322318D01*
X190710213Y-85335195D01*
X190663554Y-85345731D01*
X190615783Y-85353925D01*
X190566902Y-85359779D01*
X190516911Y-85363290D01*
X190465808Y-85364461D01*
X190424944Y-85363428D01*
X190384418Y-85360328D01*
X190344230Y-85355162D01*
X190304379Y-85347929D01*
X190264866Y-85338630D01*
X190225691Y-85327264D01*
X190186854Y-85313831D01*
X190148354Y-85298332D01*
X190110192Y-85280767D01*
X190072368Y-85261135D01*
X190034881Y-85239436D01*
X189997732Y-85215671D01*
X189960921Y-85189840D01*
X189924448Y-85161942D01*
X189888312Y-85131977D01*
X189852515Y-85099946D01*
X189852515Y-85317567D01*
X189401887Y-85317567D01*
X189401887Y-84310797D01*
X189823938Y-84310797D01*
X189824554Y-84345402D01*
X189826400Y-84379239D01*
X189829477Y-84412309D01*
X189833784Y-84444612D01*
X189839323Y-84476148D01*
X189846092Y-84506917D01*
X189854092Y-84536919D01*
X189863322Y-84566153D01*
X189873784Y-84594621D01*
X189885476Y-84622322D01*
X189898399Y-84649255D01*
X189912553Y-84675422D01*
X189927937Y-84700821D01*
X189944552Y-84725453D01*
X189962398Y-84749318D01*
X189981475Y-84772416D01*
X190011882Y-84803844D01*
X190044029Y-84832180D01*
X190077914Y-84857424D01*
X190113538Y-84879578D01*
X190150900Y-84898640D01*
X190190002Y-84914612D01*
X190230842Y-84927492D01*
X190273421Y-84937280D01*
X190302773Y-84942089D01*
X190332898Y-84945524D01*
X190363796Y-84947584D01*
X190395466Y-84948271D01*
X190410361Y-84948094D01*
X190439671Y-84946674D01*
X190482432Y-84941883D01*
X190523751Y-84933897D01*
X190563628Y-84922717D01*
X190602062Y-84908343D01*
X190639053Y-84890775D01*
X190674602Y-84870012D01*
X190708708Y-84846056D01*
X190741372Y-84818905D01*
X190772593Y-84788559D01*
X190792605Y-84766555D01*
X190811238Y-84743697D01*
X190828669Y-84720003D01*
X190844898Y-84695474D01*
X190859925Y-84670109D01*
X190873749Y-84643908D01*
X190886372Y-84616872D01*
X190897792Y-84589000D01*
X190908010Y-84560292D01*
X190917026Y-84530748D01*
X190924840Y-84500368D01*
X190931452Y-84469153D01*
X190936861Y-84437102D01*
X190941069Y-84404215D01*
X190944074Y-84370492D01*
X190945877Y-84335934D01*
X190946478Y-84300539D01*
X190945860Y-84267355D01*
X190944005Y-84234846D01*
X190940914Y-84203012D01*
X190936587Y-84171854D01*
X190931022Y-84141371D01*
X190924222Y-84111564D01*
X190916185Y-84082432D01*
X190906911Y-84053976D01*
X190896401Y-84026195D01*
X190884654Y-83999090D01*
X190871671Y-83972660D01*
X190857452Y-83946906D01*
X190841996Y-83921827D01*
X190825303Y-83897424D01*
X190807374Y-83873696D01*
X190788209Y-83850644D01*
X190778194Y-83839554D01*
X190757701Y-83818431D01*
X190725801Y-83789387D01*
X190692511Y-83763511D01*
X190657829Y-83740803D01*
X190621757Y-83721264D01*
X190584293Y-83704894D01*
X190545438Y-83691692D01*
X190505193Y-83681658D01*
X190463556Y-83674793D01*
X190420528Y-83671097D01*
X190391070Y-83670393D01*
X190359932Y-83671088D01*
X190329532Y-83673175D01*
X190299871Y-83676652D01*
X190256764Y-83684477D01*
X190215318Y-83695431D01*
X190175534Y-83709516D01*
X190137412Y-83726730D01*
X190100950Y-83747074D01*
X190066151Y-83770548D01*
X190033013Y-83797151D01*
X190001536Y-83826885D01*
X189981475Y-83848446D01*
X189962398Y-83871547D01*
X189944552Y-83895421D01*
X189927937Y-83920067D01*
X189912553Y-83945487D01*
X189898399Y-83971679D01*
X189885476Y-83998644D01*
X189873784Y-84026381D01*
X189863322Y-84054892D01*
X189854092Y-84084175D01*
X189846092Y-84114232D01*
X189839323Y-84145061D01*
X189833784Y-84176662D01*
X189829477Y-84209037D01*
X189826400Y-84242184D01*
X189824554Y-84276105D01*
X189823938Y-84310797D01*
X189401887Y-84310797D01*
X189401887Y-83301098D01*
X189852515Y-83301098D01*
X189852515Y-83538502D01*
X189887417Y-83504075D01*
X189922879Y-83471869D01*
X189958903Y-83441884D01*
X189995488Y-83414121D01*
X190032634Y-83388578D01*
X190070341Y-83365257D01*
X190108609Y-83344157D01*
X190147438Y-83325278D01*
X190186828Y-83308619D01*
X190226779Y-83294182D01*
X190267291Y-83281966D01*
X190308363Y-83271972D01*
X190349997Y-83264198D01*
X190392192Y-83258645D01*
X190434948Y-83255313D01*
X190478265Y-83254203D01*
X190528116Y-83255374D01*
G37*
G36*
X188806911Y-83301098D02*
G01*
X188335034Y-83301098D01*
X188335034Y-83493072D01*
X188311386Y-83468278D01*
X188288254Y-83445004D01*
X188265636Y-83423250D01*
X188243534Y-83403016D01*
X188214866Y-83378400D01*
X188187114Y-83356487D01*
X188160278Y-83337276D01*
X188134358Y-83320767D01*
X188109353Y-83306959D01*
X188077071Y-83291761D01*
X188042964Y-83279139D01*
X188014365Y-83270895D01*
X187984598Y-83264301D01*
X187953663Y-83259355D01*
X187921560Y-83256058D01*
X187888290Y-83254409D01*
X187871217Y-83254203D01*
X187836866Y-83255214D01*
X187802231Y-83258247D01*
X187767314Y-83263303D01*
X187732113Y-83270380D01*
X187696628Y-83279480D01*
X187660861Y-83290602D01*
X187624809Y-83303746D01*
X187588475Y-83318912D01*
X187551857Y-83336100D01*
X187514956Y-83355311D01*
X187490198Y-83369241D01*
X187701224Y-83816938D01*
X187725764Y-83800177D01*
X187758325Y-83780394D01*
X187790702Y-83763541D01*
X187822897Y-83749619D01*
X187854908Y-83738628D01*
X187886736Y-83730568D01*
X187918380Y-83725439D01*
X187949842Y-83723241D01*
X187957679Y-83723149D01*
X188003374Y-83725362D01*
X188046121Y-83731999D01*
X188085920Y-83743062D01*
X188122772Y-83758549D01*
X188156675Y-83778462D01*
X188187629Y-83802799D01*
X188215636Y-83831562D01*
X188240695Y-83864749D01*
X188262806Y-83902361D01*
X188281968Y-83944399D01*
X188298183Y-83990861D01*
X188311449Y-84041749D01*
X188321767Y-84097061D01*
X188325821Y-84126377D01*
X188329138Y-84156799D01*
X188331717Y-84188327D01*
X188333560Y-84220961D01*
X188334665Y-84254702D01*
X188335034Y-84289548D01*
X188335034Y-85317567D01*
X188806911Y-85317567D01*
X188806911Y-83301098D01*
G37*
G36*
X186411621Y-84932884D02*
G01*
X187309947Y-83301098D01*
X186775055Y-83301098D01*
X186163959Y-84453680D01*
X185593896Y-83301098D01*
X185072926Y-83301098D01*
X186664413Y-86396143D01*
X187191245Y-86396143D01*
X186411621Y-84932884D01*
G37*
G36*
X182656265Y-83255334D02*
G01*
X182709018Y-83258725D01*
X182760426Y-83264378D01*
X182810490Y-83272292D01*
X182859207Y-83282467D01*
X182906580Y-83294904D01*
X182952607Y-83309601D01*
X182997290Y-83326560D01*
X183040626Y-83345780D01*
X183082618Y-83367261D01*
X183123265Y-83391003D01*
X183162566Y-83417006D01*
X183200522Y-83445270D01*
X183237132Y-83475796D01*
X183272398Y-83508583D01*
X183306318Y-83543631D01*
X183322502Y-83562126D01*
X183353328Y-83600176D01*
X183382099Y-83639640D01*
X183408815Y-83680519D01*
X183433476Y-83722811D01*
X183456081Y-83766517D01*
X183476632Y-83811637D01*
X183495128Y-83858171D01*
X183511568Y-83906119D01*
X183525954Y-83955481D01*
X183538284Y-84006256D01*
X183548560Y-84058446D01*
X183556780Y-84112050D01*
X183562945Y-84167067D01*
X183567055Y-84223499D01*
X183569111Y-84281345D01*
X183569367Y-84310797D01*
X183568306Y-84369691D01*
X183565120Y-84427118D01*
X183559810Y-84483080D01*
X183552377Y-84537577D01*
X183542820Y-84590608D01*
X183531140Y-84642174D01*
X183517335Y-84692274D01*
X183501407Y-84740909D01*
X183483355Y-84788079D01*
X183463179Y-84833782D01*
X183440879Y-84878021D01*
X183416456Y-84920794D01*
X183389909Y-84962102D01*
X183361238Y-85001944D01*
X183330444Y-85040320D01*
X183297525Y-85077232D01*
X183262763Y-85112013D01*
X183226622Y-85144551D01*
X183189101Y-85174845D01*
X183150201Y-85202894D01*
X183109921Y-85228700D01*
X183068261Y-85252262D01*
X183025222Y-85273580D01*
X182980803Y-85292654D01*
X182935005Y-85309484D01*
X182887827Y-85324069D01*
X182839269Y-85336411D01*
X182789332Y-85346509D01*
X182738015Y-85354363D01*
X182685319Y-85359973D01*
X182631243Y-85363339D01*
X182575787Y-85364461D01*
X182537125Y-85363946D01*
X182499172Y-85362400D01*
X182461928Y-85359824D01*
X182425395Y-85356218D01*
X182389571Y-85351581D01*
X182354458Y-85345914D01*
X182320054Y-85339216D01*
X182286360Y-85331488D01*
X182253124Y-85322661D01*
X182220460Y-85312666D01*
X182188369Y-85301504D01*
X182156850Y-85289173D01*
X182125904Y-85275675D01*
X182095530Y-85261009D01*
X182065728Y-85245175D01*
X182036499Y-85228174D01*
X182007797Y-85209810D01*
X181979575Y-85190255D01*
X181951835Y-85169510D01*
X181924575Y-85147573D01*
X181897796Y-85124447D01*
X181871498Y-85100129D01*
X181845681Y-85074621D01*
X181820344Y-85047922D01*
X181795226Y-85019758D01*
X181770427Y-84990220D01*
X181752039Y-84967165D01*
X181733831Y-84943337D01*
X181715803Y-84918736D01*
X181697956Y-84893362D01*
X181680289Y-84867216D01*
X181662802Y-84840297D01*
X181645496Y-84812605D01*
X181628369Y-84784140D01*
X182019647Y-84572382D01*
X182037295Y-84598783D01*
X182054703Y-84624131D01*
X182071871Y-84648425D01*
X182097171Y-84682892D01*
X182121931Y-84714989D01*
X182146150Y-84744716D01*
X182169827Y-84772073D01*
X182192964Y-84797060D01*
X182215560Y-84819677D01*
X182244846Y-84846147D01*
X182273171Y-84868404D01*
X182294863Y-84882677D01*
X182325448Y-84899524D01*
X182357935Y-84913875D01*
X182392321Y-84925731D01*
X182428609Y-84935090D01*
X182466796Y-84941954D01*
X182496684Y-84945463D01*
X182527641Y-84947569D01*
X182559667Y-84948271D01*
X182587108Y-84947725D01*
X182627098Y-84944855D01*
X182665684Y-84939524D01*
X182702867Y-84931734D01*
X182738645Y-84921484D01*
X182773020Y-84908773D01*
X182805990Y-84893603D01*
X182837557Y-84875972D01*
X182867720Y-84855882D01*
X182896479Y-84833331D01*
X182923834Y-84808320D01*
X182949405Y-84780935D01*
X182972812Y-84751811D01*
X182994055Y-84720949D01*
X183013135Y-84688347D01*
X183030051Y-84654007D01*
X183044802Y-84617928D01*
X183057390Y-84580110D01*
X183067815Y-84540554D01*
X183076075Y-84499258D01*
X183082172Y-84456224D01*
X183085034Y-84426569D01*
X181646688Y-84426569D01*
X181646688Y-84317392D01*
X181646937Y-84286419D01*
X181647684Y-84255871D01*
X181648929Y-84225751D01*
X181650672Y-84196057D01*
X181655652Y-84137948D01*
X181662625Y-84081545D01*
X181667563Y-84051412D01*
X182122961Y-84051412D01*
X183054259Y-84051412D01*
X183051340Y-84040403D01*
X183041620Y-84008272D01*
X183030457Y-83977480D01*
X183017852Y-83948028D01*
X183003804Y-83919915D01*
X182988314Y-83893142D01*
X182985550Y-83888767D01*
X182968308Y-83863384D01*
X182949933Y-83839496D01*
X182930424Y-83817102D01*
X182909781Y-83796202D01*
X182884266Y-83773707D01*
X182864939Y-83758709D01*
X182836799Y-83739636D01*
X182807397Y-83722806D01*
X182776733Y-83708220D01*
X182749444Y-83697504D01*
X182740151Y-83694221D01*
X182711754Y-83685643D01*
X182682586Y-83678971D01*
X182652644Y-83674205D01*
X182621929Y-83671346D01*
X182590442Y-83670393D01*
X182545167Y-83671881D01*
X182502034Y-83676346D01*
X182461041Y-83683788D01*
X182422189Y-83694206D01*
X182385478Y-83707602D01*
X182350909Y-83723974D01*
X182318480Y-83743322D01*
X182288192Y-83765647D01*
X182260044Y-83790949D01*
X182234038Y-83819228D01*
X182210173Y-83850484D01*
X182188449Y-83884716D01*
X182168866Y-83921925D01*
X182151423Y-83962110D01*
X182136122Y-84005273D01*
X182122961Y-84051412D01*
X181667563Y-84051412D01*
X181671589Y-84026848D01*
X181682546Y-83973857D01*
X181695494Y-83922572D01*
X181710435Y-83872992D01*
X181727368Y-83825119D01*
X181746293Y-83778951D01*
X181767210Y-83734489D01*
X181790119Y-83691733D01*
X181815021Y-83650683D01*
X181841914Y-83611339D01*
X181870800Y-83573701D01*
X181901677Y-83537769D01*
X181934639Y-83503431D01*
X181969042Y-83471308D01*
X182004889Y-83441401D01*
X182042178Y-83413709D01*
X182080909Y-83388232D01*
X182121084Y-83364971D01*
X182162700Y-83343925D01*
X182205760Y-83325094D01*
X182250261Y-83308479D01*
X182296206Y-83294079D01*
X182343593Y-83281895D01*
X182392422Y-83271926D01*
X182442694Y-83264172D01*
X182494409Y-83258634D01*
X182547566Y-83255311D01*
X182602166Y-83254203D01*
X182656265Y-83255334D01*
G37*
G36*
X181154294Y-83301098D02*
G01*
X180682417Y-83301098D01*
X180682417Y-83490874D01*
X180651771Y-83462215D01*
X180620650Y-83435404D01*
X180589054Y-83410443D01*
X180556983Y-83387331D01*
X180524437Y-83366067D01*
X180491415Y-83346653D01*
X180457919Y-83329087D01*
X180423947Y-83313371D01*
X180389500Y-83299503D01*
X180354578Y-83287485D01*
X180319181Y-83277315D01*
X180283309Y-83268995D01*
X180246962Y-83262523D01*
X180210139Y-83257901D01*
X180172841Y-83255127D01*
X180135069Y-83254203D01*
X180091803Y-83255064D01*
X180049752Y-83257649D01*
X180008913Y-83261957D01*
X179969289Y-83267987D01*
X179930878Y-83275741D01*
X179893680Y-83285218D01*
X179857697Y-83296418D01*
X179822926Y-83309341D01*
X179789370Y-83323987D01*
X179757027Y-83340356D01*
X179725897Y-83358448D01*
X179695981Y-83378263D01*
X179667279Y-83399801D01*
X179639790Y-83423063D01*
X179613515Y-83448047D01*
X179588453Y-83474754D01*
X179567957Y-83499129D01*
X179548783Y-83525358D01*
X179530931Y-83553442D01*
X179514402Y-83583381D01*
X179499195Y-83615175D01*
X179485310Y-83648823D01*
X179472748Y-83684326D01*
X179461508Y-83721684D01*
X179451590Y-83760896D01*
X179442995Y-83801963D01*
X179435722Y-83844885D01*
X179429772Y-83889662D01*
X179425143Y-83936293D01*
X179421838Y-83984779D01*
X179419854Y-84035120D01*
X179419193Y-84087315D01*
X179419193Y-85317567D01*
X179891070Y-85317567D01*
X179891070Y-84195759D01*
X179891391Y-84159380D01*
X179892352Y-84124433D01*
X179893955Y-84090916D01*
X179896199Y-84058830D01*
X179899084Y-84028176D01*
X179902611Y-83998953D01*
X179909102Y-83957801D01*
X179917036Y-83919870D01*
X179926413Y-83885158D01*
X179937232Y-83853666D01*
X179949494Y-83825395D01*
X179968087Y-83792708D01*
X179973136Y-83785431D01*
X179994980Y-83758469D01*
X180020946Y-83735102D01*
X180051034Y-83715330D01*
X180085243Y-83699152D01*
X180113605Y-83689379D01*
X180144285Y-83681627D01*
X180177284Y-83675898D01*
X180212601Y-83672190D01*
X180250236Y-83670505D01*
X180263296Y-83670393D01*
X180305120Y-83671732D01*
X180344586Y-83675751D01*
X180381696Y-83682448D01*
X180416448Y-83691825D01*
X180448843Y-83703881D01*
X180478882Y-83718615D01*
X180506563Y-83736029D01*
X180531887Y-83756122D01*
X180554854Y-83778894D01*
X180575464Y-83804345D01*
X180587895Y-83822800D01*
X180604787Y-83852942D01*
X180620018Y-83887037D01*
X180633587Y-83925087D01*
X180645494Y-83967091D01*
X180652510Y-83997290D01*
X180658786Y-84029247D01*
X180664325Y-84062961D01*
X180669125Y-84098432D01*
X180673186Y-84135661D01*
X180676509Y-84174647D01*
X180679094Y-84215391D01*
X180680940Y-84257892D01*
X180682048Y-84302151D01*
X180682417Y-84348167D01*
X180682417Y-85317567D01*
X181154294Y-85317567D01*
X181154294Y-83301098D01*
G37*
G36*
X177306004Y-83395620D02*
G01*
X177306004Y-84007448D01*
X177325561Y-83983923D01*
X177344850Y-83961343D01*
X177373278Y-83929244D01*
X177401101Y-83899270D01*
X177428319Y-83871422D01*
X177454931Y-83845698D01*
X177480938Y-83822100D01*
X177506339Y-83800627D01*
X177531135Y-83781279D01*
X177555326Y-83764056D01*
X177586639Y-83744398D01*
X177617906Y-83727053D01*
X177650524Y-83712021D01*
X177684492Y-83699301D01*
X177719812Y-83688894D01*
X177756483Y-83680800D01*
X177794505Y-83675018D01*
X177823908Y-83672200D01*
X177854070Y-83670682D01*
X177874601Y-83670393D01*
X177906503Y-83671105D01*
X177937730Y-83673244D01*
X177968282Y-83676807D01*
X177998158Y-83681796D01*
X178027358Y-83688210D01*
X178055883Y-83696050D01*
X178083732Y-83705315D01*
X178124240Y-83721885D01*
X178163228Y-83741662D01*
X178200695Y-83764646D01*
X178224830Y-83781751D01*
X178248288Y-83800281D01*
X178271072Y-83820236D01*
X178293179Y-83841617D01*
X178303980Y-83852842D01*
X178324743Y-83875917D01*
X178344166Y-83899714D01*
X178362249Y-83924232D01*
X178378993Y-83949471D01*
X178394398Y-83975431D01*
X178408463Y-84002113D01*
X178421188Y-84029516D01*
X178432574Y-84057640D01*
X178442620Y-84086485D01*
X178451327Y-84116052D01*
X178458695Y-84146340D01*
X178464722Y-84177349D01*
X178469411Y-84209080D01*
X178472760Y-84241532D01*
X178474769Y-84274705D01*
X178475439Y-84308599D01*
X178474795Y-84343198D01*
X178472863Y-84377018D01*
X178469643Y-84410059D01*
X178465135Y-84442322D01*
X178459339Y-84473807D01*
X178452255Y-84504513D01*
X178443883Y-84534440D01*
X178434223Y-84563589D01*
X178423275Y-84591959D01*
X178411039Y-84619551D01*
X178397515Y-84646364D01*
X178382703Y-84672399D01*
X178366603Y-84697655D01*
X178349215Y-84722133D01*
X178330539Y-84745832D01*
X178310575Y-84768753D01*
X178289248Y-84790491D01*
X178267218Y-84810827D01*
X178244483Y-84829761D01*
X178209061Y-84855532D01*
X178172055Y-84878147D01*
X178133464Y-84897606D01*
X178093289Y-84913910D01*
X178051530Y-84927059D01*
X178022811Y-84934071D01*
X177993387Y-84939681D01*
X177963259Y-84943889D01*
X177932427Y-84946694D01*
X177900891Y-84948096D01*
X177884859Y-84948271D01*
X177854158Y-84947647D01*
X177824152Y-84945773D01*
X177794841Y-84942649D01*
X177756842Y-84936541D01*
X177720080Y-84928212D01*
X177684554Y-84917662D01*
X177650265Y-84904891D01*
X177617212Y-84889898D01*
X177593233Y-84877197D01*
X177561978Y-84857585D01*
X177537665Y-84840216D01*
X177512605Y-84820568D01*
X177486797Y-84798639D01*
X177460243Y-84774431D01*
X177432942Y-84747944D01*
X177404894Y-84719176D01*
X177376098Y-84688129D01*
X177356486Y-84666164D01*
X177336542Y-84643186D01*
X177316266Y-84619195D01*
X177306004Y-84606820D01*
X177306004Y-85217183D01*
X177340906Y-85235017D01*
X177375819Y-85251701D01*
X177410744Y-85267234D01*
X177445680Y-85281617D01*
X177480628Y-85294849D01*
X177515587Y-85306930D01*
X177550558Y-85317861D01*
X177585540Y-85327642D01*
X177620533Y-85336271D01*
X177655538Y-85343750D01*
X177690555Y-85350078D01*
X177725582Y-85355256D01*
X177760622Y-85359283D01*
X177795673Y-85362160D01*
X177830735Y-85363886D01*
X177865808Y-85364461D01*
X177922832Y-85363290D01*
X177978683Y-85359779D01*
X178033360Y-85353925D01*
X178086863Y-85345731D01*
X178139193Y-85335195D01*
X178190350Y-85322318D01*
X178240333Y-85307099D01*
X178289142Y-85289540D01*
X178336778Y-85269639D01*
X178383241Y-85247396D01*
X178428530Y-85222813D01*
X178472645Y-85195888D01*
X178515587Y-85166622D01*
X178557355Y-85135014D01*
X178597950Y-85101065D01*
X178637372Y-85064775D01*
X178674904Y-85026559D01*
X178710015Y-84987198D01*
X178742704Y-84946691D01*
X178772972Y-84905040D01*
X178800819Y-84862244D01*
X178826244Y-84818304D01*
X178849247Y-84773218D01*
X178869830Y-84726987D01*
X178887990Y-84679612D01*
X178903730Y-84631091D01*
X178917048Y-84581426D01*
X178927944Y-84530616D01*
X178936419Y-84478661D01*
X178942473Y-84425561D01*
X178946105Y-84371316D01*
X178947316Y-84315927D01*
X178946088Y-84260689D01*
X178942404Y-84206533D01*
X178936265Y-84153458D01*
X178927669Y-84101466D01*
X178916618Y-84050556D01*
X178903112Y-84000727D01*
X178887149Y-83951981D01*
X178868731Y-83904316D01*
X178847856Y-83857734D01*
X178824526Y-83812233D01*
X178798741Y-83767814D01*
X178770499Y-83724477D01*
X178739802Y-83682222D01*
X178706649Y-83641049D01*
X178671040Y-83600958D01*
X178632975Y-83561949D01*
X178593125Y-83524683D01*
X178552158Y-83489821D01*
X178510074Y-83457363D01*
X178466875Y-83427310D01*
X178422559Y-83399661D01*
X178377127Y-83374416D01*
X178330579Y-83351576D01*
X178282914Y-83331139D01*
X178234133Y-83313107D01*
X178184236Y-83297480D01*
X178133223Y-83284256D01*
X178081093Y-83273437D01*
X178027847Y-83265022D01*
X177973485Y-83259011D01*
X177918007Y-83255405D01*
X177861412Y-83254203D01*
X177824724Y-83254755D01*
X177788299Y-83256413D01*
X177752138Y-83259175D01*
X177716240Y-83263041D01*
X177680606Y-83268013D01*
X177645234Y-83274090D01*
X177610126Y-83281271D01*
X177575282Y-83289557D01*
X177540700Y-83298948D01*
X177506382Y-83309444D01*
X177472327Y-83321044D01*
X177438536Y-83333750D01*
X177405008Y-83347560D01*
X177371743Y-83362475D01*
X177338742Y-83378495D01*
X177306004Y-83395620D01*
G37*
G36*
X175944986Y-83255391D02*
G01*
X175998553Y-83258954D01*
X176051072Y-83264893D01*
X176102543Y-83273208D01*
X176152967Y-83283898D01*
X176202343Y-83296965D01*
X176250671Y-83312406D01*
X176297953Y-83330224D01*
X176344186Y-83350416D01*
X176389372Y-83372985D01*
X176433510Y-83397929D01*
X176476601Y-83425249D01*
X176518644Y-83454945D01*
X176559640Y-83487016D01*
X176599588Y-83521463D01*
X176638488Y-83558285D01*
X176675666Y-83596708D01*
X176710444Y-83636138D01*
X176742825Y-83676575D01*
X176772806Y-83718020D01*
X176800390Y-83760473D01*
X176825574Y-83803933D01*
X176848360Y-83848400D01*
X176868748Y-83893875D01*
X176886737Y-83940357D01*
X176902328Y-83987847D01*
X176915520Y-84036345D01*
X176926313Y-84085850D01*
X176934708Y-84136362D01*
X176940704Y-84187882D01*
X176944302Y-84240410D01*
X176945501Y-84293945D01*
X176944325Y-84350763D01*
X176940796Y-84406361D01*
X176934914Y-84460741D01*
X176926679Y-84513901D01*
X176916092Y-84565841D01*
X176903152Y-84616563D01*
X176887859Y-84666065D01*
X176870214Y-84714348D01*
X176850215Y-84761411D01*
X176827864Y-84807255D01*
X176803160Y-84851880D01*
X176776104Y-84895286D01*
X176746694Y-84937472D01*
X176714932Y-84978439D01*
X176680817Y-85018187D01*
X176644350Y-85056715D01*
X176606231Y-85093981D01*
X176566978Y-85128843D01*
X176526592Y-85161301D01*
X176485073Y-85191354D01*
X176442420Y-85219003D01*
X176398634Y-85244248D01*
X176353714Y-85267088D01*
X176307661Y-85287525D01*
X176260475Y-85305557D01*
X176212155Y-85321184D01*
X176162701Y-85334408D01*
X176112114Y-85345227D01*
X176060394Y-85353642D01*
X176007540Y-85359653D01*
X175953553Y-85363259D01*
X175898432Y-85364461D01*
X175842748Y-85363282D01*
X175788168Y-85359744D01*
X175734693Y-85353848D01*
X175682323Y-85345593D01*
X175631058Y-85334980D01*
X175580898Y-85322009D01*
X175531842Y-85306679D01*
X175483891Y-85288990D01*
X175437045Y-85268943D01*
X175391304Y-85246538D01*
X175346668Y-85221774D01*
X175303136Y-85194651D01*
X175260709Y-85165170D01*
X175219388Y-85133331D01*
X175179170Y-85099133D01*
X175140058Y-85062577D01*
X175102792Y-85024092D01*
X175067930Y-84984473D01*
X175035473Y-84943720D01*
X175005419Y-84901835D01*
X174977770Y-84858815D01*
X174952526Y-84814663D01*
X174929685Y-84769377D01*
X174909249Y-84722957D01*
X174891217Y-84675404D01*
X174875589Y-84626718D01*
X174862366Y-84576898D01*
X174851546Y-84525945D01*
X174843131Y-84473858D01*
X174837121Y-84420638D01*
X174833514Y-84366284D01*
X174832312Y-84310797D01*
X175304189Y-84310797D01*
X175304345Y-84328819D01*
X175305593Y-84364179D01*
X175308089Y-84398628D01*
X175311833Y-84432168D01*
X175316825Y-84464797D01*
X175323064Y-84496516D01*
X175330552Y-84527325D01*
X175339287Y-84557224D01*
X175349271Y-84586213D01*
X175360502Y-84614291D01*
X175372981Y-84641459D01*
X175386709Y-84667717D01*
X175401684Y-84693065D01*
X175426486Y-84729380D01*
X175444581Y-84752452D01*
X175463924Y-84774615D01*
X175484220Y-84795643D01*
X175516242Y-84824643D01*
X175550157Y-84850589D01*
X175585966Y-84873484D01*
X175623668Y-84893325D01*
X175663263Y-84910114D01*
X175704752Y-84923851D01*
X175733462Y-84931313D01*
X175763015Y-84937418D01*
X175793409Y-84942166D01*
X175824644Y-84945558D01*
X175856721Y-84947593D01*
X175889640Y-84948271D01*
X175922300Y-84947584D01*
X175954154Y-84945524D01*
X175985201Y-84942089D01*
X176015440Y-84937280D01*
X176044872Y-84931098D01*
X176073497Y-84923542D01*
X176114921Y-84909631D01*
X176154529Y-84892630D01*
X176192322Y-84872537D01*
X176228298Y-84849353D01*
X176262457Y-84823078D01*
X176294801Y-84793711D01*
X176315355Y-84772416D01*
X176325092Y-84761441D01*
X176352449Y-84727056D01*
X176369142Y-84702916D01*
X176384598Y-84677803D01*
X176398817Y-84651717D01*
X176411800Y-84624657D01*
X176423547Y-84596625D01*
X176434057Y-84567619D01*
X176443330Y-84537640D01*
X176451368Y-84506688D01*
X176458168Y-84474763D01*
X176463732Y-84441864D01*
X176468060Y-84407993D01*
X176471151Y-84373148D01*
X176473006Y-84337330D01*
X176473624Y-84300539D01*
X176472995Y-84266135D01*
X176471105Y-84232533D01*
X176467957Y-84199732D01*
X176463549Y-84167732D01*
X176457882Y-84136534D01*
X176450955Y-84106137D01*
X176442769Y-84076542D01*
X176433324Y-84047748D01*
X176422619Y-84019755D01*
X176410655Y-83992564D01*
X176397432Y-83966175D01*
X176382949Y-83940586D01*
X176367207Y-83915800D01*
X176350205Y-83891814D01*
X176331944Y-83868630D01*
X176312424Y-83846248D01*
X176291796Y-83824953D01*
X176259405Y-83795586D01*
X176225275Y-83769311D01*
X176189406Y-83746127D01*
X176151799Y-83726034D01*
X176112453Y-83709033D01*
X176071368Y-83695122D01*
X176043012Y-83687566D01*
X176013883Y-83681384D01*
X175983981Y-83676575D01*
X175953307Y-83673140D01*
X175921860Y-83671080D01*
X175889640Y-83670393D01*
X175856979Y-83671080D01*
X175825125Y-83673140D01*
X175794079Y-83676575D01*
X175763839Y-83681384D01*
X175734407Y-83687566D01*
X175705782Y-83695122D01*
X175664358Y-83709033D01*
X175624750Y-83726034D01*
X175586958Y-83746127D01*
X175550982Y-83769311D01*
X175516822Y-83795586D01*
X175484478Y-83824953D01*
X175463924Y-83846248D01*
X175444581Y-83868413D01*
X175426486Y-83891494D01*
X175409639Y-83915490D01*
X175394040Y-83940403D01*
X175379689Y-83966232D01*
X175366586Y-83992976D01*
X175354731Y-84020637D01*
X175344123Y-84049213D01*
X175334764Y-84078706D01*
X175326652Y-84109114D01*
X175319789Y-84140438D01*
X175314173Y-84172678D01*
X175309805Y-84205834D01*
X175306685Y-84239906D01*
X175304813Y-84274894D01*
X175304189Y-84310797D01*
X174832312Y-84310797D01*
X174833506Y-84255743D01*
X174837086Y-84201770D01*
X174843054Y-84148879D01*
X174851409Y-84097070D01*
X174862151Y-84046343D01*
X174875280Y-83996697D01*
X174890796Y-83948134D01*
X174908699Y-83900653D01*
X174928989Y-83854253D01*
X174951667Y-83808936D01*
X174976731Y-83764700D01*
X175004183Y-83721546D01*
X175034022Y-83679475D01*
X175066247Y-83638485D01*
X175100860Y-83598577D01*
X175137860Y-83559751D01*
X175177035Y-83522751D01*
X175217258Y-83488138D01*
X175258528Y-83455912D01*
X175300846Y-83426074D01*
X175344212Y-83398622D01*
X175388625Y-83373558D01*
X175434086Y-83350880D01*
X175480594Y-83330590D01*
X175528150Y-83312687D01*
X175576753Y-83297171D01*
X175626404Y-83284042D01*
X175677102Y-83273300D01*
X175728849Y-83264945D01*
X175781642Y-83258977D01*
X175835483Y-83255396D01*
X175890372Y-83254203D01*
X175944986Y-83255391D01*
G37*
G36*
X172874462Y-83541433D02*
G01*
X172908911Y-83506651D01*
X172943933Y-83474113D01*
X172979528Y-83443819D01*
X173015695Y-83415770D01*
X173052434Y-83389964D01*
X173089746Y-83366402D01*
X173127631Y-83345084D01*
X173166088Y-83326010D01*
X173205117Y-83309180D01*
X173244718Y-83294595D01*
X173284893Y-83282253D01*
X173325639Y-83272155D01*
X173366958Y-83264301D01*
X173408850Y-83258691D01*
X173451314Y-83255325D01*
X173494350Y-83254203D01*
X173543735Y-83255382D01*
X173592055Y-83258920D01*
X173639310Y-83264816D01*
X173685501Y-83273071D01*
X173730626Y-83283684D01*
X173774687Y-83296655D01*
X173817684Y-83311985D01*
X173859615Y-83329674D01*
X173900482Y-83349721D01*
X173940284Y-83372126D01*
X173979021Y-83396890D01*
X174016694Y-83424013D01*
X174053302Y-83453494D01*
X174088845Y-83485333D01*
X174123323Y-83519531D01*
X174156737Y-83556087D01*
X174188856Y-83594123D01*
X174218904Y-83633310D01*
X174246879Y-83673647D01*
X174272782Y-83715135D01*
X174296613Y-83757773D01*
X174318372Y-83801563D01*
X174338058Y-83846502D01*
X174355672Y-83892593D01*
X174371214Y-83939834D01*
X174384684Y-83988225D01*
X174396081Y-84037767D01*
X174405406Y-84088460D01*
X174412659Y-84140304D01*
X174417840Y-84193298D01*
X174420948Y-84247442D01*
X174421984Y-84302737D01*
X174420948Y-84359209D01*
X174417840Y-84414501D01*
X174412659Y-84468615D01*
X174405406Y-84521549D01*
X174396081Y-84573303D01*
X174384684Y-84623879D01*
X174371214Y-84673275D01*
X174355672Y-84721492D01*
X174338058Y-84768530D01*
X174318372Y-84814388D01*
X174296613Y-84859067D01*
X174272782Y-84902567D01*
X174246879Y-84944888D01*
X174218904Y-84986030D01*
X174188856Y-85025992D01*
X174156737Y-85064775D01*
X174122768Y-85101065D01*
X174087723Y-85135014D01*
X174051601Y-85166622D01*
X174014404Y-85195888D01*
X173976130Y-85222813D01*
X173936781Y-85247396D01*
X173896355Y-85269639D01*
X173854852Y-85289540D01*
X173812274Y-85307099D01*
X173768619Y-85322318D01*
X173723889Y-85335195D01*
X173678082Y-85345731D01*
X173631198Y-85353925D01*
X173583239Y-85359779D01*
X173534204Y-85363290D01*
X173484092Y-85364461D01*
X173441782Y-85363428D01*
X173400034Y-85360328D01*
X173358847Y-85355162D01*
X173318220Y-85347929D01*
X173278155Y-85338630D01*
X173238651Y-85327264D01*
X173199707Y-85313831D01*
X173161325Y-85298332D01*
X173123503Y-85280767D01*
X173086243Y-85261135D01*
X173049544Y-85239436D01*
X173013405Y-85215671D01*
X172977828Y-85189840D01*
X172942811Y-85161942D01*
X172908356Y-85131977D01*
X172874462Y-85099946D01*
X172874462Y-85317567D01*
X172402584Y-85317567D01*
X172402584Y-84310797D01*
X172845885Y-84310797D01*
X172846489Y-84345402D01*
X172848301Y-84379239D01*
X172851321Y-84412309D01*
X172855548Y-84444612D01*
X172860983Y-84476148D01*
X172867627Y-84506917D01*
X172875478Y-84536919D01*
X172884537Y-84566153D01*
X172894803Y-84594621D01*
X172906278Y-84622322D01*
X172918961Y-84649255D01*
X172932851Y-84675422D01*
X172947949Y-84700821D01*
X172964255Y-84725453D01*
X172981769Y-84749318D01*
X173000491Y-84772416D01*
X173020286Y-84793711D01*
X173051396Y-84823078D01*
X173084205Y-84849353D01*
X173118715Y-84872537D01*
X173154925Y-84892630D01*
X173192835Y-84909631D01*
X173232445Y-84923542D01*
X173273756Y-84934361D01*
X173316766Y-84942089D01*
X173346385Y-84945524D01*
X173376758Y-84947584D01*
X173407888Y-84948271D01*
X173451418Y-84946674D01*
X173493531Y-84941883D01*
X173534228Y-84933897D01*
X173573508Y-84922717D01*
X173611370Y-84908343D01*
X173647817Y-84890775D01*
X173682846Y-84870012D01*
X173716458Y-84846056D01*
X173748654Y-84818905D01*
X173779433Y-84788559D01*
X173799165Y-84766555D01*
X173826140Y-84731955D01*
X173850462Y-84695474D01*
X173865202Y-84670109D01*
X173878763Y-84643908D01*
X173891145Y-84616872D01*
X173902348Y-84589000D01*
X173912372Y-84560292D01*
X173921216Y-84530748D01*
X173928881Y-84500368D01*
X173935367Y-84469153D01*
X173940673Y-84437102D01*
X173944801Y-84404215D01*
X173947749Y-84370492D01*
X173949517Y-84335934D01*
X173950107Y-84300539D01*
X173949955Y-84283863D01*
X173948742Y-84251016D01*
X173946315Y-84218844D01*
X173942674Y-84187348D01*
X173937820Y-84156528D01*
X173931752Y-84126383D01*
X173924470Y-84096914D01*
X173915975Y-84068120D01*
X173906266Y-84040001D01*
X173895344Y-84012558D01*
X173883208Y-83985791D01*
X173862729Y-83946906D01*
X173847559Y-83921827D01*
X173831176Y-83897424D01*
X173813579Y-83873696D01*
X173794769Y-83850644D01*
X173774865Y-83828817D01*
X173743871Y-83798716D01*
X173711512Y-83771784D01*
X173677788Y-83748020D01*
X173642699Y-83727425D01*
X173606244Y-83709999D01*
X173568424Y-83695741D01*
X173529239Y-83684651D01*
X173488688Y-83676730D01*
X173446773Y-83671977D01*
X173403492Y-83670393D01*
X173388103Y-83670567D01*
X173357866Y-83671958D01*
X173328351Y-83674740D01*
X173285431Y-83681521D01*
X173244133Y-83691432D01*
X173204458Y-83704473D01*
X173166407Y-83720644D01*
X173129978Y-83739945D01*
X173095172Y-83762375D01*
X173061989Y-83787936D01*
X173030428Y-83816626D01*
X173000491Y-83848446D01*
X172981769Y-83871547D01*
X172964255Y-83895421D01*
X172947949Y-83920067D01*
X172932851Y-83945487D01*
X172918961Y-83971679D01*
X172906278Y-83998644D01*
X172894803Y-84026381D01*
X172884537Y-84054892D01*
X172875478Y-84084175D01*
X172867627Y-84114232D01*
X172860983Y-84145061D01*
X172855548Y-84176662D01*
X172851321Y-84209037D01*
X172848301Y-84242184D01*
X172846489Y-84276105D01*
X172845885Y-84310797D01*
X172402584Y-84310797D01*
X172402584Y-81847364D01*
X172874462Y-81847364D01*
X172874462Y-83541433D01*
G37*
G36*
X170991226Y-83255334D02*
G01*
X171043980Y-83258725D01*
X171095388Y-83264378D01*
X171145451Y-83272292D01*
X171194169Y-83282467D01*
X171241542Y-83294904D01*
X171287569Y-83309601D01*
X171332251Y-83326560D01*
X171375588Y-83345780D01*
X171417580Y-83367261D01*
X171458226Y-83391003D01*
X171497527Y-83417006D01*
X171535483Y-83445270D01*
X171572094Y-83475796D01*
X171607359Y-83508583D01*
X171641279Y-83543631D01*
X171657463Y-83562126D01*
X171688289Y-83600176D01*
X171717060Y-83639640D01*
X171743776Y-83680519D01*
X171768437Y-83722811D01*
X171791043Y-83766517D01*
X171811594Y-83811637D01*
X171830089Y-83858171D01*
X171846530Y-83906119D01*
X171860916Y-83955481D01*
X171873246Y-84006256D01*
X171883521Y-84058446D01*
X171891742Y-84112050D01*
X171897907Y-84167067D01*
X171902017Y-84223499D01*
X171904072Y-84281345D01*
X171904329Y-84310797D01*
X171903267Y-84369691D01*
X171900081Y-84427118D01*
X171894772Y-84483080D01*
X171887339Y-84537577D01*
X171877782Y-84590608D01*
X171866101Y-84642174D01*
X171852297Y-84692274D01*
X171836368Y-84740909D01*
X171818316Y-84788079D01*
X171798141Y-84833782D01*
X171775841Y-84878021D01*
X171751418Y-84920794D01*
X171724871Y-84962102D01*
X171696200Y-85001944D01*
X171665405Y-85040320D01*
X171632487Y-85077232D01*
X171597725Y-85112013D01*
X171561584Y-85144551D01*
X171524063Y-85174845D01*
X171485162Y-85202894D01*
X171444882Y-85228700D01*
X171403223Y-85252262D01*
X171360184Y-85273580D01*
X171315765Y-85292654D01*
X171269966Y-85309484D01*
X171222788Y-85324069D01*
X171174231Y-85336411D01*
X171124294Y-85346509D01*
X171072977Y-85354363D01*
X171020281Y-85359973D01*
X170966205Y-85363339D01*
X170910749Y-85364461D01*
X170872086Y-85363946D01*
X170834133Y-85362400D01*
X170796890Y-85359824D01*
X170760357Y-85356218D01*
X170724533Y-85351581D01*
X170689419Y-85345914D01*
X170655015Y-85339216D01*
X170621321Y-85331488D01*
X170588085Y-85322661D01*
X170555422Y-85312666D01*
X170523330Y-85301504D01*
X170491812Y-85289173D01*
X170460865Y-85275675D01*
X170430491Y-85261009D01*
X170400690Y-85245175D01*
X170371461Y-85228174D01*
X170342759Y-85209810D01*
X170314537Y-85190255D01*
X170286796Y-85169510D01*
X170259537Y-85147573D01*
X170232758Y-85124447D01*
X170206460Y-85100129D01*
X170180642Y-85074621D01*
X170155306Y-85047922D01*
X170130187Y-85019758D01*
X170105389Y-84990220D01*
X170087001Y-84967165D01*
X170068792Y-84943337D01*
X170050765Y-84918736D01*
X170032917Y-84893362D01*
X170015250Y-84867216D01*
X169997764Y-84840297D01*
X169980457Y-84812605D01*
X169963331Y-84784140D01*
X170354608Y-84572382D01*
X170372257Y-84598783D01*
X170389665Y-84624131D01*
X170406832Y-84648425D01*
X170432133Y-84682892D01*
X170456892Y-84714989D01*
X170481111Y-84744716D01*
X170504789Y-84772073D01*
X170527926Y-84797060D01*
X170550521Y-84819677D01*
X170579808Y-84846147D01*
X170608132Y-84868404D01*
X170629824Y-84882677D01*
X170660410Y-84899524D01*
X170692896Y-84913875D01*
X170727283Y-84925731D01*
X170763570Y-84935090D01*
X170801758Y-84941954D01*
X170831646Y-84945463D01*
X170862603Y-84947569D01*
X170894629Y-84948271D01*
X170922069Y-84947725D01*
X170962059Y-84944855D01*
X171000646Y-84939524D01*
X171037828Y-84931734D01*
X171073607Y-84921484D01*
X171107981Y-84908773D01*
X171140952Y-84893603D01*
X171172519Y-84875972D01*
X171202681Y-84855882D01*
X171231440Y-84833331D01*
X171258795Y-84808320D01*
X171284366Y-84780935D01*
X171307773Y-84751811D01*
X171329017Y-84720949D01*
X171348096Y-84688347D01*
X171365012Y-84654007D01*
X171379764Y-84617928D01*
X171392352Y-84580110D01*
X171402776Y-84540554D01*
X171411037Y-84499258D01*
X171417133Y-84456224D01*
X171419995Y-84426569D01*
X169981649Y-84426569D01*
X169981649Y-84317392D01*
X169981898Y-84286419D01*
X169982645Y-84255871D01*
X169983890Y-84225751D01*
X169985634Y-84196057D01*
X169990614Y-84137948D01*
X169997586Y-84081545D01*
X170002525Y-84051412D01*
X170457923Y-84051412D01*
X171389221Y-84051412D01*
X171386301Y-84040403D01*
X171376581Y-84008272D01*
X171365419Y-83977480D01*
X171352813Y-83948028D01*
X171338766Y-83919915D01*
X171323275Y-83893142D01*
X171320512Y-83888767D01*
X171303270Y-83863384D01*
X171284894Y-83839496D01*
X171265385Y-83817102D01*
X171244743Y-83796202D01*
X171219228Y-83773707D01*
X171199901Y-83758709D01*
X171171761Y-83739636D01*
X171142359Y-83722806D01*
X171111694Y-83708220D01*
X171084406Y-83697504D01*
X171075112Y-83694221D01*
X171046716Y-83685643D01*
X171017547Y-83678971D01*
X170987605Y-83674205D01*
X170956891Y-83671346D01*
X170925404Y-83670393D01*
X170880129Y-83671881D01*
X170836995Y-83676346D01*
X170796003Y-83683788D01*
X170757151Y-83694206D01*
X170720440Y-83707602D01*
X170685870Y-83723974D01*
X170653441Y-83743322D01*
X170623153Y-83765647D01*
X170595006Y-83790949D01*
X170569000Y-83819228D01*
X170545135Y-83850484D01*
X170523410Y-83884716D01*
X170503827Y-83921925D01*
X170486385Y-83962110D01*
X170471083Y-84005273D01*
X170457923Y-84051412D01*
X170002525Y-84051412D01*
X170006551Y-84026848D01*
X170017507Y-83973857D01*
X170030456Y-83922572D01*
X170045397Y-83872992D01*
X170062330Y-83825119D01*
X170081255Y-83778951D01*
X170102172Y-83734489D01*
X170125081Y-83691733D01*
X170149982Y-83650683D01*
X170176876Y-83611339D01*
X170205761Y-83573701D01*
X170236639Y-83537769D01*
X170269600Y-83503431D01*
X170304004Y-83471308D01*
X170339851Y-83441401D01*
X170377140Y-83413709D01*
X170415871Y-83388232D01*
X170456045Y-83364971D01*
X170497662Y-83343925D01*
X170540721Y-83325094D01*
X170585223Y-83308479D01*
X170631167Y-83294079D01*
X170678554Y-83281895D01*
X170727384Y-83271926D01*
X170777656Y-83264172D01*
X170829370Y-83258634D01*
X170882528Y-83255311D01*
X170937127Y-83254203D01*
X170991226Y-83255334D01*
G37*
G36*
X169489256Y-83301098D02*
G01*
X169017379Y-83301098D01*
X169017379Y-83493072D01*
X168993731Y-83468278D01*
X168970598Y-83445004D01*
X168947981Y-83423250D01*
X168925879Y-83403016D01*
X168897211Y-83378400D01*
X168869459Y-83356487D01*
X168842623Y-83337276D01*
X168816703Y-83320767D01*
X168791698Y-83306959D01*
X168759416Y-83291761D01*
X168725309Y-83279139D01*
X168696710Y-83270895D01*
X168666943Y-83264301D01*
X168636008Y-83259355D01*
X168603905Y-83256058D01*
X168570635Y-83254409D01*
X168553561Y-83254203D01*
X168519210Y-83255214D01*
X168484576Y-83258247D01*
X168449658Y-83263303D01*
X168414457Y-83270380D01*
X168378973Y-83279480D01*
X168343205Y-83290602D01*
X168307154Y-83303746D01*
X168270820Y-83318912D01*
X168234202Y-83336100D01*
X168197301Y-83355311D01*
X168172543Y-83369241D01*
X168383568Y-83816938D01*
X168408109Y-83800177D01*
X168440670Y-83780394D01*
X168473047Y-83763541D01*
X168505241Y-83749619D01*
X168537252Y-83738628D01*
X168569080Y-83730568D01*
X168600725Y-83725439D01*
X168632187Y-83723241D01*
X168640023Y-83723149D01*
X168685719Y-83725362D01*
X168728466Y-83731999D01*
X168768265Y-83743062D01*
X168805116Y-83758549D01*
X168839019Y-83778462D01*
X168869974Y-83802799D01*
X168897981Y-83831562D01*
X168923040Y-83864749D01*
X168945150Y-83902361D01*
X168964313Y-83944399D01*
X168980527Y-83990861D01*
X168993794Y-84041749D01*
X169004112Y-84097061D01*
X169008166Y-84126377D01*
X169011482Y-84156799D01*
X169014062Y-84188327D01*
X169015905Y-84220961D01*
X169017010Y-84254702D01*
X169017379Y-84289548D01*
X169017379Y-85317567D01*
X169489256Y-85317567D01*
X169489256Y-83301098D01*
G37*
G36*
X166057155Y-83400749D02*
G01*
X164824706Y-82128732D01*
X164187232Y-82128732D01*
X165618251Y-83572207D01*
X164178439Y-85317567D01*
X164818844Y-85317567D01*
X165958970Y-83899004D01*
X166057155Y-83997922D01*
X166057155Y-85317567D01*
X166529032Y-85317567D01*
X166529032Y-82128732D01*
X166057155Y-82128732D01*
X166057155Y-83400749D01*
G37*
G36*
X163151031Y-83255334D02*
G01*
X163203784Y-83258725D01*
X163255193Y-83264378D01*
X163305256Y-83272292D01*
X163353974Y-83282467D01*
X163401346Y-83294904D01*
X163447374Y-83309601D01*
X163492056Y-83326560D01*
X163535393Y-83345780D01*
X163577384Y-83367261D01*
X163618031Y-83391003D01*
X163657332Y-83417006D01*
X163695288Y-83445270D01*
X163731898Y-83475796D01*
X163767164Y-83508583D01*
X163801084Y-83543631D01*
X163817268Y-83562126D01*
X163848094Y-83600176D01*
X163876865Y-83639640D01*
X163903581Y-83680519D01*
X163928242Y-83722811D01*
X163950848Y-83766517D01*
X163971398Y-83811637D01*
X163989894Y-83858171D01*
X164006335Y-83906119D01*
X164020720Y-83955481D01*
X164033051Y-84006256D01*
X164043326Y-84058446D01*
X164051546Y-84112050D01*
X164057712Y-84167067D01*
X164061822Y-84223499D01*
X164063877Y-84281345D01*
X164064134Y-84310797D01*
X164063072Y-84369691D01*
X164059886Y-84427118D01*
X164054577Y-84483080D01*
X164047143Y-84537577D01*
X164037587Y-84590608D01*
X164025906Y-84642174D01*
X164012101Y-84692274D01*
X163996173Y-84740909D01*
X163978121Y-84788079D01*
X163957945Y-84833782D01*
X163935646Y-84878021D01*
X163911222Y-84920794D01*
X163884675Y-84962102D01*
X163856004Y-85001944D01*
X163825210Y-85040320D01*
X163792291Y-85077232D01*
X163757530Y-85112013D01*
X163721388Y-85144551D01*
X163683868Y-85174845D01*
X163644967Y-85202894D01*
X163604687Y-85228700D01*
X163563027Y-85252262D01*
X163519988Y-85273580D01*
X163475569Y-85292654D01*
X163429771Y-85309484D01*
X163382593Y-85324069D01*
X163334035Y-85336411D01*
X163284098Y-85346509D01*
X163232782Y-85354363D01*
X163180085Y-85359973D01*
X163126009Y-85363339D01*
X163070554Y-85364461D01*
X163031891Y-85363946D01*
X162993938Y-85362400D01*
X162956695Y-85359824D01*
X162920161Y-85356218D01*
X162884338Y-85351581D01*
X162849224Y-85345914D01*
X162814820Y-85339216D01*
X162781126Y-85331488D01*
X162747890Y-85322661D01*
X162715226Y-85312666D01*
X162683135Y-85301504D01*
X162651616Y-85289173D01*
X162620670Y-85275675D01*
X162590296Y-85261009D01*
X162560495Y-85245175D01*
X162531266Y-85228174D01*
X162502563Y-85209810D01*
X162474342Y-85190255D01*
X162446601Y-85169510D01*
X162419341Y-85147573D01*
X162392562Y-85124447D01*
X162366264Y-85100129D01*
X162340447Y-85074621D01*
X162315111Y-85047922D01*
X162289992Y-85019758D01*
X162265193Y-84990220D01*
X162246805Y-84967165D01*
X162228597Y-84943337D01*
X162210569Y-84918736D01*
X162192722Y-84893362D01*
X162175055Y-84867216D01*
X162157568Y-84840297D01*
X162140262Y-84812605D01*
X162123136Y-84784140D01*
X162514413Y-84572382D01*
X162532061Y-84598783D01*
X162549469Y-84624131D01*
X162566637Y-84648425D01*
X162591937Y-84682892D01*
X162616697Y-84714989D01*
X162640916Y-84744716D01*
X162664593Y-84772073D01*
X162687730Y-84797060D01*
X162710326Y-84819677D01*
X162739612Y-84846147D01*
X162767937Y-84868404D01*
X162789629Y-84882677D01*
X162820215Y-84899524D01*
X162852701Y-84913875D01*
X162887087Y-84925731D01*
X162923375Y-84935090D01*
X162961562Y-84941954D01*
X162991451Y-84945463D01*
X163022408Y-84947569D01*
X163054434Y-84948271D01*
X163081874Y-84947725D01*
X163121864Y-84944855D01*
X163160450Y-84939524D01*
X163197633Y-84931734D01*
X163233411Y-84921484D01*
X163267786Y-84908773D01*
X163300756Y-84893603D01*
X163332323Y-84875972D01*
X163362486Y-84855882D01*
X163391245Y-84833331D01*
X163418600Y-84808320D01*
X163444171Y-84780935D01*
X163467578Y-84751811D01*
X163488821Y-84720949D01*
X163507901Y-84688347D01*
X163524817Y-84654007D01*
X163539569Y-84617928D01*
X163552157Y-84580110D01*
X163562581Y-84540554D01*
X163570841Y-84499258D01*
X163576938Y-84456224D01*
X163579800Y-84426569D01*
X162141454Y-84426569D01*
X162141454Y-84317392D01*
X162141703Y-84286419D01*
X162142450Y-84255871D01*
X162143695Y-84225751D01*
X162145438Y-84196057D01*
X162150418Y-84137948D01*
X162157391Y-84081545D01*
X162162329Y-84051412D01*
X162617727Y-84051412D01*
X163549025Y-84051412D01*
X163546106Y-84040403D01*
X163536386Y-84008272D01*
X163525223Y-83977480D01*
X163512618Y-83948028D01*
X163498570Y-83919915D01*
X163483080Y-83893142D01*
X163480316Y-83888767D01*
X163463074Y-83863384D01*
X163444699Y-83839496D01*
X163425190Y-83817102D01*
X163404548Y-83796202D01*
X163379032Y-83773707D01*
X163359705Y-83758709D01*
X163331565Y-83739636D01*
X163302163Y-83722806D01*
X163271499Y-83708220D01*
X163244210Y-83697504D01*
X163234917Y-83694221D01*
X163206521Y-83685643D01*
X163177352Y-83678971D01*
X163147410Y-83674205D01*
X163116696Y-83671346D01*
X163085208Y-83670393D01*
X163039934Y-83671881D01*
X162996800Y-83676346D01*
X162955807Y-83683788D01*
X162916955Y-83694206D01*
X162880245Y-83707602D01*
X162845675Y-83723974D01*
X162813246Y-83743322D01*
X162782958Y-83765647D01*
X162754811Y-83790949D01*
X162728805Y-83819228D01*
X162704939Y-83850484D01*
X162683215Y-83884716D01*
X162663632Y-83921925D01*
X162646189Y-83962110D01*
X162630888Y-84005273D01*
X162617727Y-84051412D01*
X162162329Y-84051412D01*
X162166355Y-84026848D01*
X162177312Y-83973857D01*
X162190261Y-83922572D01*
X162205201Y-83872992D01*
X162222134Y-83825119D01*
X162241059Y-83778951D01*
X162261976Y-83734489D01*
X162284886Y-83691733D01*
X162309787Y-83650683D01*
X162336680Y-83611339D01*
X162365566Y-83573701D01*
X162396443Y-83537769D01*
X162429405Y-83503431D01*
X162463809Y-83471308D01*
X162499655Y-83441401D01*
X162536944Y-83413709D01*
X162575676Y-83388232D01*
X162615850Y-83364971D01*
X162657467Y-83343925D01*
X162700526Y-83325094D01*
X162745028Y-83308479D01*
X162790972Y-83294079D01*
X162838359Y-83281895D01*
X162887188Y-83271926D01*
X162937460Y-83264172D01*
X162989175Y-83258634D01*
X163042332Y-83255311D01*
X163096932Y-83254203D01*
X163151031Y-83255334D01*
G37*
G36*
X161079730Y-84932884D02*
G01*
X161978055Y-83301098D01*
X161443164Y-83301098D01*
X160832068Y-84453680D01*
X160262005Y-83301098D01*
X159741035Y-83301098D01*
X161332522Y-86396143D01*
X161859353Y-86396143D01*
X161079730Y-84932884D01*
G37*
G36*
X159439151Y-85317567D02*
G01*
X158967274Y-85317567D01*
X158967274Y-85099946D01*
X158933374Y-85131977D01*
X158898901Y-85161942D01*
X158863856Y-85189840D01*
X158828239Y-85215671D01*
X158792049Y-85239436D01*
X158755286Y-85261135D01*
X158717952Y-85280767D01*
X158680044Y-85298332D01*
X158641565Y-85313831D01*
X158602512Y-85327264D01*
X158562888Y-85338630D01*
X158522691Y-85347929D01*
X158481921Y-85355162D01*
X158440579Y-85360328D01*
X158398665Y-85363428D01*
X158356178Y-85364461D01*
X158306164Y-85363290D01*
X158257237Y-85359779D01*
X158209398Y-85353925D01*
X158162646Y-85345731D01*
X158116982Y-85335195D01*
X158072406Y-85322318D01*
X158028918Y-85307099D01*
X157986517Y-85289540D01*
X157945203Y-85269639D01*
X157904978Y-85247396D01*
X157865840Y-85222813D01*
X157827789Y-85195888D01*
X157790827Y-85166622D01*
X157754952Y-85135014D01*
X157720164Y-85101065D01*
X157686464Y-85064775D01*
X157654167Y-85026507D01*
X157623953Y-84986991D01*
X157595824Y-84946228D01*
X157569777Y-84904216D01*
X157545815Y-84860956D01*
X157523936Y-84816449D01*
X157504141Y-84770693D01*
X157486429Y-84723690D01*
X157470802Y-84675439D01*
X157457258Y-84625939D01*
X157445797Y-84575192D01*
X157436421Y-84523197D01*
X157429128Y-84469954D01*
X157423919Y-84415463D01*
X157420793Y-84359724D01*
X157420086Y-84321056D01*
X157891628Y-84321056D01*
X157892244Y-84354412D01*
X157894090Y-84387070D01*
X157897167Y-84419030D01*
X157901474Y-84450291D01*
X157907013Y-84480853D01*
X157913782Y-84510718D01*
X157921782Y-84539884D01*
X157931013Y-84568352D01*
X157941474Y-84596121D01*
X157953166Y-84623192D01*
X157966089Y-84649564D01*
X157980243Y-84675238D01*
X157995627Y-84700214D01*
X158012242Y-84724491D01*
X158030088Y-84748070D01*
X158049165Y-84770951D01*
X158068806Y-84792423D01*
X158099447Y-84822034D01*
X158131505Y-84848529D01*
X158164980Y-84871906D01*
X158199872Y-84892166D01*
X158236181Y-84909309D01*
X158273907Y-84923336D01*
X158313049Y-84934245D01*
X158353608Y-84942037D01*
X158395584Y-84946713D01*
X158438977Y-84948271D01*
X158454453Y-84948098D01*
X158484844Y-84946713D01*
X158514486Y-84943942D01*
X158557541Y-84937189D01*
X158598910Y-84927318D01*
X158638591Y-84914331D01*
X158676585Y-84898227D01*
X158712891Y-84879006D01*
X158747510Y-84856667D01*
X158780442Y-84831212D01*
X158811687Y-84802640D01*
X158841245Y-84770951D01*
X158850621Y-84759983D01*
X158876965Y-84725705D01*
X158900630Y-84689366D01*
X158921616Y-84650967D01*
X158934118Y-84624222D01*
X158945429Y-84596562D01*
X158955550Y-84567985D01*
X158964480Y-84538493D01*
X158972220Y-84508085D01*
X158978769Y-84476760D01*
X158984127Y-84444520D01*
X158988294Y-84411364D01*
X158991271Y-84377293D01*
X158993057Y-84342305D01*
X158993652Y-84306401D01*
X158993501Y-84288874D01*
X158992293Y-84254441D01*
X158989878Y-84220839D01*
X158986254Y-84188066D01*
X158981423Y-84156124D01*
X158975383Y-84125011D01*
X158968136Y-84094729D01*
X158959681Y-84065277D01*
X158950018Y-84036655D01*
X158939148Y-84008863D01*
X158927069Y-83981900D01*
X158913783Y-83955768D01*
X158891588Y-83918127D01*
X158866676Y-83882352D01*
X158839046Y-83848446D01*
X158818997Y-83826885D01*
X158787580Y-83797151D01*
X158754554Y-83770548D01*
X158719917Y-83747074D01*
X158683671Y-83726730D01*
X158645814Y-83709516D01*
X158606348Y-83695431D01*
X158565271Y-83684477D01*
X158522585Y-83676652D01*
X158493233Y-83673175D01*
X158463165Y-83671088D01*
X158432382Y-83670393D01*
X158389507Y-83672016D01*
X158347984Y-83676884D01*
X158307813Y-83684999D01*
X158268995Y-83696359D01*
X158231529Y-83710965D01*
X158195416Y-83728816D01*
X158160655Y-83749914D01*
X158127246Y-83774257D01*
X158095190Y-83801846D01*
X158064486Y-83832681D01*
X158044769Y-83855040D01*
X158026224Y-83877898D01*
X158008876Y-83901591D01*
X157992725Y-83926121D01*
X157977770Y-83951486D01*
X157964011Y-83977686D01*
X157951449Y-84004723D01*
X157940083Y-84032595D01*
X157929913Y-84061303D01*
X157920940Y-84090847D01*
X157913164Y-84121227D01*
X157906583Y-84152442D01*
X157901200Y-84184493D01*
X157897012Y-84217380D01*
X157894021Y-84251103D01*
X157892227Y-84285661D01*
X157891628Y-84321056D01*
X157420086Y-84321056D01*
X157419751Y-84302737D01*
X157420784Y-84247442D01*
X157423884Y-84193298D01*
X157429051Y-84140304D01*
X157436283Y-84088460D01*
X157445583Y-84037767D01*
X157456949Y-83988225D01*
X157470381Y-83939834D01*
X157485880Y-83892593D01*
X157503445Y-83846502D01*
X157523077Y-83801563D01*
X157544776Y-83757773D01*
X157568541Y-83715135D01*
X157594372Y-83673647D01*
X157622270Y-83633310D01*
X157652235Y-83594123D01*
X157684266Y-83556087D01*
X157717943Y-83519531D01*
X157752662Y-83485333D01*
X157788422Y-83453494D01*
X157825225Y-83424013D01*
X157863069Y-83396890D01*
X157901955Y-83372126D01*
X157941883Y-83349721D01*
X157982853Y-83329674D01*
X158024865Y-83311985D01*
X158067918Y-83296655D01*
X158112014Y-83283684D01*
X158157151Y-83273071D01*
X158203330Y-83264816D01*
X158250551Y-83258920D01*
X158298814Y-83255382D01*
X158348118Y-83254203D01*
X158391066Y-83255325D01*
X158433447Y-83258691D01*
X158475261Y-83264301D01*
X158516508Y-83272155D01*
X158557189Y-83282253D01*
X158597303Y-83294595D01*
X158636851Y-83309180D01*
X158675831Y-83326010D01*
X158714245Y-83345084D01*
X158752092Y-83366402D01*
X158789373Y-83389964D01*
X158826086Y-83415770D01*
X158862233Y-83443819D01*
X158897814Y-83474113D01*
X158932827Y-83506651D01*
X158967274Y-83541433D01*
X158967274Y-81847364D01*
X159439151Y-81847364D01*
X159439151Y-85317567D01*
G37*
G36*
X156014770Y-83255391D02*
G01*
X156068336Y-83258954D01*
X156120855Y-83264893D01*
X156172327Y-83273208D01*
X156222750Y-83283898D01*
X156272127Y-83296965D01*
X156320455Y-83312406D01*
X156367736Y-83330224D01*
X156413970Y-83350416D01*
X156459156Y-83372985D01*
X156503294Y-83397929D01*
X156546385Y-83425249D01*
X156588428Y-83454945D01*
X156629423Y-83487016D01*
X156669371Y-83521463D01*
X156708272Y-83558285D01*
X156745449Y-83596708D01*
X156780228Y-83636138D01*
X156812608Y-83676575D01*
X156842590Y-83718020D01*
X156870173Y-83760473D01*
X156895358Y-83803933D01*
X156918144Y-83848400D01*
X156938532Y-83893875D01*
X156956521Y-83940357D01*
X156972111Y-83987847D01*
X156985303Y-84036345D01*
X156996097Y-84085850D01*
X157004492Y-84136362D01*
X157010488Y-84187882D01*
X157014086Y-84240410D01*
X157015285Y-84293945D01*
X157014109Y-84350763D01*
X157010580Y-84406361D01*
X157004698Y-84460741D01*
X156996463Y-84513901D01*
X156985876Y-84565841D01*
X156972936Y-84616563D01*
X156957643Y-84666065D01*
X156939997Y-84714348D01*
X156919999Y-84761411D01*
X156897648Y-84807255D01*
X156872944Y-84851880D01*
X156845887Y-84895286D01*
X156816478Y-84937472D01*
X156784716Y-84978439D01*
X156750601Y-85018187D01*
X156714134Y-85056715D01*
X156676015Y-85093981D01*
X156636762Y-85128843D01*
X156596376Y-85161301D01*
X156554857Y-85191354D01*
X156512204Y-85219003D01*
X156468418Y-85244248D01*
X156423498Y-85267088D01*
X156377445Y-85287525D01*
X156330258Y-85305557D01*
X156281938Y-85321184D01*
X156232485Y-85334408D01*
X156181898Y-85345227D01*
X156130178Y-85353642D01*
X156077324Y-85359653D01*
X156023337Y-85363259D01*
X155968216Y-85364461D01*
X155912531Y-85363282D01*
X155857952Y-85359744D01*
X155804477Y-85353848D01*
X155752107Y-85345593D01*
X155700842Y-85334980D01*
X155650681Y-85322009D01*
X155601626Y-85306679D01*
X155553675Y-85288990D01*
X155506829Y-85268943D01*
X155461088Y-85246538D01*
X155416451Y-85221774D01*
X155372920Y-85194651D01*
X155330493Y-85165170D01*
X155289171Y-85133331D01*
X155248954Y-85099133D01*
X155209842Y-85062577D01*
X155172576Y-85024092D01*
X155137714Y-84984473D01*
X155105256Y-84943720D01*
X155075203Y-84901835D01*
X155047554Y-84858815D01*
X155022309Y-84814663D01*
X154999469Y-84769377D01*
X154979032Y-84722957D01*
X154961000Y-84675404D01*
X154945373Y-84626718D01*
X154932149Y-84576898D01*
X154921330Y-84525945D01*
X154912915Y-84473858D01*
X154906904Y-84420638D01*
X154903298Y-84366284D01*
X154902096Y-84310797D01*
X155373973Y-84310797D01*
X155374129Y-84328819D01*
X155375377Y-84364179D01*
X155377873Y-84398628D01*
X155381617Y-84432168D01*
X155386608Y-84464797D01*
X155392848Y-84496516D01*
X155400336Y-84527325D01*
X155409071Y-84557224D01*
X155419055Y-84586213D01*
X155430286Y-84614291D01*
X155442765Y-84641459D01*
X155456492Y-84667717D01*
X155471468Y-84693065D01*
X155496270Y-84729380D01*
X155514365Y-84752452D01*
X155533708Y-84774615D01*
X155554004Y-84795643D01*
X155586026Y-84824643D01*
X155619941Y-84850589D01*
X155655749Y-84873484D01*
X155693451Y-84893325D01*
X155733047Y-84910114D01*
X155774535Y-84923851D01*
X155803246Y-84931313D01*
X155832799Y-84937418D01*
X155863192Y-84942166D01*
X155894428Y-84945558D01*
X155926505Y-84947593D01*
X155959423Y-84948271D01*
X155992084Y-84947584D01*
X156023938Y-84945524D01*
X156054984Y-84942089D01*
X156085224Y-84937280D01*
X156114656Y-84931098D01*
X156143281Y-84923542D01*
X156184705Y-84909631D01*
X156224313Y-84892630D01*
X156262105Y-84872537D01*
X156298081Y-84849353D01*
X156332241Y-84823078D01*
X156364585Y-84793711D01*
X156385138Y-84772416D01*
X156394876Y-84761441D01*
X156422233Y-84727056D01*
X156438925Y-84702916D01*
X156454381Y-84677803D01*
X156468601Y-84651717D01*
X156481584Y-84624657D01*
X156493330Y-84596625D01*
X156503841Y-84567619D01*
X156513114Y-84537640D01*
X156521151Y-84506688D01*
X156527952Y-84474763D01*
X156533516Y-84441864D01*
X156537844Y-84407993D01*
X156540935Y-84373148D01*
X156542790Y-84337330D01*
X156543408Y-84300539D01*
X156542778Y-84266135D01*
X156540889Y-84232533D01*
X156537741Y-84199732D01*
X156533333Y-84167732D01*
X156527666Y-84136534D01*
X156520739Y-84106137D01*
X156512553Y-84076542D01*
X156503108Y-84047748D01*
X156492403Y-84019755D01*
X156480439Y-83992564D01*
X156467216Y-83966175D01*
X156452733Y-83940586D01*
X156436990Y-83915800D01*
X156419989Y-83891814D01*
X156401728Y-83868630D01*
X156382208Y-83846248D01*
X156361580Y-83824953D01*
X156329189Y-83795586D01*
X156295059Y-83769311D01*
X156259190Y-83746127D01*
X156221583Y-83726034D01*
X156182236Y-83709033D01*
X156141151Y-83695122D01*
X156112795Y-83687566D01*
X156083666Y-83681384D01*
X156053765Y-83676575D01*
X156023090Y-83673140D01*
X155991643Y-83671080D01*
X155959423Y-83670393D01*
X155926762Y-83671080D01*
X155894909Y-83673140D01*
X155863862Y-83676575D01*
X155833623Y-83681384D01*
X155804191Y-83687566D01*
X155775566Y-83695122D01*
X155734141Y-83709033D01*
X155694533Y-83726034D01*
X155656741Y-83746127D01*
X155620765Y-83769311D01*
X155586605Y-83795586D01*
X155554262Y-83824953D01*
X155533708Y-83846248D01*
X155514365Y-83868413D01*
X155496270Y-83891494D01*
X155479423Y-83915490D01*
X155463824Y-83940403D01*
X155449473Y-83966232D01*
X155436370Y-83992976D01*
X155424514Y-84020637D01*
X155413907Y-84049213D01*
X155404547Y-84078706D01*
X155396436Y-84109114D01*
X155389572Y-84140438D01*
X155383957Y-84172678D01*
X155379589Y-84205834D01*
X155376469Y-84239906D01*
X155374597Y-84274894D01*
X155373973Y-84310797D01*
X154902096Y-84310797D01*
X154903289Y-84255743D01*
X154906870Y-84201770D01*
X154912838Y-84148879D01*
X154921193Y-84097070D01*
X154931935Y-84046343D01*
X154945064Y-83996697D01*
X154960580Y-83948134D01*
X154978483Y-83900653D01*
X154998773Y-83854253D01*
X155021451Y-83808936D01*
X155046515Y-83764700D01*
X155073967Y-83721546D01*
X155103805Y-83679475D01*
X155136031Y-83638485D01*
X155170644Y-83598577D01*
X155207644Y-83559751D01*
X155246819Y-83522751D01*
X155287042Y-83488138D01*
X155328312Y-83455912D01*
X155370630Y-83426074D01*
X155413996Y-83398622D01*
X155458409Y-83373558D01*
X155503869Y-83350880D01*
X155550378Y-83330590D01*
X155597933Y-83312687D01*
X155646537Y-83297171D01*
X155696188Y-83284042D01*
X155746886Y-83273300D01*
X155798632Y-83264945D01*
X155851426Y-83258977D01*
X155905267Y-83255396D01*
X155960156Y-83254203D01*
X156014770Y-83255391D01*
G37*
G36*
X153601529Y-83255374D02*
G01*
X153650332Y-83258886D01*
X153698088Y-83264739D01*
X153744797Y-83272933D01*
X153790458Y-83283469D01*
X153835071Y-83296346D01*
X153878637Y-83311565D01*
X153921156Y-83329124D01*
X153962626Y-83349025D01*
X154003049Y-83371268D01*
X154042425Y-83395851D01*
X154080753Y-83422776D01*
X154118033Y-83452042D01*
X154154266Y-83483650D01*
X154189452Y-83517599D01*
X154223589Y-83553889D01*
X154256064Y-83591934D01*
X154286444Y-83631146D01*
X154314728Y-83671526D01*
X154340917Y-83713074D01*
X154365012Y-83755790D01*
X154387011Y-83799674D01*
X154406915Y-83844725D01*
X154424723Y-83890944D01*
X154440437Y-83938331D01*
X154454055Y-83986886D01*
X154465579Y-84036608D01*
X154475007Y-84087498D01*
X154482340Y-84139557D01*
X154487578Y-84192782D01*
X154490720Y-84247176D01*
X154491768Y-84302737D01*
X154490720Y-84359209D01*
X154487578Y-84414501D01*
X154482340Y-84468615D01*
X154475007Y-84521549D01*
X154465579Y-84573303D01*
X154454055Y-84623879D01*
X154440437Y-84673275D01*
X154424723Y-84721492D01*
X154406915Y-84768530D01*
X154387011Y-84814388D01*
X154365012Y-84859067D01*
X154340917Y-84902567D01*
X154314728Y-84944888D01*
X154286444Y-84986030D01*
X154256064Y-85025992D01*
X154223589Y-85064775D01*
X154189145Y-85101065D01*
X154153591Y-85135014D01*
X154116926Y-85166622D01*
X154079150Y-85195888D01*
X154040264Y-85222813D01*
X154000267Y-85247396D01*
X153959160Y-85269639D01*
X153916942Y-85289540D01*
X153873614Y-85307099D01*
X153829175Y-85322318D01*
X153783626Y-85335195D01*
X153736966Y-85345731D01*
X153689195Y-85353925D01*
X153640314Y-85359779D01*
X153590323Y-85363290D01*
X153539221Y-85364461D01*
X153498357Y-85363428D01*
X153457831Y-85360328D01*
X153417642Y-85355162D01*
X153377792Y-85347929D01*
X153338279Y-85338630D01*
X153299103Y-85327264D01*
X153260266Y-85313831D01*
X153221766Y-85298332D01*
X153183604Y-85280767D01*
X153145780Y-85261135D01*
X153108293Y-85239436D01*
X153071145Y-85215671D01*
X153034334Y-85189840D01*
X152997860Y-85161942D01*
X152961725Y-85131977D01*
X152925927Y-85099946D01*
X152925927Y-85317567D01*
X152475299Y-85317567D01*
X152475299Y-84310797D01*
X152897351Y-84310797D01*
X152897966Y-84345402D01*
X152899812Y-84379239D01*
X152902889Y-84412309D01*
X152907197Y-84444612D01*
X152912735Y-84476148D01*
X152919504Y-84506917D01*
X152927504Y-84536919D01*
X152936735Y-84566153D01*
X152947196Y-84594621D01*
X152958888Y-84622322D01*
X152971811Y-84649255D01*
X152985965Y-84675422D01*
X153001349Y-84700821D01*
X153017965Y-84725453D01*
X153035811Y-84749318D01*
X153054887Y-84772416D01*
X153085295Y-84803844D01*
X153117441Y-84832180D01*
X153151326Y-84857424D01*
X153186950Y-84879578D01*
X153224313Y-84898640D01*
X153263414Y-84914612D01*
X153304255Y-84927492D01*
X153346834Y-84937280D01*
X153376186Y-84942089D01*
X153406311Y-84945524D01*
X153437208Y-84947584D01*
X153468879Y-84948271D01*
X153483774Y-84948094D01*
X153513083Y-84946674D01*
X153555845Y-84941883D01*
X153597164Y-84933897D01*
X153637040Y-84922717D01*
X153675474Y-84908343D01*
X153712465Y-84890775D01*
X153748014Y-84870012D01*
X153782120Y-84846056D01*
X153814784Y-84818905D01*
X153846005Y-84788559D01*
X153866018Y-84766555D01*
X153884651Y-84743697D01*
X153902082Y-84720003D01*
X153918311Y-84695474D01*
X153933337Y-84670109D01*
X153947162Y-84643908D01*
X153959784Y-84616872D01*
X153971204Y-84589000D01*
X153981423Y-84560292D01*
X153990439Y-84530748D01*
X153998252Y-84500368D01*
X154004864Y-84469153D01*
X154010274Y-84437102D01*
X154014481Y-84404215D01*
X154017486Y-84370492D01*
X154019290Y-84335934D01*
X154019891Y-84300539D01*
X154019273Y-84267355D01*
X154017418Y-84234846D01*
X154014327Y-84203012D01*
X154009999Y-84171854D01*
X154004435Y-84141371D01*
X153997634Y-84111564D01*
X153989597Y-84082432D01*
X153980323Y-84053976D01*
X153969813Y-84026195D01*
X153958067Y-83999090D01*
X153945084Y-83972660D01*
X153930864Y-83946906D01*
X153915408Y-83921827D01*
X153898716Y-83897424D01*
X153880787Y-83873696D01*
X153861621Y-83850644D01*
X153851606Y-83839554D01*
X153831113Y-83818431D01*
X153799214Y-83789387D01*
X153765923Y-83763511D01*
X153731242Y-83740803D01*
X153695169Y-83721264D01*
X153657705Y-83704894D01*
X153618851Y-83691692D01*
X153578605Y-83681658D01*
X153536968Y-83674793D01*
X153493941Y-83671097D01*
X153464483Y-83670393D01*
X153433344Y-83671088D01*
X153402945Y-83673175D01*
X153373284Y-83676652D01*
X153330176Y-83684477D01*
X153288731Y-83695431D01*
X153248947Y-83709516D01*
X153210824Y-83726730D01*
X153174363Y-83747074D01*
X153139563Y-83770548D01*
X153106425Y-83797151D01*
X153074949Y-83826885D01*
X153054887Y-83848446D01*
X153035811Y-83871547D01*
X153017965Y-83895421D01*
X153001349Y-83920067D01*
X152985965Y-83945487D01*
X152971811Y-83971679D01*
X152958888Y-83998644D01*
X152947196Y-84026381D01*
X152936735Y-84054892D01*
X152927504Y-84084175D01*
X152919504Y-84114232D01*
X152912735Y-84145061D01*
X152907197Y-84176662D01*
X152902889Y-84209037D01*
X152899812Y-84242184D01*
X152897966Y-84276105D01*
X152897351Y-84310797D01*
X152475299Y-84310797D01*
X152475299Y-83301098D01*
X152925927Y-83301098D01*
X152925927Y-83538502D01*
X152960829Y-83504075D01*
X152996292Y-83471869D01*
X153032316Y-83441884D01*
X153068901Y-83414121D01*
X153106047Y-83388578D01*
X153143754Y-83365257D01*
X153182021Y-83344157D01*
X153220850Y-83325278D01*
X153260240Y-83308619D01*
X153300191Y-83294182D01*
X153340703Y-83281966D01*
X153381776Y-83271972D01*
X153423410Y-83264198D01*
X153465605Y-83258645D01*
X153508360Y-83255313D01*
X153551677Y-83254203D01*
X153601529Y-83255374D01*
G37*
G36*
X151880323Y-83301098D02*
G01*
X151408446Y-83301098D01*
X151408446Y-83493072D01*
X151384799Y-83468278D01*
X151361666Y-83445004D01*
X151339049Y-83423250D01*
X151316947Y-83403016D01*
X151288279Y-83378400D01*
X151260527Y-83356487D01*
X151233690Y-83337276D01*
X151207770Y-83320767D01*
X151182766Y-83306959D01*
X151150484Y-83291761D01*
X151116377Y-83279139D01*
X151087777Y-83270895D01*
X151058010Y-83264301D01*
X151027075Y-83259355D01*
X150994973Y-83256058D01*
X150961702Y-83254409D01*
X150944629Y-83254203D01*
X150910278Y-83255214D01*
X150875644Y-83258247D01*
X150840726Y-83263303D01*
X150805525Y-83270380D01*
X150770041Y-83279480D01*
X150734273Y-83290602D01*
X150698222Y-83303746D01*
X150661887Y-83318912D01*
X150625270Y-83336100D01*
X150588368Y-83355311D01*
X150563610Y-83369241D01*
X150774636Y-83816938D01*
X150799177Y-83800177D01*
X150831737Y-83780394D01*
X150864115Y-83763541D01*
X150896309Y-83749619D01*
X150928320Y-83738628D01*
X150960148Y-83730568D01*
X150991793Y-83725439D01*
X151023254Y-83723241D01*
X151031091Y-83723149D01*
X151076786Y-83725362D01*
X151119534Y-83731999D01*
X151159333Y-83743062D01*
X151196184Y-83758549D01*
X151230087Y-83778462D01*
X151261042Y-83802799D01*
X151289049Y-83831562D01*
X151314107Y-83864749D01*
X151336218Y-83902361D01*
X151355381Y-83944399D01*
X151371595Y-83990861D01*
X151384862Y-84041749D01*
X151395180Y-84097061D01*
X151399233Y-84126377D01*
X151402550Y-84156799D01*
X151405130Y-84188327D01*
X151406972Y-84220961D01*
X151408078Y-84254702D01*
X151408446Y-84289548D01*
X151408446Y-85317567D01*
X151880323Y-85317567D01*
X151880323Y-83301098D01*
G37*
G36*
X148884929Y-83541433D02*
G01*
X148919379Y-83506651D01*
X148954401Y-83474113D01*
X148989996Y-83443819D01*
X149026163Y-83415770D01*
X149062902Y-83389964D01*
X149100214Y-83366402D01*
X149138098Y-83345084D01*
X149176555Y-83326010D01*
X149215584Y-83309180D01*
X149255186Y-83294595D01*
X149295360Y-83282253D01*
X149336107Y-83272155D01*
X149377426Y-83264301D01*
X149419317Y-83258691D01*
X149461781Y-83255325D01*
X149504817Y-83254203D01*
X149554202Y-83255382D01*
X149602522Y-83258920D01*
X149649778Y-83264816D01*
X149695968Y-83273071D01*
X149741094Y-83283684D01*
X149785155Y-83296655D01*
X149828151Y-83311985D01*
X149870083Y-83329674D01*
X149910949Y-83349721D01*
X149950752Y-83372126D01*
X149989489Y-83396890D01*
X150027161Y-83424013D01*
X150063769Y-83453494D01*
X150099312Y-83485333D01*
X150133791Y-83519531D01*
X150167204Y-83556087D01*
X150199324Y-83594123D01*
X150229372Y-83633310D01*
X150257347Y-83673647D01*
X150283250Y-83715135D01*
X150307081Y-83757773D01*
X150328839Y-83801563D01*
X150348526Y-83846502D01*
X150366140Y-83892593D01*
X150381682Y-83939834D01*
X150395151Y-83988225D01*
X150406549Y-84037767D01*
X150415874Y-84088460D01*
X150423127Y-84140304D01*
X150428307Y-84193298D01*
X150431416Y-84247442D01*
X150432452Y-84302737D01*
X150431416Y-84359209D01*
X150428307Y-84414501D01*
X150423127Y-84468615D01*
X150415874Y-84521549D01*
X150406549Y-84573303D01*
X150395151Y-84623879D01*
X150381682Y-84673275D01*
X150366140Y-84721492D01*
X150348526Y-84768530D01*
X150328839Y-84814388D01*
X150307081Y-84859067D01*
X150283250Y-84902567D01*
X150257347Y-84944888D01*
X150229372Y-84986030D01*
X150199324Y-85025992D01*
X150167204Y-85064775D01*
X150133235Y-85101065D01*
X150098190Y-85135014D01*
X150062069Y-85166622D01*
X150024872Y-85195888D01*
X149986598Y-85222813D01*
X149947248Y-85247396D01*
X149906822Y-85269639D01*
X149865320Y-85289540D01*
X149822742Y-85307099D01*
X149779087Y-85322318D01*
X149734356Y-85335195D01*
X149688549Y-85345731D01*
X149641666Y-85353925D01*
X149593707Y-85359779D01*
X149544671Y-85363290D01*
X149494559Y-85364461D01*
X149452250Y-85363428D01*
X149410502Y-85360328D01*
X149369314Y-85355162D01*
X149328688Y-85347929D01*
X149288623Y-85338630D01*
X149249118Y-85327264D01*
X149210175Y-85313831D01*
X149171792Y-85298332D01*
X149133971Y-85280767D01*
X149096711Y-85261135D01*
X149060011Y-85239436D01*
X149023873Y-85215671D01*
X148988295Y-85189840D01*
X148953279Y-85161942D01*
X148918824Y-85131977D01*
X148884929Y-85099946D01*
X148884929Y-85317567D01*
X148413052Y-85317567D01*
X148413052Y-84310797D01*
X148856353Y-84310797D01*
X148856957Y-84345402D01*
X148858768Y-84379239D01*
X148861788Y-84412309D01*
X148866016Y-84444612D01*
X148871451Y-84476148D01*
X148878094Y-84506917D01*
X148885945Y-84536919D01*
X148895004Y-84566153D01*
X148905271Y-84594621D01*
X148916746Y-84622322D01*
X148929428Y-84649255D01*
X148943318Y-84675422D01*
X148958417Y-84700821D01*
X148974723Y-84725453D01*
X148992237Y-84749318D01*
X149010958Y-84772416D01*
X149030754Y-84793711D01*
X149061863Y-84823078D01*
X149094673Y-84849353D01*
X149129182Y-84872537D01*
X149165392Y-84892630D01*
X149203303Y-84909631D01*
X149242913Y-84923542D01*
X149284223Y-84934361D01*
X149327234Y-84942089D01*
X149356852Y-84945524D01*
X149387226Y-84947584D01*
X149418356Y-84948271D01*
X149461886Y-84946674D01*
X149503999Y-84941883D01*
X149544695Y-84933897D01*
X149583975Y-84922717D01*
X149621838Y-84908343D01*
X149658284Y-84890775D01*
X149693313Y-84870012D01*
X149726926Y-84846056D01*
X149759122Y-84818905D01*
X149789900Y-84788559D01*
X149809633Y-84766555D01*
X149836608Y-84731955D01*
X149860929Y-84695474D01*
X149875670Y-84670109D01*
X149889231Y-84643908D01*
X149901613Y-84616872D01*
X149912816Y-84589000D01*
X149922839Y-84560292D01*
X149931683Y-84530748D01*
X149939348Y-84500368D01*
X149945834Y-84469153D01*
X149951141Y-84437102D01*
X149955268Y-84404215D01*
X149958216Y-84370492D01*
X149959985Y-84335934D01*
X149960575Y-84300539D01*
X149960423Y-84283863D01*
X149959209Y-84251016D01*
X149956782Y-84218844D01*
X149953141Y-84187348D01*
X149948287Y-84156528D01*
X149942219Y-84126383D01*
X149934938Y-84096914D01*
X149926443Y-84068120D01*
X149916734Y-84040001D01*
X149905812Y-84012558D01*
X149893676Y-83985791D01*
X149873197Y-83946906D01*
X149858027Y-83921827D01*
X149841644Y-83897424D01*
X149824047Y-83873696D01*
X149805236Y-83850644D01*
X149785332Y-83828817D01*
X149754339Y-83798716D01*
X149721980Y-83771784D01*
X149688256Y-83748020D01*
X149653166Y-83727425D01*
X149616712Y-83709999D01*
X149578892Y-83695741D01*
X149539707Y-83684651D01*
X149499156Y-83676730D01*
X149457240Y-83671977D01*
X149413959Y-83670393D01*
X149398570Y-83670567D01*
X149368334Y-83671958D01*
X149338819Y-83674740D01*
X149295898Y-83681521D01*
X149254601Y-83691432D01*
X149214926Y-83704473D01*
X149176874Y-83720644D01*
X149140445Y-83739945D01*
X149105639Y-83762375D01*
X149072456Y-83787936D01*
X149040896Y-83816626D01*
X149010958Y-83848446D01*
X148992237Y-83871547D01*
X148974723Y-83895421D01*
X148958417Y-83920067D01*
X148943318Y-83945487D01*
X148929428Y-83971679D01*
X148916746Y-83998644D01*
X148905271Y-84026381D01*
X148895004Y-84054892D01*
X148885945Y-84084175D01*
X148878094Y-84114232D01*
X148871451Y-84145061D01*
X148866016Y-84176662D01*
X148861788Y-84209037D01*
X148858768Y-84242184D01*
X148856957Y-84276105D01*
X148856353Y-84310797D01*
X148413052Y-84310797D01*
X148413052Y-81847364D01*
X148884929Y-81847364D01*
X148884929Y-83541433D01*
G37*
G36*
X144625578Y-82580825D02*
G01*
X145013192Y-82816031D01*
X145033709Y-82781745D01*
X145054047Y-82749777D01*
X145074204Y-82720127D01*
X145094181Y-82692795D01*
X145113977Y-82667783D01*
X145133594Y-82645088D01*
X145159468Y-82618435D01*
X145185022Y-82595904D01*
X145210255Y-82577494D01*
X145222752Y-82569834D01*
X145249725Y-82554378D01*
X145278622Y-82540983D01*
X145309443Y-82529649D01*
X145342187Y-82520375D01*
X145376854Y-82513162D01*
X145413444Y-82508010D01*
X145451959Y-82504919D01*
X145482106Y-82503953D01*
X145492396Y-82503889D01*
X145529572Y-82504894D01*
X145565537Y-82507907D01*
X145600292Y-82512931D01*
X145633836Y-82519963D01*
X145666169Y-82529005D01*
X145697291Y-82540056D01*
X145727203Y-82553116D01*
X145755904Y-82568186D01*
X145783394Y-82585265D01*
X145809673Y-82604353D01*
X145826520Y-82618195D01*
X145850352Y-82639593D01*
X145871841Y-82662021D01*
X145890985Y-82685480D01*
X145907784Y-82709969D01*
X145922240Y-82735488D01*
X145937868Y-82771117D01*
X145946854Y-82799041D01*
X145953495Y-82827995D01*
X145957793Y-82857980D01*
X145959747Y-82888995D01*
X145959877Y-82899562D01*
X145956844Y-82942715D01*
X145947744Y-82984244D01*
X145932578Y-83024150D01*
X145911345Y-83062434D01*
X145893820Y-83087055D01*
X145873598Y-83110954D01*
X145850680Y-83134133D01*
X145825066Y-83156590D01*
X145796756Y-83178325D01*
X145765750Y-83199340D01*
X145732047Y-83219633D01*
X145695648Y-83239205D01*
X145656553Y-83258055D01*
X145614762Y-83276185D01*
X145297490Y-83406610D01*
X145250032Y-83426572D01*
X145204193Y-83447071D01*
X145159975Y-83468108D01*
X145117376Y-83489684D01*
X145076398Y-83511797D01*
X145037040Y-83534449D01*
X144999301Y-83557638D01*
X144963183Y-83581366D01*
X144928684Y-83605632D01*
X144895806Y-83630436D01*
X144864548Y-83655778D01*
X144834910Y-83681658D01*
X144806891Y-83708077D01*
X144780493Y-83735033D01*
X144755715Y-83762528D01*
X144732557Y-83790560D01*
X144710818Y-83819263D01*
X144690482Y-83848766D01*
X144671548Y-83879072D01*
X144654017Y-83910178D01*
X144637889Y-83942086D01*
X144623162Y-83974796D01*
X144609839Y-84008307D01*
X144597918Y-84042619D01*
X144587399Y-84077733D01*
X144578283Y-84113648D01*
X144570569Y-84150364D01*
X144564258Y-84187882D01*
X144559349Y-84226202D01*
X144555843Y-84265323D01*
X144553739Y-84305245D01*
X144553038Y-84345968D01*
X144554169Y-84400505D01*
X144557560Y-84453840D01*
X144563213Y-84505972D01*
X144571127Y-84556903D01*
X144581302Y-84606631D01*
X144593739Y-84655157D01*
X144608436Y-84702481D01*
X144625395Y-84748603D01*
X144644615Y-84793522D01*
X144666096Y-84837240D01*
X144689838Y-84879755D01*
X144715841Y-84921069D01*
X144744106Y-84961180D01*
X144774631Y-85000089D01*
X144807418Y-85037796D01*
X144842466Y-85074301D01*
X144879557Y-85109437D01*
X144917742Y-85142307D01*
X144957020Y-85172910D01*
X144997392Y-85201246D01*
X145038857Y-85227315D01*
X145081415Y-85251117D01*
X145125067Y-85272653D01*
X145169812Y-85291921D01*
X145215651Y-85308923D01*
X145262583Y-85323657D01*
X145310608Y-85336125D01*
X145359726Y-85346326D01*
X145409938Y-85354260D01*
X145461244Y-85359927D01*
X145513642Y-85363328D01*
X145567134Y-85364461D01*
X145617778Y-85363482D01*
X145667312Y-85360546D01*
X145715735Y-85355651D01*
X145763048Y-85348799D01*
X145809250Y-85339989D01*
X145854341Y-85329221D01*
X145898322Y-85316496D01*
X145941192Y-85301813D01*
X145982952Y-85285172D01*
X146023601Y-85266573D01*
X146063140Y-85246017D01*
X146101568Y-85223502D01*
X146138886Y-85199030D01*
X146175093Y-85172601D01*
X146210189Y-85144213D01*
X146244175Y-85113868D01*
X146276287Y-85081840D01*
X146306858Y-85048220D01*
X146335890Y-85013009D01*
X146363381Y-84976207D01*
X146389333Y-84937813D01*
X146413745Y-84897828D01*
X146436617Y-84856251D01*
X146457949Y-84813083D01*
X146477741Y-84768323D01*
X146495994Y-84721973D01*
X146512706Y-84674030D01*
X146527879Y-84624497D01*
X146541512Y-84573372D01*
X146553604Y-84520656D01*
X146564157Y-84466348D01*
X146573171Y-84410449D01*
X146099095Y-84303470D01*
X146094776Y-84337780D01*
X146090062Y-84370732D01*
X146084953Y-84402328D01*
X146079449Y-84432568D01*
X146073550Y-84461450D01*
X146063961Y-84502231D01*
X146053483Y-84539958D01*
X146042116Y-84574633D01*
X146029861Y-84606256D01*
X146016717Y-84634826D01*
X145997809Y-84668171D01*
X145982591Y-84689618D01*
X145963552Y-84714551D01*
X145943436Y-84737875D01*
X145922244Y-84759591D01*
X145899976Y-84779698D01*
X145876632Y-84798196D01*
X145852212Y-84815086D01*
X145826715Y-84830368D01*
X145800142Y-84844041D01*
X145772493Y-84856105D01*
X145743768Y-84866561D01*
X145713966Y-84875408D01*
X145683089Y-84882646D01*
X145651135Y-84888276D01*
X145618105Y-84892298D01*
X145583999Y-84894711D01*
X145548816Y-84895515D01*
X145507177Y-84894188D01*
X145466891Y-84890208D01*
X145427957Y-84883575D01*
X145390375Y-84874289D01*
X145354146Y-84862349D01*
X145319269Y-84847756D01*
X145285744Y-84830510D01*
X145253572Y-84810610D01*
X145222753Y-84788057D01*
X145193285Y-84762851D01*
X145174392Y-84744573D01*
X145147679Y-84715563D01*
X145123593Y-84685136D01*
X145102135Y-84653292D01*
X145083304Y-84620032D01*
X145067101Y-84585355D01*
X145053526Y-84549261D01*
X145042578Y-84511750D01*
X145034257Y-84472822D01*
X145028565Y-84432478D01*
X145025499Y-84390716D01*
X145024915Y-84362088D01*
X145025817Y-84327733D01*
X145028522Y-84294460D01*
X145033030Y-84262269D01*
X145039341Y-84231159D01*
X145047455Y-84201131D01*
X145050561Y-84191363D01*
X145061182Y-84162675D01*
X145073813Y-84134862D01*
X145088454Y-84107926D01*
X145105103Y-84081866D01*
X145123762Y-84056681D01*
X145130428Y-84048481D01*
X145151895Y-84024335D01*
X145175628Y-84000808D01*
X145201629Y-83977898D01*
X145225027Y-83959280D01*
X145250000Y-83941090D01*
X145271112Y-83926848D01*
X145298707Y-83909131D01*
X145327913Y-83891700D01*
X145358728Y-83874555D01*
X145391154Y-83857696D01*
X145418253Y-83844416D01*
X145446383Y-83831318D01*
X145475543Y-83818404D01*
X145781091Y-83690176D01*
X145821122Y-83672615D01*
X145859882Y-83654553D01*
X145897372Y-83635990D01*
X145933590Y-83616926D01*
X145968538Y-83597362D01*
X146002215Y-83577296D01*
X146034621Y-83556730D01*
X146065756Y-83535662D01*
X146095620Y-83514094D01*
X146124214Y-83492025D01*
X146151537Y-83469455D01*
X146177589Y-83446384D01*
X146202370Y-83422812D01*
X146225880Y-83398739D01*
X146248120Y-83374166D01*
X146269088Y-83349091D01*
X146288786Y-83323516D01*
X146307213Y-83297440D01*
X146324369Y-83270862D01*
X146340255Y-83243784D01*
X146354869Y-83216206D01*
X146368213Y-83188126D01*
X146380286Y-83159545D01*
X146391088Y-83130463D01*
X146400619Y-83100881D01*
X146408879Y-83070798D01*
X146415869Y-83040213D01*
X146421587Y-83009128D01*
X146426035Y-82977542D01*
X146429212Y-82945455D01*
X146431119Y-82912867D01*
X146431754Y-82879779D01*
X146430686Y-82835357D01*
X146427484Y-82791851D01*
X146422146Y-82749261D01*
X146414672Y-82707587D01*
X146405064Y-82666829D01*
X146393320Y-82626987D01*
X146379441Y-82588061D01*
X146363427Y-82550051D01*
X146345278Y-82512956D01*
X146324993Y-82476778D01*
X146302573Y-82441515D01*
X146278018Y-82407169D01*
X146251328Y-82373738D01*
X146222503Y-82341223D01*
X146191542Y-82309624D01*
X146158446Y-82278941D01*
X146123856Y-82249395D01*
X146088230Y-82221754D01*
X146051568Y-82196020D01*
X146013870Y-82172192D01*
X145975135Y-82150270D01*
X145935365Y-82130255D01*
X145894558Y-82112145D01*
X145852715Y-82095942D01*
X145809836Y-82081645D01*
X145765921Y-82069255D01*
X145720970Y-82058771D01*
X145674983Y-82050193D01*
X145627959Y-82043521D01*
X145579900Y-82038755D01*
X145530804Y-82035896D01*
X145480672Y-82034943D01*
X145446697Y-82035476D01*
X145413190Y-82037075D01*
X145380150Y-82039740D01*
X145347579Y-82043472D01*
X145315476Y-82048270D01*
X145283840Y-82054134D01*
X145252673Y-82061064D01*
X145221973Y-82069060D01*
X145191742Y-82078123D01*
X145161978Y-82088251D01*
X145132683Y-82099446D01*
X145103855Y-82111707D01*
X145075496Y-82125035D01*
X145047604Y-82139428D01*
X145020180Y-82154888D01*
X144993225Y-82171413D01*
X144966737Y-82189005D01*
X144940717Y-82207663D01*
X144915165Y-82227388D01*
X144890082Y-82248178D01*
X144865466Y-82270035D01*
X144841318Y-82292958D01*
X144817638Y-82316947D01*
X144794426Y-82342002D01*
X144771682Y-82368123D01*
X144749406Y-82395311D01*
X144727598Y-82423564D01*
X144706258Y-82452884D01*
X144685386Y-82483270D01*
X144664982Y-82514722D01*
X144645046Y-82547241D01*
X144625578Y-82580825D01*
G37*
G36*
X143258916Y-83255334D02*
G01*
X143311670Y-83258725D01*
X143363078Y-83264378D01*
X143413141Y-83272292D01*
X143461859Y-83282467D01*
X143509232Y-83294904D01*
X143555259Y-83309601D01*
X143599941Y-83326560D01*
X143643278Y-83345780D01*
X143685270Y-83367261D01*
X143725916Y-83391003D01*
X143765217Y-83417006D01*
X143803173Y-83445270D01*
X143839784Y-83475796D01*
X143875049Y-83508583D01*
X143908970Y-83543631D01*
X143925153Y-83562126D01*
X143955979Y-83600176D01*
X143984750Y-83639640D01*
X144011466Y-83680519D01*
X144036127Y-83722811D01*
X144058733Y-83766517D01*
X144079284Y-83811637D01*
X144097780Y-83858171D01*
X144114220Y-83906119D01*
X144128606Y-83955481D01*
X144140936Y-84006256D01*
X144151212Y-84058446D01*
X144159432Y-84112050D01*
X144165597Y-84167067D01*
X144169707Y-84223499D01*
X144171762Y-84281345D01*
X144172019Y-84310797D01*
X144170957Y-84369691D01*
X144167772Y-84427118D01*
X144162462Y-84483080D01*
X144155029Y-84537577D01*
X144145472Y-84590608D01*
X144133791Y-84642174D01*
X144119987Y-84692274D01*
X144104059Y-84740909D01*
X144086007Y-84788079D01*
X144065831Y-84833782D01*
X144043531Y-84878021D01*
X144019108Y-84920794D01*
X143992561Y-84962102D01*
X143963890Y-85001944D01*
X143933095Y-85040320D01*
X143900177Y-85077232D01*
X143865415Y-85112013D01*
X143829274Y-85144551D01*
X143791753Y-85174845D01*
X143752853Y-85202894D01*
X143712573Y-85228700D01*
X143670913Y-85252262D01*
X143627874Y-85273580D01*
X143583455Y-85292654D01*
X143537657Y-85309484D01*
X143490479Y-85324069D01*
X143441921Y-85336411D01*
X143391984Y-85346509D01*
X143340667Y-85354363D01*
X143287971Y-85359973D01*
X143233895Y-85363339D01*
X143178439Y-85364461D01*
X143139776Y-85363946D01*
X143101823Y-85362400D01*
X143064580Y-85359824D01*
X143028047Y-85356218D01*
X142992223Y-85351581D01*
X142957109Y-85345914D01*
X142922706Y-85339216D01*
X142889011Y-85331488D01*
X142855775Y-85322661D01*
X142823112Y-85312666D01*
X142791020Y-85301504D01*
X142759502Y-85289173D01*
X142728555Y-85275675D01*
X142698182Y-85261009D01*
X142668380Y-85245175D01*
X142639151Y-85228174D01*
X142610449Y-85209810D01*
X142582227Y-85190255D01*
X142554487Y-85169510D01*
X142527227Y-85147573D01*
X142500448Y-85124447D01*
X142474150Y-85100129D01*
X142448333Y-85074621D01*
X142422996Y-85047922D01*
X142397877Y-85019758D01*
X142373079Y-84990220D01*
X142354691Y-84967165D01*
X142336483Y-84943337D01*
X142318455Y-84918736D01*
X142300608Y-84893362D01*
X142282941Y-84867216D01*
X142265454Y-84840297D01*
X142248147Y-84812605D01*
X142231021Y-84784140D01*
X142622298Y-84572382D01*
X142639947Y-84598783D01*
X142657355Y-84624131D01*
X142674522Y-84648425D01*
X142699823Y-84682892D01*
X142724583Y-84714989D01*
X142748801Y-84744716D01*
X142772479Y-84772073D01*
X142795616Y-84797060D01*
X142818212Y-84819677D01*
X142847498Y-84846147D01*
X142875822Y-84868404D01*
X142897514Y-84882677D01*
X142928100Y-84899524D01*
X142960586Y-84913875D01*
X142994973Y-84925731D01*
X143031260Y-84935090D01*
X143069448Y-84941954D01*
X143099336Y-84945463D01*
X143130293Y-84947569D01*
X143162319Y-84948271D01*
X143189759Y-84947725D01*
X143229750Y-84944855D01*
X143268336Y-84939524D01*
X143305518Y-84931734D01*
X143341297Y-84921484D01*
X143375671Y-84908773D01*
X143408642Y-84893603D01*
X143440209Y-84875972D01*
X143470371Y-84855882D01*
X143499130Y-84833331D01*
X143526485Y-84808320D01*
X143552056Y-84780935D01*
X143575464Y-84751811D01*
X143596707Y-84720949D01*
X143615787Y-84688347D01*
X143632702Y-84654007D01*
X143647454Y-84617928D01*
X143660042Y-84580110D01*
X143670466Y-84540554D01*
X143678727Y-84499258D01*
X143684823Y-84456224D01*
X143687686Y-84426569D01*
X142249339Y-84426569D01*
X142249339Y-84317392D01*
X142249588Y-84286419D01*
X142250336Y-84255871D01*
X142251581Y-84225751D01*
X142253324Y-84196057D01*
X142258304Y-84137948D01*
X142265276Y-84081545D01*
X142270215Y-84051412D01*
X142725613Y-84051412D01*
X143656911Y-84051412D01*
X143653992Y-84040403D01*
X143644271Y-84008272D01*
X143633109Y-83977480D01*
X143620504Y-83948028D01*
X143606456Y-83919915D01*
X143590965Y-83893142D01*
X143588202Y-83888767D01*
X143570960Y-83863384D01*
X143552584Y-83839496D01*
X143533076Y-83817102D01*
X143512433Y-83796202D01*
X143486918Y-83773707D01*
X143467591Y-83758709D01*
X143439451Y-83739636D01*
X143410049Y-83722806D01*
X143379384Y-83708220D01*
X143352096Y-83697504D01*
X143342802Y-83694221D01*
X143314406Y-83685643D01*
X143285237Y-83678971D01*
X143255296Y-83674205D01*
X143224581Y-83671346D01*
X143193094Y-83670393D01*
X143147819Y-83671881D01*
X143104686Y-83676346D01*
X143063693Y-83683788D01*
X143024841Y-83694206D01*
X142988130Y-83707602D01*
X142953560Y-83723974D01*
X142921131Y-83743322D01*
X142890843Y-83765647D01*
X142862696Y-83790949D01*
X142836690Y-83819228D01*
X142812825Y-83850484D01*
X142791101Y-83884716D01*
X142771517Y-83921925D01*
X142754075Y-83962110D01*
X142738774Y-84005273D01*
X142725613Y-84051412D01*
X142270215Y-84051412D01*
X142274241Y-84026848D01*
X142285197Y-83973857D01*
X142298146Y-83922572D01*
X142313087Y-83872992D01*
X142330020Y-83825119D01*
X142348945Y-83778951D01*
X142369862Y-83734489D01*
X142392771Y-83691733D01*
X142417672Y-83650683D01*
X142444566Y-83611339D01*
X142473451Y-83573701D01*
X142504329Y-83537769D01*
X142537290Y-83503431D01*
X142571694Y-83471308D01*
X142607541Y-83441401D01*
X142644830Y-83413709D01*
X142683561Y-83388232D01*
X142723735Y-83364971D01*
X142765352Y-83343925D01*
X142808411Y-83325094D01*
X142852913Y-83308479D01*
X142898858Y-83294079D01*
X142946244Y-83281895D01*
X142995074Y-83271926D01*
X143045346Y-83264172D01*
X143097061Y-83258634D01*
X143150218Y-83255311D01*
X143204817Y-83254203D01*
X143258916Y-83255334D01*
G37*
G36*
X141756946Y-83301098D02*
G01*
X141285069Y-83301098D01*
X141285069Y-83493072D01*
X141261421Y-83468278D01*
X141238289Y-83445004D01*
X141215671Y-83423250D01*
X141193569Y-83403016D01*
X141164901Y-83378400D01*
X141137149Y-83356487D01*
X141110313Y-83337276D01*
X141084393Y-83320767D01*
X141059388Y-83306959D01*
X141027106Y-83291761D01*
X140992999Y-83279139D01*
X140964400Y-83270895D01*
X140934633Y-83264301D01*
X140903698Y-83259355D01*
X140871595Y-83256058D01*
X140838325Y-83254409D01*
X140821252Y-83254203D01*
X140786901Y-83255214D01*
X140752266Y-83258247D01*
X140717349Y-83263303D01*
X140682148Y-83270380D01*
X140646663Y-83279480D01*
X140610895Y-83290602D01*
X140574844Y-83303746D01*
X140538510Y-83318912D01*
X140501892Y-83336100D01*
X140464991Y-83355311D01*
X140440233Y-83369241D01*
X140651259Y-83816938D01*
X140675799Y-83800177D01*
X140708360Y-83780394D01*
X140740737Y-83763541D01*
X140772932Y-83749619D01*
X140804943Y-83738628D01*
X140836771Y-83730568D01*
X140868415Y-83725439D01*
X140899877Y-83723241D01*
X140907714Y-83723149D01*
X140953409Y-83725362D01*
X140996156Y-83731999D01*
X141035955Y-83743062D01*
X141072806Y-83758549D01*
X141106709Y-83778462D01*
X141137664Y-83802799D01*
X141165671Y-83831562D01*
X141190730Y-83864749D01*
X141212841Y-83902361D01*
X141232003Y-83944399D01*
X141248218Y-83990861D01*
X141261484Y-84041749D01*
X141271802Y-84097061D01*
X141275856Y-84126377D01*
X141279173Y-84156799D01*
X141281752Y-84188327D01*
X141283595Y-84220961D01*
X141284700Y-84254702D01*
X141285069Y-84289548D01*
X141285069Y-85317567D01*
X141756946Y-85317567D01*
X141756946Y-83301098D01*
G37*
G36*
X139652550Y-83301098D02*
G01*
X139652550Y-85317567D01*
X140124427Y-85317567D01*
X140124427Y-83301098D01*
X139652550Y-83301098D01*
G37*
G36*
X140171321Y-82477511D02*
G01*
X140169925Y-82447263D01*
X140165734Y-82418068D01*
X140156568Y-82383056D01*
X140143037Y-82349690D01*
X140125141Y-82317969D01*
X140107681Y-82293778D01*
X140087428Y-82270639D01*
X140081928Y-82265019D01*
X140058859Y-82244068D01*
X140034713Y-82225910D01*
X140009491Y-82210546D01*
X139976451Y-82195269D01*
X139941728Y-82184356D01*
X139912740Y-82178769D01*
X139882675Y-82175976D01*
X139867239Y-82175627D01*
X139836132Y-82177023D01*
X139806194Y-82181214D01*
X139777422Y-82188197D01*
X139743101Y-82200856D01*
X139716957Y-82214125D01*
X139691982Y-82230188D01*
X139668174Y-82249044D01*
X139651084Y-82265019D01*
X139630133Y-82287448D01*
X139611975Y-82311135D01*
X139593206Y-82342516D01*
X139578802Y-82375865D01*
X139570421Y-82403960D01*
X139564834Y-82433315D01*
X139562040Y-82463929D01*
X139561691Y-82479709D01*
X139563088Y-82510976D01*
X139567278Y-82541029D01*
X139574262Y-82569869D01*
X139586920Y-82604212D01*
X139603943Y-82636659D01*
X139620704Y-82661251D01*
X139640259Y-82684630D01*
X139651084Y-82695864D01*
X139673501Y-82716815D01*
X139697154Y-82734973D01*
X139728460Y-82753742D01*
X139761697Y-82768146D01*
X139796867Y-82778186D01*
X139826394Y-82783074D01*
X139857157Y-82785169D01*
X139865041Y-82785257D01*
X139896159Y-82783871D01*
X139926132Y-82779715D01*
X139954960Y-82772789D01*
X139982644Y-82763092D01*
X140009182Y-82750624D01*
X140034576Y-82735385D01*
X140058825Y-82717376D01*
X140081928Y-82696597D01*
X140102880Y-82673619D01*
X140121038Y-82649381D01*
X140136402Y-82623885D01*
X140148973Y-82597129D01*
X140158750Y-82569113D01*
X140165734Y-82539838D01*
X140169925Y-82509304D01*
X140171321Y-82477511D01*
G37*
G36*
X138261708Y-83255334D02*
G01*
X138314461Y-83258725D01*
X138365870Y-83264378D01*
X138415933Y-83272292D01*
X138464651Y-83282467D01*
X138512023Y-83294904D01*
X138558051Y-83309601D01*
X138602733Y-83326560D01*
X138646070Y-83345780D01*
X138688061Y-83367261D01*
X138728708Y-83391003D01*
X138768009Y-83417006D01*
X138805965Y-83445270D01*
X138842575Y-83475796D01*
X138877841Y-83508583D01*
X138911761Y-83543631D01*
X138927945Y-83562126D01*
X138958771Y-83600176D01*
X138987542Y-83639640D01*
X139014258Y-83680519D01*
X139038919Y-83722811D01*
X139061525Y-83766517D01*
X139082075Y-83811637D01*
X139100571Y-83858171D01*
X139117012Y-83906119D01*
X139131397Y-83955481D01*
X139143728Y-84006256D01*
X139154003Y-84058446D01*
X139162223Y-84112050D01*
X139168388Y-84167067D01*
X139172499Y-84223499D01*
X139174554Y-84281345D01*
X139174811Y-84310797D01*
X139173749Y-84369691D01*
X139170563Y-84427118D01*
X139165254Y-84483080D01*
X139157820Y-84537577D01*
X139148263Y-84590608D01*
X139136583Y-84642174D01*
X139122778Y-84692274D01*
X139106850Y-84740909D01*
X139088798Y-84788079D01*
X139068622Y-84833782D01*
X139046323Y-84878021D01*
X139021899Y-84920794D01*
X138995352Y-84962102D01*
X138966681Y-85001944D01*
X138935887Y-85040320D01*
X138902968Y-85077232D01*
X138868207Y-85112013D01*
X138832065Y-85144551D01*
X138794544Y-85174845D01*
X138755644Y-85202894D01*
X138715364Y-85228700D01*
X138673704Y-85252262D01*
X138630665Y-85273580D01*
X138586246Y-85292654D01*
X138540448Y-85309484D01*
X138493270Y-85324069D01*
X138444712Y-85336411D01*
X138394775Y-85346509D01*
X138343458Y-85354363D01*
X138290762Y-85359973D01*
X138236686Y-85363339D01*
X138181231Y-85364461D01*
X138142568Y-85363946D01*
X138104615Y-85362400D01*
X138067371Y-85359824D01*
X138030838Y-85356218D01*
X137995015Y-85351581D01*
X137959901Y-85345914D01*
X137925497Y-85339216D01*
X137891803Y-85331488D01*
X137858567Y-85322661D01*
X137825903Y-85312666D01*
X137793812Y-85301504D01*
X137762293Y-85289173D01*
X137731347Y-85275675D01*
X137700973Y-85261009D01*
X137671171Y-85245175D01*
X137641942Y-85228174D01*
X137613240Y-85209810D01*
X137585019Y-85190255D01*
X137557278Y-85169510D01*
X137530018Y-85147573D01*
X137503239Y-85124447D01*
X137476941Y-85100129D01*
X137451124Y-85074621D01*
X137425787Y-85047922D01*
X137400669Y-85019758D01*
X137375870Y-84990220D01*
X137357482Y-84967165D01*
X137339274Y-84943337D01*
X137321246Y-84918736D01*
X137303399Y-84893362D01*
X137285732Y-84867216D01*
X137268245Y-84840297D01*
X137250939Y-84812605D01*
X137233813Y-84784140D01*
X137625090Y-84572382D01*
X137642738Y-84598783D01*
X137660146Y-84624131D01*
X137677314Y-84648425D01*
X137702614Y-84682892D01*
X137727374Y-84714989D01*
X137751593Y-84744716D01*
X137775270Y-84772073D01*
X137798407Y-84797060D01*
X137821003Y-84819677D01*
X137850289Y-84846147D01*
X137878614Y-84868404D01*
X137900306Y-84882677D01*
X137930891Y-84899524D01*
X137963378Y-84913875D01*
X137997764Y-84925731D01*
X138034052Y-84935090D01*
X138072239Y-84941954D01*
X138102127Y-84945463D01*
X138133084Y-84947569D01*
X138165111Y-84948271D01*
X138192551Y-84947725D01*
X138232541Y-84944855D01*
X138271127Y-84939524D01*
X138308310Y-84931734D01*
X138344088Y-84921484D01*
X138378463Y-84908773D01*
X138411433Y-84893603D01*
X138443000Y-84875972D01*
X138473163Y-84855882D01*
X138501922Y-84833331D01*
X138529277Y-84808320D01*
X138554848Y-84780935D01*
X138578255Y-84751811D01*
X138599498Y-84720949D01*
X138618578Y-84688347D01*
X138635494Y-84654007D01*
X138650246Y-84617928D01*
X138662834Y-84580110D01*
X138673258Y-84540554D01*
X138681518Y-84499258D01*
X138687615Y-84456224D01*
X138690477Y-84426569D01*
X137252131Y-84426569D01*
X137252131Y-84317392D01*
X137252380Y-84286419D01*
X137253127Y-84255871D01*
X137254372Y-84225751D01*
X137256115Y-84196057D01*
X137261095Y-84137948D01*
X137268068Y-84081545D01*
X137273006Y-84051412D01*
X137728404Y-84051412D01*
X138659702Y-84051412D01*
X138656783Y-84040403D01*
X138647063Y-84008272D01*
X138635900Y-83977480D01*
X138623295Y-83948028D01*
X138609247Y-83919915D01*
X138593757Y-83893142D01*
X138590993Y-83888767D01*
X138573751Y-83863384D01*
X138555376Y-83839496D01*
X138535867Y-83817102D01*
X138515225Y-83796202D01*
X138489709Y-83773707D01*
X138470382Y-83758709D01*
X138442242Y-83739636D01*
X138412840Y-83722806D01*
X138382176Y-83708220D01*
X138354887Y-83697504D01*
X138345594Y-83694221D01*
X138317198Y-83685643D01*
X138288029Y-83678971D01*
X138258087Y-83674205D01*
X138227372Y-83671346D01*
X138195885Y-83670393D01*
X138150611Y-83671881D01*
X138107477Y-83676346D01*
X138066484Y-83683788D01*
X138027632Y-83694206D01*
X137990922Y-83707602D01*
X137956352Y-83723974D01*
X137923923Y-83743322D01*
X137893635Y-83765647D01*
X137865488Y-83790949D01*
X137839481Y-83819228D01*
X137815616Y-83850484D01*
X137793892Y-83884716D01*
X137774309Y-83921925D01*
X137756866Y-83962110D01*
X137741565Y-84005273D01*
X137728404Y-84051412D01*
X137273006Y-84051412D01*
X137277032Y-84026848D01*
X137287989Y-83973857D01*
X137300937Y-83922572D01*
X137315878Y-83872992D01*
X137332811Y-83825119D01*
X137351736Y-83778951D01*
X137372653Y-83734489D01*
X137395562Y-83691733D01*
X137420464Y-83650683D01*
X137447357Y-83611339D01*
X137476243Y-83573701D01*
X137507120Y-83537769D01*
X137540082Y-83503431D01*
X137574486Y-83471308D01*
X137610332Y-83441401D01*
X137647621Y-83413709D01*
X137686353Y-83388232D01*
X137726527Y-83364971D01*
X137768143Y-83343925D01*
X137811203Y-83325094D01*
X137855705Y-83308479D01*
X137901649Y-83294079D01*
X137949036Y-83281895D01*
X137997865Y-83271926D01*
X138048137Y-83264172D01*
X138099852Y-83258634D01*
X138153009Y-83255311D01*
X138207609Y-83254203D01*
X138261708Y-83255334D01*
G37*
G36*
X135573450Y-83650609D02*
G01*
X135955201Y-83854308D01*
X135972755Y-83821440D01*
X135991068Y-83791805D01*
X136010141Y-83765403D01*
X136029974Y-83742234D01*
X136057600Y-83716371D01*
X136086577Y-83696256D01*
X136116905Y-83681887D01*
X136148584Y-83673266D01*
X136181614Y-83670393D01*
X136212710Y-83673003D01*
X136241515Y-83680834D01*
X136268031Y-83693886D01*
X136292256Y-83712158D01*
X136312132Y-83734552D01*
X136327704Y-83763358D01*
X136335512Y-83792175D01*
X136337686Y-83819869D01*
X136331138Y-83855554D01*
X136316472Y-83884050D01*
X136293426Y-83912501D01*
X136270641Y-83933809D01*
X136243142Y-83955091D01*
X136210929Y-83976347D01*
X136174002Y-83997577D01*
X136146765Y-84011717D01*
X136117433Y-84025845D01*
X136086006Y-84039961D01*
X136069507Y-84047015D01*
X136024201Y-84066699D01*
X135980790Y-84086182D01*
X135939273Y-84105465D01*
X135899651Y-84124547D01*
X135861924Y-84143429D01*
X135826092Y-84162111D01*
X135792155Y-84180592D01*
X135760112Y-84198873D01*
X135729965Y-84216954D01*
X135701712Y-84234834D01*
X135675353Y-84252514D01*
X135650890Y-84269994D01*
X135617748Y-84295837D01*
X135588869Y-84321230D01*
X135571984Y-84337908D01*
X135549069Y-84363600D01*
X135528407Y-84390940D01*
X135509999Y-84419928D01*
X135493846Y-84450565D01*
X135479946Y-84482851D01*
X135468300Y-84516786D01*
X135458909Y-84552369D01*
X135451771Y-84589601D01*
X135446887Y-84628481D01*
X135444258Y-84669010D01*
X135443757Y-84696945D01*
X135444587Y-84732580D01*
X135447077Y-84767493D01*
X135451227Y-84801686D01*
X135457037Y-84835156D01*
X135464508Y-84867906D01*
X135473638Y-84899934D01*
X135484429Y-84931241D01*
X135496880Y-84961827D01*
X135510990Y-84991691D01*
X135526761Y-85020834D01*
X135544192Y-85049256D01*
X135563283Y-85076957D01*
X135584034Y-85103936D01*
X135606445Y-85130194D01*
X135630517Y-85155731D01*
X135656248Y-85180546D01*
X135682409Y-85202817D01*
X135709233Y-85223651D01*
X135736722Y-85243049D01*
X135764875Y-85261009D01*
X135793692Y-85277533D01*
X135823173Y-85292619D01*
X135853318Y-85306269D01*
X135884127Y-85318482D01*
X135915600Y-85329259D01*
X135947737Y-85338598D01*
X135980538Y-85346501D01*
X136014003Y-85352966D01*
X136048132Y-85357995D01*
X136082925Y-85361587D01*
X136118382Y-85363743D01*
X136154503Y-85364461D01*
X136185541Y-85363979D01*
X136216007Y-85362532D01*
X136245900Y-85360121D01*
X136275220Y-85356745D01*
X136332144Y-85347099D01*
X136386778Y-85333595D01*
X136439123Y-85316233D01*
X136489177Y-85295012D01*
X136536942Y-85269933D01*
X136582417Y-85240996D01*
X136625602Y-85208201D01*
X136666498Y-85171547D01*
X136705103Y-85131036D01*
X136741419Y-85086665D01*
X136775445Y-85038437D01*
X136791599Y-85012876D01*
X136807181Y-84986350D01*
X136822191Y-84958860D01*
X136836628Y-84930405D01*
X136850493Y-84900986D01*
X136863785Y-84870602D01*
X136477637Y-84688885D01*
X136462584Y-84714761D01*
X136443556Y-84746417D01*
X136425719Y-84774822D01*
X136409072Y-84799975D01*
X136389938Y-84826844D01*
X136369433Y-84852381D01*
X136351607Y-84870602D01*
X136324470Y-84892978D01*
X136295723Y-84911560D01*
X136265365Y-84926351D01*
X136233398Y-84937349D01*
X136199820Y-84944555D01*
X136164633Y-84947968D01*
X136150107Y-84948271D01*
X136108204Y-84946404D01*
X136070423Y-84940801D01*
X136036763Y-84931463D01*
X136007225Y-84918390D01*
X135981809Y-84901581D01*
X135960514Y-84881038D01*
X135943340Y-84856759D01*
X135930289Y-84828745D01*
X135921358Y-84796996D01*
X135916550Y-84761511D01*
X135915634Y-84735780D01*
X135918439Y-84705269D01*
X135926854Y-84675284D01*
X135940879Y-84645826D01*
X135960514Y-84616895D01*
X135985758Y-84588490D01*
X136008373Y-84567532D01*
X136034144Y-84546871D01*
X136063071Y-84526505D01*
X136095152Y-84506436D01*
X136125321Y-84491439D01*
X136155560Y-84476583D01*
X136185868Y-84461867D01*
X136216247Y-84447291D01*
X136233638Y-84439025D01*
X136264162Y-84424529D01*
X136294827Y-84409893D01*
X136325631Y-84395117D01*
X136352147Y-84382340D01*
X136374322Y-84371614D01*
X136410785Y-84353204D01*
X136445162Y-84334794D01*
X136477452Y-84316385D01*
X136507656Y-84297975D01*
X136535773Y-84279565D01*
X136561803Y-84261155D01*
X136585747Y-84242745D01*
X136614427Y-84218199D01*
X136639397Y-84193653D01*
X136655690Y-84175243D01*
X136674284Y-84151256D01*
X136691050Y-84126007D01*
X136705986Y-84099495D01*
X136719094Y-84071722D01*
X136730372Y-84042686D01*
X136739822Y-84012388D01*
X136747443Y-83980828D01*
X136753234Y-83948005D01*
X136757197Y-83913921D01*
X136759331Y-83878574D01*
X136759737Y-83854308D01*
X136759045Y-83822145D01*
X136756967Y-83790686D01*
X136753503Y-83759932D01*
X136748655Y-83729881D01*
X136742421Y-83700535D01*
X136734802Y-83671893D01*
X136725797Y-83643954D01*
X136709693Y-83603367D01*
X136690471Y-83564365D01*
X136668133Y-83526946D01*
X136642678Y-83491112D01*
X136623976Y-83468102D01*
X136603889Y-83445797D01*
X136582417Y-83424196D01*
X136559491Y-83403611D01*
X136535957Y-83384354D01*
X136511817Y-83366425D01*
X136487071Y-83349824D01*
X136461717Y-83334551D01*
X136435757Y-83320606D01*
X136409190Y-83307990D01*
X136382016Y-83296701D01*
X136354235Y-83286741D01*
X136325847Y-83278108D01*
X136296853Y-83270804D01*
X136267252Y-83264827D01*
X136237044Y-83260179D01*
X136206230Y-83256859D01*
X136174808Y-83254867D01*
X136142780Y-83254203D01*
X136095733Y-83255751D01*
X136050216Y-83260397D01*
X136006226Y-83268139D01*
X135963765Y-83278978D01*
X135922832Y-83292914D01*
X135883428Y-83309948D01*
X135845552Y-83330078D01*
X135809205Y-83353304D01*
X135774386Y-83379628D01*
X135741096Y-83409049D01*
X135709334Y-83441567D01*
X135679100Y-83477181D01*
X135650395Y-83515893D01*
X135623218Y-83557701D01*
X135597570Y-83602607D01*
X135573450Y-83650609D01*
G37*
G36*
X134963087Y-85080895D02*
G01*
X134961065Y-85046155D01*
X134955001Y-85012917D01*
X134944894Y-84981183D01*
X134930744Y-84950950D01*
X134912551Y-84922221D01*
X134890315Y-84894994D01*
X134880289Y-84884524D01*
X134853416Y-84860671D01*
X134825005Y-84840861D01*
X134795055Y-84825093D01*
X134763567Y-84813369D01*
X134730541Y-84805688D01*
X134695976Y-84802049D01*
X134681719Y-84801726D01*
X134646346Y-84803747D01*
X134612582Y-84809811D01*
X134580429Y-84819919D01*
X134549885Y-84834069D01*
X134520952Y-84852262D01*
X134493628Y-84874498D01*
X134483150Y-84884524D01*
X134459297Y-84911203D01*
X134439486Y-84939493D01*
X134423719Y-84969392D01*
X134411995Y-85000902D01*
X134404313Y-85034021D01*
X134400675Y-85068751D01*
X134400351Y-85083093D01*
X134402373Y-85118889D01*
X134408437Y-85153003D01*
X134418544Y-85185436D01*
X134432694Y-85216187D01*
X134450887Y-85245256D01*
X134473123Y-85272644D01*
X134483150Y-85283128D01*
X134509250Y-85306559D01*
X134537174Y-85326019D01*
X134566923Y-85341507D01*
X134598497Y-85353024D01*
X134631896Y-85360569D01*
X134667119Y-85364143D01*
X134681719Y-85364461D01*
X134718112Y-85362493D01*
X134752645Y-85356590D01*
X134785317Y-85346751D01*
X134816129Y-85332977D01*
X134845080Y-85315267D01*
X134872171Y-85293621D01*
X134882487Y-85283861D01*
X134905706Y-85257461D01*
X134924991Y-85229092D01*
X134940339Y-85198756D01*
X134951752Y-85166453D01*
X134959230Y-85132181D01*
X134962772Y-85095942D01*
X134963087Y-85080895D01*
G37*
G36*
X107737368Y-57287033D02*
G01*
X108006338Y-57469729D01*
X108196156Y-57776102D01*
X108202104Y-57812638D01*
X108213277Y-58002990D01*
X108223664Y-58344386D01*
X108233205Y-58829704D01*
X108241842Y-59451819D01*
X108249517Y-60203607D01*
X108256171Y-61077944D01*
X108261747Y-62067706D01*
X108266185Y-63165769D01*
X108269428Y-64365010D01*
X108271416Y-65658303D01*
X108272092Y-67038525D01*
X108272092Y-76101221D01*
X107997060Y-76376253D01*
X107840632Y-76517346D01*
X107640528Y-76623551D01*
X107397563Y-76651285D01*
X107219499Y-76629447D01*
X106936150Y-76480148D01*
X106728920Y-76204861D01*
X106614957Y-75821760D01*
X106614131Y-75814698D01*
X106607857Y-75669520D01*
X106602256Y-75374785D01*
X106597359Y-74941367D01*
X106593196Y-74380137D01*
X106589795Y-73701969D01*
X106587187Y-72917736D01*
X106585400Y-72038309D01*
X106584466Y-71074563D01*
X106584412Y-70037371D01*
X106585270Y-68937603D01*
X106587068Y-67786135D01*
X106589836Y-66593838D01*
X106613812Y-57709321D01*
X106877986Y-57473297D01*
X107096698Y-57323623D01*
X107422927Y-57235752D01*
X107737368Y-57287033D01*
G37*
G36*
X226754764Y-66906910D02*
G01*
X226973952Y-67692527D01*
X227028467Y-67995871D01*
X221965404Y-67995871D01*
X216902341Y-67995871D01*
X216956855Y-67692527D01*
X217041754Y-67311205D01*
X217229760Y-66789759D01*
X218446614Y-66789759D01*
X218456932Y-66795975D01*
X218590580Y-66812242D01*
X218868471Y-66826746D01*
X219277704Y-66839217D01*
X219805374Y-66849387D01*
X220438578Y-66856985D01*
X221164413Y-66861741D01*
X221969977Y-66863387D01*
X225493340Y-66863387D01*
X225347207Y-66603940D01*
X225328368Y-66571559D01*
X225086793Y-66243197D01*
X224749674Y-65882890D01*
X224359893Y-65529816D01*
X223960331Y-65223152D01*
X223593872Y-65002076D01*
X223410684Y-64914912D01*
X223163895Y-64816944D01*
X222919233Y-64755947D01*
X222622062Y-64719782D01*
X222217744Y-64696309D01*
X221873017Y-64689723D01*
X221155508Y-64748856D01*
X220523485Y-64920015D01*
X219946483Y-65213374D01*
X219394033Y-65639105D01*
X219278032Y-65748872D01*
X219053606Y-65983354D01*
X218830170Y-66238789D01*
X218635805Y-66481072D01*
X218498592Y-66676097D01*
X218446614Y-66789759D01*
X217229760Y-66789759D01*
X217335220Y-66497261D01*
X217760900Y-65739177D01*
X218301645Y-65060174D01*
X218940307Y-64483476D01*
X219659735Y-64032305D01*
X219729512Y-63997482D01*
X220264219Y-63764567D01*
X220775225Y-63615603D01*
X221322347Y-63537193D01*
X221965404Y-63515942D01*
X222499312Y-63538991D01*
X223245645Y-63662276D01*
X223939999Y-63903986D01*
X224629813Y-64277682D01*
X224657029Y-64295004D01*
X225324992Y-64810683D01*
X225910475Y-65437131D01*
X226393669Y-66145493D01*
X226734124Y-66863387D01*
X226754764Y-66906910D01*
G37*
G36*
X240287378Y-63263705D02*
G01*
X240287378Y-67348737D01*
X237355054Y-67347332D01*
X236936578Y-67346861D01*
X236134055Y-67343254D01*
X235466377Y-67334366D01*
X234915090Y-67318066D01*
X234461739Y-67292225D01*
X234087868Y-67254713D01*
X233775024Y-67203398D01*
X233504751Y-67136152D01*
X233258595Y-67050845D01*
X233018101Y-66945345D01*
X232764815Y-66817524D01*
X232629331Y-66743561D01*
X231972381Y-66286512D01*
X231440841Y-65729489D01*
X231030142Y-65066805D01*
X230735714Y-64292773D01*
X230607481Y-63622895D01*
X230606888Y-63317944D01*
X231758263Y-63317944D01*
X231770670Y-63626586D01*
X231813804Y-63874154D01*
X231902866Y-64128553D01*
X232053055Y-64457692D01*
X232215658Y-64769180D01*
X232530686Y-65217685D01*
X232914430Y-65569766D01*
X233406954Y-65867126D01*
X233856487Y-66094915D01*
X236505691Y-66118278D01*
X239154894Y-66141642D01*
X239154894Y-63222301D01*
X239154894Y-60302961D01*
X236505691Y-60327282D01*
X233856487Y-60351603D01*
X233345850Y-60628470D01*
X233030002Y-60827383D01*
X232579246Y-61207456D01*
X232197200Y-61643910D01*
X231928422Y-62090775D01*
X231832062Y-62366470D01*
X231777570Y-62701045D01*
X231758645Y-63142368D01*
X231758263Y-63317944D01*
X230606888Y-63317944D01*
X230605999Y-62861387D01*
X230749182Y-62116279D01*
X231028735Y-61407946D01*
X231436363Y-60756760D01*
X231963772Y-60183096D01*
X232602665Y-59707325D01*
X232650865Y-59678151D01*
X232857755Y-59557332D01*
X233051938Y-59457740D01*
X233250863Y-59377325D01*
X233471979Y-59314041D01*
X233732734Y-59265839D01*
X234050578Y-59230672D01*
X234442960Y-59206491D01*
X234927328Y-59191249D01*
X235521131Y-59182897D01*
X236241818Y-59179388D01*
X237106837Y-59178673D01*
X240287378Y-59178673D01*
X240287378Y-60302961D01*
X240287378Y-63263705D01*
G37*
G36*
X86544628Y-57288383D02*
G01*
X86854733Y-57473286D01*
X87118907Y-57709300D01*
X87159353Y-65591424D01*
X87199799Y-73473548D01*
X93711582Y-65833406D01*
X94416365Y-65006663D01*
X95223456Y-64060317D01*
X96001226Y-63148783D01*
X96742805Y-62280092D01*
X97441323Y-61462279D01*
X98089909Y-60703375D01*
X98681694Y-60011413D01*
X99209807Y-59394427D01*
X99667377Y-58860448D01*
X100047536Y-58417510D01*
X100343411Y-58073646D01*
X100548134Y-57836888D01*
X100654834Y-57715268D01*
X100887153Y-57469007D01*
X101058774Y-57323364D01*
X101206023Y-57254570D01*
X101366654Y-57237272D01*
X101719983Y-57294378D01*
X102012426Y-57455738D01*
X102195039Y-57698585D01*
X102205914Y-57746378D01*
X102220083Y-57890633D01*
X102232446Y-58129215D01*
X102243049Y-58468256D01*
X102251940Y-58913888D01*
X102259167Y-59472242D01*
X102264775Y-60149451D01*
X102268813Y-60951646D01*
X102271328Y-61884960D01*
X102272368Y-62955524D01*
X102271978Y-64169471D01*
X102270207Y-65532932D01*
X102267102Y-67052040D01*
X102245659Y-76179228D01*
X101981484Y-76415256D01*
X101963275Y-76431150D01*
X101650945Y-76607605D01*
X101325685Y-76637603D01*
X101021806Y-76525151D01*
X100773615Y-76274252D01*
X100749595Y-76230845D01*
X100728001Y-76171119D01*
X100708922Y-76085822D01*
X100692133Y-75965226D01*
X100677409Y-75799601D01*
X100664526Y-75579217D01*
X100653257Y-75294345D01*
X100643378Y-74935256D01*
X100634665Y-74492219D01*
X100626890Y-73955507D01*
X100619831Y-73315389D01*
X100613261Y-72562136D01*
X100606956Y-71686018D01*
X100600691Y-70677307D01*
X100594240Y-69526272D01*
X100587378Y-68223184D01*
X100546933Y-60394586D01*
X93715940Y-68408123D01*
X93521114Y-68636645D01*
X92686321Y-69615103D01*
X91880217Y-70558797D01*
X91109146Y-71460354D01*
X90379452Y-72312401D01*
X89697481Y-73107568D01*
X89069577Y-73838480D01*
X88502083Y-74497765D01*
X88001344Y-75078052D01*
X87573705Y-75571968D01*
X87225510Y-75972140D01*
X86963103Y-76271197D01*
X86792828Y-76461765D01*
X86721031Y-76536472D01*
X86628392Y-76587277D01*
X86337888Y-76640932D01*
X86021205Y-76593349D01*
X85736996Y-76458737D01*
X85543917Y-76251307D01*
X85534830Y-76205992D01*
X85520694Y-76003141D01*
X85508057Y-75641309D01*
X85496918Y-75120183D01*
X85487273Y-74439454D01*
X85479119Y-73598812D01*
X85472455Y-72597945D01*
X85467276Y-71436543D01*
X85463580Y-70114297D01*
X85461365Y-68630894D01*
X85460627Y-66986025D01*
X85460611Y-66373510D01*
X85460562Y-65002390D01*
X85460792Y-63780601D01*
X85461664Y-62699332D01*
X85463545Y-61749774D01*
X85466798Y-60923115D01*
X85471787Y-60210545D01*
X85478879Y-59603255D01*
X85488436Y-59092433D01*
X85500824Y-58669269D01*
X85516408Y-58324953D01*
X85535551Y-58050675D01*
X85558619Y-57837624D01*
X85585976Y-57676990D01*
X85617986Y-57559963D01*
X85655015Y-57477732D01*
X85697427Y-57421486D01*
X85745586Y-57382416D01*
X85799857Y-57351712D01*
X85860605Y-57320562D01*
X85874905Y-57313118D01*
X86200882Y-57232361D01*
X86544628Y-57288383D01*
G37*
G36*
X141956578Y-57288077D02*
G01*
X142256369Y-57465098D01*
X142374216Y-57581465D01*
X142481801Y-57767664D01*
X142505739Y-58011118D01*
X142492598Y-58069589D01*
X142422290Y-58275772D01*
X142295466Y-58611433D01*
X142116871Y-59065420D01*
X141891251Y-59626577D01*
X141623352Y-60283750D01*
X141317918Y-61025785D01*
X140979697Y-61841527D01*
X140613433Y-62719823D01*
X140223872Y-63649517D01*
X139815760Y-64619455D01*
X139393843Y-65618483D01*
X138962866Y-66635447D01*
X138527574Y-67659192D01*
X138092714Y-68678563D01*
X137663031Y-69682407D01*
X137243270Y-70659570D01*
X136838179Y-71598895D01*
X136452501Y-72489231D01*
X136090982Y-73319421D01*
X135758369Y-74078312D01*
X135459407Y-74754749D01*
X135198842Y-75337577D01*
X134981419Y-75815644D01*
X134811884Y-76177793D01*
X134694983Y-76412872D01*
X134635461Y-76509724D01*
X134501507Y-76591964D01*
X134198310Y-76654819D01*
X133878629Y-76598981D01*
X133598649Y-76428833D01*
X133579635Y-76404264D01*
X133489462Y-76241790D01*
X133343925Y-75945536D01*
X133147832Y-75526779D01*
X132905991Y-74996791D01*
X132623213Y-74366847D01*
X132304306Y-73648222D01*
X131954079Y-72852191D01*
X131577340Y-71990026D01*
X131178898Y-71073004D01*
X130763563Y-70112398D01*
X130336143Y-69119483D01*
X129901447Y-68105533D01*
X129464285Y-67081822D01*
X129029464Y-66059626D01*
X128601793Y-65050218D01*
X128186083Y-64064872D01*
X127787140Y-63114864D01*
X127409775Y-62211468D01*
X127058796Y-61365957D01*
X126739013Y-60589607D01*
X126455233Y-59893692D01*
X126212266Y-59289486D01*
X126014921Y-58788264D01*
X125868006Y-58401299D01*
X125776330Y-58139867D01*
X125744703Y-58015242D01*
X125749507Y-57924028D01*
X125851089Y-57614606D01*
X126059963Y-57390098D01*
X126343428Y-57266778D01*
X126668787Y-57260921D01*
X127003343Y-57388800D01*
X127033541Y-57404917D01*
X127061585Y-57417716D01*
X127088437Y-57432862D01*
X127117180Y-57457329D01*
X127150900Y-57498088D01*
X127192681Y-57562111D01*
X127245607Y-57656370D01*
X127312764Y-57787839D01*
X127397236Y-57963488D01*
X127502108Y-58190291D01*
X127630464Y-58475220D01*
X127785389Y-58825246D01*
X127969967Y-59247342D01*
X128187284Y-59748480D01*
X128440423Y-60335633D01*
X128732470Y-61015772D01*
X129066509Y-61795871D01*
X129445625Y-62682900D01*
X129872903Y-63683833D01*
X130351426Y-64805642D01*
X130884280Y-66055298D01*
X131474549Y-67439774D01*
X132125319Y-68966043D01*
X132300356Y-69376386D01*
X132685332Y-70277361D01*
X133014004Y-71043443D01*
X133291047Y-71684681D01*
X133521136Y-72211125D01*
X133708945Y-72632824D01*
X133859148Y-72959827D01*
X133976419Y-73202182D01*
X134065433Y-73369940D01*
X134130865Y-73473150D01*
X134177388Y-73521860D01*
X134209678Y-73526120D01*
X134232407Y-73495979D01*
X134270299Y-73407969D01*
X134368313Y-73178638D01*
X134521426Y-72819693D01*
X134725375Y-72341153D01*
X134975894Y-71753033D01*
X135268719Y-71065352D01*
X135599585Y-70288125D01*
X135964228Y-69431370D01*
X136358382Y-68505103D01*
X136777783Y-67519341D01*
X137218166Y-66484102D01*
X137675267Y-65409401D01*
X137699341Y-65352801D01*
X138300082Y-63942655D01*
X138840491Y-62678856D01*
X139321925Y-61558328D01*
X139745739Y-60577994D01*
X140113288Y-59734778D01*
X140425930Y-59025604D01*
X140685019Y-58447395D01*
X140891912Y-57997077D01*
X141047963Y-57671572D01*
X141154530Y-57467804D01*
X141212967Y-57382697D01*
X141313867Y-57318680D01*
X141625787Y-57237958D01*
X141956578Y-57288077D01*
G37*
G36*
X198557667Y-70121566D02*
G01*
X198510823Y-70720185D01*
X198427216Y-71221569D01*
X198413770Y-71277727D01*
X198093708Y-72266513D01*
X197639028Y-73186719D01*
X197062833Y-74025859D01*
X196378221Y-74771445D01*
X195598294Y-75410991D01*
X194736152Y-75932011D01*
X193804894Y-76322016D01*
X192817621Y-76568520D01*
X192249951Y-76637458D01*
X191249566Y-76637415D01*
X190249148Y-76492458D01*
X189272974Y-76210365D01*
X188345322Y-75798915D01*
X187490472Y-75265885D01*
X186732700Y-74619053D01*
X186586545Y-74469624D01*
X185964174Y-73735667D01*
X185473639Y-72964908D01*
X185103274Y-72132161D01*
X184841409Y-71212236D01*
X184676378Y-70179947D01*
X184658705Y-69629038D01*
X184691215Y-69257634D01*
X186348473Y-69257634D01*
X186356116Y-70017845D01*
X186443451Y-70732604D01*
X186685891Y-71590042D01*
X187076564Y-72385877D01*
X187617134Y-73123338D01*
X188309266Y-73805653D01*
X188565532Y-73999908D01*
X189014165Y-74276336D01*
X189514953Y-74531684D01*
X190010107Y-74737262D01*
X190441838Y-74864379D01*
X190540869Y-74882336D01*
X190973965Y-74927229D01*
X191487105Y-74943092D01*
X192020330Y-74930863D01*
X192513679Y-74891477D01*
X192907192Y-74825871D01*
X193205359Y-74743802D01*
X193947696Y-74441401D01*
X194644935Y-74003671D01*
X195319733Y-73417385D01*
X195708938Y-73008918D01*
X196171016Y-72422924D01*
X196505001Y-71833169D01*
X196725466Y-71204979D01*
X196846979Y-70503679D01*
X196884113Y-69694597D01*
X196883786Y-69534299D01*
X196877101Y-69131193D01*
X196856354Y-68824616D01*
X196814461Y-68565392D01*
X196744339Y-68304345D01*
X196638904Y-67992298D01*
X196445245Y-67517083D01*
X195994123Y-66720681D01*
X195425196Y-66015144D01*
X194754101Y-65415770D01*
X193996474Y-64937855D01*
X193167952Y-64596697D01*
X192689209Y-64488676D01*
X192086123Y-64424189D01*
X191446185Y-64412861D01*
X190829531Y-64455600D01*
X190296296Y-64553316D01*
X190238103Y-64569189D01*
X189403969Y-64883063D01*
X188628217Y-65334366D01*
X187933366Y-65904813D01*
X187341936Y-66576119D01*
X186876448Y-67330000D01*
X186605977Y-67951623D01*
X186428339Y-68586563D01*
X186348473Y-69257634D01*
X184691215Y-69257634D01*
X184718971Y-68940541D01*
X184852177Y-68209254D01*
X185047617Y-67481894D01*
X185294589Y-66805178D01*
X185582388Y-66225822D01*
X186104642Y-65452125D01*
X186814350Y-64656342D01*
X187623108Y-63986086D01*
X188525048Y-63446111D01*
X189514299Y-63041172D01*
X189910590Y-62923182D01*
X190291474Y-62840867D01*
X190704033Y-62789213D01*
X191213196Y-62757372D01*
X192170543Y-62715135D01*
X190020044Y-60559219D01*
X189681413Y-60219665D01*
X189191958Y-59727808D01*
X188799689Y-59330563D01*
X188493849Y-59015415D01*
X188263684Y-58769847D01*
X188098437Y-58581344D01*
X187987354Y-58437390D01*
X187919679Y-58325468D01*
X187884656Y-58233063D01*
X187871529Y-58147659D01*
X187869544Y-58056740D01*
X187903294Y-57798851D01*
X188061532Y-57500149D01*
X188331207Y-57306313D01*
X188692310Y-57237272D01*
X189042170Y-57237272D01*
X193094691Y-61302081D01*
X193393063Y-61601440D01*
X194184821Y-62397113D01*
X194872970Y-63091697D01*
X195465861Y-63694762D01*
X195971847Y-64215878D01*
X196399277Y-64664615D01*
X196756504Y-65050542D01*
X197051879Y-65383228D01*
X197293754Y-65672245D01*
X197490479Y-65927161D01*
X197650407Y-66157545D01*
X197781888Y-66372969D01*
X197893275Y-66583001D01*
X197992917Y-66797212D01*
X198089168Y-67025170D01*
X198193200Y-67302786D01*
X198330295Y-67726360D01*
X198436276Y-68117208D01*
X198475936Y-68316463D01*
X198540390Y-68862289D01*
X198567578Y-69483129D01*
X198564295Y-69694597D01*
X198557667Y-70121566D01*
G37*
G36*
X181796716Y-69406282D02*
G01*
X182050392Y-69714234D01*
X182216119Y-69919847D01*
X182285198Y-70012900D01*
X182333861Y-70180447D01*
X182309169Y-70467029D01*
X182189259Y-70754837D01*
X181992038Y-70984525D01*
X181978945Y-70994705D01*
X181930990Y-71027487D01*
X181871257Y-71055322D01*
X181787244Y-71078612D01*
X181666452Y-71097763D01*
X181496380Y-71113180D01*
X181264527Y-71125267D01*
X180958394Y-71134429D01*
X180565479Y-71141072D01*
X180073283Y-71145598D01*
X179469305Y-71148415D01*
X178741045Y-71149925D01*
X177876002Y-71150535D01*
X176861676Y-71150648D01*
X171942506Y-71150648D01*
X171917967Y-73665033D01*
X171893429Y-76179418D01*
X171619057Y-76424463D01*
X171423669Y-76577189D01*
X171248686Y-76637149D01*
X171020250Y-76625993D01*
X170764307Y-76554427D01*
X170485705Y-76372476D01*
X170275595Y-76162475D01*
X170252061Y-73656561D01*
X170228527Y-71150648D01*
X169981165Y-71150648D01*
X169968075Y-71150573D01*
X169599666Y-71083223D01*
X169298880Y-70907409D01*
X169096117Y-70649011D01*
X169021773Y-70333907D01*
X169026853Y-70252837D01*
X169137000Y-69948662D01*
X169364454Y-69693239D01*
X169673974Y-69517387D01*
X170030322Y-69451922D01*
X170235149Y-69451922D01*
X171933875Y-69451922D01*
X175786137Y-69451922D01*
X176103344Y-69451899D01*
X176940480Y-69451424D01*
X177633289Y-69449953D01*
X178194820Y-69446993D01*
X178638128Y-69442049D01*
X178976263Y-69434629D01*
X179222278Y-69424238D01*
X179389226Y-69410384D01*
X179490157Y-69392572D01*
X179538125Y-69370310D01*
X179546182Y-69343104D01*
X179527379Y-69310460D01*
X179523846Y-69306037D01*
X179439463Y-69204547D01*
X179262296Y-68993736D01*
X179002727Y-68685857D01*
X178671138Y-68293166D01*
X178277911Y-67827918D01*
X177833429Y-67302368D01*
X177348073Y-66728772D01*
X176832227Y-66119384D01*
X176296271Y-65486459D01*
X175750589Y-64842253D01*
X175205562Y-64199021D01*
X174671574Y-63569017D01*
X174159005Y-62964497D01*
X173678238Y-62397716D01*
X173239656Y-61880929D01*
X172853641Y-61426391D01*
X172530574Y-61046357D01*
X172280839Y-60753082D01*
X172114817Y-60558821D01*
X172042890Y-60475830D01*
X172025078Y-60467532D01*
X172004046Y-60500828D01*
X171986393Y-60595611D01*
X171971844Y-60763025D01*
X171960125Y-61014212D01*
X171950961Y-61360318D01*
X171944079Y-61812486D01*
X171939203Y-62381859D01*
X171936060Y-63079582D01*
X171934376Y-63916798D01*
X171933875Y-64904651D01*
X171933875Y-69451922D01*
X170235149Y-69451922D01*
X170235149Y-63664147D01*
X170235147Y-63344747D01*
X170235283Y-62245590D01*
X170236178Y-61294164D01*
X170238531Y-60479372D01*
X170243041Y-59790118D01*
X170250408Y-59215308D01*
X170261332Y-58743845D01*
X170276512Y-58364634D01*
X170296648Y-58066580D01*
X170322439Y-57838587D01*
X170354585Y-57669559D01*
X170393786Y-57548402D01*
X170440741Y-57464019D01*
X170496150Y-57405315D01*
X170560712Y-57361194D01*
X170635127Y-57320562D01*
X170655725Y-57310117D01*
X170953694Y-57240828D01*
X171280944Y-57273836D01*
X171555052Y-57401858D01*
X171558266Y-57404546D01*
X171649526Y-57500030D01*
X171835504Y-57707863D01*
X172107504Y-58017824D01*
X172456825Y-58419687D01*
X172874770Y-58903231D01*
X173352640Y-59458232D01*
X173881736Y-60074467D01*
X174453360Y-60741712D01*
X175058814Y-61449745D01*
X175689399Y-62188341D01*
X176336416Y-62947279D01*
X176991168Y-63716334D01*
X177644955Y-64485283D01*
X178289079Y-65243903D01*
X178914842Y-65981971D01*
X179513545Y-66689264D01*
X180076490Y-67355558D01*
X180594978Y-67970630D01*
X181060311Y-68524257D01*
X181463789Y-69006215D01*
X181744141Y-69343104D01*
X181796716Y-69406282D01*
G37*
G36*
X153226383Y-69915755D02*
G01*
X153631669Y-70867527D01*
X153886120Y-71465489D01*
X154212536Y-72234061D01*
X154517950Y-72954844D01*
X154796284Y-73613412D01*
X155041463Y-74195335D01*
X155247410Y-74686186D01*
X155408050Y-75071536D01*
X155517305Y-75336958D01*
X155569101Y-75468022D01*
X155575990Y-75487974D01*
X155626540Y-75863551D01*
X155529574Y-76207807D01*
X155293862Y-76488236D01*
X155079862Y-76599441D01*
X154806278Y-76651285D01*
X154677615Y-76643216D01*
X154541137Y-76605912D01*
X154410367Y-76525781D01*
X154277103Y-76389390D01*
X154133141Y-76183308D01*
X153970280Y-75894104D01*
X153780317Y-75508345D01*
X153555050Y-75012600D01*
X153286276Y-74393437D01*
X152965792Y-73637424D01*
X151918021Y-71149359D01*
X147232243Y-71170226D01*
X142546465Y-71191094D01*
X141441816Y-73769991D01*
X141134084Y-74481399D01*
X140835770Y-75153947D01*
X140585661Y-75697559D01*
X140386346Y-76106767D01*
X140240411Y-76376099D01*
X140150445Y-76500086D01*
X139926305Y-76615613D01*
X139598056Y-76638540D01*
X139252001Y-76529110D01*
X139094735Y-76428721D01*
X138908065Y-76187256D01*
X138849162Y-75854849D01*
X138868217Y-75765847D01*
X138944738Y-75534090D01*
X139072890Y-75187894D01*
X139245230Y-74746249D01*
X139454315Y-74228148D01*
X139692702Y-73652583D01*
X139952946Y-73038544D01*
X140009558Y-72906410D01*
X140234586Y-72380634D01*
X140513393Y-71728543D01*
X140838606Y-70967415D01*
X141202848Y-70114526D01*
X141515266Y-69382700D01*
X143311688Y-69382700D01*
X143311999Y-69384173D01*
X143400900Y-69397822D01*
X143634575Y-69410537D01*
X143997627Y-69422044D01*
X144474661Y-69432072D01*
X145050283Y-69440347D01*
X145709096Y-69446595D01*
X146435704Y-69450545D01*
X147214714Y-69451922D01*
X147293511Y-69451910D01*
X148069246Y-69450515D01*
X148791960Y-69446958D01*
X149446115Y-69441473D01*
X150016174Y-69434290D01*
X150486600Y-69425642D01*
X150841855Y-69415760D01*
X151066402Y-69404878D01*
X151144703Y-69393227D01*
X151118614Y-69320894D01*
X151034990Y-69113827D01*
X150900314Y-68788281D01*
X150721284Y-68359974D01*
X150504594Y-67844621D01*
X150256942Y-67257939D01*
X149985023Y-66615644D01*
X149695533Y-65933452D01*
X149395170Y-65227081D01*
X149090628Y-64512245D01*
X148788604Y-63804662D01*
X148495794Y-63120048D01*
X148218895Y-62474119D01*
X147964602Y-61882592D01*
X147739611Y-61361182D01*
X147550620Y-60925607D01*
X147404323Y-60591582D01*
X147307417Y-60374824D01*
X147266599Y-60291049D01*
X147235050Y-60345016D01*
X147145636Y-60532591D01*
X147005302Y-60839605D01*
X146820697Y-61250773D01*
X146598471Y-61750807D01*
X146345275Y-62324422D01*
X146067757Y-62956329D01*
X145772568Y-63631243D01*
X145466357Y-64333878D01*
X145155774Y-65048945D01*
X144847469Y-65761160D01*
X144548091Y-66455235D01*
X144264291Y-67115883D01*
X144002717Y-67727819D01*
X143770021Y-68275755D01*
X143572851Y-68744405D01*
X143417856Y-69118482D01*
X143311688Y-69382700D01*
X141515266Y-69382700D01*
X141598745Y-69187154D01*
X142018922Y-68202579D01*
X142456003Y-67178078D01*
X142902614Y-66130927D01*
X143351379Y-65078407D01*
X143794924Y-64037794D01*
X144108798Y-63302751D01*
X144512151Y-62362572D01*
X144896780Y-61470933D01*
X145257766Y-60638998D01*
X145590189Y-59877931D01*
X145889129Y-59198895D01*
X146149666Y-58613052D01*
X146366879Y-58131568D01*
X146535849Y-57765604D01*
X146651656Y-57526326D01*
X146709380Y-57424896D01*
X146902128Y-57293917D01*
X147200661Y-57230507D01*
X147513834Y-57272190D01*
X147781968Y-57419278D01*
X147798196Y-57436561D01*
X147884745Y-57571991D01*
X148017428Y-57825928D01*
X148198285Y-58202884D01*
X148429359Y-58707368D01*
X148712690Y-59343889D01*
X149050320Y-60116958D01*
X149444290Y-61031083D01*
X149896642Y-62090775D01*
X149899994Y-62098659D01*
X150320733Y-63087918D01*
X150785075Y-64179474D01*
X151277752Y-65337441D01*
X151783492Y-66525936D01*
X152287024Y-67709076D01*
X152773078Y-68850977D01*
X153003929Y-69393227D01*
X153226383Y-69915755D01*
G37*
G36*
X126984002Y-69907298D02*
G01*
X127374896Y-70832067D01*
X127745013Y-71708860D01*
X128089600Y-72526477D01*
X128403905Y-73273718D01*
X128683175Y-73939383D01*
X128922657Y-74512271D01*
X129117598Y-74981182D01*
X129263247Y-75334915D01*
X129354849Y-75562270D01*
X129387652Y-75652047D01*
X129396203Y-75915336D01*
X129327065Y-76180545D01*
X129148378Y-76414832D01*
X128865556Y-76604573D01*
X128535962Y-76646647D01*
X128174812Y-76531683D01*
X128162819Y-76525495D01*
X128099180Y-76490790D01*
X128041157Y-76448175D01*
X127981849Y-76383555D01*
X127914352Y-76282837D01*
X127831764Y-76131930D01*
X127727184Y-75916739D01*
X127593708Y-75623173D01*
X127424435Y-75237138D01*
X127212462Y-74744541D01*
X126950886Y-74131290D01*
X126632805Y-73383291D01*
X125700844Y-71191094D01*
X121010831Y-71171361D01*
X116320818Y-71151629D01*
X115231485Y-73719451D01*
X115047933Y-74148689D01*
X114787651Y-74745413D01*
X114547203Y-75282888D01*
X114334964Y-75743054D01*
X114159314Y-76107852D01*
X114028630Y-76359222D01*
X113951290Y-76479105D01*
X113803353Y-76598426D01*
X113637816Y-76642163D01*
X113385012Y-76628624D01*
X113230748Y-76601239D01*
X112912270Y-76454193D01*
X112710646Y-76207553D01*
X112640245Y-75875842D01*
X112654408Y-75796995D01*
X112731193Y-75554651D01*
X112874434Y-75165934D01*
X113083899Y-74631426D01*
X113359353Y-73951705D01*
X113700565Y-73127353D01*
X114107301Y-72158948D01*
X114579328Y-71047073D01*
X114593728Y-71013300D01*
X115021816Y-70009265D01*
X115314228Y-69323394D01*
X117121240Y-69323394D01*
X117124588Y-69353683D01*
X117158491Y-69378814D01*
X117236073Y-69399267D01*
X117370456Y-69415519D01*
X117574763Y-69428051D01*
X117862117Y-69437340D01*
X118245641Y-69443867D01*
X118738456Y-69448109D01*
X119353687Y-69450547D01*
X120104455Y-69451658D01*
X121003883Y-69451922D01*
X121084259Y-69451915D01*
X121860103Y-69451173D01*
X122582899Y-69449286D01*
X123237113Y-69446376D01*
X123807212Y-69442566D01*
X124277663Y-69437980D01*
X124632931Y-69432740D01*
X124857483Y-69426969D01*
X124935786Y-69420791D01*
X124935784Y-69420740D01*
X124904437Y-69341646D01*
X124815087Y-69126828D01*
X124673220Y-68789240D01*
X124484320Y-68341838D01*
X124253874Y-67797579D01*
X123987367Y-67169417D01*
X123690285Y-66470309D01*
X123368113Y-65713211D01*
X123026337Y-64911078D01*
X122688075Y-64117503D01*
X122362373Y-63353027D01*
X122060391Y-62643859D01*
X121787809Y-62003357D01*
X121550308Y-61444876D01*
X121353567Y-60981775D01*
X121203267Y-60627411D01*
X121105089Y-60395141D01*
X121064713Y-60298322D01*
X121061943Y-60295185D01*
X121009785Y-60361708D01*
X120898677Y-60573382D01*
X120730430Y-60926187D01*
X120506858Y-61416104D01*
X120229772Y-62039111D01*
X119900985Y-62791188D01*
X119522308Y-63668316D01*
X119095556Y-64666474D01*
X119093487Y-64671332D01*
X118749508Y-65479489D01*
X118423634Y-66245620D01*
X118121529Y-66956377D01*
X117848858Y-67598407D01*
X117611286Y-68158358D01*
X117414477Y-68622881D01*
X117264097Y-68978623D01*
X117165808Y-69212234D01*
X117125277Y-69310361D01*
X117121240Y-69323394D01*
X115314228Y-69323394D01*
X115495056Y-68899251D01*
X115997931Y-67719656D01*
X116514926Y-66506881D01*
X117030524Y-65297325D01*
X117529209Y-64127387D01*
X117995464Y-63033467D01*
X118413773Y-62051965D01*
X118736125Y-61298451D01*
X119067186Y-60530706D01*
X119377806Y-59816557D01*
X119661921Y-59169643D01*
X119913468Y-58603601D01*
X120126384Y-58132069D01*
X120294605Y-57768685D01*
X120412068Y-57527088D01*
X120472709Y-57420914D01*
X120497578Y-57394414D01*
X120691121Y-57272735D01*
X120971289Y-57237272D01*
X121063409Y-57238981D01*
X121374309Y-57291180D01*
X121594443Y-57437249D01*
X121772286Y-57705523D01*
X121782267Y-57725860D01*
X121859221Y-57894984D01*
X121991441Y-58195338D01*
X122174175Y-58615722D01*
X122402670Y-59144936D01*
X122672174Y-59771780D01*
X122977934Y-60485053D01*
X123315197Y-61273554D01*
X123679210Y-62126084D01*
X124065221Y-63031442D01*
X124468477Y-63978427D01*
X124884225Y-64955840D01*
X125307712Y-65952479D01*
X125734186Y-66957145D01*
X126158895Y-67958637D01*
X126577084Y-68945755D01*
X126778116Y-69420791D01*
X126984002Y-69907298D01*
G37*
G36*
X267345659Y-78309565D02*
G01*
X267081315Y-78921816D01*
X267059457Y-78971314D01*
X266712367Y-79571456D01*
X266257019Y-80099422D01*
X265720734Y-80532812D01*
X265130835Y-80849224D01*
X264514643Y-81026258D01*
X264483236Y-81027684D01*
X264301833Y-81030326D01*
X263963536Y-81032892D01*
X263471546Y-81035381D01*
X262829064Y-81037790D01*
X262039289Y-81040120D01*
X261105421Y-81042367D01*
X260030661Y-81044533D01*
X258818209Y-81046614D01*
X257471265Y-81048610D01*
X255993029Y-81050519D01*
X254386701Y-81052341D01*
X252655482Y-81054074D01*
X250802571Y-81055717D01*
X248831169Y-81057269D01*
X246744476Y-81058728D01*
X244545693Y-81060093D01*
X242238018Y-81061363D01*
X239824653Y-81062537D01*
X237308797Y-81063613D01*
X234693651Y-81064591D01*
X231982415Y-81065468D01*
X229178289Y-81066244D01*
X226284473Y-81066917D01*
X223304168Y-81067487D01*
X220240573Y-81067952D01*
X217096888Y-81068310D01*
X213876315Y-81068561D01*
X210582052Y-81068703D01*
X207217301Y-81068736D01*
X203785261Y-81068657D01*
X200289132Y-81068465D01*
X196732115Y-81068160D01*
X193117409Y-81067740D01*
X189448216Y-81067204D01*
X185727734Y-81066550D01*
X181959165Y-81065778D01*
X178145708Y-81064886D01*
X174290564Y-81063873D01*
X170396933Y-81062737D01*
X169776410Y-81062547D01*
X165090387Y-81061098D01*
X160563066Y-81059673D01*
X156191721Y-81058266D01*
X151973625Y-81056873D01*
X147906050Y-81055489D01*
X143986271Y-81054110D01*
X140211561Y-81052730D01*
X136579191Y-81051346D01*
X133086437Y-81049952D01*
X129730571Y-81048544D01*
X126508865Y-81047117D01*
X123418594Y-81045667D01*
X120457030Y-81044189D01*
X117621448Y-81042678D01*
X114909119Y-81041130D01*
X112317317Y-81039539D01*
X109843315Y-81037902D01*
X107484387Y-81036214D01*
X105237805Y-81034469D01*
X103100843Y-81032664D01*
X101070775Y-81030794D01*
X99144872Y-81028854D01*
X97320409Y-81026839D01*
X95594658Y-81024745D01*
X93964894Y-81022567D01*
X92428388Y-81020300D01*
X90982414Y-81017940D01*
X89624246Y-81015482D01*
X88351157Y-81012922D01*
X87160419Y-81010255D01*
X86049306Y-81007476D01*
X85015091Y-81004580D01*
X84055047Y-81001563D01*
X83166448Y-80998420D01*
X82346567Y-80995147D01*
X81592676Y-80991739D01*
X80902050Y-80988191D01*
X80271960Y-80984498D01*
X79699682Y-80980657D01*
X79182487Y-80976662D01*
X78717648Y-80972508D01*
X78302440Y-80968192D01*
X77934135Y-80963707D01*
X77610007Y-80959051D01*
X77327328Y-80954217D01*
X77083371Y-80949202D01*
X76875411Y-80944001D01*
X76700720Y-80938608D01*
X76556571Y-80933020D01*
X76440238Y-80927232D01*
X76348994Y-80921239D01*
X76280111Y-80915036D01*
X76230864Y-80908619D01*
X76198525Y-80901983D01*
X75807672Y-80770834D01*
X75170014Y-80437675D01*
X74617639Y-79992219D01*
X74168754Y-79453966D01*
X73841563Y-78842412D01*
X73654271Y-78177056D01*
X73644105Y-78053427D01*
X73633125Y-77769323D01*
X73623001Y-77345082D01*
X73613735Y-76792316D01*
X73605328Y-76122637D01*
X73597782Y-75347657D01*
X73591096Y-74478988D01*
X73585274Y-73528243D01*
X73580316Y-72507035D01*
X73576222Y-71426974D01*
X73572995Y-70299674D01*
X73570636Y-69136747D01*
X73569145Y-67949804D01*
X73568525Y-66750459D01*
X73568775Y-65550324D01*
X73569898Y-64361010D01*
X73571895Y-63194130D01*
X73574152Y-62303649D01*
X75116508Y-62303649D01*
X75117202Y-63709733D01*
X75119249Y-65268591D01*
X75122622Y-66984724D01*
X75123648Y-67434868D01*
X75127456Y-68973867D01*
X75131447Y-70360848D01*
X75135714Y-71603473D01*
X75140353Y-72709404D01*
X75145457Y-73686302D01*
X75151121Y-74541830D01*
X75157437Y-75283649D01*
X75164502Y-75919421D01*
X75172408Y-76456809D01*
X75181249Y-76903473D01*
X75191121Y-77267075D01*
X75202116Y-77555279D01*
X75214330Y-77775745D01*
X75227855Y-77936135D01*
X75242787Y-78044111D01*
X75259219Y-78107336D01*
X75333847Y-78274601D01*
X75661686Y-78760143D01*
X76103857Y-79141760D01*
X76441200Y-79361157D01*
X170356487Y-79372067D01*
X172629561Y-79372320D01*
X176503840Y-79372697D01*
X180337392Y-79373004D01*
X184127031Y-79373242D01*
X187869572Y-79373410D01*
X191561828Y-79373512D01*
X195200614Y-79373546D01*
X198782744Y-79373515D01*
X202305033Y-79373419D01*
X205764295Y-79373259D01*
X209157344Y-79373037D01*
X212480995Y-79372753D01*
X215732062Y-79372408D01*
X218907359Y-79372003D01*
X222003700Y-79371539D01*
X225017901Y-79371017D01*
X227946774Y-79370438D01*
X230787135Y-79369803D01*
X233535797Y-79369113D01*
X236189576Y-79368368D01*
X238745285Y-79367571D01*
X241199739Y-79366722D01*
X243549751Y-79365821D01*
X245792137Y-79364870D01*
X247923711Y-79363869D01*
X249941286Y-79362821D01*
X251841678Y-79361725D01*
X253621700Y-79360582D01*
X255278167Y-79359394D01*
X256807893Y-79358162D01*
X258207693Y-79356886D01*
X259474380Y-79355567D01*
X260604770Y-79354207D01*
X261595676Y-79352807D01*
X262443912Y-79351366D01*
X263146294Y-79349887D01*
X263699635Y-79348370D01*
X264100749Y-79346817D01*
X264346452Y-79345227D01*
X264433557Y-79343603D01*
X264608888Y-79265923D01*
X264854059Y-79107351D01*
X265103375Y-78910557D01*
X265300830Y-78716064D01*
X265340251Y-78670891D01*
X265390251Y-78613863D01*
X265435274Y-78555806D01*
X265475564Y-78488682D01*
X265511365Y-78404453D01*
X265542919Y-78295081D01*
X265570472Y-78152529D01*
X265594266Y-77968760D01*
X265614546Y-77735734D01*
X265631555Y-77445416D01*
X265645537Y-77089767D01*
X265656735Y-76660748D01*
X265665395Y-76150324D01*
X265671758Y-75550455D01*
X265676070Y-74853105D01*
X265678573Y-74050235D01*
X265679512Y-73133808D01*
X265679130Y-72095786D01*
X265677672Y-70928131D01*
X265675380Y-69622806D01*
X265672498Y-68171773D01*
X265669271Y-66566995D01*
X265646933Y-55228883D01*
X265402151Y-54880618D01*
X265312898Y-54762811D01*
X264976301Y-54426839D01*
X264597750Y-54178340D01*
X264223985Y-54050258D01*
X264194973Y-54049227D01*
X264018123Y-54047290D01*
X263684375Y-54045369D01*
X263196925Y-54043464D01*
X262558967Y-54041579D01*
X261773699Y-54039714D01*
X260844314Y-54037872D01*
X259774009Y-54036053D01*
X258565979Y-54034261D01*
X257223419Y-54032495D01*
X255749524Y-54030759D01*
X254147491Y-54029053D01*
X252420514Y-54027380D01*
X250571789Y-54025741D01*
X248604512Y-54024138D01*
X246521877Y-54022572D01*
X244327081Y-54021046D01*
X242023318Y-54019560D01*
X239613784Y-54018117D01*
X237101675Y-54016718D01*
X234490185Y-54015365D01*
X231782511Y-54014060D01*
X228981848Y-54012804D01*
X226091390Y-54011599D01*
X223114335Y-54010446D01*
X220053876Y-54009348D01*
X216913210Y-54008306D01*
X213695532Y-54007322D01*
X210404037Y-54006397D01*
X207041921Y-54005533D01*
X203612378Y-54004733D01*
X200118606Y-54003996D01*
X196563798Y-54003326D01*
X192951151Y-54002724D01*
X189283859Y-54002191D01*
X185565119Y-54001729D01*
X181798126Y-54001341D01*
X177986074Y-54001027D01*
X174132160Y-54000789D01*
X170239579Y-54000629D01*
X76547528Y-53997750D01*
X76178602Y-54181683D01*
X75941767Y-54332839D01*
X75606203Y-54683504D01*
X75347810Y-55136908D01*
X75188796Y-55659883D01*
X75175502Y-55780788D01*
X75162833Y-56014522D01*
X75151753Y-56360507D01*
X75142238Y-56823246D01*
X75134259Y-57407242D01*
X75127792Y-58116996D01*
X75122810Y-58957011D01*
X75119286Y-59931790D01*
X75117194Y-61045835D01*
X75116508Y-62303649D01*
X73574152Y-62303649D01*
X73574766Y-62061296D01*
X73578514Y-60974121D01*
X73583139Y-59944217D01*
X73588642Y-58983195D01*
X73595025Y-58102669D01*
X73602289Y-57314250D01*
X73610435Y-56629552D01*
X73619464Y-56060185D01*
X73629378Y-55617762D01*
X73640178Y-55313896D01*
X73651865Y-55160198D01*
X73821290Y-54541076D01*
X74148279Y-53924833D01*
X74630211Y-53346402D01*
X74761078Y-53220758D01*
X75325461Y-52797649D01*
X75944915Y-52520766D01*
X76641505Y-52379500D01*
X76678239Y-52378107D01*
X76869337Y-52375600D01*
X77217293Y-52373217D01*
X77718897Y-52370957D01*
X78370942Y-52368820D01*
X79170221Y-52366808D01*
X80113524Y-52364919D01*
X81197644Y-52363154D01*
X82419373Y-52361514D01*
X83775503Y-52359998D01*
X85262825Y-52358607D01*
X86878133Y-52357342D01*
X88618217Y-52356201D01*
X90479871Y-52355185D01*
X92459885Y-52354296D01*
X94555052Y-52353532D01*
X96762163Y-52352894D01*
X99078012Y-52352382D01*
X101499389Y-52351997D01*
X104023087Y-52351738D01*
X106645898Y-52351606D01*
X109364613Y-52351601D01*
X112176026Y-52351723D01*
X115076927Y-52351973D01*
X118064108Y-52352350D01*
X121134362Y-52352856D01*
X124284481Y-52353489D01*
X127511257Y-52354251D01*
X130811481Y-52355141D01*
X134181946Y-52356159D01*
X137619444Y-52357307D01*
X141120766Y-52358583D01*
X144682704Y-52359989D01*
X148302052Y-52361525D01*
X151975599Y-52363190D01*
X155700140Y-52364985D01*
X159472465Y-52366910D01*
X163289366Y-52368965D01*
X167147636Y-52371151D01*
X171044066Y-52373468D01*
X264838015Y-52430543D01*
X265358432Y-52696843D01*
X265371583Y-52703620D01*
X265862755Y-53020453D01*
X266331739Y-53434925D01*
X266733547Y-53901678D01*
X267023193Y-54375351D01*
X267083687Y-54515917D01*
X267227633Y-54971867D01*
X267318727Y-55454799D01*
X267321130Y-55480364D01*
X267329993Y-55678212D01*
X267338133Y-56026428D01*
X267345510Y-56515941D01*
X267352085Y-57137682D01*
X267357820Y-57882579D01*
X267362676Y-58741563D01*
X267366615Y-59705563D01*
X267369597Y-60765508D01*
X267371585Y-61912329D01*
X267372538Y-63136954D01*
X267372420Y-64430313D01*
X267371189Y-65783337D01*
X267368809Y-67186954D01*
X267356432Y-73133808D01*
X267345659Y-78309565D01*
G37*
G36*
X256339240Y-58638788D02*
G01*
X256305943Y-59075701D01*
X256216415Y-59411955D01*
X256054342Y-59692177D01*
X255803414Y-59960994D01*
X255766537Y-59993643D01*
X255636171Y-60085567D01*
X255474586Y-60158201D01*
X255263138Y-60213719D01*
X254983181Y-60254298D01*
X254616071Y-60282111D01*
X254143162Y-60299333D01*
X253545811Y-60308140D01*
X252805372Y-60310706D01*
X250641519Y-60311157D01*
X250641519Y-67594010D01*
X250641511Y-67834018D01*
X250641150Y-69074588D01*
X250640132Y-70165128D01*
X250638292Y-71115597D01*
X250635467Y-71935957D01*
X250631494Y-72636165D01*
X250626210Y-73226183D01*
X250619450Y-73715970D01*
X250611052Y-74115487D01*
X250600851Y-74434692D01*
X250588685Y-74683546D01*
X250574390Y-74872009D01*
X250557803Y-75010041D01*
X250538759Y-75107600D01*
X250517096Y-75174648D01*
X250435638Y-75349636D01*
X250204515Y-75675641D01*
X249873047Y-75934539D01*
X249784627Y-75981835D01*
X249587460Y-76043264D01*
X249312976Y-76075370D01*
X248919347Y-76084740D01*
X248499619Y-76067677D01*
X248034609Y-75981708D01*
X247679365Y-75812315D01*
X247411020Y-75547345D01*
X247206706Y-75174648D01*
X247202664Y-75164538D01*
X247181474Y-75092794D01*
X247162875Y-74988769D01*
X247146704Y-74842502D01*
X247132798Y-74644030D01*
X247120992Y-74383392D01*
X247111123Y-74050627D01*
X247103028Y-73635773D01*
X247096543Y-73128867D01*
X247091504Y-72519949D01*
X247087748Y-71799057D01*
X247085112Y-70956228D01*
X247083431Y-69981502D01*
X247082543Y-68864916D01*
X247082283Y-67596510D01*
X247082283Y-60316156D01*
X244857709Y-60293434D01*
X242633134Y-60270711D01*
X242632755Y-67155083D01*
X242632735Y-67510520D01*
X242632614Y-67984106D01*
X242630935Y-69404307D01*
X242627296Y-70667197D01*
X242621704Y-71772219D01*
X242614165Y-72718815D01*
X242604685Y-73506427D01*
X242593270Y-74134498D01*
X242579928Y-74602469D01*
X242564663Y-74909784D01*
X242547483Y-75055884D01*
X242501381Y-75186955D01*
X242306335Y-75522291D01*
X242038840Y-75813355D01*
X241747711Y-76002377D01*
X241565191Y-76047325D01*
X241226694Y-76075543D01*
X240790745Y-76073014D01*
X240422611Y-76051552D01*
X240158253Y-76014106D01*
X239963266Y-75950780D01*
X239790847Y-75851190D01*
X239691033Y-75782342D01*
X239556826Y-75681280D01*
X239449180Y-75574850D01*
X239364850Y-75445675D01*
X239300594Y-75276378D01*
X239253165Y-75049582D01*
X239219320Y-74747910D01*
X239195815Y-74353984D01*
X239179405Y-73850428D01*
X239166847Y-73219864D01*
X239154894Y-72444915D01*
X239114448Y-69735043D01*
X237045025Y-69713482D01*
X234975602Y-69691920D01*
X233318697Y-72617297D01*
X233087924Y-73024927D01*
X232681986Y-73740352D01*
X232340903Y-74332965D01*
X232053994Y-74814297D01*
X231810576Y-75195883D01*
X231599969Y-75489254D01*
X231411492Y-75705944D01*
X231234462Y-75857486D01*
X231058198Y-75955412D01*
X230872020Y-76011254D01*
X230665245Y-76036547D01*
X230427192Y-76042822D01*
X230147181Y-76041613D01*
X229981007Y-76039124D01*
X229453533Y-75993741D01*
X229051913Y-75881793D01*
X228754177Y-75690553D01*
X228538361Y-75407296D01*
X228382498Y-75019296D01*
X228351910Y-74890320D01*
X228340360Y-74731423D01*
X228361047Y-74550256D01*
X228420304Y-74332239D01*
X228524469Y-74062791D01*
X228679879Y-73727331D01*
X228892869Y-73311280D01*
X229169777Y-72800056D01*
X229516938Y-72179079D01*
X229940688Y-71433769D01*
X230205182Y-70970371D01*
X230512144Y-70431239D01*
X230786050Y-69948698D01*
X231017429Y-69539506D01*
X231196810Y-69220422D01*
X231314720Y-69008203D01*
X231361688Y-68919609D01*
X231362002Y-68918741D01*
X231315009Y-68832507D01*
X231162925Y-68692333D01*
X230938112Y-68528129D01*
X230544979Y-68246474D01*
X229939848Y-67710708D01*
X229470079Y-67146508D01*
X229338485Y-66968732D01*
X229254148Y-66881934D01*
X229240092Y-66911610D01*
X229283877Y-67120299D01*
X229329476Y-67490096D01*
X229362537Y-67936466D01*
X229372500Y-68198703D01*
X229380609Y-68412148D01*
X229381241Y-68869882D01*
X229361983Y-69262410D01*
X229353694Y-69354640D01*
X229280737Y-69968290D01*
X229177330Y-70494505D01*
X229027924Y-70998409D01*
X228816969Y-71545132D01*
X228544757Y-72125331D01*
X227987636Y-73028431D01*
X227321075Y-73826185D01*
X226558179Y-74512665D01*
X225712055Y-75081945D01*
X224795810Y-75528095D01*
X223822548Y-75845188D01*
X222805376Y-76027295D01*
X221757399Y-76068488D01*
X220691725Y-75962840D01*
X219621458Y-75704423D01*
X219281116Y-75587683D01*
X218311382Y-75142405D01*
X217417169Y-74556548D01*
X216606137Y-73835686D01*
X215885943Y-72985395D01*
X215534512Y-72508009D01*
X215532736Y-73710061D01*
X215532339Y-73824881D01*
X215520135Y-74380007D01*
X215485551Y-74806689D01*
X215421092Y-75132732D01*
X215319268Y-75385941D01*
X215172583Y-75594118D01*
X214973546Y-75785069D01*
X214959211Y-75797067D01*
X214772765Y-75934799D01*
X214584297Y-76022868D01*
X214354069Y-76069660D01*
X214042341Y-76083563D01*
X213609374Y-76072962D01*
X213440696Y-76065517D01*
X213134594Y-76042020D01*
X212923007Y-76000690D01*
X212758607Y-75929584D01*
X212594063Y-75816758D01*
X212511528Y-75753941D01*
X212374709Y-75644877D01*
X212265556Y-75537347D01*
X212180628Y-75413208D01*
X212116481Y-75254318D01*
X212069675Y-75042534D01*
X212036767Y-74759713D01*
X212014316Y-74387713D01*
X211998878Y-73908392D01*
X211987012Y-73303606D01*
X211975277Y-72555213D01*
X211934831Y-69948097D01*
X210640563Y-70762798D01*
X209479122Y-71493444D01*
X208257918Y-72260485D01*
X207163730Y-72946268D01*
X206191531Y-73553884D01*
X205336293Y-74086426D01*
X204592992Y-74546984D01*
X203956599Y-74938652D01*
X203422089Y-75264521D01*
X202984435Y-75527683D01*
X202638611Y-75731229D01*
X202379589Y-75878253D01*
X202202344Y-75971845D01*
X202101848Y-76015098D01*
X201924048Y-76057048D01*
X201663706Y-76065663D01*
X201334451Y-76010424D01*
X201179293Y-75967825D01*
X200743865Y-75744712D01*
X200371994Y-75379406D01*
X200057323Y-74866209D01*
X200006077Y-74753424D01*
X199886112Y-74291454D01*
X199922268Y-73835945D01*
X200115363Y-73365735D01*
X200124361Y-73350037D01*
X200172234Y-73277408D01*
X200237434Y-73199345D01*
X200328568Y-73110185D01*
X200454244Y-73004263D01*
X200623067Y-72875917D01*
X200843645Y-72719481D01*
X201124585Y-72529293D01*
X201474493Y-72299688D01*
X201901977Y-72025004D01*
X202415643Y-71699576D01*
X203024098Y-71317740D01*
X203735949Y-70873833D01*
X204559803Y-70362191D01*
X205504267Y-69777150D01*
X206577948Y-69113046D01*
X207160720Y-68751698D01*
X207846884Y-68323401D01*
X208478759Y-67925873D01*
X209044395Y-67566794D01*
X209531842Y-67253847D01*
X209929151Y-66994714D01*
X210224372Y-66797076D01*
X210405555Y-66668615D01*
X210460750Y-66617013D01*
X210407161Y-66581519D01*
X210226850Y-66468066D01*
X209933293Y-66285574D01*
X209540231Y-66042465D01*
X209061407Y-65747159D01*
X208510562Y-65408079D01*
X207901436Y-65033646D01*
X207247772Y-64632281D01*
X206563310Y-64212406D01*
X205861792Y-63782442D01*
X205156959Y-63350811D01*
X204462553Y-62925934D01*
X203792314Y-62516232D01*
X203159984Y-62130127D01*
X202579306Y-61776041D01*
X202064018Y-61462395D01*
X201627864Y-61197610D01*
X201284585Y-60990108D01*
X201047921Y-60848310D01*
X201027398Y-60836104D01*
X200497474Y-60500279D01*
X200105218Y-60199279D01*
X199836395Y-59914232D01*
X199676769Y-59626264D01*
X199612105Y-59316503D01*
X199621197Y-59118143D01*
X200771624Y-59118143D01*
X200807076Y-59249955D01*
X200832361Y-59281846D01*
X200980405Y-59407386D01*
X201229924Y-59586905D01*
X201553695Y-59801357D01*
X201924494Y-60031698D01*
X202041477Y-60102384D01*
X202355280Y-60293061D01*
X202784860Y-60554979D01*
X203315942Y-60879400D01*
X203934249Y-61257584D01*
X204625504Y-61680794D01*
X205375429Y-62140290D01*
X206169750Y-62627334D01*
X206994189Y-63133188D01*
X207834468Y-63649113D01*
X208106822Y-63816451D01*
X209040043Y-64390922D01*
X209844737Y-64888340D01*
X210528804Y-65313829D01*
X211100148Y-65672510D01*
X211566671Y-65969508D01*
X211936275Y-66209944D01*
X212216861Y-66398941D01*
X212416333Y-66541622D01*
X212542592Y-66643109D01*
X212603540Y-66708524D01*
X212607080Y-66742991D01*
X212585906Y-66758475D01*
X212443724Y-66851476D01*
X212180519Y-67018740D01*
X211807973Y-67252987D01*
X211337768Y-67546938D01*
X210781584Y-67893312D01*
X210151104Y-68284829D01*
X209458007Y-68714210D01*
X208713975Y-69174173D01*
X207930691Y-69657440D01*
X207105889Y-70166078D01*
X206058087Y-70813265D01*
X205135417Y-71384734D01*
X204330272Y-71885447D01*
X203635045Y-72320364D01*
X203042130Y-72694448D01*
X202543922Y-73012660D01*
X202132812Y-73279962D01*
X201801196Y-73501314D01*
X201541466Y-73681678D01*
X201346017Y-73826016D01*
X201207241Y-73939288D01*
X201117533Y-74026457D01*
X201069286Y-74092484D01*
X201054894Y-74142331D01*
X201057937Y-74177127D01*
X201120003Y-74369344D01*
X201236901Y-74588679D01*
X201298001Y-74676572D01*
X201460066Y-74827606D01*
X201652847Y-74870666D01*
X201709147Y-74859714D01*
X201806149Y-74821787D01*
X201948429Y-74752864D01*
X202142502Y-74648956D01*
X202394884Y-74506074D01*
X202712093Y-74320232D01*
X203100644Y-74087439D01*
X203567054Y-73803710D01*
X204117840Y-73465055D01*
X204759517Y-73067485D01*
X205498603Y-72607014D01*
X206341615Y-72079652D01*
X207295067Y-71481412D01*
X208365478Y-70808306D01*
X209559363Y-70056345D01*
X210883238Y-69221540D01*
X213067315Y-67843691D01*
X213107761Y-71297010D01*
X213113173Y-71718367D01*
X213124519Y-72427328D01*
X213137723Y-73077875D01*
X213152272Y-73652781D01*
X213167652Y-74134818D01*
X213183351Y-74506760D01*
X213198854Y-74751377D01*
X213213649Y-74851444D01*
X213250163Y-74881411D01*
X213420731Y-74928923D01*
X213668401Y-74950298D01*
X213936267Y-74945325D01*
X214167421Y-74913792D01*
X214304958Y-74855489D01*
X214314172Y-74817418D01*
X214328605Y-74632233D01*
X214341874Y-74306242D01*
X214353968Y-73852553D01*
X214364878Y-73284273D01*
X214374593Y-72614510D01*
X214383102Y-71856372D01*
X214390395Y-71022968D01*
X214393915Y-70503514D01*
X215534512Y-70503514D01*
X215539704Y-70597214D01*
X215562421Y-70665297D01*
X215619718Y-70622769D01*
X215684461Y-70556791D01*
X218441509Y-70556791D01*
X218508670Y-70597888D01*
X218575292Y-70661729D01*
X218709343Y-70823954D01*
X218876656Y-71045560D01*
X219183812Y-71405299D01*
X219747896Y-71871177D01*
X220439945Y-72261139D01*
X220596543Y-72330195D01*
X220824402Y-72409537D01*
X221069400Y-72459445D01*
X221379739Y-72488556D01*
X221803620Y-72505509D01*
X222070192Y-72511252D01*
X222428961Y-72507663D01*
X222708562Y-72481972D01*
X222960853Y-72428209D01*
X223237693Y-72340402D01*
X223760260Y-72116737D01*
X224394130Y-71719849D01*
X224933250Y-71230492D01*
X225347207Y-70672710D01*
X225493340Y-70422622D01*
X221969977Y-70422622D01*
X221528135Y-70422884D01*
X220697013Y-70425385D01*
X220013039Y-70430945D01*
X219466254Y-70440068D01*
X219046695Y-70453259D01*
X218744402Y-70471023D01*
X218549414Y-70493863D01*
X218451770Y-70522284D01*
X218441509Y-70556791D01*
X215684461Y-70556791D01*
X215736741Y-70503514D01*
X215822182Y-70403847D01*
X215827183Y-70350416D01*
X215708833Y-70341731D01*
X215589256Y-70370516D01*
X215534512Y-70503514D01*
X214393915Y-70503514D01*
X214396463Y-70127405D01*
X214401293Y-69182791D01*
X214402873Y-68750394D01*
X215622879Y-68750394D01*
X215643738Y-68966294D01*
X215694168Y-69085346D01*
X215710384Y-69099548D01*
X215762787Y-69121914D01*
X215855064Y-69141076D01*
X215998297Y-69157272D01*
X216203570Y-69170743D01*
X216481964Y-69181730D01*
X216844562Y-69190472D01*
X217302447Y-69197210D01*
X217866702Y-69202184D01*
X218548408Y-69205634D01*
X219358650Y-69207801D01*
X220308508Y-69208925D01*
X221409067Y-69209247D01*
X221591986Y-69209258D01*
X222694616Y-69209954D01*
X223646563Y-69211851D01*
X224457451Y-69215123D01*
X225136901Y-69219948D01*
X225694537Y-69226501D01*
X226139982Y-69234960D01*
X226482859Y-69245499D01*
X226732789Y-69258295D01*
X226899397Y-69273524D01*
X226992305Y-69291363D01*
X227021136Y-69311987D01*
X227004841Y-69454138D01*
X226935127Y-69746691D01*
X226824914Y-70106534D01*
X226738419Y-70350416D01*
X226712810Y-70422622D01*
X226689919Y-70487165D01*
X226545858Y-70842084D01*
X226408447Y-71124790D01*
X226235541Y-71408072D01*
X225737584Y-72039911D01*
X225137875Y-72603106D01*
X224472293Y-73066648D01*
X223776716Y-73399524D01*
X223338051Y-73536706D01*
X222484836Y-73680546D01*
X221611539Y-73680800D01*
X220746543Y-73540821D01*
X219918229Y-73263962D01*
X219154980Y-72853576D01*
X219016438Y-72760566D01*
X218652749Y-72491848D01*
X218346782Y-72214020D01*
X218053389Y-71882822D01*
X217727426Y-71453992D01*
X217717999Y-71441069D01*
X217533127Y-71212760D01*
X217368236Y-71050567D01*
X217258017Y-70988864D01*
X217195638Y-71000184D01*
X217005529Y-71074231D01*
X216775218Y-71194504D01*
X216630262Y-71287454D01*
X216474530Y-71443204D01*
X216439638Y-71618277D01*
X216523981Y-71843815D01*
X216725955Y-72150957D01*
X217045673Y-72564742D01*
X217763127Y-73325294D01*
X218541179Y-73937322D01*
X219378356Y-74399761D01*
X220273182Y-74711547D01*
X220718710Y-74807965D01*
X221622576Y-74907467D01*
X222530906Y-74889693D01*
X223402986Y-74756727D01*
X224198103Y-74510652D01*
X224730015Y-74273242D01*
X225619115Y-73758489D01*
X226380749Y-73145701D01*
X227018111Y-72431608D01*
X227534393Y-71612940D01*
X227932788Y-70686428D01*
X228021695Y-70417259D01*
X228104744Y-70108107D01*
X228159252Y-69795579D01*
X228193862Y-69426878D01*
X228217218Y-68949211D01*
X228227653Y-68608256D01*
X228227782Y-68198703D01*
X228205575Y-67855936D01*
X228156636Y-67523556D01*
X228076567Y-67145161D01*
X227811207Y-66271176D01*
X227386343Y-65372462D01*
X226884633Y-64638864D01*
X228315404Y-64638864D01*
X228355850Y-64679310D01*
X228396296Y-64638864D01*
X228355850Y-64598418D01*
X228315404Y-64638864D01*
X226884633Y-64638864D01*
X226834802Y-64566001D01*
X226165397Y-63860917D01*
X225386939Y-63266336D01*
X224508240Y-62791383D01*
X223538113Y-62445184D01*
X223342507Y-62398969D01*
X222784747Y-62321466D01*
X222150999Y-62291732D01*
X221496637Y-62309118D01*
X220877036Y-62372971D01*
X220347570Y-62482644D01*
X219403105Y-62821471D01*
X218510180Y-63296056D01*
X217723599Y-63884164D01*
X217050676Y-64576887D01*
X216498721Y-65365316D01*
X216101585Y-66185723D01*
X216075048Y-66240543D01*
X215786967Y-67193661D01*
X215641792Y-68215760D01*
X215630042Y-68411918D01*
X215622879Y-68750394D01*
X214402873Y-68750394D01*
X214404877Y-68202234D01*
X214407203Y-67198842D01*
X214408261Y-66185723D01*
X214408042Y-65175985D01*
X214406533Y-64182736D01*
X214403726Y-63219083D01*
X214399609Y-62298135D01*
X214394173Y-61432999D01*
X214387406Y-60636785D01*
X214379299Y-59922598D01*
X214369840Y-59303548D01*
X214359021Y-58792743D01*
X214346830Y-58403289D01*
X214333256Y-58148296D01*
X214318290Y-58040871D01*
X214302778Y-58014645D01*
X214211045Y-57934148D01*
X214045245Y-57894806D01*
X213761953Y-57884406D01*
X213620133Y-57887773D01*
X213344583Y-57923214D01*
X213199390Y-57992805D01*
X213195672Y-57998625D01*
X213171583Y-58112763D01*
X213150657Y-58359016D01*
X213132749Y-58742325D01*
X213117713Y-59267634D01*
X213105402Y-59939883D01*
X213095670Y-60764015D01*
X213088371Y-61744972D01*
X213067315Y-65388741D01*
X209629417Y-63288173D01*
X209191948Y-63020804D01*
X208382993Y-62526056D01*
X207545934Y-62013742D01*
X206708472Y-61500835D01*
X205898307Y-61004309D01*
X205143139Y-60541137D01*
X204470670Y-60128292D01*
X203908601Y-59782749D01*
X203540478Y-59556864D01*
X203015767Y-59237246D01*
X202543797Y-58952535D01*
X202141517Y-58712804D01*
X201825874Y-58528128D01*
X201613818Y-58408582D01*
X201522295Y-58364240D01*
X201478715Y-58359254D01*
X201266614Y-58375088D01*
X201099616Y-58489022D01*
X200931810Y-58729452D01*
X200813852Y-58953199D01*
X200771624Y-59118143D01*
X199621197Y-59118143D01*
X199628168Y-58966076D01*
X199738697Y-58538680D01*
X199947716Y-58106154D01*
X200225707Y-57722363D01*
X200545313Y-57424810D01*
X200879176Y-57251004D01*
X200931465Y-57235641D01*
X201103351Y-57192898D01*
X201269258Y-57172044D01*
X201443509Y-57179454D01*
X201640430Y-57221503D01*
X201874342Y-57304564D01*
X202159572Y-57435014D01*
X202510442Y-57619226D01*
X202941276Y-57863575D01*
X203466399Y-58174436D01*
X204100134Y-58558183D01*
X204856805Y-59021192D01*
X205479448Y-59403026D01*
X206253071Y-59877253D01*
X207050512Y-60365899D01*
X207839430Y-60849154D01*
X208587485Y-61307209D01*
X209262337Y-61720253D01*
X209831646Y-62068478D01*
X211934831Y-63354329D01*
X211975277Y-60558698D01*
X211981777Y-60126132D01*
X211993676Y-59442277D01*
X212006243Y-58894329D01*
X212020440Y-58465497D01*
X212037230Y-58138989D01*
X212057578Y-57898016D01*
X212082446Y-57725786D01*
X212112798Y-57605508D01*
X212149597Y-57520393D01*
X212196662Y-57441441D01*
X212486411Y-57097341D01*
X212839545Y-56842922D01*
X212864288Y-56832140D01*
X213070813Y-56788590D01*
X213378293Y-56762644D01*
X213736799Y-56754445D01*
X214096406Y-56764137D01*
X214407187Y-56791866D01*
X214619214Y-56837775D01*
X214769348Y-56910901D01*
X215062731Y-57137006D01*
X215308655Y-57425090D01*
X215453960Y-57719034D01*
X215455758Y-57726212D01*
X215474381Y-57889181D01*
X215491097Y-58196912D01*
X215505561Y-58633824D01*
X215517433Y-59184337D01*
X215526368Y-59832869D01*
X215532025Y-60563840D01*
X215534061Y-61361670D01*
X215534512Y-64717597D01*
X215831754Y-64273772D01*
X215859935Y-64232105D01*
X216455313Y-63494258D01*
X217179178Y-62823893D01*
X218007229Y-62238324D01*
X218915162Y-61754865D01*
X219878674Y-61390827D01*
X219928489Y-61375782D01*
X220205120Y-61297613D01*
X220453537Y-61242578D01*
X220711736Y-61206632D01*
X221017709Y-61185725D01*
X221409452Y-61175812D01*
X221924958Y-61172844D01*
X222061645Y-61172740D01*
X222541369Y-61175431D01*
X222906149Y-61186135D01*
X223193722Y-61208834D01*
X223441826Y-61247510D01*
X223688197Y-61306145D01*
X223970574Y-61388723D01*
X224536494Y-61586110D01*
X225396069Y-61977613D01*
X226205113Y-62454784D01*
X226935875Y-62998450D01*
X227560604Y-63589435D01*
X228051549Y-64208564D01*
X228118881Y-64306371D01*
X228230737Y-64448294D01*
X228288214Y-64490788D01*
X228289737Y-64488282D01*
X228291538Y-64385356D01*
X228272547Y-64169622D01*
X228236402Y-63883721D01*
X228213387Y-63670856D01*
X228201922Y-63101922D01*
X229362396Y-63101922D01*
X229385968Y-63658738D01*
X229469135Y-64195681D01*
X229592843Y-64638864D01*
X229624186Y-64751151D01*
X229863368Y-65380856D01*
X229873575Y-65405276D01*
X230207813Y-66098244D01*
X230588732Y-66670162D01*
X231045106Y-67151556D01*
X231605711Y-67572948D01*
X232299321Y-67964863D01*
X232493865Y-68064183D01*
X232758260Y-68204631D01*
X232939721Y-68308238D01*
X233007124Y-68357731D01*
X233001814Y-68371869D01*
X232937304Y-68495723D01*
X232811047Y-68723762D01*
X232637583Y-69029960D01*
X232431449Y-69388289D01*
X232104238Y-69954168D01*
X231511126Y-70985675D01*
X230992920Y-71895227D01*
X230550907Y-72680487D01*
X230186373Y-73339118D01*
X229900607Y-73868782D01*
X229694894Y-74267140D01*
X229570523Y-74531855D01*
X229528780Y-74660589D01*
X229557278Y-74793089D01*
X229656733Y-74903458D01*
X229778099Y-74933588D01*
X230061631Y-74951152D01*
X230363429Y-74927659D01*
X230596789Y-74866517D01*
X230661695Y-74806424D01*
X230801236Y-74618136D01*
X231007163Y-74301434D01*
X231281272Y-73853369D01*
X231625361Y-73270994D01*
X232041223Y-72551359D01*
X232530657Y-71691517D01*
X234278712Y-68602559D01*
X237283045Y-68581351D01*
X240287378Y-68560144D01*
X240287378Y-71659281D01*
X240287613Y-72029560D01*
X240290248Y-72818967D01*
X240296070Y-73461836D01*
X240305406Y-73968950D01*
X240318585Y-74351090D01*
X240335933Y-74619039D01*
X240357779Y-74783577D01*
X240384448Y-74855489D01*
X240514557Y-74913069D01*
X240749262Y-74945436D01*
X241018676Y-74946628D01*
X241258312Y-74916645D01*
X241403684Y-74855489D01*
X241414499Y-74813662D01*
X241430675Y-74623156D01*
X241445341Y-74292145D01*
X241458505Y-73833751D01*
X241470170Y-73261092D01*
X241480342Y-72587287D01*
X241489026Y-71825456D01*
X241496228Y-70988718D01*
X241501953Y-70090192D01*
X241506206Y-69142998D01*
X241508992Y-68160255D01*
X241510317Y-67155083D01*
X241510186Y-66140600D01*
X241508603Y-65129926D01*
X241505576Y-64136180D01*
X241501107Y-63172482D01*
X241495204Y-62251951D01*
X241487870Y-61387706D01*
X241479112Y-60592867D01*
X241468935Y-59880553D01*
X241457344Y-59263882D01*
X241444693Y-58769662D01*
X242645118Y-58769662D01*
X242669798Y-59002470D01*
X242730361Y-59109525D01*
X242783192Y-59120376D01*
X242984215Y-59135553D01*
X243313986Y-59149104D01*
X243752734Y-59160548D01*
X244280686Y-59169405D01*
X244878071Y-59175194D01*
X245525117Y-59177435D01*
X248214767Y-59178673D01*
X248214767Y-66909150D01*
X248215266Y-68065177D01*
X248217461Y-69453530D01*
X248221410Y-70680821D01*
X248227116Y-71747453D01*
X248234584Y-72653832D01*
X248243819Y-73400362D01*
X248254824Y-73987448D01*
X248267604Y-74415495D01*
X248282162Y-74684909D01*
X248298505Y-74796093D01*
X248311661Y-74818673D01*
X248402594Y-74901339D01*
X248567000Y-74941825D01*
X248848568Y-74952559D01*
X249049141Y-74943905D01*
X249282147Y-74908647D01*
X249411964Y-74855489D01*
X249417550Y-74846262D01*
X249433997Y-74767810D01*
X249448537Y-74608909D01*
X249461260Y-74362164D01*
X249472257Y-74020183D01*
X249481620Y-73575571D01*
X249489439Y-73020934D01*
X249495806Y-72348878D01*
X249500811Y-71552011D01*
X249504545Y-70622938D01*
X249507100Y-69554265D01*
X249508566Y-68338599D01*
X249509034Y-66968546D01*
X249509034Y-59178673D01*
X252132749Y-59178673D01*
X252372348Y-59178388D01*
X253040875Y-59174389D01*
X253639179Y-59166069D01*
X254148950Y-59153938D01*
X254551877Y-59138507D01*
X254829650Y-59120285D01*
X254963960Y-59099784D01*
X255059438Y-59055699D01*
X255133135Y-58973532D01*
X255164286Y-58821510D01*
X255170216Y-58553765D01*
X255163974Y-58352778D01*
X255140013Y-58117571D01*
X255104459Y-57985011D01*
X255088912Y-57974174D01*
X255011744Y-57956168D01*
X254864084Y-57940844D01*
X254636804Y-57928084D01*
X254320775Y-57917770D01*
X253906868Y-57909783D01*
X253385956Y-57904005D01*
X252748910Y-57900318D01*
X251986600Y-57898605D01*
X251089900Y-57898746D01*
X250049680Y-57900624D01*
X248856812Y-57904120D01*
X242673684Y-57924852D01*
X242649469Y-58483853D01*
X242645118Y-58769662D01*
X241444693Y-58769662D01*
X241444343Y-58755976D01*
X241429939Y-58369952D01*
X241414137Y-58118930D01*
X241396941Y-58016030D01*
X241364559Y-57983109D01*
X241310282Y-57955736D01*
X241220307Y-57933791D01*
X241080625Y-57916873D01*
X240877228Y-57904581D01*
X240596107Y-57896515D01*
X240223254Y-57892273D01*
X239744662Y-57891456D01*
X239146321Y-57893661D01*
X238414224Y-57898489D01*
X237534362Y-57905539D01*
X236984838Y-57910170D01*
X236141531Y-57918186D01*
X235433857Y-57927825D01*
X234845184Y-57941098D01*
X234358879Y-57960019D01*
X233958309Y-57986600D01*
X233626841Y-58022856D01*
X233347844Y-58070798D01*
X233104684Y-58132440D01*
X232880728Y-58209796D01*
X232659344Y-58304878D01*
X232423899Y-58419698D01*
X232157761Y-58556271D01*
X231895160Y-58704708D01*
X231299709Y-59132244D01*
X230744238Y-59649816D01*
X230268482Y-60217784D01*
X229912175Y-60796508D01*
X229776001Y-61085816D01*
X229536285Y-61736815D01*
X229403747Y-62386499D01*
X229362396Y-63101922D01*
X228201922Y-63101922D01*
X228201427Y-63077339D01*
X228246857Y-62432456D01*
X228343241Y-61804365D01*
X228484138Y-61261226D01*
X228516737Y-61166149D01*
X228834110Y-60393161D01*
X229225315Y-59705908D01*
X229717918Y-59062175D01*
X230339482Y-58419746D01*
X230530954Y-58246305D01*
X231165947Y-57767942D01*
X231879430Y-57375336D01*
X232710477Y-57045844D01*
X233452028Y-56794939D01*
X237427037Y-56768623D01*
X237576555Y-56767645D01*
X238478958Y-56762453D01*
X239235483Y-56759732D01*
X239859941Y-56759793D01*
X240366143Y-56762944D01*
X240767899Y-56769493D01*
X241079020Y-56779749D01*
X241313316Y-56794022D01*
X241484598Y-56812619D01*
X241606676Y-56835851D01*
X241693361Y-56864025D01*
X241877831Y-56930802D01*
X242036279Y-56938599D01*
X242207842Y-56869331D01*
X242252598Y-56852185D01*
X242345148Y-56832706D01*
X242486740Y-56815857D01*
X242687624Y-56801460D01*
X242958049Y-56789332D01*
X243308263Y-56779295D01*
X243748516Y-56771168D01*
X244289057Y-56764771D01*
X244940134Y-56759923D01*
X245711998Y-56756444D01*
X246614896Y-56754154D01*
X247659078Y-56752873D01*
X248854794Y-56752420D01*
X255278579Y-56751922D01*
X255622435Y-56953435D01*
X255794681Y-57064240D01*
X256056823Y-57305175D01*
X256224873Y-57601170D01*
X256314333Y-57985412D01*
X256340708Y-58491094D01*
X256340085Y-58553765D01*
X256339240Y-58638788D01*
G37*
M02*
