G04 #@! TF.GenerationSoftware,KiCad,Pcbnew,7.0.9*
G04 #@! TF.CreationDate,2024-04-05T23:36:11+09:00*
G04 #@! TF.ProjectId,bottom_plate,626f7474-6f6d-45f7-906c-6174652e6b69,rev?*
G04 #@! TF.SameCoordinates,Original*
G04 #@! TF.FileFunction,Legend,Top*
G04 #@! TF.FilePolarity,Positive*
%FSLAX46Y46*%
G04 Gerber Fmt 4.6, Leading zero omitted, Abs format (unit mm)*
G04 Created by KiCad (PCBNEW 7.0.9) date 2024-04-05 23:36:11*
%MOMM*%
%LPD*%
G01*
G04 APERTURE LIST*
%ADD10C,0.150000*%
G04 APERTURE END LIST*
D10*
X31099701Y-113754819D02*
X31099701Y-114469104D01*
X31099701Y-114469104D02*
X31052082Y-114611961D01*
X31052082Y-114611961D02*
X30956844Y-114707200D01*
X30956844Y-114707200D02*
X30813987Y-114754819D01*
X30813987Y-114754819D02*
X30718749Y-114754819D01*
X32052082Y-114754819D02*
X31575892Y-114754819D01*
X31575892Y-114754819D02*
X31575892Y-113754819D01*
X32956844Y-114659580D02*
X32909225Y-114707200D01*
X32909225Y-114707200D02*
X32766368Y-114754819D01*
X32766368Y-114754819D02*
X32671130Y-114754819D01*
X32671130Y-114754819D02*
X32528273Y-114707200D01*
X32528273Y-114707200D02*
X32433035Y-114611961D01*
X32433035Y-114611961D02*
X32385416Y-114516723D01*
X32385416Y-114516723D02*
X32337797Y-114326247D01*
X32337797Y-114326247D02*
X32337797Y-114183390D01*
X32337797Y-114183390D02*
X32385416Y-113992914D01*
X32385416Y-113992914D02*
X32433035Y-113897676D01*
X32433035Y-113897676D02*
X32528273Y-113802438D01*
X32528273Y-113802438D02*
X32671130Y-113754819D01*
X32671130Y-113754819D02*
X32766368Y-113754819D01*
X32766368Y-113754819D02*
X32909225Y-113802438D01*
X32909225Y-113802438D02*
X32956844Y-113850057D01*
X33671130Y-113754819D02*
X33671130Y-114469104D01*
X33671130Y-114469104D02*
X33623511Y-114611961D01*
X33623511Y-114611961D02*
X33528273Y-114707200D01*
X33528273Y-114707200D02*
X33385416Y-114754819D01*
X33385416Y-114754819D02*
X33290178Y-114754819D01*
X34623511Y-114754819D02*
X34147321Y-114754819D01*
X34147321Y-114754819D02*
X34147321Y-113754819D01*
X35528273Y-114659580D02*
X35480654Y-114707200D01*
X35480654Y-114707200D02*
X35337797Y-114754819D01*
X35337797Y-114754819D02*
X35242559Y-114754819D01*
X35242559Y-114754819D02*
X35099702Y-114707200D01*
X35099702Y-114707200D02*
X35004464Y-114611961D01*
X35004464Y-114611961D02*
X34956845Y-114516723D01*
X34956845Y-114516723D02*
X34909226Y-114326247D01*
X34909226Y-114326247D02*
X34909226Y-114183390D01*
X34909226Y-114183390D02*
X34956845Y-113992914D01*
X34956845Y-113992914D02*
X35004464Y-113897676D01*
X35004464Y-113897676D02*
X35099702Y-113802438D01*
X35099702Y-113802438D02*
X35242559Y-113754819D01*
X35242559Y-113754819D02*
X35337797Y-113754819D01*
X35337797Y-113754819D02*
X35480654Y-113802438D01*
X35480654Y-113802438D02*
X35528273Y-113850057D01*
X36242559Y-113754819D02*
X36242559Y-114469104D01*
X36242559Y-114469104D02*
X36194940Y-114611961D01*
X36194940Y-114611961D02*
X36099702Y-114707200D01*
X36099702Y-114707200D02*
X35956845Y-114754819D01*
X35956845Y-114754819D02*
X35861607Y-114754819D01*
X37194940Y-114754819D02*
X36718750Y-114754819D01*
X36718750Y-114754819D02*
X36718750Y-113754819D01*
X38099702Y-114659580D02*
X38052083Y-114707200D01*
X38052083Y-114707200D02*
X37909226Y-114754819D01*
X37909226Y-114754819D02*
X37813988Y-114754819D01*
X37813988Y-114754819D02*
X37671131Y-114707200D01*
X37671131Y-114707200D02*
X37575893Y-114611961D01*
X37575893Y-114611961D02*
X37528274Y-114516723D01*
X37528274Y-114516723D02*
X37480655Y-114326247D01*
X37480655Y-114326247D02*
X37480655Y-114183390D01*
X37480655Y-114183390D02*
X37528274Y-113992914D01*
X37528274Y-113992914D02*
X37575893Y-113897676D01*
X37575893Y-113897676D02*
X37671131Y-113802438D01*
X37671131Y-113802438D02*
X37813988Y-113754819D01*
X37813988Y-113754819D02*
X37909226Y-113754819D01*
X37909226Y-113754819D02*
X38052083Y-113802438D01*
X38052083Y-113802438D02*
X38099702Y-113850057D01*
X38813988Y-113754819D02*
X38813988Y-114469104D01*
X38813988Y-114469104D02*
X38766369Y-114611961D01*
X38766369Y-114611961D02*
X38671131Y-114707200D01*
X38671131Y-114707200D02*
X38528274Y-114754819D01*
X38528274Y-114754819D02*
X38433036Y-114754819D01*
X39766369Y-114754819D02*
X39290179Y-114754819D01*
X39290179Y-114754819D02*
X39290179Y-113754819D01*
X40671131Y-114659580D02*
X40623512Y-114707200D01*
X40623512Y-114707200D02*
X40480655Y-114754819D01*
X40480655Y-114754819D02*
X40385417Y-114754819D01*
X40385417Y-114754819D02*
X40242560Y-114707200D01*
X40242560Y-114707200D02*
X40147322Y-114611961D01*
X40147322Y-114611961D02*
X40099703Y-114516723D01*
X40099703Y-114516723D02*
X40052084Y-114326247D01*
X40052084Y-114326247D02*
X40052084Y-114183390D01*
X40052084Y-114183390D02*
X40099703Y-113992914D01*
X40099703Y-113992914D02*
X40147322Y-113897676D01*
X40147322Y-113897676D02*
X40242560Y-113802438D01*
X40242560Y-113802438D02*
X40385417Y-113754819D01*
X40385417Y-113754819D02*
X40480655Y-113754819D01*
X40480655Y-113754819D02*
X40623512Y-113802438D01*
X40623512Y-113802438D02*
X40671131Y-113850057D01*
M02*
