G04 #@! TF.GenerationSoftware,KiCad,Pcbnew,7.0.9*
G04 #@! TF.CreationDate,2024-04-05T23:23:07+09:00*
G04 #@! TF.ProjectId,avain,61766169-6e2e-46b6-9963-61645f706362,rev?*
G04 #@! TF.SameCoordinates,Original*
G04 #@! TF.FileFunction,Profile,NP*
%FSLAX46Y46*%
G04 Gerber Fmt 4.6, Leading zero omitted, Abs format (unit mm)*
G04 Created by KiCad (PCBNEW 7.0.9) date 2024-04-05 23:23:07*
%MOMM*%
%LPD*%
G01*
G04 APERTURE LIST*
G04 #@! TA.AperFunction,Profile*
%ADD10C,0.100000*%
G04 #@! TD*
G04 #@! TA.AperFunction,Profile*
%ADD11C,0.150000*%
G04 #@! TD*
G04 APERTURE END LIST*
D10*
X14287500Y-113050000D02*
G75*
G03*
X17287500Y-116050000I3000000J0D01*
G01*
X17287500Y-17250000D02*
G75*
G03*
X14287500Y-20250000I0J-3000000D01*
G01*
X328637500Y-20250000D02*
G75*
G03*
X325637500Y-17250000I-3000000J0D01*
G01*
X325637500Y-17250000D02*
X17287500Y-17250000D01*
X14287500Y-20250000D02*
X14287500Y-113050000D01*
X328637500Y-113050000D02*
X328637500Y-20250000D01*
X325637500Y-116050000D02*
G75*
G03*
X328637500Y-113050000I0J3000000D01*
G01*
X17287500Y-116050000D02*
X325637500Y-116050000D01*
D11*
X250125000Y-71412500D02*
X250125000Y-61412500D01*
X252175000Y-59362500D02*
X262175000Y-59362500D01*
X262175000Y-73462500D02*
X252175000Y-73462500D01*
X264225000Y-61412500D02*
X264225000Y-71412500D01*
X252174999Y-59362501D02*
G75*
G03*
X250125001Y-61412499I-1024998J-1025000D01*
G01*
X250124998Y-71412501D02*
G75*
G03*
X252174997Y-73462500I1025001J-1024998D01*
G01*
X264225001Y-61412497D02*
G75*
G03*
X262175003Y-59362499I-1025001J1024997D01*
G01*
X262175003Y-73462501D02*
G75*
G03*
X264225001Y-71412503I1024997J1025001D01*
G01*
X164400000Y-52968750D02*
X164400000Y-42968750D01*
X166450000Y-40918750D02*
X176450000Y-40918750D01*
X176450000Y-55018750D02*
X166450000Y-55018750D01*
X178500000Y-42968750D02*
X178500000Y-52968750D01*
X166449999Y-40918751D02*
G75*
G03*
X164400001Y-42968749I-1024998J-1025000D01*
G01*
X164399998Y-52968751D02*
G75*
G03*
X166449997Y-55018750I1025001J-1024998D01*
G01*
X178500001Y-42968747D02*
G75*
G03*
X176450003Y-40918749I-1025001J1024997D01*
G01*
X176450003Y-55018751D02*
G75*
G03*
X178500001Y-52968753I1024997J1025001D01*
G01*
X309656300Y-71412500D02*
X309656300Y-61412500D01*
X311706300Y-59362500D02*
X321706300Y-59362500D01*
X321706300Y-73462500D02*
X311706300Y-73462500D01*
X323756300Y-61412500D02*
X323756300Y-71412500D01*
X311706299Y-59362501D02*
G75*
G03*
X309656301Y-61412499I-1024998J-1025000D01*
G01*
X309656298Y-71412501D02*
G75*
G03*
X311706297Y-73462500I1025001J-1024998D01*
G01*
X323756301Y-61412497D02*
G75*
G03*
X321706303Y-59362499I-1025001J1024997D01*
G01*
X321706303Y-73462501D02*
G75*
G03*
X323756301Y-71412503I1024997J1025001D01*
G01*
X145350000Y-91068750D02*
X145350000Y-81068750D01*
X147400000Y-79018750D02*
X157400000Y-79018750D01*
X157400000Y-93118750D02*
X147400000Y-93118750D01*
X159450000Y-81068750D02*
X159450000Y-91068750D01*
X147399999Y-79018751D02*
G75*
G03*
X145350001Y-81068749I-1024998J-1025000D01*
G01*
X145349998Y-91068751D02*
G75*
G03*
X147399997Y-93118750I1025001J-1024998D01*
G01*
X159450001Y-81068747D02*
G75*
G03*
X157400003Y-79018749I-1025001J1024997D01*
G01*
X157400003Y-93118751D02*
G75*
G03*
X159450001Y-91068753I1024997J1025001D01*
G01*
X264893800Y-33312500D02*
X264893800Y-23312500D01*
X266943800Y-21262500D02*
X276943800Y-21262500D01*
X276943800Y-35362500D02*
X266943800Y-35362500D01*
X278993800Y-23312500D02*
X278993800Y-33312500D01*
X266943799Y-21262501D02*
G75*
G03*
X264893801Y-23312499I-1024998J-1025000D01*
G01*
X264893798Y-33312501D02*
G75*
G03*
X266943797Y-35362500I1025001J-1024998D01*
G01*
X278993801Y-23312497D02*
G75*
G03*
X276943803Y-21262499I-1025001J1024997D01*
G01*
X276943803Y-35362501D02*
G75*
G03*
X278993801Y-33312503I1024997J1025001D01*
G01*
X69150000Y-109600000D02*
X69150000Y-99600000D01*
X71200000Y-97550000D02*
X81200000Y-97550000D01*
X81200000Y-111650000D02*
X71200000Y-111650000D01*
X83250000Y-99600000D02*
X83250000Y-109600000D01*
X71199999Y-97550001D02*
G75*
G03*
X69150001Y-99599999I-1024998J-1025000D01*
G01*
X69149998Y-109600001D02*
G75*
G03*
X71199997Y-111650000I1025001J-1024998D01*
G01*
X83250001Y-99599997D02*
G75*
G03*
X81200003Y-97549999I-1025001J1024997D01*
G01*
X81200003Y-111650001D02*
G75*
G03*
X83250001Y-109600003I1024997J1025001D01*
G01*
X278700000Y-90462500D02*
X278700000Y-80462500D01*
X280750000Y-78412500D02*
X290750000Y-78412500D01*
X290750000Y-92512500D02*
X280750000Y-92512500D01*
X292800000Y-80462500D02*
X292800000Y-90462500D01*
X280749999Y-78412501D02*
G75*
G03*
X278700001Y-80462499I-1024998J-1025000D01*
G01*
X278699998Y-90462501D02*
G75*
G03*
X280749997Y-92512500I1025001J-1024998D01*
G01*
X292800001Y-80462497D02*
G75*
G03*
X290750003Y-78412499I-1025001J1024997D01*
G01*
X290750003Y-92512501D02*
G75*
G03*
X292800001Y-90462503I1024997J1025001D01*
G01*
X238218800Y-109600000D02*
X238218800Y-99600000D01*
X240268800Y-97550000D02*
X250268800Y-97550000D01*
X250268800Y-111650000D02*
X240268800Y-111650000D01*
X252318800Y-99600000D02*
X252318800Y-109600000D01*
X240268799Y-97550001D02*
G75*
G03*
X238218801Y-99599999I-1024998J-1025000D01*
G01*
X238218798Y-109600001D02*
G75*
G03*
X240268797Y-111650000I1025001J-1024998D01*
G01*
X252318801Y-99599997D02*
G75*
G03*
X250268803Y-97549999I-1025001J1024997D01*
G01*
X250268803Y-111650001D02*
G75*
G03*
X252318801Y-109600003I1024997J1025001D01*
G01*
X145350000Y-110118750D02*
X145350000Y-100118750D01*
X147400000Y-98068750D02*
X157400000Y-98068750D01*
X157400000Y-112168750D02*
X147400000Y-112168750D01*
X159450000Y-100118750D02*
X159450000Y-110118750D01*
X147399999Y-98068751D02*
G75*
G03*
X145350001Y-100118749I-1024998J-1025000D01*
G01*
X145349998Y-110118751D02*
G75*
G03*
X147399997Y-112168750I1025001J-1024998D01*
G01*
X159450001Y-100118747D02*
G75*
G03*
X157400003Y-98068749I-1025001J1024997D01*
G01*
X157400003Y-112168751D02*
G75*
G03*
X159450001Y-110118753I1024997J1025001D01*
G01*
X183450000Y-52968750D02*
X183450000Y-42968750D01*
X185500000Y-40918750D02*
X195500000Y-40918750D01*
X195500000Y-55018750D02*
X185500000Y-55018750D01*
X197550000Y-42968750D02*
X197550000Y-52968750D01*
X185499999Y-40918751D02*
G75*
G03*
X183450001Y-42968749I-1024998J-1025000D01*
G01*
X183449998Y-52968751D02*
G75*
G03*
X185499997Y-55018750I1025001J-1024998D01*
G01*
X197550001Y-42968747D02*
G75*
G03*
X195500003Y-40918749I-1025001J1024997D01*
G01*
X195500003Y-55018751D02*
G75*
G03*
X197550001Y-52968753I1024997J1025001D01*
G01*
X283943800Y-33312500D02*
X283943800Y-23312500D01*
X285993800Y-21262500D02*
X295993800Y-21262500D01*
X295993800Y-35362500D02*
X285993800Y-35362500D01*
X298043800Y-23312500D02*
X298043800Y-33312500D01*
X285993799Y-21262501D02*
G75*
G03*
X283943801Y-23312499I-1024998J-1025000D01*
G01*
X283943798Y-33312501D02*
G75*
G03*
X285993797Y-35362500I1025001J-1024998D01*
G01*
X298043801Y-23312497D02*
G75*
G03*
X295993803Y-21262499I-1025001J1024997D01*
G01*
X295993803Y-35362501D02*
G75*
G03*
X298043801Y-33312503I1024997J1025001D01*
G01*
X69150000Y-90462500D02*
X69150000Y-80462500D01*
X71200000Y-78412500D02*
X81200000Y-78412500D01*
X81200000Y-92512500D02*
X71200000Y-92512500D01*
X83250000Y-80462500D02*
X83250000Y-90462500D01*
X71199999Y-78412501D02*
G75*
G03*
X69150001Y-80462499I-1024998J-1025000D01*
G01*
X69149998Y-90462501D02*
G75*
G03*
X71199997Y-92512500I1025001J-1024998D01*
G01*
X83250001Y-80462497D02*
G75*
G03*
X81200003Y-78412499I-1025001J1024997D01*
G01*
X81200003Y-92512501D02*
G75*
G03*
X83250001Y-90462503I1024997J1025001D01*
G01*
X28293800Y-111693700D02*
X28293800Y-101693700D01*
X30343800Y-99643700D02*
X40343800Y-99643700D01*
X40343800Y-113743700D02*
X30343800Y-113743700D01*
X42393800Y-101693700D02*
X42393800Y-111693700D01*
X30343799Y-99643701D02*
G75*
G03*
X28293801Y-101693699I-1024998J-1025000D01*
G01*
X28293798Y-111693701D02*
G75*
G03*
X30343797Y-113743700I1025001J-1024998D01*
G01*
X42393801Y-101693697D02*
G75*
G03*
X40343803Y-99643699I-1025001J1024997D01*
G01*
X40343803Y-113743701D02*
G75*
G03*
X42393801Y-111693703I1024997J1025001D01*
G01*
X93640000Y-52362500D02*
X93640000Y-42362500D01*
X95690000Y-40312500D02*
X105690000Y-40312500D01*
X105690000Y-54412500D02*
X95690000Y-54412500D01*
X107740000Y-42362500D02*
X107740000Y-52362500D01*
X95689999Y-40312501D02*
G75*
G03*
X93640001Y-42362499I-1024998J-1025000D01*
G01*
X93639998Y-52362501D02*
G75*
G03*
X95689997Y-54412500I1025001J-1024998D01*
G01*
X107740001Y-42362497D02*
G75*
G03*
X105690003Y-40312499I-1025001J1024997D01*
G01*
X105690003Y-54412501D02*
G75*
G03*
X107740001Y-52362503I1024997J1025001D01*
G01*
X107250000Y-90462500D02*
X107250000Y-80462500D01*
X109300000Y-78412500D02*
X119300000Y-78412500D01*
X119300000Y-92512500D02*
X109300000Y-92512500D01*
X121350000Y-80462500D02*
X121350000Y-90462500D01*
X109299999Y-78412501D02*
G75*
G03*
X107250001Y-80462499I-1024998J-1025000D01*
G01*
X107249998Y-90462501D02*
G75*
G03*
X109299997Y-92512500I1025001J-1024998D01*
G01*
X121350001Y-80462497D02*
G75*
G03*
X119300003Y-78412499I-1025001J1024997D01*
G01*
X119300003Y-92512501D02*
G75*
G03*
X121350001Y-90462503I1024997J1025001D01*
G01*
X300793800Y-111312500D02*
X300793800Y-101312500D01*
X302843800Y-99262500D02*
X312843800Y-99262500D01*
X312843800Y-113362500D02*
X302843800Y-113362500D01*
X314893800Y-101312500D02*
X314893800Y-111312500D01*
X302843799Y-99262501D02*
G75*
G03*
X300793801Y-101312499I-1024998J-1025000D01*
G01*
X300793798Y-111312501D02*
G75*
G03*
X302843797Y-113362500I1025001J-1024998D01*
G01*
X314893801Y-101312497D02*
G75*
G03*
X312843803Y-99262499I-1025001J1024997D01*
G01*
X312843803Y-113362501D02*
G75*
G03*
X314893801Y-111312503I1024997J1025001D01*
G01*
X183450000Y-72018750D02*
X183450000Y-62018750D01*
X185500000Y-59968750D02*
X195500000Y-59968750D01*
X195500000Y-74068750D02*
X185500000Y-74068750D01*
X197550000Y-62018750D02*
X197550000Y-72018750D01*
X185499999Y-59968751D02*
G75*
G03*
X183450001Y-62018749I-1024998J-1025000D01*
G01*
X183449998Y-72018751D02*
G75*
G03*
X185499997Y-74068750I1025001J-1024998D01*
G01*
X197550001Y-62018747D02*
G75*
G03*
X195500003Y-59968749I-1025001J1024997D01*
G01*
X195500003Y-74068751D02*
G75*
G03*
X197550001Y-72018753I1024997J1025001D01*
G01*
X23906300Y-90462500D02*
X23906300Y-80462500D01*
X25956300Y-78412500D02*
X35956300Y-78412500D01*
X35956300Y-92512500D02*
X25956300Y-92512500D01*
X38006300Y-80462500D02*
X38006300Y-90462500D01*
X25956299Y-78412501D02*
G75*
G03*
X23906301Y-80462499I-1024998J-1025000D01*
G01*
X23906298Y-90462501D02*
G75*
G03*
X25956297Y-92512500I1025001J-1024998D01*
G01*
X38006301Y-80462497D02*
G75*
G03*
X35956303Y-78412499I-1025001J1024997D01*
G01*
X35956303Y-92512501D02*
G75*
G03*
X38006301Y-90462503I1024997J1025001D01*
G01*
X40593800Y-71412500D02*
X40593800Y-61412500D01*
X42643800Y-59362500D02*
X52643800Y-59362500D01*
X52643800Y-73462500D02*
X42643800Y-73462500D01*
X54693800Y-61412500D02*
X54693800Y-71412500D01*
X42643799Y-59362501D02*
G75*
G03*
X40593801Y-61412499I-1024998J-1025000D01*
G01*
X40593798Y-71412501D02*
G75*
G03*
X42643797Y-73462500I1025001J-1024998D01*
G01*
X54693801Y-61412497D02*
G75*
G03*
X52643803Y-59362499I-1025001J1024997D01*
G01*
X52643803Y-73462501D02*
G75*
G03*
X54693801Y-71412503I1024997J1025001D01*
G01*
X217530600Y-52362500D02*
X217530600Y-42362500D01*
X219580600Y-40312500D02*
X229580600Y-40312500D01*
X229580600Y-54412500D02*
X219580600Y-54412500D01*
X231630600Y-42362500D02*
X231630600Y-52362500D01*
X219580599Y-40312501D02*
G75*
G03*
X217530601Y-42362499I-1024998J-1025000D01*
G01*
X217530598Y-52362501D02*
G75*
G03*
X219580597Y-54412500I1025001J-1024998D01*
G01*
X231630601Y-42362497D02*
G75*
G03*
X229580603Y-40312499I-1025001J1024997D01*
G01*
X229580603Y-54412501D02*
G75*
G03*
X231630601Y-52362503I1024997J1025001D01*
G01*
X116793800Y-71412500D02*
X116793800Y-61412500D01*
X118843800Y-59362500D02*
X128843800Y-59362500D01*
X128843800Y-73462500D02*
X118843800Y-73462500D01*
X130893800Y-61412500D02*
X130893800Y-71412500D01*
X118843799Y-59362501D02*
G75*
G03*
X116793801Y-61412499I-1024998J-1025000D01*
G01*
X116793798Y-71412501D02*
G75*
G03*
X118843797Y-73462500I1025001J-1024998D01*
G01*
X130893801Y-61412497D02*
G75*
G03*
X128843803Y-59362499I-1025001J1024997D01*
G01*
X128843803Y-73462501D02*
G75*
G03*
X130893801Y-71412503I1024997J1025001D01*
G01*
X126300000Y-90462500D02*
X126300000Y-80462500D01*
X128350000Y-78412500D02*
X138350000Y-78412500D01*
X138350000Y-92512500D02*
X128350000Y-92512500D01*
X140400000Y-80462500D02*
X140400000Y-90462500D01*
X128349999Y-78412501D02*
G75*
G03*
X126300001Y-80462499I-1024998J-1025000D01*
G01*
X126299998Y-90462501D02*
G75*
G03*
X128349997Y-92512500I1025001J-1024998D01*
G01*
X140400001Y-80462497D02*
G75*
G03*
X138350003Y-78412499I-1025001J1024997D01*
G01*
X138350003Y-92512501D02*
G75*
G03*
X140400001Y-90462503I1024997J1025001D01*
G01*
X78693800Y-71412500D02*
X78693800Y-61412500D01*
X80743800Y-59362500D02*
X90743800Y-59362500D01*
X90743800Y-73462500D02*
X80743800Y-73462500D01*
X92793800Y-61412500D02*
X92793800Y-71412500D01*
X80743799Y-59362501D02*
G75*
G03*
X78693801Y-61412499I-1024998J-1025000D01*
G01*
X78693798Y-71412501D02*
G75*
G03*
X80743797Y-73462500I1025001J-1024998D01*
G01*
X92793801Y-61412497D02*
G75*
G03*
X90743803Y-59362499I-1025001J1024997D01*
G01*
X90743803Y-73462501D02*
G75*
G03*
X92793801Y-71412503I1024997J1025001D01*
G01*
X302993800Y-33312500D02*
X302993800Y-23312500D01*
X305043800Y-21262500D02*
X315043800Y-21262500D01*
X315043800Y-35362500D02*
X305043800Y-35362500D01*
X317093800Y-23312500D02*
X317093800Y-33312500D01*
X305043799Y-21262501D02*
G75*
G03*
X302993801Y-23312499I-1024998J-1025000D01*
G01*
X302993798Y-33312501D02*
G75*
G03*
X305043797Y-35362500I1025001J-1024998D01*
G01*
X317093801Y-23312497D02*
G75*
G03*
X315043803Y-21262499I-1025001J1024997D01*
G01*
X315043803Y-35362501D02*
G75*
G03*
X317093801Y-33312503I1024997J1025001D01*
G01*
X17437500Y-52362500D02*
X17437500Y-42362500D01*
X19487500Y-40312500D02*
X29487500Y-40312500D01*
X29487500Y-54412500D02*
X19487500Y-54412500D01*
X31537500Y-42362500D02*
X31537500Y-52362500D01*
X19487499Y-40312501D02*
G75*
G03*
X17437501Y-42362499I-1024998J-1025000D01*
G01*
X17437498Y-52362501D02*
G75*
G03*
X19487497Y-54412500I1025001J-1024998D01*
G01*
X31537501Y-42362497D02*
G75*
G03*
X29487503Y-40312499I-1025001J1024997D01*
G01*
X29487503Y-54412501D02*
G75*
G03*
X31537501Y-52362503I1024997J1025001D01*
G01*
X212025000Y-71412500D02*
X212025000Y-61412500D01*
X214075000Y-59362500D02*
X224075000Y-59362500D01*
X224075000Y-73462500D02*
X214075000Y-73462500D01*
X226125000Y-61412500D02*
X226125000Y-71412500D01*
X214074999Y-59362501D02*
G75*
G03*
X212025001Y-61412499I-1024998J-1025000D01*
G01*
X212024998Y-71412501D02*
G75*
G03*
X214074997Y-73462500I1025001J-1024998D01*
G01*
X226125001Y-61412497D02*
G75*
G03*
X224075003Y-59362499I-1025001J1024997D01*
G01*
X224075003Y-73462501D02*
G75*
G03*
X226125001Y-71412503I1024997J1025001D01*
G01*
X112690000Y-52362500D02*
X112690000Y-42362500D01*
X114740000Y-40312500D02*
X124740000Y-40312500D01*
X124740000Y-54412500D02*
X114740000Y-54412500D01*
X126790000Y-42362500D02*
X126790000Y-52362500D01*
X114739999Y-40312501D02*
G75*
G03*
X112690001Y-42362499I-1024998J-1025000D01*
G01*
X112689998Y-52362501D02*
G75*
G03*
X114739997Y-54412500I1025001J-1024998D01*
G01*
X126790001Y-42362497D02*
G75*
G03*
X124740003Y-40312499I-1025001J1024997D01*
G01*
X124740003Y-54412501D02*
G75*
G03*
X126790001Y-52362503I1024997J1025001D01*
G01*
X24551900Y-33312500D02*
X24551900Y-23312500D01*
X26601900Y-21262500D02*
X36601900Y-21262500D01*
X36601900Y-35362500D02*
X26601900Y-35362500D01*
X38651900Y-23312500D02*
X38651900Y-33312500D01*
X26601899Y-21262501D02*
G75*
G03*
X24551901Y-23312499I-1024998J-1025000D01*
G01*
X24551898Y-33312501D02*
G75*
G03*
X26601897Y-35362500I1025001J-1024998D01*
G01*
X38651901Y-23312497D02*
G75*
G03*
X36601903Y-21262499I-1025001J1024997D01*
G01*
X36601903Y-35362501D02*
G75*
G03*
X38651901Y-33312503I1024997J1025001D01*
G01*
X259650000Y-109600000D02*
X259650000Y-99600000D01*
X261700000Y-97550000D02*
X271700000Y-97550000D01*
X271700000Y-111650000D02*
X261700000Y-111650000D01*
X273750000Y-99600000D02*
X273750000Y-109600000D01*
X261699999Y-97550001D02*
G75*
G03*
X259650001Y-99599999I-1024998J-1025000D01*
G01*
X259649998Y-109600001D02*
G75*
G03*
X261699997Y-111650000I1025001J-1024998D01*
G01*
X273750001Y-99599997D02*
G75*
G03*
X271700003Y-97549999I-1025001J1024997D01*
G01*
X271700003Y-111650001D02*
G75*
G03*
X273750001Y-109600003I1024997J1025001D01*
G01*
X145350000Y-72018750D02*
X145350000Y-62018750D01*
X147400000Y-59968750D02*
X157400000Y-59968750D01*
X157400000Y-74068750D02*
X147400000Y-74068750D01*
X159450000Y-62018750D02*
X159450000Y-72018750D01*
X147399999Y-59968751D02*
G75*
G03*
X145350001Y-62018749I-1024998J-1025000D01*
G01*
X145349998Y-72018751D02*
G75*
G03*
X147399997Y-74068750I1025001J-1024998D01*
G01*
X159450001Y-62018747D02*
G75*
G03*
X157400003Y-59968749I-1025001J1024997D01*
G01*
X157400003Y-74068751D02*
G75*
G03*
X159450001Y-72018753I1024997J1025001D01*
G01*
X119156300Y-109600000D02*
X119156300Y-99600000D01*
X121206300Y-97550000D02*
X131206300Y-97550000D01*
X131206300Y-111650000D02*
X121206300Y-111650000D01*
X133256300Y-99600000D02*
X133256300Y-109600000D01*
X121206299Y-97550001D02*
G75*
G03*
X119156301Y-99599999I-1024998J-1025000D01*
G01*
X119156298Y-109600001D02*
G75*
G03*
X121206297Y-111650000I1025001J-1024998D01*
G01*
X133256301Y-99599997D02*
G75*
G03*
X131206303Y-97549999I-1025001J1024997D01*
G01*
X131206303Y-111650001D02*
G75*
G03*
X133256301Y-109600003I1024997J1025001D01*
G01*
X183450000Y-110118750D02*
X183450000Y-100118750D01*
X185500000Y-98068750D02*
X195500000Y-98068750D01*
X195500000Y-112168750D02*
X185500000Y-112168750D01*
X197550000Y-100118750D02*
X197550000Y-110118750D01*
X185499999Y-98068751D02*
G75*
G03*
X183450001Y-100118749I-1024998J-1025000D01*
G01*
X183449998Y-110118751D02*
G75*
G03*
X185499997Y-112168750I1025001J-1024998D01*
G01*
X197550001Y-100118747D02*
G75*
G03*
X195500003Y-98068749I-1025001J1024997D01*
G01*
X195500003Y-112168751D02*
G75*
G03*
X197550001Y-110118753I1024997J1025001D01*
G01*
X240600000Y-90462500D02*
X240600000Y-80462500D01*
X242650000Y-78412500D02*
X252650000Y-78412500D01*
X252650000Y-92512500D02*
X242650000Y-92512500D01*
X254700000Y-80462500D02*
X254700000Y-90462500D01*
X242649999Y-78412501D02*
G75*
G03*
X240600001Y-80462499I-1024998J-1025000D01*
G01*
X240599998Y-90462501D02*
G75*
G03*
X242649997Y-92512500I1025001J-1024998D01*
G01*
X254700001Y-80462497D02*
G75*
G03*
X252650003Y-78412499I-1025001J1024997D01*
G01*
X252650003Y-92512501D02*
G75*
G03*
X254700001Y-90462503I1024997J1025001D01*
G01*
X269175000Y-71412500D02*
X269175000Y-61412500D01*
X271225000Y-59362500D02*
X281225000Y-59362500D01*
X281225000Y-73462500D02*
X271225000Y-73462500D01*
X283275000Y-61412500D02*
X283275000Y-71412500D01*
X271224999Y-59362501D02*
G75*
G03*
X269175001Y-61412499I-1024998J-1025000D01*
G01*
X269174998Y-71412501D02*
G75*
G03*
X271224997Y-73462500I1025001J-1024998D01*
G01*
X283275001Y-61412497D02*
G75*
G03*
X281225003Y-59362499I-1025001J1024997D01*
G01*
X281225003Y-73462501D02*
G75*
G03*
X283275001Y-71412503I1024997J1025001D01*
G01*
X304893800Y-90462500D02*
X304893800Y-80462500D01*
X306943800Y-78412500D02*
X316943800Y-78412500D01*
X316943800Y-92512500D02*
X306943800Y-92512500D01*
X318993800Y-80462500D02*
X318993800Y-90462500D01*
X306943799Y-78412501D02*
G75*
G03*
X304893801Y-80462499I-1024998J-1025000D01*
G01*
X304893798Y-90462501D02*
G75*
G03*
X306943797Y-92512500I1025001J-1024998D01*
G01*
X318993801Y-80462497D02*
G75*
G03*
X316943803Y-78412499I-1025001J1024997D01*
G01*
X316943803Y-92512501D02*
G75*
G03*
X318993801Y-90462503I1024997J1025001D01*
G01*
X81743800Y-33312500D02*
X81743800Y-23312500D01*
X83793800Y-21262500D02*
X93793800Y-21262500D01*
X93793800Y-35362500D02*
X83793800Y-35362500D01*
X95843800Y-23312500D02*
X95843800Y-33312500D01*
X83793799Y-21262501D02*
G75*
G03*
X81743801Y-23312499I-1024998J-1025000D01*
G01*
X81743798Y-33312501D02*
G75*
G03*
X83793797Y-35362500I1025001J-1024998D01*
G01*
X95843801Y-23312497D02*
G75*
G03*
X93793803Y-21262499I-1025001J1024997D01*
G01*
X93793803Y-35362501D02*
G75*
G03*
X95843801Y-33312503I1024997J1025001D01*
G01*
X226793800Y-33312500D02*
X226793800Y-23312500D01*
X228843800Y-21262500D02*
X238843800Y-21262500D01*
X238843800Y-35362500D02*
X228843800Y-35362500D01*
X240893800Y-23312500D02*
X240893800Y-33312500D01*
X228843799Y-21262501D02*
G75*
G03*
X226793801Y-23312499I-1024998J-1025000D01*
G01*
X226793798Y-33312501D02*
G75*
G03*
X228843797Y-35362500I1025001J-1024998D01*
G01*
X240893801Y-23312497D02*
G75*
G03*
X238843803Y-21262499I-1025001J1024997D01*
G01*
X238843803Y-35362501D02*
G75*
G03*
X240893801Y-33312503I1024997J1025001D01*
G01*
X231075000Y-71412500D02*
X231075000Y-61412500D01*
X233125000Y-59362500D02*
X243125000Y-59362500D01*
X243125000Y-73462500D02*
X233125000Y-73462500D01*
X245175000Y-61412500D02*
X245175000Y-71412500D01*
X233124999Y-59362501D02*
G75*
G03*
X231075001Y-61412499I-1024998J-1025000D01*
G01*
X231074998Y-71412501D02*
G75*
G03*
X233124997Y-73462500I1025001J-1024998D01*
G01*
X245175001Y-61412497D02*
G75*
G03*
X243125003Y-59362499I-1025001J1024997D01*
G01*
X243125003Y-73462501D02*
G75*
G03*
X245175001Y-71412503I1024997J1025001D01*
G01*
X90581300Y-109600000D02*
X90581300Y-99600000D01*
X92631300Y-97550000D02*
X102631300Y-97550000D01*
X102631300Y-111650000D02*
X92631300Y-111650000D01*
X104681300Y-99600000D02*
X104681300Y-109600000D01*
X92631299Y-97550001D02*
G75*
G03*
X90581301Y-99599999I-1024998J-1025000D01*
G01*
X90581298Y-109600001D02*
G75*
G03*
X92631297Y-111650000I1025001J-1024998D01*
G01*
X104681301Y-99599997D02*
G75*
G03*
X102631303Y-97549999I-1025001J1024997D01*
G01*
X102631303Y-111650001D02*
G75*
G03*
X104681301Y-109600003I1024997J1025001D01*
G01*
X59643800Y-71412500D02*
X59643800Y-61412500D01*
X61693800Y-59362500D02*
X71693800Y-59362500D01*
X71693800Y-73462500D02*
X61693800Y-73462500D01*
X73743800Y-61412500D02*
X73743800Y-71412500D01*
X61693799Y-59362501D02*
G75*
G03*
X59643801Y-61412499I-1024998J-1025000D01*
G01*
X59643798Y-71412501D02*
G75*
G03*
X61693797Y-73462500I1025001J-1024998D01*
G01*
X73743801Y-61412497D02*
G75*
G03*
X71693803Y-59362499I-1025001J1024997D01*
G01*
X71693803Y-73462501D02*
G75*
G03*
X73743801Y-71412503I1024997J1025001D01*
G01*
X145350000Y-52968750D02*
X145350000Y-42968750D01*
X147400000Y-40918750D02*
X157400000Y-40918750D01*
X157400000Y-55018750D02*
X147400000Y-55018750D01*
X159450000Y-42968750D02*
X159450000Y-52968750D01*
X147399999Y-40918751D02*
G75*
G03*
X145350001Y-42968749I-1024998J-1025000D01*
G01*
X145349998Y-52968751D02*
G75*
G03*
X147399997Y-55018750I1025001J-1024998D01*
G01*
X159450001Y-42968747D02*
G75*
G03*
X157400003Y-40918749I-1025001J1024997D01*
G01*
X157400003Y-55018751D02*
G75*
G03*
X159450001Y-52968753I1024997J1025001D01*
G01*
X19162500Y-71412500D02*
X19162500Y-61412500D01*
X21212500Y-59362500D02*
X31212500Y-59362500D01*
X31212500Y-73462500D02*
X21212500Y-73462500D01*
X33262500Y-61412500D02*
X33262500Y-71412500D01*
X21212499Y-59362501D02*
G75*
G03*
X19162501Y-61412499I-1024998J-1025000D01*
G01*
X19162498Y-71412501D02*
G75*
G03*
X21212497Y-73462500I1025001J-1024998D01*
G01*
X33262501Y-61412497D02*
G75*
G03*
X31212503Y-59362499I-1025001J1024997D01*
G01*
X31212503Y-73462501D02*
G75*
G03*
X33262501Y-71412503I1024997J1025001D01*
G01*
X202500000Y-90462500D02*
X202500000Y-80462500D01*
X204550000Y-78412500D02*
X214550000Y-78412500D01*
X214550000Y-92512500D02*
X204550000Y-92512500D01*
X216600000Y-80462500D02*
X216600000Y-90462500D01*
X204549999Y-78412501D02*
G75*
G03*
X202500001Y-80462499I-1024998J-1025000D01*
G01*
X202499998Y-90462501D02*
G75*
G03*
X204549997Y-92512500I1025001J-1024998D01*
G01*
X216600001Y-80462497D02*
G75*
G03*
X214550003Y-78412499I-1025001J1024997D01*
G01*
X214550003Y-92512501D02*
G75*
G03*
X216600001Y-90462503I1024997J1025001D01*
G01*
X97743800Y-71412500D02*
X97743800Y-61412500D01*
X99793800Y-59362500D02*
X109793800Y-59362500D01*
X109793800Y-73462500D02*
X99793800Y-73462500D01*
X111843800Y-61412500D02*
X111843800Y-71412500D01*
X99793799Y-59362501D02*
G75*
G03*
X97743801Y-61412499I-1024998J-1025000D01*
G01*
X97743798Y-71412501D02*
G75*
G03*
X99793797Y-73462500I1025001J-1024998D01*
G01*
X111843801Y-61412497D02*
G75*
G03*
X109793803Y-59362499I-1025001J1024997D01*
G01*
X109793803Y-73462501D02*
G75*
G03*
X111843801Y-71412503I1024997J1025001D01*
G01*
X221550000Y-90462500D02*
X221550000Y-80462500D01*
X223600000Y-78412500D02*
X233600000Y-78412500D01*
X233600000Y-92512500D02*
X223600000Y-92512500D01*
X235650000Y-80462500D02*
X235650000Y-90462500D01*
X223599999Y-78412501D02*
G75*
G03*
X221550001Y-80462499I-1024998J-1025000D01*
G01*
X221549998Y-90462501D02*
G75*
G03*
X223599997Y-92512500I1025001J-1024998D01*
G01*
X235650001Y-80462497D02*
G75*
G03*
X233600003Y-78412499I-1025001J1024997D01*
G01*
X233600003Y-92512501D02*
G75*
G03*
X235650001Y-90462503I1024997J1025001D01*
G01*
X74590000Y-52362500D02*
X74590000Y-42362500D01*
X76640000Y-40312500D02*
X86640000Y-40312500D01*
X86640000Y-54412500D02*
X76640000Y-54412500D01*
X88690000Y-42362500D02*
X88690000Y-52362500D01*
X76639999Y-40312501D02*
G75*
G03*
X74590001Y-42362499I-1024998J-1025000D01*
G01*
X74589998Y-52362501D02*
G75*
G03*
X76639997Y-54412500I1025001J-1024998D01*
G01*
X88690001Y-42362497D02*
G75*
G03*
X86640003Y-40312499I-1025001J1024997D01*
G01*
X86640003Y-54412501D02*
G75*
G03*
X88690001Y-52362503I1024997J1025001D01*
G01*
X161450000Y-19000000D02*
X161450000Y-36000000D01*
X161950000Y-36500000D02*
X180950000Y-36500000D01*
X180950000Y-18500000D02*
X161950000Y-18500000D01*
X181450000Y-36000000D02*
X181450000Y-19000000D01*
X161950000Y-18500000D02*
G75*
G03*
X161450000Y-19000000I-2J-499998D01*
G01*
X161450000Y-36000000D02*
G75*
G03*
X161950000Y-36500000I500001J1D01*
G01*
X181450000Y-19000000D02*
G75*
G03*
X180950000Y-18500000I-500000J0D01*
G01*
X180950000Y-36500000D02*
G75*
G03*
X181450000Y-36000000I0J500000D01*
G01*
X245843800Y-33312500D02*
X245843800Y-23312500D01*
X247893800Y-21262500D02*
X257893800Y-21262500D01*
X257893800Y-35362500D02*
X247893800Y-35362500D01*
X259943800Y-23312500D02*
X259943800Y-33312500D01*
X247893799Y-21262501D02*
G75*
G03*
X245843801Y-23312499I-1024998J-1025000D01*
G01*
X245843798Y-33312501D02*
G75*
G03*
X247893797Y-35362500I1025001J-1024998D01*
G01*
X259943801Y-23312497D02*
G75*
G03*
X257893803Y-21262499I-1025001J1024997D01*
G01*
X257893803Y-35362501D02*
G75*
G03*
X259943801Y-33312503I1024997J1025001D01*
G01*
X164400000Y-91068750D02*
X164400000Y-81068750D01*
X166450000Y-79018750D02*
X176450000Y-79018750D01*
X176450000Y-93118750D02*
X166450000Y-93118750D01*
X178500000Y-81068750D02*
X178500000Y-91068750D01*
X166449999Y-79018751D02*
G75*
G03*
X164400001Y-81068749I-1024998J-1025000D01*
G01*
X164399998Y-91068751D02*
G75*
G03*
X166449997Y-93118750I1025001J-1024998D01*
G01*
X178500001Y-81068747D02*
G75*
G03*
X176450003Y-79018749I-1025001J1024997D01*
G01*
X176450003Y-93118751D02*
G75*
G03*
X178500001Y-91068753I1024997J1025001D01*
G01*
X255630600Y-52362500D02*
X255630600Y-42362500D01*
X257680600Y-40312500D02*
X267680600Y-40312500D01*
X267680600Y-54412500D02*
X257680600Y-54412500D01*
X269730600Y-42362500D02*
X269730600Y-52362500D01*
X257680599Y-40312501D02*
G75*
G03*
X255630601Y-42362499I-1024998J-1025000D01*
G01*
X255630598Y-52362501D02*
G75*
G03*
X257680597Y-54412500I1025001J-1024998D01*
G01*
X269730601Y-42362497D02*
G75*
G03*
X267680603Y-40312499I-1025001J1024997D01*
G01*
X267680603Y-54412501D02*
G75*
G03*
X269730601Y-52362503I1024997J1025001D01*
G01*
X100793800Y-33312500D02*
X100793800Y-23312500D01*
X102843800Y-21262500D02*
X112843800Y-21262500D01*
X112843800Y-35362500D02*
X102843800Y-35362500D01*
X114893800Y-23312500D02*
X114893800Y-33312500D01*
X102843799Y-21262501D02*
G75*
G03*
X100793801Y-23312499I-1024998J-1025000D01*
G01*
X100793798Y-33312501D02*
G75*
G03*
X102843797Y-35362500I1025001J-1024998D01*
G01*
X114893801Y-23312497D02*
G75*
G03*
X112843803Y-21262499I-1025001J1024997D01*
G01*
X112843803Y-35362501D02*
G75*
G03*
X114893801Y-33312503I1024997J1025001D01*
G01*
X183450000Y-91068750D02*
X183450000Y-81068750D01*
X185500000Y-79018750D02*
X195500000Y-79018750D01*
X195500000Y-93118750D02*
X185500000Y-93118750D01*
X197550000Y-81068750D02*
X197550000Y-91068750D01*
X185499999Y-79018751D02*
G75*
G03*
X183450001Y-81068749I-1024998J-1025000D01*
G01*
X183449998Y-91068751D02*
G75*
G03*
X185499997Y-93118750I1025001J-1024998D01*
G01*
X197550001Y-81068747D02*
G75*
G03*
X195500003Y-79018749I-1025001J1024997D01*
G01*
X195500003Y-93118751D02*
G75*
G03*
X197550001Y-91068753I1024997J1025001D01*
G01*
X236580600Y-52362500D02*
X236580600Y-42362500D01*
X238630600Y-40312500D02*
X248630600Y-40312500D01*
X248630600Y-54412500D02*
X238630600Y-54412500D01*
X250680600Y-42362500D02*
X250680600Y-52362500D01*
X238630599Y-40312501D02*
G75*
G03*
X236580601Y-42362499I-1024998J-1025000D01*
G01*
X236580598Y-52362501D02*
G75*
G03*
X238630597Y-54412500I1025001J-1024998D01*
G01*
X250680601Y-42362497D02*
G75*
G03*
X248630603Y-40312499I-1025001J1024997D01*
G01*
X248630603Y-54412501D02*
G75*
G03*
X250680601Y-52362503I1024997J1025001D01*
G01*
X50100000Y-90462500D02*
X50100000Y-80462500D01*
X52150000Y-78412500D02*
X62150000Y-78412500D01*
X62150000Y-92512500D02*
X52150000Y-92512500D01*
X64200000Y-80462500D02*
X64200000Y-90462500D01*
X52149999Y-78412501D02*
G75*
G03*
X50100001Y-80462499I-1024998J-1025000D01*
G01*
X50099998Y-90462501D02*
G75*
G03*
X52149997Y-92512500I1025001J-1024998D01*
G01*
X64200001Y-80462497D02*
G75*
G03*
X62150003Y-78412499I-1025001J1024997D01*
G01*
X62150003Y-92512501D02*
G75*
G03*
X64200001Y-90462503I1024997J1025001D01*
G01*
X164400000Y-72018750D02*
X164400000Y-62018750D01*
X166450000Y-59968750D02*
X176450000Y-59968750D01*
X176450000Y-74068750D02*
X166450000Y-74068750D01*
X178500000Y-62018750D02*
X178500000Y-72018750D01*
X166449999Y-59968751D02*
G75*
G03*
X164400001Y-62018749I-1024998J-1025000D01*
G01*
X164399998Y-72018751D02*
G75*
G03*
X166449997Y-74068750I1025001J-1024998D01*
G01*
X178500001Y-62018747D02*
G75*
G03*
X176450003Y-59968749I-1025001J1024997D01*
G01*
X176450003Y-74068751D02*
G75*
G03*
X178500001Y-72018753I1024997J1025001D01*
G01*
X293730600Y-52362500D02*
X293730600Y-42362500D01*
X295780600Y-40312500D02*
X305780600Y-40312500D01*
X305780600Y-54412500D02*
X295780600Y-54412500D01*
X307830600Y-42362500D02*
X307830600Y-52362500D01*
X295780599Y-40312501D02*
G75*
G03*
X293730601Y-42362499I-1024998J-1025000D01*
G01*
X293730598Y-52362501D02*
G75*
G03*
X295780597Y-54412500I1025001J-1024998D01*
G01*
X307830601Y-42362497D02*
G75*
G03*
X305780603Y-40312499I-1025001J1024997D01*
G01*
X305780603Y-54412501D02*
G75*
G03*
X307830601Y-52362503I1024997J1025001D01*
G01*
X62693800Y-33312500D02*
X62693800Y-23312500D01*
X64743800Y-21262500D02*
X74743800Y-21262500D01*
X74743800Y-35362500D02*
X64743800Y-35362500D01*
X76793800Y-23312500D02*
X76793800Y-33312500D01*
X64743799Y-21262501D02*
G75*
G03*
X62693801Y-23312499I-1024998J-1025000D01*
G01*
X62693798Y-33312501D02*
G75*
G03*
X64743797Y-35362500I1025001J-1024998D01*
G01*
X76793801Y-23312497D02*
G75*
G03*
X74743803Y-21262499I-1025001J1024997D01*
G01*
X74743803Y-35362501D02*
G75*
G03*
X76793801Y-33312503I1024997J1025001D01*
G01*
X55540000Y-52362500D02*
X55540000Y-42362500D01*
X57590000Y-40312500D02*
X67590000Y-40312500D01*
X67590000Y-54412500D02*
X57590000Y-54412500D01*
X69640000Y-42362500D02*
X69640000Y-52362500D01*
X57589999Y-40312501D02*
G75*
G03*
X55540001Y-42362499I-1024998J-1025000D01*
G01*
X55539998Y-52362501D02*
G75*
G03*
X57589997Y-54412500I1025001J-1024998D01*
G01*
X69640001Y-42362497D02*
G75*
G03*
X67590003Y-40312499I-1025001J1024997D01*
G01*
X67590003Y-54412501D02*
G75*
G03*
X69640001Y-52362503I1024997J1025001D01*
G01*
X36490000Y-52362500D02*
X36490000Y-42362500D01*
X38540000Y-40312500D02*
X48540000Y-40312500D01*
X48540000Y-54412500D02*
X38540000Y-54412500D01*
X50590000Y-42362500D02*
X50590000Y-52362500D01*
X38539999Y-40312501D02*
G75*
G03*
X36490001Y-42362499I-1024998J-1025000D01*
G01*
X36489998Y-52362501D02*
G75*
G03*
X38539997Y-54412500I1025001J-1024998D01*
G01*
X50590001Y-42362497D02*
G75*
G03*
X48540003Y-40312499I-1025001J1024997D01*
G01*
X48540003Y-54412501D02*
G75*
G03*
X50590001Y-52362503I1024997J1025001D01*
G01*
X274680600Y-52362500D02*
X274680600Y-42362500D01*
X276730600Y-40312500D02*
X286730600Y-40312500D01*
X286730600Y-54412500D02*
X276730600Y-54412500D01*
X288780600Y-42362500D02*
X288780600Y-52362500D01*
X276730599Y-40312501D02*
G75*
G03*
X274680601Y-42362499I-1024998J-1025000D01*
G01*
X274680598Y-52362501D02*
G75*
G03*
X276730597Y-54412500I1025001J-1024998D01*
G01*
X288780601Y-42362497D02*
G75*
G03*
X286730603Y-40312499I-1025001J1024997D01*
G01*
X286730603Y-54412501D02*
G75*
G03*
X288780601Y-52362503I1024997J1025001D01*
G01*
X288225000Y-71412500D02*
X288225000Y-61412500D01*
X290275000Y-59362500D02*
X300275000Y-59362500D01*
X300275000Y-73462500D02*
X290275000Y-73462500D01*
X302325000Y-61412500D02*
X302325000Y-71412500D01*
X290274999Y-59362501D02*
G75*
G03*
X288225001Y-61412499I-1024998J-1025000D01*
G01*
X288224998Y-71412501D02*
G75*
G03*
X290274997Y-73462500I1025001J-1024998D01*
G01*
X302325001Y-61412497D02*
G75*
G03*
X300275003Y-59362499I-1025001J1024997D01*
G01*
X300275003Y-73462501D02*
G75*
G03*
X302325001Y-71412503I1024997J1025001D01*
G01*
X88200000Y-90462500D02*
X88200000Y-80462500D01*
X90250000Y-78412500D02*
X100250000Y-78412500D01*
X100250000Y-92512500D02*
X90250000Y-92512500D01*
X102300000Y-80462500D02*
X102300000Y-90462500D01*
X90249999Y-78412501D02*
G75*
G03*
X88200001Y-80462499I-1024998J-1025000D01*
G01*
X88199998Y-90462501D02*
G75*
G03*
X90249997Y-92512500I1025001J-1024998D01*
G01*
X102300001Y-80462497D02*
G75*
G03*
X100250003Y-78412499I-1025001J1024997D01*
G01*
X100250003Y-92512501D02*
G75*
G03*
X102300001Y-90462503I1024997J1025001D01*
G01*
X259650000Y-90462500D02*
X259650000Y-80462500D01*
X261700000Y-78412500D02*
X271700000Y-78412500D01*
X271700000Y-92512500D02*
X261700000Y-92512500D01*
X273750000Y-80462500D02*
X273750000Y-90462500D01*
X261699999Y-78412501D02*
G75*
G03*
X259650001Y-80462499I-1024998J-1025000D01*
G01*
X259649998Y-90462501D02*
G75*
G03*
X261699997Y-92512500I1025001J-1024998D01*
G01*
X273750001Y-80462497D02*
G75*
G03*
X271700003Y-78412499I-1025001J1024997D01*
G01*
X271700003Y-92512501D02*
G75*
G03*
X273750001Y-90462503I1024997J1025001D01*
G01*
X209643800Y-109600000D02*
X209643800Y-99600000D01*
X211693800Y-97550000D02*
X221693800Y-97550000D01*
X221693800Y-111650000D02*
X211693800Y-111650000D01*
X223743800Y-99600000D02*
X223743800Y-109600000D01*
X211693799Y-97550001D02*
G75*
G03*
X209643801Y-99599999I-1024998J-1025000D01*
G01*
X209643798Y-109600001D02*
G75*
G03*
X211693797Y-111650000I1025001J-1024998D01*
G01*
X223743801Y-99599997D02*
G75*
G03*
X221693803Y-97549999I-1025001J1024997D01*
G01*
X221693803Y-111650001D02*
G75*
G03*
X223743801Y-109600003I1024997J1025001D01*
G01*
X312774400Y-52362500D02*
X312774400Y-42362500D01*
X314824400Y-40312500D02*
X324824400Y-40312500D01*
X324824400Y-54412500D02*
X314824400Y-54412500D01*
X326874400Y-42362500D02*
X326874400Y-52362500D01*
X314824399Y-40312501D02*
G75*
G03*
X312774401Y-42362499I-1024998J-1025000D01*
G01*
X312774398Y-52362501D02*
G75*
G03*
X314824397Y-54412500I1025001J-1024998D01*
G01*
X326874401Y-42362497D02*
G75*
G03*
X324824403Y-40312499I-1025001J1024997D01*
G01*
X324824403Y-54412501D02*
G75*
G03*
X326874401Y-52362503I1024997J1025001D01*
G01*
X164400000Y-110118750D02*
X164400000Y-100118750D01*
X166450000Y-98068750D02*
X176450000Y-98068750D01*
X176450000Y-112168750D02*
X166450000Y-112168750D01*
X178500000Y-100118750D02*
X178500000Y-110118750D01*
X166449999Y-98068751D02*
G75*
G03*
X164400001Y-100118749I-1024998J-1025000D01*
G01*
X164399998Y-110118751D02*
G75*
G03*
X166449997Y-112168750I1025001J-1024998D01*
G01*
X178500001Y-100118747D02*
G75*
G03*
X176450003Y-98068749I-1025001J1024997D01*
G01*
X176450003Y-112168751D02*
G75*
G03*
X178500001Y-110118753I1024997J1025001D01*
G01*
X43643800Y-33312500D02*
X43643800Y-23312500D01*
X45693800Y-21262500D02*
X55693800Y-21262500D01*
X55693800Y-35362500D02*
X45693800Y-35362500D01*
X57743800Y-23312500D02*
X57743800Y-33312500D01*
X45693799Y-21262501D02*
G75*
G03*
X43643801Y-23312499I-1024998J-1025000D01*
G01*
X43643798Y-33312501D02*
G75*
G03*
X45693797Y-35362500I1025001J-1024998D01*
G01*
X57743801Y-23312497D02*
G75*
G03*
X55693803Y-21262499I-1025001J1024997D01*
G01*
X55693803Y-35362501D02*
G75*
G03*
X57743801Y-33312503I1024997J1025001D01*
G01*
M02*
