G04 #@! TF.GenerationSoftware,KiCad,Pcbnew,7.0.9*
G04 #@! TF.CreationDate,2024-04-05T23:23:07+09:00*
G04 #@! TF.ProjectId,avain,61766169-6e2e-46b6-9963-61645f706362,rev?*
G04 #@! TF.SameCoordinates,Original*
G04 #@! TF.FileFunction,Legend,Top*
G04 #@! TF.FilePolarity,Positive*
%FSLAX46Y46*%
G04 Gerber Fmt 4.6, Leading zero omitted, Abs format (unit mm)*
G04 Created by KiCad (PCBNEW 7.0.9) date 2024-04-05 23:23:07*
%MOMM*%
%LPD*%
G01*
G04 APERTURE LIST*
G04 APERTURE END LIST*
G36*
X144705188Y-26802205D02*
G01*
X144942804Y-26836258D01*
X145164735Y-26900954D01*
X145396959Y-27002109D01*
X145427263Y-27017233D01*
X145739712Y-27213177D01*
X146017083Y-27463638D01*
X146251930Y-27758530D01*
X146436803Y-28087767D01*
X146564256Y-28441264D01*
X146601128Y-28606873D01*
X146624804Y-28738615D01*
X144425907Y-28738615D01*
X142227011Y-28738615D01*
X142250687Y-28606873D01*
X142345881Y-28265678D01*
X142354845Y-28246776D01*
X142893719Y-28246776D01*
X144423921Y-28246776D01*
X144773779Y-28246061D01*
X145089010Y-28243996D01*
X145364012Y-28240696D01*
X145593180Y-28236279D01*
X145770910Y-28230863D01*
X145891599Y-28224564D01*
X145949642Y-28217499D01*
X145954123Y-28214799D01*
X145931549Y-28165436D01*
X145871958Y-28080736D01*
X145787544Y-27975512D01*
X145690506Y-27864576D01*
X145593037Y-27762741D01*
X145542658Y-27715069D01*
X145302728Y-27530173D01*
X145052135Y-27402767D01*
X144777647Y-27328432D01*
X144466031Y-27302750D01*
X144316316Y-27305611D01*
X144140720Y-27315805D01*
X144011658Y-27331512D01*
X143905401Y-27358003D01*
X143798220Y-27400550D01*
X143718661Y-27438406D01*
X143559508Y-27534419D01*
X143385977Y-27667604D01*
X143216695Y-27820945D01*
X143070283Y-27977427D01*
X142965367Y-28120035D01*
X142957185Y-28134098D01*
X142893719Y-28246776D01*
X142354845Y-28246776D01*
X142502705Y-27934993D01*
X142712557Y-27627351D01*
X142966833Y-27355283D01*
X143256931Y-27131324D01*
X143268750Y-27123800D01*
X143568338Y-26961504D01*
X143869897Y-26856529D01*
X144194030Y-26802986D01*
X144425907Y-26792976D01*
X144705188Y-26802205D01*
G37*
G36*
X138225639Y-24909604D02*
G01*
X138538635Y-24911128D01*
X138796524Y-24914755D01*
X139006886Y-24921375D01*
X139177298Y-24931876D01*
X139315338Y-24947150D01*
X139428585Y-24968084D01*
X139524616Y-24995568D01*
X139611009Y-25030492D01*
X139695343Y-25073745D01*
X139785196Y-25126217D01*
X139806129Y-25138888D01*
X140083601Y-25345515D01*
X140312655Y-25594659D01*
X140489689Y-25877470D01*
X140611099Y-26185100D01*
X140673284Y-26508701D01*
X140672640Y-26839425D01*
X140616948Y-27130354D01*
X140489078Y-27466518D01*
X140310711Y-27754322D01*
X140079862Y-27996238D01*
X139794548Y-28194735D01*
X139735707Y-28226858D01*
X139625704Y-28282371D01*
X139521257Y-28328189D01*
X139414351Y-28365238D01*
X139296971Y-28394443D01*
X139161103Y-28416729D01*
X138998730Y-28433021D01*
X138801839Y-28444244D01*
X138562414Y-28451323D01*
X138272441Y-28455183D01*
X137923904Y-28456749D01*
X137742159Y-28456954D01*
X136468646Y-28457564D01*
X136468646Y-26683429D01*
X136468646Y-25397573D01*
X136960486Y-25397573D01*
X136960486Y-26665447D01*
X136960486Y-27933321D01*
X138111039Y-27923174D01*
X139261592Y-27913028D01*
X139456825Y-27814098D01*
X139670729Y-27684954D01*
X139837390Y-27532045D01*
X139974206Y-27337259D01*
X140044825Y-27201979D01*
X140110053Y-27059034D01*
X140148732Y-26948548D01*
X140167466Y-26841029D01*
X140172854Y-26706985D01*
X140172688Y-26630732D01*
X140164469Y-26439065D01*
X140140803Y-26293758D01*
X140098954Y-26174023D01*
X139982223Y-25979949D01*
X139816300Y-25790396D01*
X139620536Y-25625330D01*
X139483362Y-25538942D01*
X139261592Y-25418698D01*
X138111039Y-25408136D01*
X136960486Y-25397573D01*
X136468646Y-25397573D01*
X136468646Y-24909293D01*
X137849960Y-24909293D01*
X138225639Y-24909604D01*
G37*
G36*
X132747805Y-23855568D02*
G01*
X133267106Y-23855764D01*
X133720596Y-23856321D01*
X134112726Y-23857315D01*
X134447947Y-23858826D01*
X134730711Y-23860932D01*
X134965469Y-23863710D01*
X135156671Y-23867240D01*
X135308770Y-23871599D01*
X135426216Y-23876866D01*
X135513460Y-23883119D01*
X135574954Y-23890436D01*
X135615148Y-23898896D01*
X135634586Y-23906342D01*
X135709096Y-23936425D01*
X135777910Y-23933039D01*
X135858026Y-23904038D01*
X135895673Y-23891802D01*
X135948692Y-23881712D01*
X136023080Y-23873635D01*
X136124835Y-23867437D01*
X136259955Y-23862982D01*
X136434438Y-23860138D01*
X136654283Y-23858770D01*
X136925486Y-23858744D01*
X137254046Y-23859925D01*
X137645961Y-23862180D01*
X137710897Y-23862605D01*
X139437249Y-23874034D01*
X139759306Y-23983002D01*
X140120231Y-24126101D01*
X140430098Y-24296610D01*
X140705876Y-24504364D01*
X140789033Y-24579690D01*
X141058979Y-24858698D01*
X141272917Y-25138272D01*
X141442818Y-25436747D01*
X141580654Y-25772457D01*
X141594811Y-25813749D01*
X141656003Y-26049635D01*
X141697863Y-26322416D01*
X141717593Y-26602490D01*
X141712399Y-26860255D01*
X141702403Y-26952703D01*
X141686706Y-27076870D01*
X141678458Y-27170564D01*
X141679240Y-27215264D01*
X141679901Y-27216353D01*
X141704864Y-27197898D01*
X141753443Y-27136260D01*
X141782685Y-27093782D01*
X141995904Y-26824894D01*
X142267224Y-26568228D01*
X142584595Y-26332113D01*
X142935964Y-26124877D01*
X143309279Y-25954847D01*
X143555059Y-25869121D01*
X143677696Y-25833258D01*
X143784695Y-25807792D01*
X143892447Y-25790995D01*
X144017341Y-25781137D01*
X144175765Y-25776488D01*
X144384110Y-25775319D01*
X144443473Y-25775365D01*
X144667358Y-25776654D01*
X144837493Y-25780959D01*
X144970378Y-25790039D01*
X145082514Y-25805650D01*
X145190402Y-25829552D01*
X145310543Y-25863501D01*
X145332178Y-25870035D01*
X145750632Y-26028137D01*
X146144949Y-26238104D01*
X146504573Y-26492418D01*
X146818949Y-26783558D01*
X147077522Y-27104006D01*
X147089761Y-27122102D01*
X147218854Y-27314856D01*
X147219049Y-25857372D01*
X147219934Y-25510873D01*
X147222390Y-25193411D01*
X147226271Y-24911753D01*
X147231427Y-24672664D01*
X147237709Y-24482913D01*
X147244968Y-24349265D01*
X147253057Y-24278487D01*
X147253837Y-24275370D01*
X147316944Y-24147709D01*
X147423749Y-24022594D01*
X147551166Y-23924396D01*
X147616369Y-23892637D01*
X147708453Y-23872699D01*
X147843425Y-23860656D01*
X147999603Y-23856447D01*
X148155303Y-23860008D01*
X148288842Y-23871277D01*
X148378536Y-23890190D01*
X148389282Y-23894873D01*
X148542648Y-24005367D01*
X148668487Y-24154811D01*
X148688927Y-24189100D01*
X148704909Y-24226065D01*
X148718091Y-24278302D01*
X148728891Y-24353102D01*
X148737728Y-24457757D01*
X148745021Y-24599559D01*
X148751186Y-24785802D01*
X148756644Y-25023777D01*
X148761812Y-25320776D01*
X148764635Y-25508640D01*
X148782201Y-26722787D01*
X149695617Y-26164340D01*
X149942869Y-26013105D01*
X150235958Y-25833719D01*
X150560840Y-25634786D01*
X150903468Y-25424907D01*
X151249797Y-25212688D01*
X151585783Y-25006730D01*
X151856198Y-24840899D01*
X152184822Y-24639814D01*
X152460054Y-24473151D01*
X152688115Y-24338144D01*
X152875227Y-24232023D01*
X153027611Y-24152019D01*
X153151486Y-24095365D01*
X153253075Y-24059291D01*
X153338598Y-24041029D01*
X153414275Y-24037811D01*
X153486329Y-24046868D01*
X153560979Y-24065431D01*
X153583688Y-24072103D01*
X153728685Y-24147588D01*
X153867491Y-24276815D01*
X153988223Y-24443497D01*
X154079000Y-24631343D01*
X154127003Y-24816962D01*
X154133979Y-24969153D01*
X154105895Y-25103682D01*
X154036570Y-25228747D01*
X153919820Y-25352544D01*
X153749462Y-25483269D01*
X153519315Y-25629118D01*
X153510402Y-25634419D01*
X153407619Y-25696002D01*
X153258532Y-25786120D01*
X153069110Y-25901117D01*
X152845320Y-26037334D01*
X152593130Y-26191114D01*
X152318508Y-26358800D01*
X152027422Y-26536734D01*
X151725841Y-26721259D01*
X151419731Y-26908717D01*
X151115060Y-27095451D01*
X150817797Y-27277803D01*
X150533910Y-27452117D01*
X150269366Y-27614734D01*
X150030133Y-27761997D01*
X149822179Y-27890248D01*
X149651472Y-27995831D01*
X149523979Y-28075088D01*
X149445670Y-28124361D01*
X149422396Y-28139775D01*
X149446367Y-28162186D01*
X149525056Y-28217977D01*
X149653270Y-28303812D01*
X149825822Y-28416354D01*
X150037522Y-28552267D01*
X150283178Y-28708215D01*
X150557602Y-28880863D01*
X150855604Y-29066872D01*
X151108703Y-29223807D01*
X151575004Y-29512228D01*
X151985186Y-29766312D01*
X152342988Y-29988519D01*
X152652146Y-30181308D01*
X152916399Y-30347140D01*
X153139484Y-30488474D01*
X153325141Y-30607770D01*
X153477107Y-30707488D01*
X153599119Y-30790087D01*
X153694917Y-30858027D01*
X153768237Y-30913768D01*
X153822818Y-30959770D01*
X153862398Y-30998492D01*
X153890714Y-31032395D01*
X153911506Y-31063938D01*
X153915414Y-31070756D01*
X153999275Y-31274969D01*
X154014978Y-31472797D01*
X153962877Y-31673431D01*
X153940621Y-31722414D01*
X153803958Y-31945296D01*
X153642454Y-32103949D01*
X153453347Y-32200847D01*
X153385962Y-32219348D01*
X153242966Y-32243339D01*
X153129899Y-32239597D01*
X153052680Y-32221378D01*
X153009035Y-32202593D01*
X152932057Y-32161946D01*
X152819563Y-32098093D01*
X152669371Y-32009693D01*
X152479297Y-31895401D01*
X152247159Y-31753876D01*
X151970773Y-31583774D01*
X151647956Y-31383753D01*
X151276525Y-31152469D01*
X150854297Y-30888581D01*
X150379089Y-30590744D01*
X149848719Y-30257617D01*
X149344303Y-29940296D01*
X148782201Y-29586470D01*
X148764635Y-30718745D01*
X148759538Y-31043773D01*
X148754385Y-31306432D01*
X148747680Y-31514602D01*
X148737929Y-31676163D01*
X148723637Y-31798992D01*
X148703310Y-31890970D01*
X148675451Y-31959976D01*
X148638566Y-32013890D01*
X148591161Y-32060591D01*
X148531740Y-32107957D01*
X148495895Y-32135239D01*
X148424434Y-32184239D01*
X148353034Y-32215121D01*
X148261142Y-32233070D01*
X148128201Y-32243275D01*
X148054944Y-32246508D01*
X147866906Y-32251112D01*
X147731522Y-32245074D01*
X147631533Y-32224752D01*
X147549682Y-32186504D01*
X147468708Y-32126687D01*
X147462482Y-32121476D01*
X147376040Y-32038546D01*
X147312335Y-31948134D01*
X147268112Y-31838165D01*
X147240118Y-31696564D01*
X147225098Y-31511255D01*
X147219797Y-31270163D01*
X147219625Y-31220297D01*
X147218854Y-30698244D01*
X147066226Y-30905573D01*
X146753445Y-31274856D01*
X146401213Y-31587928D01*
X146012855Y-31842366D01*
X145591698Y-32035751D01*
X145443887Y-32086451D01*
X144979068Y-32198682D01*
X144516244Y-32244566D01*
X144061107Y-32226675D01*
X143619347Y-32147586D01*
X143196658Y-32009872D01*
X142798731Y-31816108D01*
X142431258Y-31568869D01*
X142099932Y-31270730D01*
X141810443Y-30924264D01*
X141568484Y-30532046D01*
X141450262Y-30280065D01*
X141358644Y-30042623D01*
X141293757Y-29823776D01*
X141248847Y-29595240D01*
X141217162Y-29328731D01*
X141213562Y-29288675D01*
X141205198Y-29118200D01*
X141205473Y-28919405D01*
X141208994Y-28826706D01*
X141706147Y-28826706D01*
X141706203Y-29004575D01*
X141710735Y-29152653D01*
X141720879Y-29360104D01*
X141735910Y-29520231D01*
X141759583Y-29655963D01*
X141795651Y-29790228D01*
X141834263Y-29907128D01*
X142007287Y-30309514D01*
X142231509Y-30665063D01*
X142508316Y-30975195D01*
X142839095Y-31241329D01*
X143225233Y-31464887D01*
X143456243Y-31567995D01*
X143801564Y-31674865D01*
X144180309Y-31732613D01*
X144574798Y-31740332D01*
X144967349Y-31697119D01*
X145160842Y-31655244D01*
X145549466Y-31519835D01*
X145913053Y-31318997D01*
X146250963Y-31053192D01*
X146562554Y-30722883D01*
X146701408Y-30543176D01*
X146789126Y-30409783D01*
X146825756Y-30311832D01*
X146810602Y-30235798D01*
X146742968Y-30168155D01*
X146680013Y-30127787D01*
X146579989Y-30075552D01*
X146497424Y-30043393D01*
X146470333Y-30038477D01*
X146422464Y-30065275D01*
X146350852Y-30135716D01*
X146270562Y-30234870D01*
X146266468Y-30240483D01*
X146124901Y-30426724D01*
X145997481Y-30570564D01*
X145864598Y-30691225D01*
X145706648Y-30807930D01*
X145646479Y-30848324D01*
X145314998Y-31026556D01*
X144955261Y-31146796D01*
X144579591Y-31207589D01*
X144200317Y-31207479D01*
X143829765Y-31145009D01*
X143639252Y-31085430D01*
X143337162Y-30940862D01*
X143048098Y-30739545D01*
X142787644Y-30494948D01*
X142571380Y-30220540D01*
X142496287Y-30097510D01*
X142436609Y-29974730D01*
X142374043Y-29820588D01*
X142364102Y-29792557D01*
X142893719Y-29792557D01*
X142957185Y-29901171D01*
X143136968Y-30143416D01*
X143371108Y-30355945D01*
X143646399Y-30528314D01*
X143873350Y-30625452D01*
X143993582Y-30663587D01*
X144103153Y-30686936D01*
X144224584Y-30698094D01*
X144380398Y-30699652D01*
X144496170Y-30697158D01*
X144680263Y-30689796D01*
X144815043Y-30677152D01*
X144921446Y-30655477D01*
X145020406Y-30621019D01*
X145088417Y-30591028D01*
X145388975Y-30421667D01*
X145633957Y-30219336D01*
X145767356Y-30063100D01*
X145840020Y-29966856D01*
X145898238Y-29896402D01*
X145927172Y-29868675D01*
X145956340Y-29850827D01*
X145951884Y-29835841D01*
X145909477Y-29823497D01*
X145824793Y-29813578D01*
X145693507Y-29805863D01*
X145511292Y-29800134D01*
X145273822Y-29796172D01*
X144976772Y-29793757D01*
X144615814Y-29792671D01*
X144423921Y-29792557D01*
X142893719Y-29792557D01*
X142364102Y-29792557D01*
X142352980Y-29761198D01*
X147091746Y-29761198D01*
X147093918Y-29784403D01*
X147131025Y-29827689D01*
X147181849Y-29879482D01*
X147206733Y-29897952D01*
X147216599Y-29868383D01*
X147218854Y-29827689D01*
X147195078Y-29769927D01*
X147143146Y-29757426D01*
X147091746Y-29761198D01*
X142352980Y-29761198D01*
X142315415Y-29655280D01*
X142267549Y-29498999D01*
X142237272Y-29371943D01*
X142230195Y-29310207D01*
X142242717Y-29301250D01*
X142283067Y-29293502D01*
X142355425Y-29286888D01*
X142463970Y-29281331D01*
X142612882Y-29276754D01*
X142806339Y-29273080D01*
X143048521Y-29270234D01*
X143343608Y-29268139D01*
X143695777Y-29266717D01*
X144109210Y-29265894D01*
X144588084Y-29265592D01*
X144667526Y-29265586D01*
X145145500Y-29265447D01*
X145558025Y-29264959D01*
X145909914Y-29264018D01*
X146205980Y-29262519D01*
X146451037Y-29260359D01*
X146649897Y-29257432D01*
X146807374Y-29253636D01*
X146928281Y-29248864D01*
X147017431Y-29243014D01*
X147079637Y-29235980D01*
X147119713Y-29227658D01*
X147142472Y-29217944D01*
X147149515Y-29211776D01*
X147171416Y-29160072D01*
X147180476Y-29066306D01*
X147177365Y-28919306D01*
X147172262Y-28834114D01*
X147109212Y-28390214D01*
X146984098Y-27976274D01*
X146972573Y-27952466D01*
X147707986Y-27952466D01*
X147708446Y-28392465D01*
X147709456Y-28828239D01*
X147711012Y-29254097D01*
X147713110Y-29664344D01*
X147715745Y-30053288D01*
X147718913Y-30415237D01*
X147722608Y-30744497D01*
X147726828Y-31035376D01*
X147731566Y-31282181D01*
X147736818Y-31479219D01*
X147742581Y-31620798D01*
X147748849Y-31701224D01*
X147752851Y-31717758D01*
X147812583Y-31743079D01*
X147912974Y-31756774D01*
X148029309Y-31758934D01*
X148136872Y-31749651D01*
X148210950Y-31729016D01*
X148226808Y-31716001D01*
X148233233Y-31672542D01*
X148239967Y-31566304D01*
X148246784Y-31404770D01*
X148253464Y-31195420D01*
X148259783Y-30945738D01*
X148265517Y-30663204D01*
X148270445Y-30355301D01*
X148272795Y-30172305D01*
X148290361Y-28672524D01*
X149238909Y-29270926D01*
X149813870Y-29633482D01*
X150332376Y-29960060D01*
X150797257Y-30252392D01*
X151211343Y-30512208D01*
X151577464Y-30741242D01*
X151898450Y-30941225D01*
X152177132Y-31113890D01*
X152416339Y-31260969D01*
X152618902Y-31384193D01*
X152787650Y-31485295D01*
X152925414Y-31566007D01*
X153035024Y-31628060D01*
X153119310Y-31673188D01*
X153181102Y-31703121D01*
X153223231Y-31719593D01*
X153247682Y-31724349D01*
X153331407Y-31705648D01*
X153401792Y-31640054D01*
X153428328Y-31601882D01*
X153479097Y-31506625D01*
X153506052Y-31423144D01*
X153507374Y-31408032D01*
X153501123Y-31386384D01*
X153480170Y-31357708D01*
X153441209Y-31319851D01*
X153380939Y-31270656D01*
X153296055Y-31207970D01*
X153183254Y-31129638D01*
X153039232Y-31033504D01*
X152860687Y-30917415D01*
X152644314Y-30779215D01*
X152386810Y-30616750D01*
X152084872Y-30427864D01*
X151735196Y-30210404D01*
X151334479Y-29962214D01*
X150879417Y-29681140D01*
X150521205Y-29460238D01*
X150181023Y-29250354D01*
X149857889Y-29050591D01*
X149556876Y-28864111D01*
X149283057Y-28694074D01*
X149041506Y-28543643D01*
X148837295Y-28415980D01*
X148675498Y-28314246D01*
X148561188Y-28241603D01*
X148499438Y-28201213D01*
X148490242Y-28194488D01*
X148491779Y-28179519D01*
X148518249Y-28151109D01*
X148573084Y-28107033D01*
X148659714Y-28045066D01*
X148781574Y-27962985D01*
X148942093Y-27858563D01*
X149144705Y-27729577D01*
X149392840Y-27573800D01*
X149689932Y-27389010D01*
X150039411Y-27172981D01*
X150444711Y-26923487D01*
X150562994Y-26850812D01*
X150927929Y-26626745D01*
X151285984Y-26407052D01*
X151630959Y-26195528D01*
X151956653Y-25995968D01*
X152256866Y-25812167D01*
X152525397Y-25647921D01*
X152756047Y-25507025D01*
X152942614Y-25393274D01*
X153078899Y-25310462D01*
X153129705Y-25279763D01*
X153290744Y-25179726D01*
X153431358Y-25086589D01*
X153539725Y-25008623D01*
X153604020Y-24954101D01*
X153615001Y-24940251D01*
X153630398Y-24883005D01*
X153612059Y-24811370D01*
X153560829Y-24714196D01*
X153487951Y-24609777D01*
X153415423Y-24560295D01*
X153323307Y-24553418D01*
X153304381Y-24555584D01*
X153264632Y-24574841D01*
X153172536Y-24626760D01*
X153035452Y-24706965D01*
X152860741Y-24811081D01*
X152655764Y-24934731D01*
X152427881Y-25073542D01*
X152268005Y-25171644D01*
X152023897Y-25321714D01*
X151731843Y-25501013D01*
X151403872Y-25702169D01*
X151052016Y-25917812D01*
X150688305Y-26140568D01*
X150324769Y-26363067D01*
X149973439Y-26577936D01*
X149783446Y-26694055D01*
X148290361Y-27606335D01*
X148281216Y-26023841D01*
X148278046Y-25597809D01*
X148273820Y-25239888D01*
X148268473Y-24947929D01*
X148261943Y-24719787D01*
X148254166Y-24553315D01*
X148245077Y-24446367D01*
X148234615Y-24396797D01*
X148233001Y-24394269D01*
X148169943Y-24364045D01*
X148050271Y-24348653D01*
X147988679Y-24347191D01*
X147865645Y-24351708D01*
X147793637Y-24368794D01*
X147753798Y-24403754D01*
X147747061Y-24415144D01*
X147740561Y-24461799D01*
X147734666Y-24572543D01*
X147729371Y-24741683D01*
X147724672Y-24963527D01*
X147720565Y-25232381D01*
X147717044Y-25542553D01*
X147714105Y-25888350D01*
X147711744Y-26264080D01*
X147709956Y-26664049D01*
X147708737Y-27082565D01*
X147708081Y-27513935D01*
X147707986Y-27952466D01*
X146972573Y-27952466D01*
X146800096Y-27596161D01*
X146560381Y-27253746D01*
X146268130Y-26952895D01*
X145926517Y-26697479D01*
X145538718Y-26491366D01*
X145128535Y-26344213D01*
X144898587Y-26296582D01*
X144629494Y-26268850D01*
X144345303Y-26261300D01*
X144070066Y-26274213D01*
X143827829Y-26307873D01*
X143742878Y-26327944D01*
X143321550Y-26478299D01*
X142939930Y-26684571D01*
X142601844Y-26942799D01*
X142311121Y-27249018D01*
X142071586Y-27599265D01*
X141887066Y-27989578D01*
X141771820Y-28369151D01*
X141737046Y-28533488D01*
X141715792Y-28677842D01*
X141706147Y-28826706D01*
X141208994Y-28826706D01*
X141213321Y-28712816D01*
X141227680Y-28518957D01*
X141247483Y-28358353D01*
X141266499Y-28267719D01*
X141260395Y-28254831D01*
X141223767Y-28292528D01*
X141166616Y-28369736D01*
X140962594Y-28614769D01*
X140699785Y-28847453D01*
X140529047Y-28969776D01*
X140431410Y-29041090D01*
X140365360Y-29101968D01*
X140344950Y-29139420D01*
X140345087Y-29139796D01*
X140365485Y-29178273D01*
X140416694Y-29270440D01*
X140494599Y-29409019D01*
X140595088Y-29586731D01*
X140714045Y-29796300D01*
X140847359Y-30030445D01*
X140962229Y-30231700D01*
X141146265Y-30555389D01*
X141297037Y-30825081D01*
X141417299Y-31047106D01*
X141509801Y-31227798D01*
X141577295Y-31373488D01*
X141622535Y-31490510D01*
X141648270Y-31585195D01*
X141657254Y-31663876D01*
X141652238Y-31732885D01*
X141638954Y-31788900D01*
X141571262Y-31957409D01*
X141477533Y-32080428D01*
X141348226Y-32163484D01*
X141173801Y-32212103D01*
X140944719Y-32231812D01*
X140872549Y-32232893D01*
X140750940Y-32233419D01*
X140647553Y-32230693D01*
X140557751Y-32219709D01*
X140476893Y-32195456D01*
X140400342Y-32152927D01*
X140323457Y-32087112D01*
X140241601Y-31993003D01*
X140150134Y-31865592D01*
X140044418Y-31699868D01*
X139919812Y-31490825D01*
X139771680Y-31233452D01*
X139595380Y-30922742D01*
X139495155Y-30745708D01*
X138775559Y-29475212D01*
X137876805Y-29484576D01*
X136978051Y-29493940D01*
X136960486Y-30670842D01*
X136955295Y-31007404D01*
X136949840Y-31281258D01*
X136942714Y-31499954D01*
X136932505Y-31671036D01*
X136917807Y-31802053D01*
X136897208Y-31900551D01*
X136869301Y-31974077D01*
X136832677Y-32030177D01*
X136785926Y-32076400D01*
X136727640Y-32120292D01*
X136684290Y-32150193D01*
X136609409Y-32193444D01*
X136524726Y-32220947D01*
X136409914Y-32237210D01*
X136250033Y-32246531D01*
X136060700Y-32247629D01*
X135913690Y-32235374D01*
X135834421Y-32215854D01*
X135707984Y-32133761D01*
X135591810Y-32007351D01*
X135507102Y-31861714D01*
X135487079Y-31804790D01*
X135479618Y-31741339D01*
X135472988Y-31607871D01*
X135467194Y-31404630D01*
X135462236Y-31131858D01*
X135458119Y-30789797D01*
X135454845Y-30378689D01*
X135452416Y-29898776D01*
X135450836Y-29350301D01*
X135450107Y-28733506D01*
X135450054Y-28527827D01*
X135450046Y-28373460D01*
X135937522Y-28373460D01*
X135938097Y-28810008D01*
X135939307Y-29236815D01*
X135941154Y-29648182D01*
X135943641Y-30038413D01*
X135946769Y-30401810D01*
X135950540Y-30732674D01*
X135954958Y-31025309D01*
X135960024Y-31274016D01*
X135965741Y-31473097D01*
X135972111Y-31616855D01*
X135979136Y-31699593D01*
X135983833Y-31717758D01*
X136041485Y-31742150D01*
X136141470Y-31757372D01*
X136205161Y-31759916D01*
X136316653Y-31752090D01*
X136401291Y-31732145D01*
X136426488Y-31717758D01*
X136438071Y-31686527D01*
X136447559Y-31615067D01*
X136455093Y-31498697D01*
X136460817Y-31332733D01*
X136464871Y-31112493D01*
X136467400Y-30833293D01*
X136468544Y-30490453D01*
X136468646Y-30329640D01*
X136468646Y-28983680D01*
X137773432Y-28992890D01*
X139078219Y-29002101D01*
X139837402Y-30343640D01*
X140049964Y-30717071D01*
X140230574Y-31029610D01*
X140380012Y-31282536D01*
X140499058Y-31477131D01*
X140588492Y-31614675D01*
X140649095Y-31696449D01*
X140677284Y-31722547D01*
X140778632Y-31749101D01*
X140909704Y-31759305D01*
X141032842Y-31751677D01*
X141085551Y-31738591D01*
X141128745Y-31690658D01*
X141141122Y-31633113D01*
X141122993Y-31577203D01*
X141068978Y-31462237D01*
X140979637Y-31289230D01*
X140855528Y-31059196D01*
X140697211Y-30773152D01*
X140505243Y-30432112D01*
X140280186Y-30037092D01*
X140022597Y-29589107D01*
X139880488Y-29343345D01*
X139790964Y-29187722D01*
X139715628Y-29054740D01*
X139660795Y-28955702D01*
X139632778Y-28901912D01*
X139630472Y-28895772D01*
X139659745Y-28874277D01*
X139738554Y-28829280D01*
X139853381Y-28768284D01*
X139937872Y-28725149D01*
X140239107Y-28554940D01*
X140482579Y-28371928D01*
X140680783Y-28162858D01*
X140846217Y-27914473D01*
X140991377Y-27613516D01*
X140995810Y-27602910D01*
X141099687Y-27329429D01*
X141113300Y-27280662D01*
X141632961Y-27280662D01*
X141650527Y-27298228D01*
X141668093Y-27280662D01*
X141650527Y-27263097D01*
X141632961Y-27280662D01*
X141113300Y-27280662D01*
X141167026Y-27088187D01*
X141203145Y-26854992D01*
X141213383Y-26613166D01*
X141195424Y-26302457D01*
X141137862Y-26020298D01*
X141033753Y-25737568D01*
X140974613Y-25611921D01*
X140819868Y-25360580D01*
X140613246Y-25113911D01*
X140372005Y-24889129D01*
X140113399Y-24703450D01*
X139999351Y-24638983D01*
X139883767Y-24579669D01*
X139781513Y-24529802D01*
X139685366Y-24488508D01*
X139588101Y-24454913D01*
X139482496Y-24428141D01*
X139361327Y-24407320D01*
X139217371Y-24391574D01*
X139043403Y-24380030D01*
X138832199Y-24371812D01*
X138576538Y-24366048D01*
X138269194Y-24361862D01*
X137902944Y-24358380D01*
X137664285Y-24356369D01*
X137282160Y-24353307D01*
X136964209Y-24351210D01*
X136704349Y-24350253D01*
X136496495Y-24350608D01*
X136334565Y-24352450D01*
X136212474Y-24355953D01*
X136124138Y-24361292D01*
X136063474Y-24368639D01*
X136024397Y-24378170D01*
X136000825Y-24390058D01*
X135986761Y-24404355D01*
X135979293Y-24449045D01*
X135972430Y-24558064D01*
X135966175Y-24725715D01*
X135960528Y-24946300D01*
X135955494Y-25214120D01*
X135951074Y-25523480D01*
X135947271Y-25868680D01*
X135944086Y-26244022D01*
X135941522Y-26643811D01*
X135939581Y-27062346D01*
X135938266Y-27493931D01*
X135937579Y-27932868D01*
X135937522Y-28373460D01*
X135450046Y-28373460D01*
X135449881Y-25383567D01*
X134483745Y-25393435D01*
X133517609Y-25403304D01*
X133517609Y-28565172D01*
X133517496Y-29116043D01*
X133517110Y-29600978D01*
X133516380Y-30024303D01*
X133515235Y-30390345D01*
X133513604Y-30703430D01*
X133511416Y-30967884D01*
X133508599Y-31188033D01*
X133505083Y-31368205D01*
X133500797Y-31512726D01*
X133495670Y-31625921D01*
X133489630Y-31712118D01*
X133482607Y-31775642D01*
X133474530Y-31820820D01*
X133465327Y-31851979D01*
X133463572Y-31856370D01*
X133374838Y-32018232D01*
X133258295Y-32133309D01*
X133104012Y-32206877D01*
X132902057Y-32244213D01*
X132719769Y-32251624D01*
X132548815Y-32247554D01*
X132429607Y-32233611D01*
X132343977Y-32206932D01*
X132305576Y-32186391D01*
X132161618Y-32073951D01*
X132061241Y-31932367D01*
X132025864Y-31856370D01*
X132016456Y-31827250D01*
X132008185Y-31784880D01*
X132000981Y-31724933D01*
X131994773Y-31643083D01*
X131989489Y-31535005D01*
X131985059Y-31396374D01*
X131981412Y-31222863D01*
X131978476Y-31010148D01*
X131976181Y-30753902D01*
X131974455Y-30449801D01*
X131973229Y-30093518D01*
X131972430Y-29680727D01*
X131971987Y-29207104D01*
X131971831Y-28668323D01*
X131971827Y-28564087D01*
X131971827Y-25401133D01*
X131032062Y-25400937D01*
X130710489Y-25399822D01*
X130451058Y-25395998D01*
X130245673Y-25388518D01*
X130086237Y-25376439D01*
X129964651Y-25358815D01*
X129872819Y-25334703D01*
X129802642Y-25303158D01*
X129746024Y-25263236D01*
X129730008Y-25249056D01*
X129621030Y-25132309D01*
X129550641Y-25010608D01*
X129511759Y-24864572D01*
X129497298Y-24674820D01*
X129496931Y-24637894D01*
X130005007Y-24637894D01*
X130007583Y-24754176D01*
X130021111Y-24820200D01*
X130053118Y-24855885D01*
X130094585Y-24875031D01*
X130152915Y-24883935D01*
X130273553Y-24891849D01*
X130448544Y-24898551D01*
X130669939Y-24903819D01*
X130929783Y-24907433D01*
X131220126Y-24909169D01*
X131324183Y-24909293D01*
X132463667Y-24909293D01*
X132463667Y-28292447D01*
X132463870Y-28887463D01*
X132464507Y-29415429D01*
X132465617Y-29879555D01*
X132467238Y-30283053D01*
X132469412Y-30629133D01*
X132472177Y-30921008D01*
X132475573Y-31161888D01*
X132479639Y-31354983D01*
X132484415Y-31503506D01*
X132489941Y-31610668D01*
X132496256Y-31679679D01*
X132503399Y-31713751D01*
X132505825Y-31717758D01*
X132562204Y-31740845D01*
X132663399Y-31756157D01*
X132750508Y-31759916D01*
X132872794Y-31755254D01*
X132944196Y-31737671D01*
X132983688Y-31701769D01*
X132989402Y-31691962D01*
X132996499Y-31643675D01*
X133002822Y-31526668D01*
X133008372Y-31340767D01*
X133013152Y-31085794D01*
X133017162Y-30761575D01*
X133020406Y-30367933D01*
X133022884Y-29904693D01*
X133024599Y-29371679D01*
X133025553Y-28768715D01*
X133025769Y-28266651D01*
X133025769Y-24909293D01*
X134193888Y-24908755D01*
X134474901Y-24907782D01*
X134734346Y-24905268D01*
X134963637Y-24901422D01*
X135154186Y-24896451D01*
X135297406Y-24890566D01*
X135384711Y-24883975D01*
X135407655Y-24879262D01*
X135433958Y-24832768D01*
X135444676Y-24731659D01*
X135442786Y-24607531D01*
X135432270Y-24364757D01*
X132746928Y-24355753D01*
X132228864Y-24354234D01*
X131777095Y-24353419D01*
X131387656Y-24353357D01*
X131056584Y-24354102D01*
X130779914Y-24355703D01*
X130553681Y-24358212D01*
X130373921Y-24361681D01*
X130236669Y-24366160D01*
X130137960Y-24371702D01*
X130073832Y-24378357D01*
X130040317Y-24386177D01*
X130033566Y-24390884D01*
X130018124Y-24448455D01*
X130007718Y-24550606D01*
X130005007Y-24637894D01*
X129496931Y-24637894D01*
X129496661Y-24610676D01*
X129508115Y-24391058D01*
X129546968Y-24224181D01*
X129619952Y-24095630D01*
X129733801Y-23990992D01*
X129808607Y-23942869D01*
X129957945Y-23855351D01*
X132747805Y-23855568D01*
G37*
G36*
X207822485Y-23573341D02*
G01*
X208003891Y-23663110D01*
X208150518Y-23821987D01*
X208268631Y-24057658D01*
X208364493Y-24377809D01*
X208396091Y-24521748D01*
X208445534Y-24797345D01*
X208499942Y-25157714D01*
X208558238Y-25591789D01*
X208619346Y-26088500D01*
X208682187Y-26636781D01*
X208745686Y-27225564D01*
X208808766Y-27843782D01*
X208870349Y-28480366D01*
X208929359Y-29124250D01*
X208984719Y-29764365D01*
X209035352Y-30389644D01*
X209080180Y-30989020D01*
X209118129Y-31551424D01*
X209148119Y-32065790D01*
X209165340Y-32427611D01*
X209175752Y-32733662D01*
X209175189Y-32960688D01*
X209159949Y-33125422D01*
X209126328Y-33244594D01*
X209070626Y-33334933D01*
X208989140Y-33413172D01*
X208938629Y-33452197D01*
X208763797Y-33531873D01*
X208532575Y-33566842D01*
X208274178Y-33555917D01*
X208017817Y-33497915D01*
X207996093Y-33490434D01*
X207766362Y-33387722D01*
X207599892Y-33255760D01*
X207479378Y-33074072D01*
X207387512Y-32822181D01*
X207367093Y-32746228D01*
X207301038Y-32437392D01*
X207236802Y-32036833D01*
X207174734Y-31548843D01*
X207115183Y-30977718D01*
X207058498Y-30327753D01*
X207005029Y-29603241D01*
X206955124Y-28808479D01*
X206909134Y-27947759D01*
X206867406Y-27025378D01*
X206836421Y-26220564D01*
X206820763Y-25740900D01*
X206811878Y-25345493D01*
X206810704Y-25022746D01*
X206818182Y-24761062D01*
X206835249Y-24548844D01*
X206862844Y-24374497D01*
X206901905Y-24226423D01*
X206953373Y-24093027D01*
X207018184Y-23962711D01*
X207019358Y-23960544D01*
X207153590Y-23750031D01*
X207292128Y-23620239D01*
X207454638Y-23557093D01*
X207600036Y-23544993D01*
X207822485Y-23573341D01*
G37*
G36*
X200095383Y-23370644D02*
G01*
X200316984Y-23468981D01*
X200510027Y-23646916D01*
X200564408Y-23722996D01*
X200676216Y-23923065D01*
X200745342Y-24121821D01*
X200777578Y-24347546D01*
X200778718Y-24628524D01*
X200773052Y-24741648D01*
X200730925Y-25182918D01*
X200652185Y-25710685D01*
X200537258Y-26322846D01*
X200386571Y-27017299D01*
X200200550Y-27791940D01*
X199992651Y-28595846D01*
X199775289Y-29381937D01*
X199557864Y-30110618D01*
X199342231Y-30777099D01*
X199130249Y-31376593D01*
X198923773Y-31904310D01*
X198724661Y-32355463D01*
X198534770Y-32725261D01*
X198355956Y-33008916D01*
X198216435Y-33176350D01*
X197968687Y-33362326D01*
X197676567Y-33481973D01*
X197364803Y-33530479D01*
X197058123Y-33503028D01*
X196866431Y-33439125D01*
X196691960Y-33340891D01*
X196526938Y-33205933D01*
X196368960Y-33028685D01*
X196215617Y-32803578D01*
X196064502Y-32525045D01*
X195913208Y-32187519D01*
X195759327Y-31785432D01*
X195600452Y-31313217D01*
X195434176Y-30765305D01*
X195258090Y-30136130D01*
X195069788Y-29420124D01*
X194986073Y-29090560D01*
X194855767Y-28570041D01*
X194747717Y-28130616D01*
X194659515Y-27760569D01*
X194588755Y-27448185D01*
X194533030Y-27181748D01*
X194489934Y-26949543D01*
X194457059Y-26739855D01*
X194432000Y-26540968D01*
X194412349Y-26341166D01*
X194406235Y-26268000D01*
X194391555Y-25836668D01*
X194422447Y-25481595D01*
X194498242Y-25205171D01*
X194618271Y-25009786D01*
X194781864Y-24897828D01*
X194790918Y-24894553D01*
X194979957Y-24877122D01*
X195172202Y-24948569D01*
X195354034Y-25103224D01*
X195387254Y-25142765D01*
X195493008Y-25307655D01*
X195618183Y-25559090D01*
X195760232Y-25890126D01*
X195916611Y-26293824D01*
X196084776Y-26763242D01*
X196262180Y-27291440D01*
X196446281Y-27871475D01*
X196634531Y-28496407D01*
X196702657Y-28730447D01*
X196793866Y-29044500D01*
X196880917Y-29340322D01*
X196958723Y-29600933D01*
X197022199Y-29809352D01*
X197066262Y-29948601D01*
X197076503Y-29978840D01*
X197153006Y-30163437D01*
X197235769Y-30311076D01*
X197313307Y-30405339D01*
X197374137Y-30429806D01*
X197386485Y-30422041D01*
X197412750Y-30362746D01*
X197460949Y-30219920D01*
X197528465Y-30002874D01*
X197612682Y-29720916D01*
X197710984Y-29383358D01*
X197820757Y-28999507D01*
X197939384Y-28578673D01*
X198064249Y-28130166D01*
X198192736Y-27663296D01*
X198322231Y-27187372D01*
X198450117Y-26711703D01*
X198573779Y-26245598D01*
X198690600Y-25798368D01*
X198745445Y-25585456D01*
X198846862Y-25195708D01*
X198945398Y-24828314D01*
X199037548Y-24495513D01*
X199119807Y-24209545D01*
X199188671Y-23982651D01*
X199240633Y-23827070D01*
X199267370Y-23762740D01*
X199431220Y-23547953D01*
X199635304Y-23410657D01*
X199862424Y-23351378D01*
X200095383Y-23370644D01*
G37*
G36*
X191757481Y-23882112D02*
G01*
X192044566Y-24026237D01*
X192316026Y-24260008D01*
X192565014Y-24583837D01*
X192647524Y-24721993D01*
X192765798Y-24963692D01*
X192898849Y-25288972D01*
X193043404Y-25687093D01*
X193196189Y-26147317D01*
X193353929Y-26658906D01*
X193513352Y-27211121D01*
X193671182Y-27793223D01*
X193824147Y-28394476D01*
X193968971Y-29004139D01*
X194014506Y-29205732D01*
X194115956Y-29667500D01*
X194196153Y-30050500D01*
X194257143Y-30369123D01*
X194300973Y-30637761D01*
X194329689Y-30870807D01*
X194345339Y-31082652D01*
X194349968Y-31287688D01*
X194345624Y-31500308D01*
X194344602Y-31526903D01*
X194321060Y-31847296D01*
X194276050Y-32087123D01*
X194204125Y-32260504D01*
X194099842Y-32381557D01*
X193988326Y-32450750D01*
X193851273Y-32499380D01*
X193734242Y-32492889D01*
X193613920Y-32423127D01*
X193466996Y-32281946D01*
X193448535Y-32262060D01*
X193333288Y-32126287D01*
X193231445Y-31978681D01*
X193135895Y-31804192D01*
X193039528Y-31587774D01*
X192935230Y-31314377D01*
X192815890Y-30968953D01*
X192765408Y-30816560D01*
X192681681Y-30562561D01*
X192608638Y-30342641D01*
X192551389Y-30172052D01*
X192515043Y-30066044D01*
X192504574Y-30038090D01*
X192461632Y-30054328D01*
X192353702Y-30108397D01*
X192199338Y-30190770D01*
X192091910Y-30249951D01*
X191908131Y-30348803D01*
X191662781Y-30475789D01*
X191381144Y-30618079D01*
X191088502Y-30762844D01*
X190917113Y-30846055D01*
X190145675Y-31217526D01*
X189867877Y-32320212D01*
X189761892Y-32731809D01*
X189671157Y-33060559D01*
X189591305Y-33317620D01*
X189517971Y-33514152D01*
X189446790Y-33661313D01*
X189373394Y-33770262D01*
X189293419Y-33852156D01*
X189257269Y-33880834D01*
X189078396Y-33964894D01*
X188863368Y-33997803D01*
X188656153Y-33975670D01*
X188567568Y-33941892D01*
X188366532Y-33793113D01*
X188187287Y-33579879D01*
X188055121Y-33333701D01*
X188034805Y-33278044D01*
X187990786Y-33050421D01*
X187980118Y-32739581D01*
X188001663Y-32351928D01*
X188054283Y-31893867D01*
X188136839Y-31371805D01*
X188248192Y-30792144D01*
X188387204Y-30161292D01*
X188552736Y-29485653D01*
X188743649Y-28771631D01*
X188764657Y-28698791D01*
X190857132Y-28698791D01*
X190879175Y-28724811D01*
X190879444Y-28724703D01*
X190940256Y-28701839D01*
X191071326Y-28653663D01*
X191252606Y-28587517D01*
X191438395Y-28520036D01*
X191659737Y-28438980D01*
X191806229Y-28380205D01*
X191893319Y-28333309D01*
X191936453Y-28287890D01*
X191951079Y-28233543D01*
X191952635Y-28173728D01*
X191929991Y-28002478D01*
X191869357Y-27791734D01*
X191781677Y-27565544D01*
X191677896Y-27347957D01*
X191568956Y-27163019D01*
X191465804Y-27034781D01*
X191417684Y-26998272D01*
X191358005Y-26979691D01*
X191309701Y-27011562D01*
X191254431Y-27110545D01*
X191226661Y-27171763D01*
X191175738Y-27312518D01*
X191115925Y-27516974D01*
X191055735Y-27754393D01*
X191016518Y-27930535D01*
X190968156Y-28160251D01*
X190923446Y-28367902D01*
X190887967Y-28527842D01*
X190869864Y-28604665D01*
X190857132Y-28698791D01*
X188764657Y-28698791D01*
X188958806Y-28025633D01*
X188982613Y-27946190D01*
X189136597Y-27447967D01*
X189297624Y-26952101D01*
X189460714Y-26472395D01*
X189620887Y-26022650D01*
X189773162Y-25616668D01*
X189912558Y-25268250D01*
X190034096Y-24991198D01*
X190090252Y-24876692D01*
X190327309Y-24491650D01*
X190589820Y-24193767D01*
X190870940Y-23983458D01*
X191163821Y-23861136D01*
X191461617Y-23827216D01*
X191757481Y-23882112D01*
G37*
G36*
X203689792Y-23859684D02*
G01*
X203936944Y-23953059D01*
X204224388Y-24144705D01*
X204482983Y-24424942D01*
X204714278Y-24795547D01*
X204772946Y-24912796D01*
X204904184Y-25216998D01*
X205047592Y-25601828D01*
X205199526Y-26053197D01*
X205356346Y-26557012D01*
X205514410Y-27099182D01*
X205670076Y-27665617D01*
X205819702Y-28242226D01*
X205959647Y-28814917D01*
X206086268Y-29369600D01*
X206195925Y-29892183D01*
X206284975Y-30368576D01*
X206349776Y-30784687D01*
X206386687Y-31126425D01*
X206389412Y-31167373D01*
X206394249Y-31577514D01*
X206356012Y-31917069D01*
X206275758Y-32180031D01*
X206185756Y-32326820D01*
X206027082Y-32461611D01*
X205859169Y-32501342D01*
X205683648Y-32446367D01*
X205502149Y-32297041D01*
X205384207Y-32152946D01*
X205289335Y-32018361D01*
X205210394Y-31892855D01*
X205139887Y-31759461D01*
X205070315Y-31601214D01*
X204994178Y-31401147D01*
X204903980Y-31142293D01*
X204799871Y-30830813D01*
X204713190Y-30576459D01*
X204634116Y-30358506D01*
X204568298Y-30191429D01*
X204521384Y-30089708D01*
X204501163Y-30065145D01*
X204449040Y-30089805D01*
X204322894Y-30152001D01*
X204134384Y-30245908D01*
X203895170Y-30365702D01*
X203616912Y-30505557D01*
X203321795Y-30654334D01*
X202979973Y-30827226D01*
X202713943Y-30963380D01*
X202513688Y-31069166D01*
X202369189Y-31150955D01*
X202270430Y-31215117D01*
X202207391Y-31268025D01*
X202170056Y-31316049D01*
X202148406Y-31365559D01*
X202136227Y-31408294D01*
X202109953Y-31509326D01*
X202064167Y-31685891D01*
X202003386Y-31920548D01*
X201932129Y-32195855D01*
X201854913Y-32494369D01*
X201843696Y-32537748D01*
X201763442Y-32837685D01*
X201683969Y-33115926D01*
X201610608Y-33355187D01*
X201548687Y-33538185D01*
X201503538Y-33647634D01*
X201498823Y-33656165D01*
X201356939Y-33819943D01*
X201166027Y-33938204D01*
X200953543Y-34001581D01*
X200746943Y-34000706D01*
X200619364Y-33956209D01*
X200375601Y-33768503D01*
X200183393Y-33508985D01*
X200052434Y-33192266D01*
X200019057Y-33051185D01*
X199999661Y-32820732D01*
X200010953Y-32508865D01*
X200050882Y-32124444D01*
X200117397Y-31676332D01*
X200208445Y-31173390D01*
X200321977Y-30624481D01*
X200455940Y-30038465D01*
X200608283Y-29424205D01*
X200776954Y-28790563D01*
X200801396Y-28704504D01*
X202872958Y-28704504D01*
X202897316Y-28722908D01*
X202911191Y-28718693D01*
X202978986Y-28694346D01*
X203116487Y-28645605D01*
X203302785Y-28579866D01*
X203488268Y-28514606D01*
X203723904Y-28430324D01*
X203880616Y-28362295D01*
X203969667Y-28293791D01*
X204002322Y-28208083D01*
X203989845Y-28088443D01*
X203943501Y-27918142D01*
X203927111Y-27862886D01*
X203839156Y-27610484D01*
X203736096Y-27384577D01*
X203626744Y-27198263D01*
X203519916Y-27064642D01*
X203424425Y-26996812D01*
X203350790Y-27006414D01*
X203294482Y-27092044D01*
X203228697Y-27254333D01*
X203159060Y-27475102D01*
X203091199Y-27736175D01*
X203030738Y-28019376D01*
X203020929Y-28072105D01*
X202980778Y-28278248D01*
X202940311Y-28461184D01*
X202906414Y-28590537D01*
X202897289Y-28617755D01*
X202872958Y-28704504D01*
X200801396Y-28704504D01*
X200959902Y-28146400D01*
X201155076Y-27500579D01*
X201360425Y-26861960D01*
X201573896Y-26239406D01*
X201636135Y-26065608D01*
X201802064Y-25619885D01*
X201949679Y-25254074D01*
X202085402Y-24955296D01*
X202215658Y-24710674D01*
X202346869Y-24507328D01*
X202485458Y-24332382D01*
X202519724Y-24294072D01*
X202798057Y-24042253D01*
X203085619Y-23885970D01*
X203382750Y-23825141D01*
X203689792Y-23859684D01*
G37*
G36*
X214744369Y-22373524D02*
G01*
X214852887Y-22504795D01*
X214956032Y-22698363D01*
X215014927Y-22830931D01*
X215065806Y-22964194D01*
X215109251Y-23105989D01*
X215145844Y-23264154D01*
X215176165Y-23446526D01*
X215200796Y-23660943D01*
X215220319Y-23915242D01*
X215235314Y-24217260D01*
X215246363Y-24574835D01*
X215254048Y-24995805D01*
X215258950Y-25488007D01*
X215261650Y-26059278D01*
X215262730Y-26717456D01*
X215262792Y-26833850D01*
X215261964Y-27582987D01*
X215258615Y-28244015D01*
X215252448Y-28824829D01*
X215243165Y-29333323D01*
X215230468Y-29777394D01*
X215214060Y-30164935D01*
X215193644Y-30503843D01*
X215168921Y-30802013D01*
X215139593Y-31067339D01*
X215105364Y-31307717D01*
X215090815Y-31395286D01*
X215026283Y-31656235D01*
X214928045Y-31915517D01*
X214806280Y-32156628D01*
X214671167Y-32363062D01*
X214532886Y-32518313D01*
X214401616Y-32605876D01*
X214336002Y-32619203D01*
X214236803Y-32595403D01*
X214088874Y-32535163D01*
X213924180Y-32454102D01*
X213774688Y-32367839D01*
X213679112Y-32298257D01*
X213528524Y-32142248D01*
X213366415Y-31932230D01*
X213186176Y-31658432D01*
X212981202Y-31311080D01*
X212841350Y-31059180D01*
X212722687Y-30844841D01*
X212581041Y-30594314D01*
X212423356Y-30319345D01*
X212256579Y-30031681D01*
X212087654Y-29743067D01*
X211923528Y-29465251D01*
X211771145Y-29209979D01*
X211637451Y-28988997D01*
X211529391Y-28814051D01*
X211453910Y-28696888D01*
X211417954Y-28649255D01*
X211416235Y-28648951D01*
X211415066Y-28697810D01*
X211417187Y-28830337D01*
X211422259Y-29034237D01*
X211429942Y-29297217D01*
X211439898Y-29606982D01*
X211451787Y-29951238D01*
X211453475Y-29998376D01*
X211466440Y-30417041D01*
X211476778Y-30867377D01*
X211484101Y-31321713D01*
X211488020Y-31752378D01*
X211488145Y-32131699D01*
X211486187Y-32326408D01*
X211480636Y-32659348D01*
X211474508Y-32912000D01*
X211465916Y-33100096D01*
X211452977Y-33239367D01*
X211433805Y-33345546D01*
X211406516Y-33434367D01*
X211369223Y-33521560D01*
X211334340Y-33593755D01*
X211181636Y-33834836D01*
X211006036Y-33986006D01*
X210810753Y-34045609D01*
X210598997Y-34011992D01*
X210556114Y-33994459D01*
X210399062Y-33888952D01*
X210238211Y-33723235D01*
X210101976Y-33527568D01*
X210080343Y-33487812D01*
X209977722Y-33248309D01*
X209885846Y-32945595D01*
X209804375Y-32576194D01*
X209732970Y-32136632D01*
X209671289Y-31623432D01*
X209618995Y-31033120D01*
X209575745Y-30362219D01*
X209541202Y-29607254D01*
X209515024Y-28764749D01*
X209496872Y-27831229D01*
X209492269Y-27475114D01*
X209486457Y-26935637D01*
X209482472Y-26482840D01*
X209480504Y-26107386D01*
X209480744Y-25799937D01*
X209483383Y-25551157D01*
X209488611Y-25351709D01*
X209496621Y-25192255D01*
X209507602Y-25063459D01*
X209521746Y-24955984D01*
X209539243Y-24860493D01*
X209546405Y-24827228D01*
X209663274Y-24458961D01*
X209832164Y-24163202D01*
X210049474Y-23944531D01*
X210311600Y-23807532D01*
X210359635Y-23792894D01*
X210488666Y-23770415D01*
X210622862Y-23782604D01*
X210801400Y-23833337D01*
X210815272Y-23837993D01*
X210926766Y-23878561D01*
X211026818Y-23924857D01*
X211120408Y-23984202D01*
X211212516Y-24063920D01*
X211308120Y-24171333D01*
X211412202Y-24313762D01*
X211529742Y-24498532D01*
X211665717Y-24732963D01*
X211825110Y-25024378D01*
X212012899Y-25380100D01*
X212234064Y-25807451D01*
X212477180Y-26281676D01*
X212682259Y-26681946D01*
X212874591Y-27056038D01*
X213049648Y-27395239D01*
X213202904Y-27690840D01*
X213329834Y-27934130D01*
X213425911Y-28116400D01*
X213486609Y-28228938D01*
X213506786Y-28263054D01*
X213517732Y-28226800D01*
X213531412Y-28106228D01*
X213547002Y-27912984D01*
X213563678Y-27658715D01*
X213580618Y-27355065D01*
X213596998Y-27013682D01*
X213600103Y-26942638D01*
X213630647Y-26282089D01*
X213662298Y-25707044D01*
X213696268Y-25206972D01*
X213733769Y-24771348D01*
X213776012Y-24389642D01*
X213824210Y-24051327D01*
X213879574Y-23745876D01*
X213943315Y-23462760D01*
X214016646Y-23191452D01*
X214041411Y-23108439D01*
X214144733Y-22805633D01*
X214247141Y-22586612D01*
X214355825Y-22439476D01*
X214477977Y-22352324D01*
X214505184Y-22340843D01*
X214631879Y-22321578D01*
X214744369Y-22373524D01*
G37*
M02*
