G04 #@! TF.GenerationSoftware,KiCad,Pcbnew,7.0.9*
G04 #@! TF.CreationDate,2024-04-06T13:59:54+09:00*
G04 #@! TF.ProjectId,avain,61766169-6e2e-46b6-9963-61645f706362,rev?*
G04 #@! TF.SameCoordinates,Original*
G04 #@! TF.FileFunction,Profile,NP*
%FSLAX46Y46*%
G04 Gerber Fmt 4.6, Leading zero omitted, Abs format (unit mm)*
G04 Created by KiCad (PCBNEW 7.0.9) date 2024-04-06 13:59:54*
%MOMM*%
%LPD*%
G01*
G04 APERTURE LIST*
G04 #@! TA.AperFunction,Profile*
%ADD10C,0.100000*%
G04 #@! TD*
G04 #@! TA.AperFunction,Profile*
%ADD11C,0.120000*%
G04 #@! TD*
G04 APERTURE END LIST*
D10*
X216129280Y-17253153D02*
X325637500Y-17250000D01*
X14287500Y-113050000D02*
G75*
G03*
X17287500Y-116050000I3000000J0D01*
G01*
X17287500Y-17250000D02*
G75*
G03*
X14287500Y-20250000I0J-3000000D01*
G01*
X328637500Y-20250000D02*
G75*
G03*
X325637500Y-17250000I-3000000J0D01*
G01*
X198144266Y-17253153D02*
X17287500Y-17250000D01*
X14287500Y-20250000D02*
X14287500Y-113050000D01*
X328637500Y-113050000D02*
X328637500Y-20250000D01*
X325637500Y-116050000D02*
G75*
G03*
X328637500Y-113050000I0J3000000D01*
G01*
X17287500Y-116050000D02*
X325637500Y-116050000D01*
D11*
X249400000Y-81056200D02*
X245900000Y-81056200D01*
X249400000Y-77856200D02*
X249400000Y-81056200D01*
X245900000Y-81056200D02*
X245900000Y-77856200D01*
X245900000Y-77856200D02*
X249400000Y-77856200D01*
X58900000Y-81056200D02*
X55400000Y-81056200D01*
X58900000Y-77856200D02*
X58900000Y-81056200D01*
X55400000Y-81056200D02*
X55400000Y-77856200D01*
X55400000Y-77856200D02*
X58900000Y-77856200D01*
X26237500Y-42806200D02*
X22737500Y-42806200D01*
X26237500Y-39606200D02*
X26237500Y-42806200D01*
X22737500Y-42806200D02*
X22737500Y-39606200D01*
X22737500Y-39606200D02*
X26237500Y-39606200D01*
X169700000Y-40262400D02*
X173200000Y-40262400D01*
X169700000Y-43462400D02*
X169700000Y-40262400D01*
X173200000Y-40262400D02*
X173200000Y-43462400D01*
X173200000Y-43462400D02*
X169700000Y-43462400D01*
X74450000Y-96856200D02*
X77950000Y-96856200D01*
X74450000Y-100056200D02*
X74450000Y-96856200D01*
X77950000Y-96856200D02*
X77950000Y-100056200D01*
X77950000Y-100056200D02*
X74450000Y-100056200D01*
X64340000Y-42806200D02*
X60840000Y-42806200D01*
X64340000Y-39606200D02*
X64340000Y-42806200D01*
X60840000Y-42806200D02*
X60840000Y-39606200D01*
X60840000Y-39606200D02*
X64340000Y-39606200D01*
X154150000Y-100712400D02*
X150650000Y-100712400D01*
X154150000Y-97512400D02*
X154150000Y-100712400D01*
X150650000Y-100712400D02*
X150650000Y-97512400D01*
X150650000Y-97512400D02*
X154150000Y-97512400D01*
X121490000Y-42806200D02*
X117990000Y-42806200D01*
X121490000Y-39606200D02*
X121490000Y-42806200D01*
X117990000Y-42806200D02*
X117990000Y-39606200D01*
X117990000Y-39606200D02*
X121490000Y-39606200D01*
X308293800Y-20606200D02*
X311793800Y-20606200D01*
X308293800Y-23806200D02*
X308293800Y-20606200D01*
X311793800Y-20606200D02*
X311793800Y-23806200D01*
X311793800Y-23806200D02*
X308293800Y-23806200D01*
X199404866Y-17253153D02*
X198144266Y-17253153D01*
X200404866Y-18253153D02*
X200404866Y-37253153D01*
X201404866Y-38253153D02*
X211707866Y-38253153D01*
X211707866Y-38253153D02*
X212892266Y-38253153D01*
X213892266Y-37253153D02*
X213892266Y-18253153D01*
X214892266Y-17253153D02*
X216129266Y-17253153D01*
X200404866Y-18253153D02*
G75*
G03*
X199404866Y-17253153I-1000003J-3D01*
G01*
X200404866Y-37253153D02*
G75*
G03*
X201404866Y-38253153I1000003J3D01*
G01*
X214892266Y-17253146D02*
G75*
G03*
X213892266Y-18253153I14J-1000014D01*
G01*
X212892266Y-38253146D02*
G75*
G03*
X213892266Y-37253153I14J999986D01*
G01*
X87043800Y-20606200D02*
X90543800Y-20606200D01*
X87043800Y-23806200D02*
X87043800Y-20606200D01*
X90543800Y-20606200D02*
X90543800Y-23806200D01*
X90543800Y-23806200D02*
X87043800Y-23806200D01*
X103043800Y-58606200D02*
X106543800Y-58606200D01*
X103043800Y-61806200D02*
X103043800Y-58606200D01*
X106543800Y-58606200D02*
X106543800Y-61806200D01*
X106543800Y-61806200D02*
X103043800Y-61806200D01*
X243518800Y-96856200D02*
X247018800Y-96856200D01*
X243518800Y-100056200D02*
X243518800Y-96856200D01*
X247018800Y-96856200D02*
X247018800Y-100056200D01*
X247018800Y-100056200D02*
X243518800Y-100056200D01*
X251143800Y-20606200D02*
X254643800Y-20606200D01*
X251143800Y-23806200D02*
X251143800Y-20606200D01*
X254643800Y-20606200D02*
X254643800Y-23806200D01*
X254643800Y-23806200D02*
X251143800Y-23806200D01*
X45893800Y-58606200D02*
X49393800Y-58606200D01*
X45893800Y-61806200D02*
X45893800Y-58606200D01*
X49393800Y-58606200D02*
X49393800Y-61806200D01*
X49393800Y-61806200D02*
X45893800Y-61806200D01*
X313693800Y-81056200D02*
X310193800Y-81056200D01*
X313693800Y-77856200D02*
X313693800Y-81056200D01*
X310193800Y-81056200D02*
X310193800Y-77856200D01*
X310193800Y-77856200D02*
X313693800Y-77856200D01*
X192250000Y-62462400D02*
X188750000Y-62462400D01*
X192250000Y-59262400D02*
X192250000Y-62462400D01*
X188750000Y-62462400D02*
X188750000Y-59262400D01*
X188750000Y-59262400D02*
X192250000Y-59262400D01*
X64943800Y-58606200D02*
X68443800Y-58606200D01*
X64943800Y-61806200D02*
X64943800Y-58606200D01*
X68443800Y-58606200D02*
X68443800Y-61806200D01*
X68443800Y-61806200D02*
X64943800Y-61806200D01*
X188750000Y-40262400D02*
X192250000Y-40262400D01*
X188750000Y-43462400D02*
X188750000Y-40262400D01*
X192250000Y-40262400D02*
X192250000Y-43462400D01*
X192250000Y-43462400D02*
X188750000Y-43462400D01*
X302530600Y-42806200D02*
X299030600Y-42806200D01*
X302530600Y-39606200D02*
X302530600Y-42806200D01*
X299030600Y-42806200D02*
X299030600Y-39606200D01*
X299030600Y-39606200D02*
X302530600Y-39606200D01*
X274475000Y-58606200D02*
X277975000Y-58606200D01*
X274475000Y-61806200D02*
X274475000Y-58606200D01*
X277975000Y-58606200D02*
X277975000Y-61806200D01*
X277975000Y-61806200D02*
X274475000Y-61806200D01*
X289243800Y-20606200D02*
X292743800Y-20606200D01*
X289243800Y-23806200D02*
X289243800Y-20606200D01*
X292743800Y-20606200D02*
X292743800Y-23806200D01*
X292743800Y-23806200D02*
X289243800Y-23806200D01*
X287500000Y-81056200D02*
X284000000Y-81056200D01*
X287500000Y-77856200D02*
X287500000Y-81056200D01*
X284000000Y-81056200D02*
X284000000Y-77856200D01*
X284000000Y-77856200D02*
X287500000Y-77856200D01*
X77950000Y-81056200D02*
X74450000Y-81056200D01*
X77950000Y-77856200D02*
X77950000Y-81056200D01*
X74450000Y-81056200D02*
X74450000Y-77856200D01*
X74450000Y-77856200D02*
X77950000Y-77856200D01*
X314956300Y-58606200D02*
X318456300Y-58606200D01*
X314956300Y-61806200D02*
X314956300Y-58606200D01*
X318456300Y-58606200D02*
X318456300Y-61806200D01*
X318456300Y-61806200D02*
X314956300Y-61806200D01*
X135100000Y-81056200D02*
X131600000Y-81056200D01*
X135100000Y-77856200D02*
X135100000Y-81056200D01*
X131600000Y-81056200D02*
X131600000Y-77856200D01*
X131600000Y-77856200D02*
X135100000Y-77856200D01*
X270193800Y-20606200D02*
X273693800Y-20606200D01*
X270193800Y-23806200D02*
X270193800Y-20606200D01*
X273693800Y-20606200D02*
X273693800Y-23806200D01*
X273693800Y-23806200D02*
X270193800Y-23806200D01*
X116050000Y-81056200D02*
X112550000Y-81056200D01*
X116050000Y-77856200D02*
X116050000Y-81056200D01*
X112550000Y-81056200D02*
X112550000Y-77856200D01*
X112550000Y-77856200D02*
X116050000Y-77856200D01*
X124456300Y-96856200D02*
X127956300Y-96856200D01*
X124456300Y-100056200D02*
X124456300Y-96856200D01*
X127956300Y-96856200D02*
X127956300Y-100056200D01*
X127956300Y-100056200D02*
X124456300Y-100056200D01*
X150650000Y-78262400D02*
X154150000Y-78262400D01*
X150650000Y-81462400D02*
X150650000Y-78262400D01*
X154150000Y-78262400D02*
X154150000Y-81462400D01*
X154150000Y-81462400D02*
X150650000Y-81462400D01*
X283480600Y-42806200D02*
X279980600Y-42806200D01*
X283480600Y-39606200D02*
X283480600Y-42806200D01*
X279980600Y-42806200D02*
X279980600Y-39606200D01*
X279980600Y-39606200D02*
X283480600Y-39606200D01*
X154150000Y-62462400D02*
X150650000Y-62462400D01*
X154150000Y-59262400D02*
X154150000Y-62462400D01*
X150650000Y-62462400D02*
X150650000Y-59262400D01*
X150650000Y-59262400D02*
X154150000Y-59262400D01*
X255425000Y-58606200D02*
X258925000Y-58606200D01*
X255425000Y-61806200D02*
X255425000Y-58606200D01*
X258925000Y-58606200D02*
X258925000Y-61806200D01*
X258925000Y-61806200D02*
X255425000Y-61806200D01*
X32706300Y-81056200D02*
X29206300Y-81056200D01*
X32706300Y-77856200D02*
X32706300Y-81056200D01*
X29206300Y-81056200D02*
X29206300Y-77856200D01*
X29206300Y-77856200D02*
X32706300Y-77856200D01*
X211300000Y-81056200D02*
X207800000Y-81056200D01*
X211300000Y-77856200D02*
X211300000Y-81056200D01*
X207800000Y-81056200D02*
X207800000Y-77856200D01*
X207800000Y-77856200D02*
X211300000Y-77856200D01*
X188750000Y-78262400D02*
X192250000Y-78262400D01*
X188750000Y-81462400D02*
X188750000Y-78262400D01*
X192250000Y-78262400D02*
X192250000Y-81462400D01*
X192250000Y-81462400D02*
X188750000Y-81462400D01*
X83993800Y-58606200D02*
X87493800Y-58606200D01*
X83993800Y-61806200D02*
X83993800Y-58606200D01*
X87493800Y-58606200D02*
X87493800Y-61806200D01*
X87493800Y-61806200D02*
X83993800Y-61806200D01*
X192250000Y-100712400D02*
X188750000Y-100712400D01*
X192250000Y-97512400D02*
X192250000Y-100712400D01*
X188750000Y-100712400D02*
X188750000Y-97512400D01*
X188750000Y-97512400D02*
X192250000Y-97512400D01*
X245380600Y-42806200D02*
X241880600Y-42806200D01*
X245380600Y-39606200D02*
X245380600Y-42806200D01*
X241880600Y-42806200D02*
X241880600Y-39606200D01*
X241880600Y-39606200D02*
X245380600Y-39606200D01*
X45290000Y-42806200D02*
X41790000Y-42806200D01*
X45290000Y-39606200D02*
X45290000Y-42806200D01*
X41790000Y-42806200D02*
X41790000Y-39606200D01*
X41790000Y-39606200D02*
X45290000Y-39606200D01*
X264430600Y-42806200D02*
X260930600Y-42806200D01*
X264430600Y-39606200D02*
X264430600Y-42806200D01*
X260930600Y-42806200D02*
X260930600Y-39606200D01*
X260930600Y-39606200D02*
X264430600Y-39606200D01*
X24462500Y-58606200D02*
X27962500Y-58606200D01*
X24462500Y-61806200D02*
X24462500Y-58606200D01*
X27962500Y-58606200D02*
X27962500Y-61806200D01*
X27962500Y-61806200D02*
X24462500Y-61806200D01*
X150650000Y-40262400D02*
X154150000Y-40262400D01*
X150650000Y-43462400D02*
X150650000Y-40262400D01*
X154150000Y-40262400D02*
X154150000Y-43462400D01*
X154150000Y-43462400D02*
X150650000Y-43462400D01*
X321574400Y-42806200D02*
X318074400Y-42806200D01*
X321574400Y-39606200D02*
X321574400Y-42806200D01*
X318074400Y-42806200D02*
X318074400Y-39606200D01*
X318074400Y-39606200D02*
X321574400Y-39606200D01*
X173200000Y-62462400D02*
X169700000Y-62462400D01*
X173200000Y-59262400D02*
X173200000Y-62462400D01*
X169700000Y-62462400D02*
X169700000Y-59262400D01*
X169700000Y-59262400D02*
X173200000Y-59262400D01*
X268450000Y-81056200D02*
X264950000Y-81056200D01*
X268450000Y-77856200D02*
X268450000Y-81056200D01*
X264950000Y-81056200D02*
X264950000Y-77856200D01*
X264950000Y-77856200D02*
X268450000Y-77856200D01*
X48943800Y-20606200D02*
X52443800Y-20606200D01*
X48943800Y-23806200D02*
X48943800Y-20606200D01*
X52443800Y-20606200D02*
X52443800Y-23806200D01*
X52443800Y-23806200D02*
X48943800Y-23806200D01*
X293525000Y-58606200D02*
X297025000Y-58606200D01*
X293525000Y-61806200D02*
X293525000Y-58606200D01*
X297025000Y-58606200D02*
X297025000Y-61806200D01*
X297025000Y-61806200D02*
X293525000Y-61806200D01*
X29851900Y-20606200D02*
X33351900Y-20606200D01*
X29851900Y-23806200D02*
X29851900Y-20606200D01*
X33351900Y-20606200D02*
X33351900Y-23806200D01*
X33351900Y-23806200D02*
X29851900Y-23806200D01*
X214943800Y-96856200D02*
X218443800Y-96856200D01*
X214943800Y-100056200D02*
X214943800Y-96856200D01*
X218443800Y-96856200D02*
X218443800Y-100056200D01*
X218443800Y-100056200D02*
X214943800Y-100056200D01*
X106093800Y-20606200D02*
X109593800Y-20606200D01*
X106093800Y-23806200D02*
X106093800Y-20606200D01*
X109593800Y-20606200D02*
X109593800Y-23806200D01*
X109593800Y-23806200D02*
X106093800Y-23806200D01*
X264950000Y-96856200D02*
X268450000Y-96856200D01*
X264950000Y-100056200D02*
X264950000Y-96856200D01*
X268450000Y-96856200D02*
X268450000Y-100056200D01*
X268450000Y-100056200D02*
X264950000Y-100056200D01*
X97000000Y-81056200D02*
X93500000Y-81056200D01*
X97000000Y-77856200D02*
X97000000Y-81056200D01*
X93500000Y-81056200D02*
X93500000Y-77856200D01*
X93500000Y-77856200D02*
X97000000Y-77856200D01*
X236375000Y-58606200D02*
X239875000Y-58606200D01*
X236375000Y-61806200D02*
X236375000Y-58606200D01*
X239875000Y-58606200D02*
X239875000Y-61806200D01*
X239875000Y-61806200D02*
X236375000Y-61806200D01*
X83390000Y-42806200D02*
X79890000Y-42806200D01*
X83390000Y-39606200D02*
X83390000Y-42806200D01*
X79890000Y-42806200D02*
X79890000Y-39606200D01*
X79890000Y-39606200D02*
X83390000Y-39606200D01*
X230350000Y-81056200D02*
X226850000Y-81056200D01*
X230350000Y-77856200D02*
X230350000Y-81056200D01*
X226850000Y-81056200D02*
X226850000Y-77856200D01*
X226850000Y-77856200D02*
X230350000Y-77856200D01*
X226250000Y-42806200D02*
X222750000Y-42806200D01*
X226250000Y-39606200D02*
X226250000Y-42806200D01*
X222750000Y-42806200D02*
X222750000Y-39606200D01*
X222750000Y-39606200D02*
X226250000Y-39606200D01*
X95881300Y-96856200D02*
X99381300Y-96856200D01*
X95881300Y-100056200D02*
X95881300Y-96856200D01*
X99381300Y-96856200D02*
X99381300Y-100056200D01*
X99381300Y-100056200D02*
X95881300Y-100056200D01*
X102440000Y-42806200D02*
X98940000Y-42806200D01*
X102440000Y-39606200D02*
X102440000Y-42806200D01*
X98940000Y-42806200D02*
X98940000Y-39606200D01*
X98940000Y-39606200D02*
X102440000Y-39606200D01*
X173200000Y-100712400D02*
X169700000Y-100712400D01*
X173200000Y-97512400D02*
X173200000Y-100712400D01*
X169700000Y-100712400D02*
X169700000Y-97512400D01*
X169700000Y-97512400D02*
X173200000Y-97512400D01*
X169700000Y-78262400D02*
X173200000Y-78262400D01*
X169700000Y-81462400D02*
X169700000Y-78262400D01*
X173200000Y-78262400D02*
X173200000Y-81462400D01*
X173200000Y-81462400D02*
X169700000Y-81462400D01*
X122093800Y-58606200D02*
X125593800Y-58606200D01*
X122093800Y-61806200D02*
X122093800Y-58606200D01*
X125593800Y-58606200D02*
X125593800Y-61806200D01*
X125593800Y-61806200D02*
X122093800Y-61806200D01*
X217325000Y-58606200D02*
X220825000Y-58606200D01*
X217325000Y-61806200D02*
X217325000Y-58606200D01*
X220825000Y-58606200D02*
X220825000Y-61806200D01*
X220825000Y-61806200D02*
X217325000Y-61806200D01*
X232093800Y-20606200D02*
X235593800Y-20606200D01*
X232093800Y-23806200D02*
X232093800Y-20606200D01*
X235593800Y-20606200D02*
X235593800Y-23806200D01*
X235593800Y-23806200D02*
X232093800Y-23806200D01*
X67993800Y-20606200D02*
X71493800Y-20606200D01*
X67993800Y-23806200D02*
X67993800Y-20606200D01*
X71493800Y-20606200D02*
X71493800Y-23806200D01*
X71493800Y-23806200D02*
X67993800Y-23806200D01*
M02*
