G04 #@! TF.GenerationSoftware,KiCad,Pcbnew,7.0.9*
G04 #@! TF.CreationDate,2024-04-06T13:59:54+09:00*
G04 #@! TF.ProjectId,avain,61766169-6e2e-46b6-9963-61645f706362,rev?*
G04 #@! TF.SameCoordinates,Original*
G04 #@! TF.FileFunction,Copper,L2,Bot*
G04 #@! TF.FilePolarity,Positive*
%FSLAX46Y46*%
G04 Gerber Fmt 4.6, Leading zero omitted, Abs format (unit mm)*
G04 Created by KiCad (PCBNEW 7.0.9) date 2024-04-06 13:59:54*
%MOMM*%
%LPD*%
G01*
G04 APERTURE LIST*
G04 #@! TA.AperFunction,WasherPad*
%ADD10C,3.100000*%
G04 #@! TD*
G04 #@! TA.AperFunction,SMDPad,CuDef*
%ADD11R,3.000000X3.500000*%
G04 #@! TD*
G04 #@! TA.AperFunction,SMDPad,CuDef*
%ADD12R,0.950000X1.300000*%
G04 #@! TD*
G04 #@! TA.AperFunction,SMDPad,CuDef*
%ADD13R,2.200000X0.820000*%
G04 #@! TD*
G04 #@! TA.AperFunction,WasherPad*
%ADD14C,4.500000*%
G04 #@! TD*
G04 #@! TA.AperFunction,ComponentPad*
%ADD15C,2.000000*%
G04 #@! TD*
G04 #@! TA.AperFunction,ComponentPad*
%ADD16R,3.200000X2.500000*%
G04 #@! TD*
G04 #@! TA.AperFunction,SMDPad,CuDef*
%ADD17R,1.300000X0.950000*%
G04 #@! TD*
G04 #@! TA.AperFunction,ComponentPad*
%ADD18C,1.250000*%
G04 #@! TD*
G04 #@! TA.AperFunction,ViaPad*
%ADD19C,0.800000*%
G04 #@! TD*
G04 #@! TA.AperFunction,Conductor*
%ADD20C,0.250000*%
G04 #@! TD*
G04 #@! TA.AperFunction,Conductor*
%ADD21C,0.500000*%
G04 #@! TD*
G04 APERTURE END LIST*
D10*
X26601900Y-32012500D03*
X31601900Y-34212500D03*
D11*
X23251899Y-32012500D03*
X35151900Y-34212500D03*
D12*
X235743800Y-92262500D03*
X235743800Y-88712500D03*
X73818800Y-69662500D03*
X73818800Y-73212500D03*
X259556300Y-35112500D03*
X259556300Y-31562500D03*
X178593800Y-73818700D03*
X178593800Y-70268700D03*
D13*
X244700000Y-80206200D03*
X250600000Y-80206200D03*
X250600000Y-78706200D03*
X244700000Y-78706200D03*
D12*
X111918800Y-69662500D03*
X111918800Y-73212500D03*
D14*
X17287500Y-20250000D03*
D12*
X33337500Y-69662500D03*
X33337500Y-73212500D03*
X273843800Y-92262500D03*
X273843800Y-88712500D03*
D15*
X27843800Y-104193700D03*
X27843800Y-109193700D03*
X27843800Y-106693700D03*
D16*
X35343800Y-101093700D03*
X35343800Y-112293700D03*
D15*
X42343800Y-109193700D03*
X42343800Y-104193700D03*
D13*
X54200000Y-80206200D03*
X60100000Y-80206200D03*
X60100000Y-78706200D03*
X54200000Y-78706200D03*
X21537500Y-41956200D03*
X27437500Y-41956200D03*
X27437500Y-40456200D03*
X21537500Y-40456200D03*
X174400000Y-41112400D03*
X168500000Y-41112400D03*
X168500000Y-42612400D03*
X174400000Y-42612400D03*
X79150000Y-97706200D03*
X73250000Y-97706200D03*
X73250000Y-99206200D03*
X79150000Y-99206200D03*
X59640000Y-41956200D03*
X65540000Y-41956200D03*
X65540000Y-40456200D03*
X59640000Y-40456200D03*
X149450000Y-99862400D03*
X155350000Y-99862400D03*
X155350000Y-98362400D03*
X149450000Y-98362400D03*
D17*
X223275000Y-18876800D03*
X219725000Y-18876800D03*
D10*
X128350000Y-89162500D03*
X133350000Y-91362500D03*
D11*
X124999999Y-89162500D03*
X136900000Y-91362500D03*
D13*
X116790000Y-41956200D03*
X122690000Y-41956200D03*
X122690000Y-40456200D03*
X116790000Y-40456200D03*
D10*
X306943800Y-89162500D03*
X311943800Y-91362500D03*
D11*
X303593799Y-89162500D03*
X315493800Y-91362500D03*
D10*
X305043800Y-32012500D03*
X310043800Y-34212500D03*
D11*
X301693799Y-32012500D03*
X313593800Y-34212500D03*
D10*
X261700000Y-89162500D03*
X266700000Y-91362500D03*
D11*
X258349999Y-89162500D03*
X270250000Y-91362500D03*
D13*
X312993800Y-21456200D03*
X307093800Y-21456200D03*
X307093800Y-22956200D03*
X312993800Y-22956200D03*
D10*
X314824400Y-51062500D03*
X319824400Y-53262500D03*
D11*
X311474399Y-51062500D03*
X323374400Y-53262500D03*
D18*
X199525266Y-18845959D03*
X199525266Y-21365959D03*
X199525266Y-23905959D03*
X199525266Y-26435959D03*
X199525266Y-28985959D03*
X199525266Y-31525959D03*
X199525266Y-34065959D03*
X199525266Y-36605959D03*
X199525266Y-39145959D03*
X202065266Y-39145959D03*
X204615266Y-39145959D03*
X207145600Y-39145959D03*
X209695600Y-39145959D03*
X212225266Y-39145959D03*
X214765266Y-36605959D03*
X214765266Y-34065959D03*
X214765266Y-31525959D03*
X214765266Y-28985959D03*
X214765266Y-26435959D03*
X214765266Y-21365959D03*
X214765266Y-18845959D03*
D13*
X91743800Y-21456200D03*
X85843800Y-21456200D03*
X85843800Y-22956200D03*
X91743800Y-22956200D03*
D10*
X166450000Y-70718700D03*
X171450000Y-72918700D03*
D11*
X163099999Y-70718700D03*
X175000000Y-72918700D03*
D15*
X300343800Y-103812500D03*
X300343800Y-108812500D03*
X300343800Y-106312500D03*
D16*
X307843800Y-100712500D03*
X307843800Y-111912500D03*
D15*
X314843800Y-108812500D03*
X314843800Y-103812500D03*
D10*
X228843800Y-32012500D03*
X233843800Y-34212500D03*
D11*
X225493799Y-32012500D03*
X237393800Y-34212500D03*
D10*
X280750000Y-89162500D03*
X285750000Y-91362500D03*
D11*
X277399999Y-89162500D03*
X289300000Y-91362500D03*
D10*
X95690000Y-51062500D03*
X100690000Y-53262500D03*
D11*
X92339999Y-51062500D03*
X104240000Y-53262500D03*
D12*
X292893800Y-92262500D03*
X292893800Y-88712500D03*
D13*
X107743800Y-59456200D03*
X101843800Y-59456200D03*
X101843800Y-60956200D03*
X107743800Y-60956200D03*
D10*
X185500000Y-70718700D03*
X190500000Y-72918700D03*
D11*
X182149999Y-70718700D03*
X194050000Y-72918700D03*
D13*
X248218800Y-97706200D03*
X242318800Y-97706200D03*
X242318800Y-99206200D03*
X248218800Y-99206200D03*
X255843800Y-21456200D03*
X249943800Y-21456200D03*
X249943800Y-22956200D03*
X255843800Y-22956200D03*
D12*
X92868800Y-69662500D03*
X92868800Y-73212500D03*
D13*
X50593800Y-59456200D03*
X44693800Y-59456200D03*
X44693800Y-60956200D03*
X50593800Y-60956200D03*
D12*
X50006300Y-50612500D03*
X50006300Y-54162500D03*
D10*
X102843800Y-32012500D03*
X107843800Y-34212500D03*
D11*
X99493799Y-32012500D03*
X111393800Y-34212500D03*
D10*
X76640000Y-51062500D03*
X81640000Y-53262500D03*
D11*
X73289999Y-51062500D03*
X85190000Y-53262500D03*
D10*
X311706300Y-70112500D03*
X316706300Y-72312500D03*
D11*
X308356299Y-70112500D03*
X320256300Y-72312500D03*
D13*
X308993800Y-80206200D03*
X314893800Y-80206200D03*
X314893800Y-78706200D03*
X308993800Y-78706200D03*
D10*
X271225000Y-70112500D03*
X276225000Y-72312500D03*
D11*
X267874999Y-70112500D03*
X279775000Y-72312500D03*
D14*
X325637500Y-113050000D03*
D13*
X187550000Y-61612400D03*
X193450000Y-61612400D03*
X193450000Y-60112400D03*
X187550000Y-60112400D03*
X69643800Y-59456200D03*
X63743800Y-59456200D03*
X63743800Y-60956200D03*
X69643800Y-60956200D03*
D10*
X38540000Y-51062500D03*
X43540000Y-53262500D03*
D11*
X35189999Y-51062500D03*
X47090000Y-53262500D03*
D10*
X295780600Y-51062500D03*
X300780600Y-53262500D03*
D11*
X292430599Y-51062500D03*
X304330600Y-53262500D03*
D12*
X130968800Y-69662500D03*
X130968800Y-73212500D03*
D10*
X80743800Y-70112500D03*
X85743800Y-72312500D03*
D11*
X77393799Y-70112500D03*
X89293800Y-72312500D03*
D12*
X159543800Y-108368700D03*
X159543800Y-111918700D03*
X230981300Y-54162500D03*
X230981300Y-50612500D03*
D13*
X193450000Y-41112400D03*
X187550000Y-41112400D03*
X187550000Y-42612400D03*
X193450000Y-42612400D03*
X297830600Y-41956200D03*
X303730600Y-41956200D03*
X303730600Y-40456200D03*
X297830600Y-40456200D03*
D12*
X197643800Y-92950000D03*
X197643800Y-89400000D03*
X133350000Y-107762500D03*
X133350000Y-111312500D03*
X216693800Y-92262500D03*
X216693800Y-88712500D03*
D13*
X279175000Y-59456200D03*
X273275000Y-59456200D03*
X273275000Y-60956200D03*
X279175000Y-60956200D03*
X293943800Y-21456200D03*
X288043800Y-21456200D03*
X288043800Y-22956200D03*
X293943800Y-22956200D03*
D10*
X118843800Y-70112500D03*
X123843800Y-72312500D03*
D11*
X115493799Y-70112500D03*
X127393800Y-72312500D03*
D12*
X307181300Y-54162500D03*
X307181300Y-50612500D03*
D13*
X282800000Y-80206200D03*
X288700000Y-80206200D03*
X288700000Y-78706200D03*
X282800000Y-78706200D03*
X73250000Y-80206200D03*
X79150000Y-80206200D03*
X79150000Y-78706200D03*
X73250000Y-78706200D03*
X319656300Y-59456200D03*
X313756300Y-59456200D03*
X313756300Y-60956200D03*
X319656300Y-60956200D03*
D12*
X182500000Y-26725000D03*
X182500000Y-30275000D03*
D14*
X17287500Y-113050000D03*
D13*
X130400000Y-80206200D03*
X136300000Y-80206200D03*
X136300000Y-78706200D03*
X130400000Y-78706200D03*
D12*
X264318800Y-73212500D03*
X264318800Y-69662500D03*
D10*
X90250000Y-89162500D03*
X95250000Y-91362500D03*
D11*
X86899999Y-89162500D03*
X98800000Y-91362500D03*
D12*
X140493800Y-88712500D03*
X140493800Y-92262500D03*
X326231300Y-54162500D03*
X326231300Y-50612500D03*
X269081300Y-54162500D03*
X269081300Y-50612500D03*
D10*
X114740000Y-51062500D03*
X119740000Y-53262500D03*
D11*
X111389999Y-51062500D03*
X123290000Y-53262500D03*
D12*
X159543800Y-70268700D03*
X159543800Y-73818700D03*
D13*
X274893800Y-21456200D03*
X268993800Y-21456200D03*
X268993800Y-22956200D03*
X274893800Y-22956200D03*
D14*
X325637500Y-20250000D03*
D12*
X38100000Y-88712500D03*
X38100000Y-92262500D03*
D13*
X111350000Y-80206200D03*
X117250000Y-80206200D03*
X117250000Y-78706200D03*
X111350000Y-78706200D03*
D10*
X147400000Y-51668700D03*
X152400000Y-53868700D03*
D11*
X144049999Y-51668700D03*
X155950000Y-53868700D03*
D13*
X129156300Y-97706200D03*
X123256300Y-97706200D03*
X123256300Y-99206200D03*
X129156300Y-99206200D03*
X155350000Y-79112400D03*
X149450000Y-79112400D03*
X149450000Y-80612400D03*
X155350000Y-80612400D03*
D12*
X197643800Y-73900000D03*
X197643800Y-70350000D03*
D13*
X278780600Y-41956200D03*
X284680600Y-41956200D03*
X284680600Y-40456200D03*
X278780600Y-40456200D03*
D10*
X261700000Y-108300000D03*
X266700000Y-110500000D03*
D11*
X258349999Y-108300000D03*
X270250000Y-110500000D03*
D13*
X149450000Y-61612400D03*
X155350000Y-61612400D03*
X155350000Y-60112400D03*
X149450000Y-60112400D03*
D10*
X166450000Y-51668700D03*
X171450000Y-53868700D03*
D11*
X163099999Y-51668700D03*
X175000000Y-53868700D03*
D10*
X42643800Y-70112500D03*
X47643800Y-72312500D03*
D11*
X39293799Y-70112500D03*
X51193800Y-72312500D03*
D13*
X260125000Y-59456200D03*
X254225000Y-59456200D03*
X254225000Y-60956200D03*
X260125000Y-60956200D03*
D10*
X109300000Y-89162500D03*
X114300000Y-91362500D03*
D11*
X105949999Y-89162500D03*
X117850000Y-91362500D03*
D10*
X238630600Y-51062500D03*
X243630600Y-53262500D03*
D11*
X235280599Y-51062500D03*
X247180600Y-53262500D03*
D12*
X302418800Y-73212500D03*
X302418800Y-69662500D03*
X240506300Y-35112500D03*
X240506300Y-31562500D03*
X178593800Y-89318700D03*
X178593800Y-92868700D03*
X121443800Y-88712500D03*
X121443800Y-92262500D03*
D13*
X28006300Y-80206200D03*
X33906300Y-80206200D03*
X33906300Y-78706200D03*
X28006300Y-78706200D03*
D10*
X214075000Y-70112500D03*
X219075000Y-72312500D03*
D11*
X210724999Y-70112500D03*
X222625000Y-72312500D03*
D13*
X206600000Y-80206200D03*
X212500000Y-80206200D03*
X212500000Y-78706200D03*
X206600000Y-78706200D03*
D10*
X61693800Y-70112500D03*
X66693800Y-72312500D03*
D11*
X58343799Y-70112500D03*
X70243800Y-72312500D03*
D12*
X250031300Y-54162500D03*
X250031300Y-50612500D03*
X316706300Y-35112500D03*
X316706300Y-31562500D03*
X83343800Y-107762500D03*
X83343800Y-111312500D03*
D10*
X242650000Y-89162500D03*
X247650000Y-91362500D03*
D11*
X239299999Y-89162500D03*
X251200000Y-91362500D03*
D10*
X185500000Y-89768700D03*
X190500000Y-91968700D03*
D11*
X182149999Y-89768700D03*
X194050000Y-91968700D03*
D13*
X193450000Y-79112400D03*
X187550000Y-79112400D03*
X187550000Y-80612400D03*
X193450000Y-80612400D03*
D12*
X69056300Y-50612500D03*
X69056300Y-54162500D03*
D13*
X88693800Y-59456200D03*
X82793800Y-59456200D03*
X82793800Y-60956200D03*
X88693800Y-60956200D03*
D12*
X245268800Y-73212500D03*
X245268800Y-69662500D03*
X38100000Y-31562500D03*
X38100000Y-35112500D03*
X102393800Y-88712500D03*
X102393800Y-92262500D03*
D10*
X211693800Y-108300000D03*
X216693800Y-110500000D03*
D11*
X208343799Y-108300000D03*
X220243800Y-110500000D03*
D10*
X99793800Y-70112500D03*
X104793800Y-72312500D03*
D11*
X96443799Y-70112500D03*
X108343800Y-72312500D03*
D12*
X159543800Y-89318700D03*
X159543800Y-92868700D03*
X54768800Y-69662500D03*
X54768800Y-73212500D03*
D10*
X71200000Y-89162500D03*
X76200000Y-91362500D03*
D11*
X67849999Y-89162500D03*
X79750000Y-91362500D03*
D13*
X187550000Y-99862400D03*
X193450000Y-99862400D03*
X193450000Y-98362400D03*
X187550000Y-98362400D03*
X240680600Y-41956200D03*
X246580600Y-41956200D03*
X246580600Y-40456200D03*
X240680600Y-40456200D03*
X40590000Y-41956200D03*
X46490000Y-41956200D03*
X46490000Y-40456200D03*
X40590000Y-40456200D03*
D10*
X240268800Y-108300000D03*
X245268800Y-110500000D03*
D11*
X236918799Y-108300000D03*
X248818800Y-110500000D03*
D13*
X259730600Y-41956200D03*
X265630600Y-41956200D03*
X265630600Y-40456200D03*
X259730600Y-40456200D03*
X29162500Y-59456200D03*
X23262500Y-59456200D03*
X23262500Y-60956200D03*
X29162500Y-60956200D03*
D10*
X57590000Y-51062500D03*
X62590000Y-53262500D03*
D11*
X54239999Y-51062500D03*
X66140000Y-53262500D03*
D12*
X47625000Y-104918700D03*
X47625000Y-108468700D03*
D10*
X92631300Y-108300000D03*
X97631300Y-110500000D03*
D11*
X89281299Y-108300000D03*
X101181300Y-110500000D03*
D12*
X197643800Y-112000000D03*
X197643800Y-108450000D03*
D10*
X252175000Y-70112500D03*
X257175000Y-72312500D03*
D11*
X248824999Y-70112500D03*
X260725000Y-72312500D03*
D10*
X204550000Y-89162500D03*
X209550000Y-91362500D03*
D11*
X201199999Y-89162500D03*
X213100000Y-91362500D03*
D15*
X163950000Y-25000000D03*
X163950000Y-30000000D03*
X163950000Y-27500000D03*
D16*
X171450000Y-21900000D03*
X171450000Y-33100000D03*
D15*
X178450000Y-30000000D03*
X178450000Y-25000000D03*
D13*
X155350000Y-41112400D03*
X149450000Y-41112400D03*
X149450000Y-42612400D03*
X155350000Y-42612400D03*
D10*
X64743800Y-32012500D03*
X69743800Y-34212500D03*
D11*
X61393799Y-32012500D03*
X73293800Y-34212500D03*
D13*
X316874400Y-41956200D03*
X322774400Y-41956200D03*
X322774400Y-40456200D03*
X316874400Y-40456200D03*
D12*
X273843800Y-111312500D03*
X273843800Y-107762500D03*
X223837500Y-111312500D03*
X223837500Y-107762500D03*
D13*
X168500000Y-61612400D03*
X174400000Y-61612400D03*
X174400000Y-60112400D03*
X168500000Y-60112400D03*
X263750000Y-80206200D03*
X269650000Y-80206200D03*
X269650000Y-78706200D03*
X263750000Y-78706200D03*
D12*
X126206300Y-50612500D03*
X126206300Y-54162500D03*
D13*
X53643800Y-21456200D03*
X47743800Y-21456200D03*
X47743800Y-22956200D03*
X53643800Y-22956200D03*
D10*
X147400000Y-89768700D03*
X152400000Y-91968700D03*
D11*
X144049999Y-89768700D03*
X155950000Y-91968700D03*
D12*
X83343800Y-88712500D03*
X83343800Y-92262500D03*
X297656300Y-35112500D03*
X297656300Y-31562500D03*
D13*
X298225000Y-59456200D03*
X292325000Y-59456200D03*
X292325000Y-60956200D03*
X298225000Y-60956200D03*
D10*
X83793800Y-32012500D03*
X88793800Y-34212500D03*
D11*
X80443799Y-32012500D03*
X92343800Y-34212500D03*
D10*
X257680600Y-51062500D03*
X262680600Y-53262500D03*
D11*
X254330599Y-51062500D03*
X266230600Y-53262500D03*
D12*
X283368800Y-73212500D03*
X283368800Y-69662500D03*
D10*
X166450000Y-108818700D03*
X171450000Y-111018700D03*
D11*
X163099999Y-108818700D03*
X175000000Y-111018700D03*
D10*
X19487500Y-51062500D03*
X24487500Y-53262500D03*
D11*
X16137499Y-51062500D03*
X28037500Y-53262500D03*
D13*
X34551900Y-21456200D03*
X28651900Y-21456200D03*
X28651900Y-22956200D03*
X34551900Y-22956200D03*
D12*
X95250000Y-31562500D03*
X95250000Y-35112500D03*
X226218800Y-73212500D03*
X226218800Y-69662500D03*
X197500000Y-54775000D03*
X197500000Y-51225000D03*
D10*
X45693800Y-32012500D03*
X50693800Y-34212500D03*
D11*
X42343799Y-32012500D03*
X54243800Y-34212500D03*
D10*
X185500000Y-108818700D03*
X190500000Y-111018700D03*
D11*
X182149999Y-108818700D03*
X194050000Y-111018700D03*
D12*
X178593800Y-108368700D03*
X178593800Y-111918700D03*
D13*
X219643800Y-97706200D03*
X213743800Y-97706200D03*
X213743800Y-99206200D03*
X219643800Y-99206200D03*
X110793800Y-21456200D03*
X104893800Y-21456200D03*
X104893800Y-22956200D03*
X110793800Y-22956200D03*
D12*
X114300000Y-31562500D03*
X114300000Y-35112500D03*
D10*
X21212500Y-70112500D03*
X26212500Y-72312500D03*
D11*
X17862499Y-70112500D03*
X29762500Y-72312500D03*
D12*
X323850000Y-73212500D03*
X323850000Y-69662500D03*
D13*
X269650000Y-97706200D03*
X263750000Y-97706200D03*
X263750000Y-99206200D03*
X269650000Y-99206200D03*
D12*
X319087500Y-92262500D03*
X319087500Y-88712500D03*
X252412500Y-111312500D03*
X252412500Y-107762500D03*
X254793800Y-92262500D03*
X254793800Y-88712500D03*
D13*
X92300000Y-80206200D03*
X98200000Y-80206200D03*
X98200000Y-78706200D03*
X92300000Y-78706200D03*
D10*
X223600000Y-89162500D03*
X228600000Y-91362500D03*
D11*
X220249999Y-89162500D03*
X232150000Y-91362500D03*
D12*
X30956300Y-50612500D03*
X30956300Y-54162500D03*
D13*
X241075000Y-59456200D03*
X235175000Y-59456200D03*
X235175000Y-60956200D03*
X241075000Y-60956200D03*
X78690000Y-41956200D03*
X84590000Y-41956200D03*
X84590000Y-40456200D03*
X78690000Y-40456200D03*
D10*
X52150000Y-89162500D03*
X57150000Y-91362500D03*
D11*
X48799999Y-89162500D03*
X60700000Y-91362500D03*
D10*
X166450000Y-89768700D03*
X171450000Y-91968700D03*
D11*
X163099999Y-89768700D03*
X175000000Y-91968700D03*
D13*
X225650000Y-80206200D03*
X231550000Y-80206200D03*
X231550000Y-78706200D03*
X225650000Y-78706200D03*
D10*
X290275000Y-70112500D03*
X295275000Y-72312500D03*
D11*
X286924999Y-70112500D03*
X298825000Y-72312500D03*
D13*
X221550000Y-41956200D03*
X227450000Y-41956200D03*
X227450000Y-40456200D03*
X221550000Y-40456200D03*
X100581300Y-97706200D03*
X94681300Y-97706200D03*
X94681300Y-99206200D03*
X100581300Y-99206200D03*
D10*
X121206300Y-108300000D03*
X126206300Y-110500000D03*
D11*
X117856299Y-108300000D03*
X129756300Y-110500000D03*
D13*
X97740000Y-41956200D03*
X103640000Y-41956200D03*
X103640000Y-40456200D03*
X97740000Y-40456200D03*
X168500000Y-99862400D03*
X174400000Y-99862400D03*
X174400000Y-98362400D03*
X168500000Y-98362400D03*
D10*
X219580600Y-51062500D03*
X224580600Y-53262500D03*
D11*
X216230599Y-51062500D03*
X228130600Y-53262500D03*
D12*
X159543800Y-51218700D03*
X159543800Y-54768700D03*
D10*
X247893800Y-32012500D03*
X252893800Y-34212500D03*
D11*
X244543799Y-32012500D03*
X256443800Y-34212500D03*
D13*
X174400000Y-79112400D03*
X168500000Y-79112400D03*
X168500000Y-80612400D03*
X174400000Y-80612400D03*
D10*
X276730600Y-51062500D03*
X281730600Y-53262500D03*
D11*
X273380599Y-51062500D03*
X285280600Y-53262500D03*
D12*
X178593800Y-54768700D03*
X178593800Y-51218700D03*
X107156300Y-50612500D03*
X107156300Y-54162500D03*
X57150000Y-31562500D03*
X57150000Y-35112500D03*
D10*
X147400000Y-70718700D03*
X152400000Y-72918700D03*
D11*
X144049999Y-70718700D03*
X155950000Y-72918700D03*
D12*
X104775000Y-107762500D03*
X104775000Y-111312500D03*
D10*
X266943800Y-32012500D03*
X271943800Y-34212500D03*
D11*
X263593799Y-32012500D03*
X275493800Y-34212500D03*
D10*
X285993800Y-32012500D03*
X290993800Y-34212500D03*
D11*
X282643799Y-32012500D03*
X294543800Y-34212500D03*
D13*
X126793800Y-59456200D03*
X120893800Y-59456200D03*
X120893800Y-60956200D03*
X126793800Y-60956200D03*
D12*
X319087500Y-108087500D03*
X319087500Y-104537500D03*
X64293800Y-88712500D03*
X64293800Y-92262500D03*
D13*
X222025000Y-59456200D03*
X216125000Y-59456200D03*
X216125000Y-60956200D03*
X222025000Y-60956200D03*
D10*
X233125000Y-70112500D03*
X238125000Y-72312500D03*
D11*
X229774999Y-70112500D03*
X241675000Y-72312500D03*
D10*
X185500000Y-51668700D03*
X190500000Y-53868700D03*
D11*
X182149999Y-51668700D03*
X194050000Y-53868700D03*
D12*
X278606300Y-35112500D03*
X278606300Y-31562500D03*
D10*
X71200000Y-108300000D03*
X76200000Y-110500000D03*
D11*
X67849999Y-108300000D03*
X79750000Y-110500000D03*
D12*
X76200000Y-31562500D03*
X76200000Y-35112500D03*
D13*
X236793800Y-21456200D03*
X230893800Y-21456200D03*
X230893800Y-22956200D03*
X236793800Y-22956200D03*
X72693800Y-21456200D03*
X66793800Y-21456200D03*
X66793800Y-22956200D03*
X72693800Y-22956200D03*
D12*
X288131300Y-54162500D03*
X288131300Y-50612500D03*
D10*
X147400000Y-108818700D03*
X152400000Y-111018700D03*
D11*
X144049999Y-108818700D03*
X155950000Y-111018700D03*
D12*
X88106300Y-50612500D03*
X88106300Y-54162500D03*
D10*
X25956300Y-89162500D03*
X30956300Y-91362500D03*
D11*
X22606299Y-89162500D03*
X34506300Y-91362500D03*
D19*
X59490000Y-48096200D03*
X159543800Y-66650000D03*
X290134715Y-55006900D03*
X108518800Y-56943943D03*
X166000000Y-66650000D03*
X230980087Y-43018057D03*
X128977687Y-55771346D03*
X317324400Y-55139400D03*
X50008030Y-48098669D03*
X202789800Y-43914400D03*
X250033096Y-45756273D03*
X252499961Y-45756273D03*
X283368800Y-63241600D03*
X197643800Y-77069500D03*
X144911362Y-76561311D03*
X178523300Y-84275500D03*
X307983200Y-56458300D03*
X226050924Y-65881320D03*
X204797651Y-42916400D03*
X201569812Y-62042090D03*
X111926200Y-63743180D03*
X92878474Y-67340694D03*
X264314160Y-63259987D03*
X304317900Y-77488800D03*
X217874243Y-94161179D03*
X254671258Y-84609422D03*
X121444134Y-86141210D03*
X54823772Y-88038041D03*
X40807200Y-87269887D03*
X198558075Y-94950181D03*
X207931923Y-42916400D03*
X156803875Y-87108472D03*
X210518423Y-42916400D03*
X58587848Y-37355403D03*
X239010371Y-38418100D03*
X259556100Y-25255917D03*
X39038301Y-37360788D03*
X278606300Y-27357118D03*
X200120812Y-44622271D03*
X253233653Y-39898196D03*
X100701900Y-35597200D03*
X114305514Y-40714085D03*
X178603531Y-44763800D03*
X86171318Y-36265206D03*
X275493800Y-37509100D03*
X280171000Y-37509100D03*
X280985000Y-67083236D03*
X284436164Y-67076241D03*
X196117400Y-80611855D03*
X239480637Y-18904100D03*
X219998100Y-44635600D03*
X126348100Y-93055300D03*
X146742500Y-81912800D03*
X209657733Y-77404300D03*
X239465099Y-22932993D03*
X202013700Y-91651200D03*
X126359715Y-77410811D03*
X227206100Y-62284175D03*
X193778698Y-45628756D03*
X204617400Y-62891590D03*
X23500000Y-57898100D03*
X209970637Y-97738286D03*
X177924695Y-62893983D03*
X196500500Y-99873166D03*
X197724297Y-62891590D03*
X178513960Y-41282052D03*
X183710073Y-60075273D03*
X179673242Y-60075273D03*
X41531700Y-97640900D03*
X68574499Y-97640900D03*
X208254392Y-97222600D03*
X135133252Y-97222600D03*
X274149430Y-97720997D03*
X296232241Y-97730023D03*
X325607322Y-56862843D03*
X323125500Y-59458924D03*
X194772016Y-94948000D03*
X183085300Y-94948000D03*
X180397742Y-57712400D03*
X174698300Y-76961000D03*
X180404301Y-40422900D03*
X182150000Y-85000000D03*
X214966500Y-40729300D03*
X212859247Y-42918102D03*
X203693900Y-75679300D03*
X24146509Y-38080357D03*
X40068600Y-66516200D03*
X34848200Y-58040600D03*
X205897600Y-70111831D03*
X48800000Y-85808900D03*
X196313552Y-63763800D03*
X185361033Y-28675000D03*
X201200000Y-73794300D03*
X226161848Y-96399681D03*
X229060721Y-64468115D03*
X53210500Y-54781200D03*
X58343800Y-66516200D03*
X218518300Y-38629600D03*
X54050000Y-83114000D03*
X213949900Y-40148100D03*
X187336902Y-31525000D03*
X222432000Y-56526573D03*
X48143900Y-38822600D03*
X231687038Y-108312962D03*
X220385100Y-38629600D03*
X220255098Y-85087545D03*
X229412200Y-75898500D03*
X247779700Y-75898500D03*
X239307930Y-84581697D03*
X77391632Y-74812509D03*
X86900000Y-95526800D03*
X246385200Y-62337600D03*
X258350000Y-101397400D03*
X239300000Y-95675181D03*
X253950700Y-41212035D03*
X235280600Y-57678100D03*
X84615345Y-85645220D03*
X117856300Y-101379000D03*
X73290000Y-38234100D03*
X263598488Y-38983800D03*
X124887068Y-82364800D03*
X77001900Y-38839100D03*
X105961810Y-85179750D03*
X96000000Y-66390300D03*
X92340000Y-46858000D03*
X266154229Y-74930518D03*
X266159800Y-62098900D03*
X254675200Y-55127380D03*
X263612414Y-92771907D03*
X91209785Y-56500000D03*
X215273241Y-39263069D03*
X195795586Y-38244000D03*
X286934000Y-59081000D03*
X195809816Y-34058147D03*
X111384609Y-46850000D03*
X270724708Y-52335611D03*
X111391583Y-39031137D03*
X282643800Y-38259300D03*
X286934000Y-66516200D03*
X115501861Y-64467680D03*
X143592800Y-66650000D03*
X146966800Y-101038900D03*
X163105779Y-104699773D03*
X143592800Y-56854800D03*
X144056694Y-36942900D03*
X186482407Y-27785883D03*
X164119000Y-38970900D03*
X201303200Y-42191900D03*
X327966300Y-24133100D03*
D20*
X178593800Y-70268700D02*
X168809446Y-70268700D01*
X250031300Y-45758069D02*
X250033096Y-45756273D01*
X230981300Y-43019270D02*
X230981300Y-50612500D01*
X197643800Y-70350000D02*
X200384944Y-70350000D01*
X108062538Y-50612500D02*
X107156300Y-50612500D01*
X250031300Y-50612500D02*
X250031300Y-45758069D01*
X269081300Y-46645711D02*
X269081306Y-47172481D01*
X59490000Y-48096200D02*
X59490000Y-50152509D01*
X128506028Y-50612500D02*
X126206300Y-50612500D01*
X108522400Y-56940343D02*
X108522400Y-51072362D01*
X188055411Y-70809028D02*
X188055411Y-72336739D01*
X290134715Y-55006900D02*
X290134715Y-51071380D01*
X40187723Y-48168084D02*
X31415780Y-48168084D01*
X108518800Y-56943943D02*
X108522400Y-56940343D01*
X269081300Y-48162036D02*
X269081300Y-50612500D01*
X50006300Y-50612500D02*
X41106301Y-50612500D01*
X79377500Y-51072109D02*
X79377500Y-54724307D01*
X159543800Y-66650000D02*
X159543800Y-70268700D01*
X166000000Y-66650000D02*
X167890715Y-66650000D01*
X252958958Y-44113000D02*
X268621586Y-44113000D01*
X88106300Y-50612500D02*
X88106300Y-45931806D01*
X201305012Y-43914400D02*
X202789800Y-43914400D01*
X70300464Y-54724157D02*
X70300464Y-51071484D01*
X50006300Y-50612500D02*
X50006300Y-48100399D01*
X278308028Y-47677309D02*
X269566027Y-47677309D01*
X30956300Y-48627564D02*
X30956300Y-50612500D01*
X88565660Y-45472446D02*
X97130514Y-45472446D01*
X97590000Y-45931932D02*
X97590000Y-50151627D01*
X128965769Y-55759428D02*
X128965769Y-51072241D01*
X168350000Y-67109285D02*
X168350000Y-69809254D01*
X78917792Y-55184015D02*
X70760322Y-55184015D01*
X178593800Y-72336669D02*
X178593800Y-70268700D01*
X278767404Y-50153606D02*
X278767404Y-48136685D01*
X288131300Y-50612500D02*
X279226298Y-50612500D01*
X128977687Y-55771346D02*
X128965769Y-55759428D01*
X269081300Y-44572714D02*
X269081300Y-46645711D01*
X197643800Y-70350000D02*
X188514439Y-70350000D01*
X88106300Y-50612500D02*
X79837109Y-50612500D01*
X187596550Y-72795600D02*
X179052731Y-72795600D01*
X326231300Y-50612500D02*
X317785089Y-50612500D01*
X288131300Y-50612500D02*
X289675835Y-50612500D01*
X59949991Y-50612500D02*
X69056300Y-50612500D01*
X200845312Y-69889632D02*
X200845312Y-44374100D01*
X317324400Y-51073189D02*
X317324400Y-55139400D01*
X40647202Y-50153401D02*
X40647202Y-48627563D01*
X230980087Y-43018057D02*
X230981300Y-43019270D01*
X69841480Y-50612500D02*
X69056300Y-50612500D01*
X269081300Y-46645711D02*
X269081300Y-48162036D01*
X252499961Y-45756273D02*
X252499980Y-44571970D01*
X98050873Y-50612500D02*
X107156300Y-50612500D01*
X40647200Y-50153401D02*
G75*
G03*
X41106301Y-50612500I459100J1D01*
G01*
X31415780Y-48168100D02*
G75*
G03*
X30956300Y-48627564I20J-459500D01*
G01*
X317785089Y-50612500D02*
G75*
G03*
X317324400Y-51073189I11J-460700D01*
G01*
X269081291Y-47172481D02*
G75*
G03*
X269586139Y-47677309I504809J-19D01*
G01*
X252958958Y-44112980D02*
G75*
G03*
X252499980Y-44571970I42J-459020D01*
G01*
X188514439Y-70350011D02*
G75*
G03*
X188055411Y-70809028I-39J-458989D01*
G01*
X97590000Y-50151627D02*
G75*
G03*
X98050873Y-50612500I460900J27D01*
G01*
X269566027Y-47677300D02*
G75*
G03*
X269081300Y-48162036I-27J-484700D01*
G01*
X40647216Y-48627563D02*
G75*
G03*
X40187723Y-48168084I-459516J-37D01*
G01*
X108522400Y-51072362D02*
G75*
G03*
X108062538Y-50612500I-459900J-38D01*
G01*
X269081300Y-44572714D02*
G75*
G03*
X268621586Y-44113000I-459700J14D01*
G01*
X278767391Y-48136685D02*
G75*
G03*
X278308028Y-47677309I-459391J-15D01*
G01*
X78917792Y-55184000D02*
G75*
G03*
X79377500Y-54724307I8J459700D01*
G01*
X79837109Y-50612500D02*
G75*
G03*
X79377500Y-51072109I-9J-459600D01*
G01*
X278767400Y-50153606D02*
G75*
G03*
X279226298Y-50612500I458900J6D01*
G01*
X128965800Y-51072241D02*
G75*
G03*
X128506028Y-50612500I-459800J-59D01*
G01*
X168350000Y-67109285D02*
G75*
G03*
X167890715Y-66650000I-459300J-15D01*
G01*
X187596550Y-72795511D02*
G75*
G03*
X188055411Y-72336739I50J458811D01*
G01*
X290134700Y-51071380D02*
G75*
G03*
X289675835Y-50612500I-458900J-20D01*
G01*
X200384944Y-70350012D02*
G75*
G03*
X200845312Y-69889632I-44J460412D01*
G01*
X201305012Y-43914412D02*
G75*
G03*
X200845312Y-44374100I-12J-459688D01*
G01*
X88565660Y-45472400D02*
G75*
G03*
X88106300Y-45931806I40J-459400D01*
G01*
X70300500Y-51071484D02*
G75*
G03*
X69841480Y-50612500I-459000J-16D01*
G01*
X178593800Y-72336669D02*
G75*
G03*
X179052731Y-72795600I458900J-31D01*
G01*
X50008029Y-48098700D02*
G75*
G03*
X50006300Y-48100399I-29J-1700D01*
G01*
X59490000Y-50152509D02*
G75*
G03*
X59949991Y-50612500I460000J9D01*
G01*
X97589954Y-45931932D02*
G75*
G03*
X97130514Y-45472446I-459454J32D01*
G01*
X168350000Y-69809254D02*
G75*
G03*
X168809446Y-70268700I459400J-46D01*
G01*
X70300485Y-54724157D02*
G75*
G03*
X70760322Y-55184015I459815J-43D01*
G01*
X30956300Y-54162500D02*
X28037500Y-54162500D01*
X28037500Y-54162500D02*
X28037500Y-53262500D01*
X45143800Y-71729761D02*
X45143800Y-70122166D01*
X201614180Y-62086458D02*
X201614180Y-70800108D01*
X201154488Y-71259800D02*
X199397012Y-71259800D01*
X111926200Y-63743180D02*
X120285140Y-63743180D01*
X178523300Y-89318700D02*
X178593800Y-89318700D01*
X226050924Y-65881320D02*
X226059000Y-65889396D01*
X307181300Y-50612500D02*
X307524004Y-50612500D01*
X226059000Y-69662500D02*
X226218800Y-69662500D01*
X82928929Y-69203110D02*
X82928929Y-68101855D01*
X82469402Y-67642328D02*
X74278482Y-67642328D01*
X33796596Y-72189400D02*
X44684161Y-72189400D01*
X308443010Y-57579300D02*
X323390658Y-57579300D01*
X201614180Y-61997722D02*
X201569812Y-62042090D01*
X204792004Y-42922047D02*
X204792004Y-44432196D01*
X226059000Y-65889396D02*
X226059000Y-69662500D01*
X64653218Y-69662500D02*
X73818800Y-69662500D01*
X92878474Y-67340694D02*
X92868800Y-67350368D01*
X198938100Y-71718712D02*
X198938100Y-76609531D01*
X178523300Y-84275500D02*
X178523300Y-89318700D01*
X56328068Y-72500000D02*
X63734084Y-72500000D01*
X204333414Y-44831840D02*
X202073374Y-44831902D01*
X204797651Y-42916400D02*
X204792004Y-42922047D01*
X245268800Y-69662500D02*
X245268800Y-62069664D01*
X92868800Y-69662500D02*
X83388319Y-69662500D01*
X120743800Y-64201840D02*
X120743800Y-69204756D01*
X245727864Y-61610600D02*
X246960324Y-61610600D01*
X73818800Y-68102010D02*
X73818800Y-69662500D01*
X45603466Y-69662500D02*
X54768800Y-69662500D01*
X247879513Y-63241600D02*
X264295773Y-63241600D01*
X201614180Y-45291109D02*
X201614180Y-61997722D01*
X111926200Y-63743180D02*
X111918800Y-63750580D01*
X307983200Y-56458300D02*
X307983200Y-51071696D01*
X121201544Y-69662500D02*
X130968800Y-69662500D01*
X130968800Y-69662500D02*
X133094984Y-69662500D01*
X111918800Y-63750580D02*
X111918800Y-69662500D01*
X144911362Y-76561311D02*
X134014257Y-76561311D01*
X283368800Y-69662500D02*
X283368800Y-63241600D01*
X64193800Y-72040284D02*
X64193800Y-70121918D01*
X55868800Y-70121930D02*
X55868800Y-72040732D01*
X197643800Y-89400000D02*
X197643800Y-77069500D01*
X92868800Y-67350368D02*
X92868800Y-69662500D01*
X33337500Y-69662500D02*
X33337500Y-71730304D01*
X247420800Y-62071076D02*
X247420800Y-62782887D01*
X133554300Y-70121816D02*
X133554300Y-76101354D01*
X54768800Y-69662500D02*
X55409370Y-69662500D01*
X307983200Y-56458300D02*
X307983200Y-57119490D01*
X264318800Y-69662500D02*
X264318800Y-63264627D01*
X198478131Y-77069500D02*
X197643800Y-77069500D01*
X323850000Y-58038642D02*
X323850000Y-69662500D01*
X201569812Y-62042090D02*
X201614180Y-62086458D01*
X201154488Y-71259780D02*
G75*
G03*
X201614180Y-70800108I12J459680D01*
G01*
X55868800Y-72040732D02*
G75*
G03*
X56328068Y-72500000I459300J32D01*
G01*
X204333414Y-44831834D02*
G75*
G03*
X204792004Y-44432196I-1914J465134D01*
G01*
X202073374Y-44831880D02*
G75*
G03*
X201614180Y-45291109I26J-459220D01*
G01*
X247420800Y-62782887D02*
G75*
G03*
X247879513Y-63241600I458700J-13D01*
G01*
X82928972Y-68101855D02*
G75*
G03*
X82469402Y-67642328I-459572J-45D01*
G01*
X120743720Y-64201840D02*
G75*
G03*
X120285140Y-63743180I-458620J40D01*
G01*
X44684161Y-72189400D02*
G75*
G03*
X45143800Y-71729761I39J459600D01*
G01*
X307983200Y-57119490D02*
G75*
G03*
X308443010Y-57579300I459800J-10D01*
G01*
X45603466Y-69662500D02*
G75*
G03*
X45143800Y-70122166I34J-459700D01*
G01*
X133554389Y-76101354D02*
G75*
G03*
X134014257Y-76561311I459911J-46D01*
G01*
X199397012Y-71259800D02*
G75*
G03*
X198938100Y-71718712I-12J-458900D01*
G01*
X247420800Y-62071076D02*
G75*
G03*
X246960324Y-61610600I-460500J-24D01*
G01*
X323850000Y-58038642D02*
G75*
G03*
X323390658Y-57579300I-459300J42D01*
G01*
X120743800Y-69204756D02*
G75*
G03*
X121201544Y-69662500I457700J-44D01*
G01*
X245727864Y-61610600D02*
G75*
G03*
X245268800Y-62069664I36J-459100D01*
G01*
X55868800Y-70121930D02*
G75*
G03*
X55409370Y-69662500I-459400J30D01*
G01*
X133554300Y-70121816D02*
G75*
G03*
X133094984Y-69662500I-459300J16D01*
G01*
X82928900Y-69203110D02*
G75*
G03*
X83388319Y-69662500I459400J10D01*
G01*
X33337500Y-71730304D02*
G75*
G03*
X33796596Y-72189400I459100J4D01*
G01*
X264314200Y-63259987D02*
G75*
G03*
X264295773Y-63241600I-18400J-13D01*
G01*
X264318813Y-63264627D02*
G75*
G03*
X264314160Y-63259987I-4613J27D01*
G01*
X64653218Y-69662500D02*
G75*
G03*
X64193800Y-70121918I-18J-459400D01*
G01*
X74278482Y-67642300D02*
G75*
G03*
X73818800Y-68102010I18J-459700D01*
G01*
X198478131Y-77069500D02*
G75*
G03*
X198938100Y-76609531I-31J460000D01*
G01*
X307983200Y-51071696D02*
G75*
G03*
X307524004Y-50612500I-459200J-4D01*
G01*
X63734084Y-72500000D02*
G75*
G03*
X64193800Y-72040284I16J459700D01*
G01*
X33337500Y-73212500D02*
X29762500Y-73212500D01*
X29762500Y-73212500D02*
X29762500Y-72312500D01*
X198558075Y-78544496D02*
X198558075Y-94950181D01*
X216693800Y-84822632D02*
X216693800Y-88712500D01*
X73562652Y-87544856D02*
X73562652Y-88253212D01*
X207931923Y-42916400D02*
X207935600Y-42920077D01*
X225201525Y-84363045D02*
X217153387Y-84363045D01*
X319087500Y-77947848D02*
X319087500Y-88712500D01*
X199918939Y-72170646D02*
X199918939Y-77625514D01*
X303858269Y-69662500D02*
X302418800Y-69662500D01*
X91690293Y-84920720D02*
X83803836Y-84920720D01*
X83343800Y-85380756D02*
X83343800Y-88712500D01*
X110740396Y-84455250D02*
X102853407Y-84455250D01*
X235743800Y-88712500D02*
X226120349Y-88712500D01*
X199459428Y-78085016D02*
X199017572Y-78085008D01*
X64753884Y-87085600D02*
X73103396Y-87085600D01*
X178593800Y-110436210D02*
X178593800Y-108368700D01*
X198558075Y-107990421D02*
X198558075Y-94950181D01*
X207935600Y-42920077D02*
X207935600Y-48651840D01*
X64293800Y-88792400D02*
X55284052Y-88792400D01*
X225660841Y-88252992D02*
X225660841Y-84822361D01*
X64293800Y-88712500D02*
X64293800Y-87545684D01*
X263624600Y-85069188D02*
X263624600Y-88076499D01*
X264083001Y-88534900D02*
X273666200Y-88534900D01*
X207476640Y-49110800D02*
X202797420Y-49110800D01*
X202338680Y-49569540D02*
X202338680Y-71252016D01*
X40807200Y-87269887D02*
X38561216Y-87269887D01*
X64293800Y-88712500D02*
X64293800Y-88792400D01*
X188000000Y-108909415D02*
X188000000Y-110436818D01*
X156803875Y-87108472D02*
X159084177Y-87108472D01*
X254671258Y-88589958D02*
X254671258Y-84609422D01*
X201878996Y-71711700D02*
X200377885Y-71711700D01*
X121443800Y-86141544D02*
X121443800Y-88712500D01*
X102393800Y-84914857D02*
X102393800Y-88712500D01*
X38100000Y-88712500D02*
X38100000Y-87731103D01*
X197988686Y-108450000D02*
X197643800Y-108450000D01*
X217874243Y-94161179D02*
X217874243Y-89171008D01*
X92150000Y-88253331D02*
X92150000Y-85380427D01*
X198558075Y-94950181D02*
X198448436Y-95059820D01*
X304317900Y-77488800D02*
X304317900Y-70122131D01*
X187541218Y-110895600D02*
X179053190Y-110895600D01*
X216693800Y-88712500D02*
X217415735Y-88712500D01*
X121443800Y-88712500D02*
X111658376Y-88712500D01*
X121444134Y-86141210D02*
X121443800Y-86141544D01*
X254671258Y-84609422D02*
X263164834Y-84609422D01*
X74021940Y-88712500D02*
X83343800Y-88712500D01*
X197643800Y-108450000D02*
X188459415Y-108450000D01*
X102393800Y-88712500D02*
X92609169Y-88712500D01*
X54823772Y-88038041D02*
X54823788Y-88332161D01*
X304317900Y-77488800D02*
X318628452Y-77488800D01*
X197643800Y-108450000D02*
X198098496Y-108450000D01*
X111200000Y-88254124D02*
X111200000Y-84914854D01*
X159543800Y-89318700D02*
X159543800Y-87568095D01*
X92149980Y-85380427D02*
G75*
G03*
X91690293Y-84920720I-459680J27D01*
G01*
X199017572Y-78084975D02*
G75*
G03*
X198558075Y-78544496I28J-459525D01*
G01*
X304317900Y-70122131D02*
G75*
G03*
X303858269Y-69662500I-459600J31D01*
G01*
X225660800Y-88252992D02*
G75*
G03*
X226120349Y-88712500I459500J-8D01*
G01*
X254671300Y-88589958D02*
G75*
G03*
X254793800Y-88712500I122500J-42D01*
G01*
X200377885Y-71711639D02*
G75*
G03*
X199918939Y-72170646I15J-458961D01*
G01*
X102853407Y-84455300D02*
G75*
G03*
X102393800Y-84914857I-7J-459600D01*
G01*
X187541218Y-110895600D02*
G75*
G03*
X188000000Y-110436818I-18J458800D01*
G01*
X202797420Y-49110780D02*
G75*
G03*
X202338680Y-49569540I-20J-458720D01*
G01*
X207476640Y-49110800D02*
G75*
G03*
X207935600Y-48651840I-40J459000D01*
G01*
X273843800Y-88712500D02*
G75*
G03*
X273666200Y-88534900I-177600J0D01*
G01*
X73562700Y-87544856D02*
G75*
G03*
X73103396Y-87085600I-459300J-44D01*
G01*
X217153387Y-84363000D02*
G75*
G03*
X216693800Y-84822632I13J-459600D01*
G01*
X217874200Y-89171008D02*
G75*
G03*
X217415735Y-88712500I-458500J8D01*
G01*
X263624578Y-85069188D02*
G75*
G03*
X263164834Y-84609422I-459778J-12D01*
G01*
X201878996Y-71711680D02*
G75*
G03*
X202338680Y-71252016I4J459680D01*
G01*
X198098496Y-108449975D02*
G75*
G03*
X198558075Y-107990421I4J459575D01*
G01*
X319087500Y-77947848D02*
G75*
G03*
X318628452Y-77488800I-459000J48D01*
G01*
X263624600Y-88076499D02*
G75*
G03*
X264083001Y-88534900I458400J-1D01*
G01*
X111200050Y-84914854D02*
G75*
G03*
X110740396Y-84455250I-459650J-46D01*
G01*
X92150000Y-88253331D02*
G75*
G03*
X92609169Y-88712500I459200J31D01*
G01*
X64753884Y-87085600D02*
G75*
G03*
X64293800Y-87545684I16J-460100D01*
G01*
X54823800Y-88332161D02*
G75*
G03*
X55284052Y-88792400I460300J61D01*
G01*
X159543828Y-87568095D02*
G75*
G03*
X159084177Y-87108472I-459628J-5D01*
G01*
X178593800Y-110436210D02*
G75*
G03*
X179053190Y-110895600I459400J10D01*
G01*
X111200000Y-88254124D02*
G75*
G03*
X111658376Y-88712500I458400J24D01*
G01*
X83803836Y-84920800D02*
G75*
G03*
X83343800Y-85380756I-36J-460000D01*
G01*
X225660855Y-84822361D02*
G75*
G03*
X225201525Y-84363045I-459355J-39D01*
G01*
X73562600Y-88253212D02*
G75*
G03*
X74021940Y-88712500I459300J12D01*
G01*
X199459428Y-78085039D02*
G75*
G03*
X199918939Y-77625514I-28J459539D01*
G01*
X38561216Y-87269900D02*
G75*
G03*
X38100000Y-87731103I-16J-461200D01*
G01*
X188459415Y-108450000D02*
G75*
G03*
X188000000Y-108909415I-15J-459400D01*
G01*
X38100000Y-92262500D02*
X35406300Y-92262500D01*
X34506300Y-91362500D02*
G75*
G03*
X35406300Y-92262500I900000J0D01*
G01*
X141402100Y-107057388D02*
X141402100Y-108278414D01*
X283250000Y-108242878D02*
X283250000Y-109679782D01*
X199770680Y-110376900D02*
X213734717Y-110376900D01*
X104775000Y-107762500D02*
X95635324Y-107762500D01*
X263740601Y-111364265D02*
X255736839Y-111364265D01*
X198822884Y-113095600D02*
X161373619Y-113095600D01*
X85800100Y-111702332D02*
X85800100Y-108221735D01*
X242560500Y-107302797D02*
X242560500Y-106682576D01*
X47625000Y-104918700D02*
X72640625Y-104918700D01*
X196165579Y-26725000D02*
X182500000Y-26725000D01*
X211765855Y-40097900D02*
X198489810Y-40097900D01*
X114620857Y-111390604D02*
X114620857Y-108222001D01*
X141402100Y-107057388D02*
X141402100Y-89171762D01*
X133350000Y-107762500D02*
X140916267Y-107762500D01*
X210520713Y-42918690D02*
X210520713Y-57786695D01*
X198030200Y-39638290D02*
X198030200Y-38072522D01*
X123247304Y-111849709D02*
X115079962Y-111849709D01*
X200475000Y-72623344D02*
X200475000Y-78335754D01*
X242101024Y-106223100D02*
X224297334Y-106223100D01*
X210518423Y-42916400D02*
X210520713Y-42918690D01*
X199282575Y-79254939D02*
X199282575Y-109639730D01*
X95175423Y-108222401D02*
X95175423Y-111702675D01*
X319087500Y-105581861D02*
X319087500Y-104537500D01*
X282766919Y-107762500D02*
X282769622Y-107762500D01*
X283250000Y-107205271D02*
X283250004Y-107279391D01*
X203441000Y-58705280D02*
X203441000Y-71703445D01*
X150304506Y-108828769D02*
X150304506Y-112686954D01*
X123706300Y-108222227D02*
X123706300Y-111390713D01*
X273843800Y-107762500D02*
X264659434Y-107762500D01*
X214653352Y-107762500D02*
X223837500Y-107762500D01*
X283250000Y-107205271D02*
X283250000Y-108242878D01*
X199282575Y-109639730D02*
X199282575Y-110883638D01*
X159543800Y-108368700D02*
X150764575Y-108368700D01*
X114161356Y-107762500D02*
X104775000Y-107762500D01*
X264200000Y-108221934D02*
X264200000Y-110904866D01*
X133350000Y-107762500D02*
X124166027Y-107762500D01*
X292893800Y-88712500D02*
X283709413Y-88712500D01*
X223837500Y-106682934D02*
X223837500Y-107762500D01*
X255277679Y-110905105D02*
X255277679Y-108221614D01*
X94716553Y-112161545D02*
X86259313Y-112161545D01*
X85340865Y-107762500D02*
X83343800Y-107762500D01*
X196625395Y-37154124D02*
X196625395Y-27184816D01*
X140493800Y-88712500D02*
X140942838Y-88712500D01*
X73100000Y-105378075D02*
X73100000Y-107303026D01*
X73559474Y-107762500D02*
X83343800Y-107762500D01*
X200015310Y-78795434D02*
X199742095Y-78795428D01*
X283709618Y-110139400D02*
X306790041Y-110139400D01*
X149845042Y-113146418D02*
X141861125Y-113146418D01*
X273843800Y-107762500D02*
X282766919Y-107762500D01*
X210061008Y-58246400D02*
X203899880Y-58246400D01*
X197570693Y-37612996D02*
X197084228Y-37612976D01*
X307708692Y-106041700D02*
X318627661Y-106041700D01*
X160914131Y-112636112D02*
X160914131Y-108827687D01*
X199282575Y-110883638D02*
X199282575Y-112635909D01*
X214193800Y-109917817D02*
X214193800Y-108222052D01*
X307249700Y-109679741D02*
X307249700Y-106500692D01*
X212225266Y-39145959D02*
X212225287Y-39638448D01*
X254818565Y-107762500D02*
X252412500Y-107762500D01*
X199282575Y-109639730D02*
X199282585Y-109888824D01*
X202980845Y-72163600D02*
X200934744Y-72163600D01*
X141402104Y-107276656D02*
X141402100Y-107057388D01*
X141402100Y-112687393D02*
X141402100Y-108278414D01*
X252412500Y-107762500D02*
X243020203Y-107762500D01*
X160455144Y-108368700D02*
X159543800Y-108368700D01*
X283250000Y-89171913D02*
X283250000Y-107205271D01*
X242560500Y-106682576D02*
G75*
G03*
X242101024Y-106223100I-459500J-24D01*
G01*
X160914100Y-112636112D02*
G75*
G03*
X161373619Y-113095600I459500J12D01*
G01*
X141402100Y-108278414D02*
G75*
G03*
X140886186Y-107762500I-515900J14D01*
G01*
X124166027Y-107762500D02*
G75*
G03*
X123706300Y-108222227I-27J-459700D01*
G01*
X73100000Y-105378075D02*
G75*
G03*
X72640625Y-104918700I-459400J-25D01*
G01*
X283250000Y-108242878D02*
G75*
G03*
X282769622Y-107762500I-480400J-22D01*
G01*
X242560500Y-107302797D02*
G75*
G03*
X243020203Y-107762500I459700J-3D01*
G01*
X213734717Y-110376900D02*
G75*
G03*
X214193800Y-109917817I-17J459100D01*
G01*
X141402082Y-112687393D02*
G75*
G03*
X141861125Y-113146418I459018J-7D01*
G01*
X196625324Y-37154124D02*
G75*
G03*
X197084228Y-37612976I458876J24D01*
G01*
X283709413Y-88712500D02*
G75*
G03*
X283250000Y-89171913I-13J-459400D01*
G01*
X283250000Y-109679782D02*
G75*
G03*
X283709618Y-110139400I459600J-18D01*
G01*
X198030204Y-38072522D02*
G75*
G03*
X197570693Y-37612996I-459504J22D01*
G01*
X263740601Y-111364300D02*
G75*
G03*
X264200000Y-110904866I-1J459400D01*
G01*
X198822884Y-113095575D02*
G75*
G03*
X199282575Y-112635909I16J459675D01*
G01*
X214653352Y-107762500D02*
G75*
G03*
X214193800Y-108222052I48J-459600D01*
G01*
X94716553Y-112161523D02*
G75*
G03*
X95175423Y-111702675I47J458823D01*
G01*
X224297334Y-106223100D02*
G75*
G03*
X223837500Y-106682934I-34J-459800D01*
G01*
X202980845Y-72163600D02*
G75*
G03*
X203441000Y-71703445I-45J460200D01*
G01*
X282766919Y-107762504D02*
G75*
G03*
X283250004Y-107279391I-19J483104D01*
G01*
X73100000Y-107303026D02*
G75*
G03*
X73559474Y-107762500I459500J26D01*
G01*
X199789313Y-110376875D02*
G75*
G03*
X199282575Y-110883638I-13J-506725D01*
G01*
X306790041Y-110139400D02*
G75*
G03*
X307249700Y-109679741I-41J459700D01*
G01*
X255277700Y-108221614D02*
G75*
G03*
X254818565Y-107762500I-459100J14D01*
G01*
X114620900Y-108222001D02*
G75*
G03*
X114161356Y-107762500I-459500J1D01*
G01*
X85800100Y-108221735D02*
G75*
G03*
X85340865Y-107762500I-459200J35D01*
G01*
X200015310Y-78795500D02*
G75*
G03*
X200475000Y-78335754I-10J459700D01*
G01*
X203899880Y-58246400D02*
G75*
G03*
X203441000Y-58705280I20J-458900D01*
G01*
X85800055Y-111702332D02*
G75*
G03*
X86259313Y-112161545I459245J32D01*
G01*
X210061008Y-58246413D02*
G75*
G03*
X210520713Y-57786695I-8J459713D01*
G01*
X307708692Y-106041700D02*
G75*
G03*
X307249700Y-106500692I8J-459000D01*
G01*
X199742095Y-78795375D02*
G75*
G03*
X199282575Y-79254939I5J-459525D01*
G01*
X255277635Y-110905105D02*
G75*
G03*
X255736839Y-111364265I459165J5D01*
G01*
X200934744Y-72163600D02*
G75*
G03*
X200475000Y-72623344I-44J-459700D01*
G01*
X196625400Y-27184816D02*
G75*
G03*
X196165579Y-26725000I-459800J16D01*
G01*
X160914100Y-108827687D02*
G75*
G03*
X160455144Y-108368700I-459000J-13D01*
G01*
X123247304Y-111849700D02*
G75*
G03*
X123706300Y-111390713I-4J459000D01*
G01*
X114620891Y-111390604D02*
G75*
G03*
X115079962Y-111849709I459109J4D01*
G01*
X318627661Y-106041700D02*
G75*
G03*
X319087500Y-105581861I39J459800D01*
G01*
X211765855Y-40097887D02*
G75*
G03*
X212225287Y-39638448I45J459387D01*
G01*
X264659434Y-107762500D02*
G75*
G03*
X264200000Y-108221934I-34J-459400D01*
G01*
X141402100Y-89171762D02*
G75*
G03*
X140942838Y-88712500I-459300J-38D01*
G01*
X95635324Y-107762523D02*
G75*
G03*
X95175423Y-108222401I-24J-459877D01*
G01*
X149845042Y-113146506D02*
G75*
G03*
X150304506Y-112686954I-42J459506D01*
G01*
X199282600Y-109888824D02*
G75*
G03*
X199770680Y-110376900I488100J24D01*
G01*
X198030200Y-39638290D02*
G75*
G03*
X198489810Y-40097900I459600J-10D01*
G01*
X150764575Y-108368706D02*
G75*
G03*
X150304506Y-108828769I25J-460094D01*
G01*
X140916267Y-107762504D02*
G75*
G03*
X141402104Y-107276656I33J485804D01*
G01*
X46900000Y-109193700D02*
X42343800Y-109193700D01*
X46900000Y-109193700D02*
G75*
G03*
X47625000Y-108468700I0J725000D01*
G01*
X197500000Y-51225000D02*
X199662084Y-51225000D01*
X38581709Y-31562500D02*
X38100000Y-31562500D01*
X114300000Y-31562500D02*
X115646074Y-31562500D01*
X105443441Y-32024106D02*
X105443441Y-35138687D01*
X86152119Y-30009172D02*
X86152119Y-31026118D01*
X288025190Y-31103019D02*
X288025190Y-27816359D01*
X160002882Y-44763800D02*
X178603531Y-44763800D01*
X316706300Y-31562500D02*
X307828838Y-31562500D01*
X306909711Y-29908600D02*
X298114809Y-29908600D01*
X104984928Y-35597200D02*
X100701900Y-35597200D01*
X259556300Y-25256117D02*
X259556300Y-31562500D01*
X76200000Y-31562500D02*
X76200000Y-30007268D01*
X253233650Y-38602686D02*
X253233653Y-39898196D01*
X86152119Y-32014835D02*
X86152119Y-36246007D01*
X231291577Y-37958307D02*
X231291577Y-32022309D01*
X278606300Y-31562500D02*
X278606300Y-31951200D01*
X307368988Y-31102650D02*
X307368988Y-30367877D01*
X114300000Y-31562500D02*
X105905047Y-31562500D01*
X58128639Y-31562500D02*
X57150000Y-31562500D01*
X86152119Y-30996362D02*
X86152117Y-31026120D01*
X85690604Y-29547657D02*
X76659611Y-29547657D01*
X231751386Y-31562500D02*
X240506300Y-31562500D01*
X178593800Y-51218700D02*
X178593800Y-44773531D01*
X58588100Y-37355151D02*
X58588100Y-32021961D01*
X287565949Y-27357118D02*
X278606300Y-27357118D01*
X114305514Y-40714085D02*
X114305514Y-38283370D01*
X39038301Y-37360788D02*
X39043378Y-37355711D01*
X239010371Y-38418100D02*
X231751370Y-38418100D01*
X114764941Y-37823943D02*
X115645707Y-37823943D01*
X297656300Y-30367109D02*
X297656300Y-31562500D01*
X86152119Y-31026118D02*
X86152117Y-31026120D01*
X278606300Y-31562500D02*
X278606300Y-27357118D01*
X116105363Y-37364287D02*
X116105363Y-32021789D01*
X297656300Y-31562500D02*
X288484671Y-31562500D01*
X259556300Y-31562500D02*
X250944678Y-31562500D01*
X58587848Y-37355403D02*
X58588100Y-37355151D01*
X39043378Y-37355711D02*
X39043378Y-32024169D01*
X95250000Y-31562500D02*
X86604454Y-31562500D01*
X200120812Y-44622271D02*
X200120812Y-50766272D01*
X259556100Y-25255917D02*
X259556300Y-25256117D01*
X250939843Y-38143310D02*
X252774273Y-38143310D01*
X159543800Y-45222882D02*
X159543800Y-51218700D01*
X250485309Y-32021869D02*
X250485309Y-37688776D01*
X86152119Y-32014835D02*
X86152119Y-30996362D01*
X86604454Y-31562419D02*
G75*
G03*
X86152119Y-32014835I46J-452381D01*
G01*
X298114809Y-29908600D02*
G75*
G03*
X297656300Y-30367109I-9J-458500D01*
G01*
X105905047Y-31562541D02*
G75*
G03*
X105443441Y-32024106I-47J-461559D01*
G01*
X104984928Y-35597241D02*
G75*
G03*
X105443441Y-35138687I-28J458541D01*
G01*
X307369000Y-30367877D02*
G75*
G03*
X306909711Y-29908600I-459300J-23D01*
G01*
X86152143Y-30009172D02*
G75*
G03*
X85690604Y-29547657I-461543J-28D01*
G01*
X307368900Y-31102650D02*
G75*
G03*
X307828838Y-31562500I459900J50D01*
G01*
X288025200Y-31103019D02*
G75*
G03*
X288484671Y-31562500I459500J19D01*
G01*
X86152200Y-31026120D02*
G75*
G03*
X86688460Y-31562500I536300J-80D01*
G01*
X178603531Y-44763800D02*
G75*
G03*
X178593800Y-44773531I-31J-9700D01*
G01*
X116105400Y-32021789D02*
G75*
G03*
X115646074Y-31562500I-459300J-11D01*
G01*
X160002882Y-44763800D02*
G75*
G03*
X159543800Y-45222882I18J-459100D01*
G01*
X250944678Y-31562509D02*
G75*
G03*
X250485309Y-32021869I22J-459391D01*
G01*
X253233690Y-38602686D02*
G75*
G03*
X252774273Y-38143310I-459390J-14D01*
G01*
X76659611Y-29547700D02*
G75*
G03*
X76200000Y-30007268I-11J-459600D01*
G01*
X58588100Y-32021961D02*
G75*
G03*
X58128639Y-31562500I-459500J-39D01*
G01*
X114764941Y-37824014D02*
G75*
G03*
X114305514Y-38283370I-41J-459386D01*
G01*
X250485290Y-37688776D02*
G75*
G03*
X250939843Y-38143310I454510J-24D01*
G01*
X288025182Y-27816359D02*
G75*
G03*
X287565949Y-27357118I-459282J-41D01*
G01*
X231751386Y-31562477D02*
G75*
G03*
X231291577Y-32022309I14J-459823D01*
G01*
X199662084Y-51225012D02*
G75*
G03*
X200120812Y-50766272I16J458712D01*
G01*
X39043400Y-32024169D02*
G75*
G03*
X38581709Y-31562500I-461700J-31D01*
G01*
X86152094Y-36246007D02*
G75*
G03*
X86171318Y-36265206I19206J7D01*
G01*
X231291600Y-37958307D02*
G75*
G03*
X231751370Y-38418100I459800J7D01*
G01*
X115645707Y-37823963D02*
G75*
G03*
X116105363Y-37364287I-7J459663D01*
G01*
X35151900Y-35112500D02*
X35151900Y-34212500D01*
X38100000Y-35112500D02*
X35151900Y-35112500D01*
X50006300Y-54162500D02*
X47090000Y-54162500D01*
X47090000Y-54162500D02*
X47090000Y-53262500D01*
X54768800Y-73212500D02*
X52093800Y-73212500D01*
X51193800Y-72312500D02*
G75*
G03*
X52093800Y-73212500I900000J0D01*
G01*
X64293800Y-92262500D02*
X60700000Y-92262500D01*
X60700000Y-92262500D02*
X60700000Y-91362500D01*
X79750000Y-111312500D02*
X79750000Y-110500000D01*
X83343800Y-111312500D02*
X79750000Y-111312500D01*
X57150000Y-35112500D02*
X54243800Y-35112500D01*
X54243800Y-35112500D02*
X54243800Y-34212500D01*
X69056300Y-54162500D02*
X67040000Y-54162500D01*
X66140000Y-53262500D02*
G75*
G03*
X67040000Y-54162500I900000J0D01*
G01*
X70243800Y-73212500D02*
X70243800Y-72312500D01*
X73818800Y-73212500D02*
X70243800Y-73212500D01*
X79750000Y-92262500D02*
X79750000Y-91362500D01*
X83343800Y-92262500D02*
X79750000Y-92262500D01*
X101181300Y-111312500D02*
X101181300Y-110500000D01*
X104775000Y-111312500D02*
X101181300Y-111312500D01*
X73293800Y-35112500D02*
X76200000Y-35112500D01*
X73293800Y-34212500D02*
X73293800Y-35112500D01*
X88106300Y-54162500D02*
X85190000Y-54162500D01*
X85190000Y-54162500D02*
X85190000Y-53262500D01*
X92868800Y-73212500D02*
X90193800Y-73212500D01*
X89293800Y-72312500D02*
G75*
G03*
X90193800Y-73212500I900000J0D01*
G01*
X102393800Y-92262500D02*
X99700000Y-92262500D01*
X98800000Y-91362500D02*
G75*
G03*
X99700000Y-92262500I900000J0D01*
G01*
X129756300Y-111312500D02*
X129756300Y-110500000D01*
X133350000Y-111312500D02*
X129756300Y-111312500D01*
X95250000Y-35112500D02*
X92343800Y-35112500D01*
X92343800Y-35112500D02*
X92343800Y-34212500D01*
X107156300Y-54162500D02*
X105140000Y-54162500D01*
X104240000Y-53262500D02*
G75*
G03*
X105140000Y-54162500I900000J0D01*
G01*
X108343800Y-73212500D02*
X111918800Y-73212500D01*
X108343800Y-72312500D02*
X108343800Y-73212500D01*
X117850000Y-92262500D02*
X117850000Y-91362500D01*
X121443800Y-92262500D02*
X117850000Y-92262500D01*
X140493800Y-92262500D02*
X136900000Y-92262500D01*
X136900000Y-92262500D02*
X136900000Y-91362500D01*
X111393800Y-35112500D02*
X111393800Y-34212500D01*
X114300000Y-35112500D02*
X111393800Y-35112500D01*
X126206300Y-54162500D02*
X123290000Y-54162500D01*
X123290000Y-54162500D02*
X123290000Y-53262500D01*
X127393800Y-73212500D02*
X127393800Y-72312500D01*
X130968800Y-73212500D02*
X127393800Y-73212500D01*
X155950000Y-92868700D02*
X155950000Y-91968700D01*
X159543800Y-92868700D02*
X155950000Y-92868700D01*
X159543800Y-111918700D02*
X155950000Y-111918700D01*
X155950000Y-111918700D02*
X155950000Y-111018700D01*
X159543800Y-54768700D02*
X155950000Y-54768700D01*
X155950000Y-54768700D02*
X155950000Y-53868700D01*
X159543800Y-73818700D02*
X155950000Y-73818700D01*
X155950000Y-73818700D02*
X155950000Y-72918700D01*
X178593800Y-92868700D02*
X175000000Y-92868700D01*
X175000000Y-92868700D02*
X175000000Y-91968700D01*
X175000000Y-111918700D02*
X175000000Y-111018700D01*
X178593800Y-111918700D02*
X175000000Y-111918700D01*
X178450000Y-30000000D02*
X182225000Y-30000000D01*
X182500000Y-30275000D02*
G75*
G03*
X182225000Y-30000000I-275000J0D01*
G01*
X178593800Y-54768700D02*
X175000000Y-54768700D01*
X175000000Y-54768700D02*
X175000000Y-53868700D01*
X175000000Y-72918700D02*
X175000000Y-73818700D01*
X175000000Y-73818700D02*
X178593800Y-73818700D01*
X194050000Y-92950000D02*
X197643800Y-92950000D01*
X194050000Y-91968700D02*
X194050000Y-92950000D01*
X197643800Y-112000000D02*
X194050000Y-112000000D01*
X194050000Y-112000000D02*
X194050000Y-111018700D01*
X194050000Y-54775000D02*
X194050000Y-53868700D01*
X197500000Y-54775000D02*
X194050000Y-54775000D01*
X197643800Y-73900000D02*
X194050000Y-73900000D01*
X194050000Y-73900000D02*
X194050000Y-72918700D01*
X226218800Y-73212500D02*
X223525000Y-73212500D01*
X222625000Y-72312500D02*
G75*
G03*
X223525000Y-73212500I900000J0D01*
G01*
X213100000Y-91362500D02*
X213100000Y-92262500D01*
X213100000Y-92262500D02*
X216693800Y-92262500D01*
X223837500Y-111312500D02*
X220243800Y-111312500D01*
X220243800Y-111312500D02*
X220243800Y-110500000D01*
X237393800Y-35112500D02*
X237393800Y-34212500D01*
X240506300Y-35112500D02*
X237393800Y-35112500D01*
X230981300Y-54162500D02*
X228130600Y-54162500D01*
X228130600Y-54162500D02*
X228130600Y-53262500D01*
X245268800Y-73212500D02*
X241675000Y-73212500D01*
X241675000Y-73212500D02*
X241675000Y-72312500D01*
X235743800Y-92262500D02*
X232150000Y-92262500D01*
X232150000Y-92262500D02*
X232150000Y-91362500D01*
X252412500Y-111312500D02*
X248818800Y-111312500D01*
X248818800Y-111312500D02*
X248818800Y-110500000D01*
X259556300Y-35112500D02*
X256443800Y-35112500D01*
X256443800Y-35112500D02*
X256443800Y-34212500D01*
X247180600Y-54162500D02*
X247180600Y-53262500D01*
X250031300Y-54162500D02*
X247180600Y-54162500D01*
X260725000Y-73212500D02*
X260725000Y-72312500D01*
X264318800Y-73212500D02*
X260725000Y-73212500D01*
X251200000Y-92262500D02*
X251200000Y-91362500D01*
X254793800Y-92262500D02*
X251200000Y-92262500D01*
X273843800Y-111312500D02*
X270250000Y-111312500D01*
X270250000Y-111312500D02*
X270250000Y-110500000D01*
X275493800Y-37509100D02*
X275493800Y-34212500D01*
X278606300Y-35112500D02*
X279711545Y-35112500D01*
X280171000Y-35571955D02*
X280171000Y-37509100D01*
X280171000Y-35571955D02*
G75*
G03*
X279711545Y-35112500I-459500J-45D01*
G01*
X266230600Y-54162500D02*
X266230600Y-53262500D01*
X269081300Y-54162500D02*
X266230600Y-54162500D01*
X279775000Y-67542183D02*
X279775000Y-72312500D01*
X283368800Y-73212500D02*
X283977140Y-73212500D01*
X284436164Y-67076241D02*
X284436164Y-72753476D01*
X280985000Y-67083236D02*
X280233947Y-67083236D01*
X283977140Y-73212564D02*
G75*
G03*
X284436164Y-72753476I-40J459064D01*
G01*
X280233947Y-67083300D02*
G75*
G03*
X279775000Y-67542183I-47J-458900D01*
G01*
X273843800Y-92262500D02*
X270250000Y-92262500D01*
X270250000Y-92262500D02*
X270250000Y-91362500D01*
X292893800Y-92262500D02*
X289300000Y-92262500D01*
X289300000Y-92262500D02*
X289300000Y-91362500D01*
X297656300Y-35112500D02*
X294543800Y-35112500D01*
X294543800Y-35112500D02*
X294543800Y-34212500D01*
X285280600Y-54162500D02*
X285280600Y-53262500D01*
X288131300Y-54162500D02*
X285280600Y-54162500D01*
X307181300Y-54162500D02*
X304330600Y-54162500D01*
X304330600Y-54162500D02*
X304330600Y-53262500D01*
X298825000Y-73212500D02*
X298825000Y-72312500D01*
X302418800Y-73212500D02*
X298825000Y-73212500D01*
X316706300Y-35112500D02*
X313593800Y-35112500D01*
X313593800Y-35112500D02*
X313593800Y-34212500D01*
X323374400Y-54162500D02*
X323374400Y-53262500D01*
X326231300Y-54162500D02*
X323374400Y-54162500D01*
X323850000Y-73212500D02*
X320256300Y-73212500D01*
X320256300Y-73212500D02*
X320256300Y-72312500D01*
X319087500Y-92262500D02*
X316393800Y-92262500D01*
X315493800Y-91362500D02*
G75*
G03*
X316393800Y-92262500I900000J0D01*
G01*
X314843800Y-108812500D02*
X318362500Y-108812500D01*
X318362500Y-108812500D02*
G75*
G03*
X319087500Y-108087500I0J725000D01*
G01*
D21*
X117140000Y-40456200D02*
X117143800Y-40456200D01*
X177030724Y-81914300D02*
X178877410Y-81914300D01*
X87110471Y-78078755D02*
X87110469Y-78032272D01*
X33380659Y-39154300D02*
X22521487Y-39154300D01*
X126365031Y-77405495D02*
X130191588Y-77405495D01*
X92995994Y-40456200D02*
X98090000Y-40456200D01*
X95500000Y-62258100D02*
X94935616Y-62258100D01*
X55179173Y-77404300D02*
X67346783Y-77404300D01*
X241030600Y-40456200D02*
X241433200Y-40456200D01*
X56891873Y-62258100D02*
X68663560Y-62258100D01*
X257328201Y-22956200D02*
X255493800Y-22956200D01*
X114076052Y-77404300D02*
X112326932Y-77404300D01*
X241433200Y-40456200D02*
X241433200Y-25369324D01*
X219998100Y-44635600D02*
X219998100Y-41084117D01*
X193748400Y-45659054D02*
X193778698Y-45628756D01*
X227206100Y-62284175D02*
X227206100Y-75259748D01*
X178877410Y-81914300D02*
X181047108Y-81914300D01*
X239465099Y-22932993D02*
X239465095Y-23755043D01*
X111009159Y-99831796D02*
X111009159Y-99882397D01*
X168850000Y-98362400D02*
X168850000Y-97689591D01*
X247868800Y-99206200D02*
X254579324Y-99206200D01*
X110643800Y-61938038D02*
X110643800Y-61937394D01*
X111271917Y-71588265D02*
X112561751Y-71588265D01*
X241433200Y-25369324D02*
X241433200Y-25363236D01*
X88343800Y-61629323D02*
X88343800Y-60956200D01*
X56263836Y-61584711D02*
X56263836Y-61630063D01*
X258271776Y-78077349D02*
X258271776Y-78033142D01*
X196116855Y-80612400D02*
X193100000Y-80612400D01*
X181047108Y-81914300D02*
X192471084Y-81914300D01*
X247868800Y-99206200D02*
X247868800Y-99880264D01*
X246802472Y-72163606D02*
X246802472Y-76344792D01*
X244341900Y-62500000D02*
X244341900Y-62020960D01*
X293396545Y-40456200D02*
X298180600Y-40456200D01*
X157251741Y-42612400D02*
X159437269Y-42612400D01*
X161785378Y-81914300D02*
X173420634Y-81914300D01*
X246802472Y-76344792D02*
X246802472Y-76490133D01*
X305545293Y-62258100D02*
X318678232Y-62258100D01*
X319306300Y-61630032D02*
X319306300Y-60956200D01*
X278825000Y-60956200D02*
X281423330Y-60956200D01*
X24382188Y-69862500D02*
X28766890Y-69862500D01*
X36801719Y-62258100D02*
X49616998Y-62258100D01*
X309343800Y-78706200D02*
X304035219Y-78706200D01*
X92958753Y-62258100D02*
X91405674Y-62258100D01*
X155000000Y-81287218D02*
X155000000Y-80612400D01*
X174050000Y-43285126D02*
X174050000Y-42612400D01*
X281226139Y-24383200D02*
X292964844Y-24383200D01*
X264729698Y-77404300D02*
X276805402Y-77404300D01*
X222722467Y-99879199D02*
X222722467Y-99835069D01*
X50243800Y-61631298D02*
X50243800Y-60956200D01*
X52664843Y-24258100D02*
X38733373Y-24258100D01*
X269300000Y-99878736D02*
X269300000Y-99206200D01*
X179859400Y-82899427D02*
X179859400Y-82896290D01*
X301134400Y-70824352D02*
X301134400Y-61946839D01*
X255493800Y-23754374D02*
X255493800Y-22956200D01*
X221675000Y-60956200D02*
X221675000Y-61654738D01*
X283150000Y-78706200D02*
X282365179Y-78706200D01*
X242413236Y-24383200D02*
X254864974Y-24383200D01*
X221900000Y-40456200D02*
X220626017Y-40456200D01*
X97458955Y-38047800D02*
X97310779Y-38047791D01*
X93946800Y-63246916D02*
X93946800Y-63246147D01*
X107393800Y-61630262D02*
X107393800Y-60956200D01*
X302121727Y-60956200D02*
X304462588Y-60956200D01*
X75085556Y-61584526D02*
X75085556Y-61628720D01*
X261838584Y-24383200D02*
X259476703Y-24383200D01*
X227206100Y-62284175D02*
X240095194Y-62284175D01*
X226577298Y-75888550D02*
X226226127Y-75888550D01*
X292768705Y-39828383D02*
X292768703Y-39762853D01*
X28812500Y-60956200D02*
X35542299Y-60956200D01*
X159437269Y-42612400D02*
X160505905Y-42612400D01*
X34201900Y-23629002D02*
X34201900Y-22956200D01*
X221900000Y-39936809D02*
X221900000Y-40456200D01*
X60615613Y-24258100D02*
X60501824Y-24258099D01*
X257956936Y-23753766D02*
X257956936Y-23584935D01*
X55784592Y-22956200D02*
X53293800Y-22956200D01*
X67979183Y-78075704D02*
X67979182Y-78036687D01*
X56414025Y-23629389D02*
X56414023Y-23585637D01*
X188528486Y-51312211D02*
X193118806Y-51312211D01*
X245050000Y-78034682D02*
X245050000Y-78706200D01*
X90230696Y-60956200D02*
X88343800Y-60956200D01*
X219293800Y-99206200D02*
X222093597Y-99206200D01*
X303406400Y-78077381D02*
X303406400Y-72082568D01*
X278551751Y-22956198D02*
X278636329Y-22956200D01*
X110443800Y-22956200D02*
X116514881Y-22956200D01*
X261838584Y-24383200D02*
X273916607Y-24383200D01*
X126348100Y-94550164D02*
X126348100Y-93055300D01*
X192779566Y-45628756D02*
X193778698Y-45628756D01*
X38733373Y-24258100D02*
X34830998Y-24258100D01*
X161160182Y-81241199D02*
X161160182Y-81289110D01*
X74229393Y-77404300D02*
X86482475Y-77404300D01*
X245680382Y-77404300D02*
X245742946Y-77404301D01*
X54550000Y-78706200D02*
X54550000Y-78033473D01*
X111700000Y-78031232D02*
X111700000Y-78706200D01*
X96683500Y-37420476D02*
X96683500Y-25836664D01*
X174050000Y-80612400D02*
X175771015Y-80612400D01*
X23753506Y-78076906D02*
X23753506Y-70491182D01*
X126353204Y-77404300D02*
X114076052Y-77404300D01*
X276596757Y-22956200D02*
X278636329Y-22956200D01*
X93298747Y-75414047D02*
X93318576Y-75414046D01*
X187900000Y-60112400D02*
X187900000Y-51940697D01*
X145602707Y-43285057D02*
X145602707Y-36384775D01*
X244341900Y-62500000D02*
X244341900Y-62027322D01*
X279130600Y-40456200D02*
X277562800Y-40456200D01*
X297875000Y-60956200D02*
X300035411Y-60956200D01*
X219780874Y-77404300D02*
X209657733Y-77404300D01*
X50243800Y-60956200D02*
X55635325Y-60956200D01*
X168850000Y-60112400D02*
X168850000Y-59406326D01*
X69293800Y-60956200D02*
X74457230Y-60956200D01*
X161095534Y-43202029D02*
X161095534Y-43397044D01*
X245335522Y-61033700D02*
X247960214Y-61033700D01*
X150430559Y-58776500D02*
X161811544Y-58776500D01*
X117143800Y-23585119D02*
X117143800Y-36791324D01*
X91393800Y-22956200D02*
X91393800Y-23628663D01*
X36171787Y-61585688D02*
X36171787Y-61628168D01*
X110443800Y-24231276D02*
X110443800Y-22956200D01*
X169479091Y-97060500D02*
X180838559Y-97060500D01*
X241030600Y-40456200D02*
X235435062Y-40456200D01*
X174050000Y-80612400D02*
X174050000Y-81284934D01*
X305079734Y-61573346D02*
X305079734Y-61792541D01*
X236443800Y-22956200D02*
X239441892Y-22956200D01*
X34010082Y-39783767D02*
X34010080Y-39828841D01*
X297875000Y-61632394D02*
X297875000Y-60956200D01*
X79429116Y-100507900D02*
X99602379Y-100507900D01*
X279758534Y-39134600D02*
X292140428Y-39134600D01*
X79040000Y-40456200D02*
X79040000Y-39928288D01*
X149800000Y-98362400D02*
X149800000Y-97688743D01*
X40619041Y-34902976D02*
X40029171Y-34313104D01*
X59990000Y-40456200D02*
X59440000Y-40456200D01*
X155000000Y-80612400D02*
X160531377Y-80612400D01*
X293593800Y-22956200D02*
X299207082Y-22956200D01*
X181047108Y-81914300D02*
X180844536Y-81914299D01*
X278636329Y-22956200D02*
X279967870Y-22956200D01*
X301134400Y-61946839D02*
X301134400Y-61943527D01*
X72343800Y-22956200D02*
X72343800Y-23628854D01*
X240725000Y-61654369D02*
X240725000Y-61035200D01*
X285774300Y-62258100D02*
X297249294Y-62258100D01*
X79774641Y-39193647D02*
X91733371Y-39193647D01*
X110643800Y-61938038D02*
X110643800Y-70960148D01*
X75714936Y-62258100D02*
X87715023Y-62258100D01*
X258900621Y-78706200D02*
X264100000Y-78706200D01*
X163170585Y-97733614D02*
X163170587Y-97690417D01*
X240093249Y-24383200D02*
X240447125Y-24383213D01*
X113757089Y-62258100D02*
X125815423Y-62258100D01*
X95707036Y-24860200D02*
X95318886Y-24860200D01*
X29394210Y-69235180D02*
X29394210Y-60956200D01*
X279130600Y-40456200D02*
X279130600Y-39762534D01*
X180838559Y-97060500D02*
X187271325Y-97060500D01*
X97459848Y-38047800D02*
X97458955Y-38047800D01*
X135404489Y-95177509D02*
X126975445Y-95177509D01*
X179859400Y-82899427D02*
X179859400Y-96071034D01*
X93946800Y-63246916D02*
X93946800Y-74785775D01*
X247716639Y-77404300D02*
X257642938Y-77404300D01*
X302777064Y-71453232D02*
X301763280Y-71453232D01*
X249222048Y-62666600D02*
X259146045Y-62666600D01*
X128806300Y-99206200D02*
X128806300Y-99879540D01*
X293593800Y-23754244D02*
X293593800Y-22956200D01*
X71714554Y-24258100D02*
X60615613Y-24258100D01*
X107393800Y-60956200D02*
X109662606Y-60956200D01*
X146742500Y-81914300D02*
X154372918Y-81914300D01*
X247716639Y-77404300D02*
X245680382Y-77404300D01*
X225596117Y-78706200D02*
X226000000Y-78706200D01*
X196117400Y-80611855D02*
X196116855Y-80612400D01*
X255212962Y-99839856D02*
X255212959Y-99878113D01*
X111762210Y-60956200D02*
X112496023Y-60956200D01*
X317224400Y-39782929D02*
X317224400Y-40456200D01*
X40940000Y-40456200D02*
X34637407Y-40456200D01*
X261459828Y-24383204D02*
X261838584Y-24383200D01*
X312643800Y-23754873D02*
X312643800Y-22956200D01*
X113193800Y-72220314D02*
X113193800Y-76537432D01*
X98090000Y-40456200D02*
X98090000Y-38677952D01*
X87737937Y-78706200D02*
X92650000Y-78706200D01*
X158887099Y-52982130D02*
X160178384Y-52982130D01*
X160809400Y-53613146D02*
X160809400Y-57800519D01*
X260483200Y-40456200D02*
X260483200Y-25359844D01*
X68609692Y-78706200D02*
X73600000Y-78706200D01*
X280597033Y-23585363D02*
X280597033Y-23754094D01*
X227206100Y-62284175D02*
X222304437Y-62284175D01*
X95500000Y-62258100D02*
X92958753Y-62258100D01*
X277562800Y-40456200D02*
X277562800Y-23945121D01*
X277435344Y-78074543D02*
X277435343Y-78034230D01*
X163799347Y-98362400D02*
X168850000Y-98362400D01*
X144973532Y-35755600D02*
X118083544Y-35755600D01*
X248592413Y-61665899D02*
X248592413Y-62036967D01*
X126359715Y-77410811D02*
X126353204Y-77404300D01*
X92650000Y-76044253D02*
X92650000Y-78706200D01*
X90937546Y-61789972D02*
X90937546Y-61663050D01*
X264100000Y-78706200D02*
X264100000Y-78033998D01*
X226000000Y-78706200D02*
X221039292Y-78706200D01*
X39709400Y-33541107D02*
X39709400Y-25234127D01*
X29394210Y-60956200D02*
X28812500Y-60956200D01*
X146742500Y-81912800D02*
X146742500Y-81914300D01*
X187900000Y-97689175D02*
X187900000Y-98362400D01*
X225596117Y-76518560D02*
X225596117Y-78706200D01*
X69293800Y-61627860D02*
X69293800Y-60956200D01*
X95500000Y-62258100D02*
X106765962Y-62258100D01*
X193100000Y-42612400D02*
X193778698Y-42612400D01*
X223275000Y-18876800D02*
X239414729Y-18876800D01*
X206950000Y-78706200D02*
X206950000Y-78033473D01*
X255842705Y-100507900D02*
X268670836Y-100507900D01*
X155000000Y-42612400D02*
X157251741Y-42612400D01*
X193778698Y-42612400D02*
X193778698Y-45628756D01*
X77671847Y-22956200D02*
X72343800Y-22956200D01*
X59440000Y-40456200D02*
X59440000Y-25190342D01*
X245335522Y-61033700D02*
X240802500Y-61033700D01*
X60615613Y-24258100D02*
X58507758Y-24258100D01*
X97680615Y-24860200D02*
X95707036Y-24860200D01*
X155000000Y-42612400D02*
X155000000Y-43286351D01*
X150428243Y-97060500D02*
X162540694Y-97060500D01*
X90764363Y-24258100D02*
X78930150Y-24258100D01*
X113127562Y-61587696D02*
X113127565Y-61628554D01*
X159437269Y-42612400D02*
X159247805Y-42612405D01*
X260080600Y-40456200D02*
X260483200Y-40456200D01*
X298180600Y-40456200D02*
X298180600Y-39783707D01*
X78300990Y-23585305D02*
X78300990Y-23628945D01*
X202013700Y-91651200D02*
X202013700Y-99879016D01*
X220410708Y-78034140D02*
X220410711Y-78077656D01*
X274543800Y-22956200D02*
X276596757Y-22956200D01*
X53293800Y-22956200D02*
X53293800Y-23629143D01*
X78800000Y-99206200D02*
X78800000Y-99878784D01*
X298810007Y-39154300D02*
X316595771Y-39154300D01*
X281423330Y-60956200D02*
X284515355Y-60956200D01*
X158259400Y-43505154D02*
X158259400Y-52354431D01*
X126443800Y-60956200D02*
X126443800Y-61629723D01*
X100231300Y-99206200D02*
X110383563Y-99206200D01*
X219293800Y-99881013D02*
X219293800Y-99206200D01*
X299835950Y-23585068D02*
X299835950Y-23753704D01*
X285145643Y-61586488D02*
X285145642Y-61629432D01*
X207579173Y-77404300D02*
X209657733Y-77404300D01*
X136035794Y-98576785D02*
X136035794Y-95808814D01*
X128806300Y-99206200D02*
X135406379Y-99206200D01*
X93414886Y-22956200D02*
X91393800Y-22956200D01*
X130750000Y-78033467D02*
X130750000Y-78706200D01*
X193748400Y-50682617D02*
X193748400Y-45659054D01*
X278067013Y-78706200D02*
X283150000Y-78706200D01*
X161612790Y-43914300D02*
X173420826Y-43914300D01*
X259476703Y-24383200D02*
X258586370Y-24383200D01*
X177472275Y-43914300D02*
X191519341Y-43914300D01*
X282365179Y-78706200D02*
X282365179Y-61976255D01*
X73600000Y-78706200D02*
X73600000Y-78033693D01*
X97680615Y-24860200D02*
X109814876Y-24860200D01*
X117143800Y-36791324D02*
X117143800Y-40452400D01*
X240725000Y-61035200D02*
X240725000Y-60956200D01*
X111634662Y-100507900D02*
X128177940Y-100507900D01*
X179859400Y-96071034D02*
X179859400Y-96081341D01*
X21887500Y-40456200D02*
X21887500Y-39788287D01*
X176842292Y-43243137D02*
X176842292Y-43284317D01*
X168220174Y-58776500D02*
X161811544Y-58776500D01*
X149800000Y-60112400D02*
X149800000Y-59407059D01*
X244341900Y-62500000D02*
X244341900Y-70906952D01*
X57042772Y-24258100D02*
X58507758Y-24258100D01*
X259775000Y-62037645D02*
X259775000Y-60956200D01*
X244969456Y-71534508D02*
X246173374Y-71534508D01*
X154372051Y-43914300D02*
X146231950Y-43914300D01*
X240093249Y-24383200D02*
X242413236Y-24383200D01*
X247241164Y-100507900D02*
X223351168Y-100507900D01*
X192152163Y-44547122D02*
X192152163Y-45001353D01*
X193100000Y-80612400D02*
X193100000Y-81285384D01*
X93298747Y-75414047D02*
X93280253Y-75414046D01*
X202642584Y-100507900D02*
X218666913Y-100507900D01*
X111762210Y-60956200D02*
X111625648Y-60956199D01*
X300035411Y-60956200D02*
X302121727Y-60956200D01*
X40940000Y-40456200D02*
X40940000Y-35677842D01*
X300465446Y-24383200D02*
X312015473Y-24383200D01*
X109662606Y-60956200D02*
X111762210Y-60956200D01*
X100231300Y-99206200D02*
X100231300Y-99878979D01*
X274543800Y-23756007D02*
X274543800Y-22956200D01*
X28356300Y-78706200D02*
X24382800Y-78706200D01*
X174050000Y-42612400D02*
X176211555Y-42612400D01*
X234285048Y-39306200D02*
X222530609Y-39306200D01*
X126359715Y-77410811D02*
X126365031Y-77405495D01*
X154372051Y-43914300D02*
G75*
G03*
X155000000Y-43286351I49J627900D01*
G01*
X110643735Y-70960148D02*
G75*
G03*
X111271917Y-71588265I628165J48D01*
G01*
X78300900Y-23585305D02*
G75*
G03*
X77671847Y-22956200I-629100J5D01*
G01*
X160809470Y-53613146D02*
G75*
G03*
X160178384Y-52982130I-631070J-54D01*
G01*
X248592400Y-62036967D02*
G75*
G03*
X249222048Y-62666600I629600J-33D01*
G01*
X126348091Y-94550164D02*
G75*
G03*
X126975445Y-95177509I627309J-36D01*
G01*
X292768700Y-39762853D02*
G75*
G03*
X292140428Y-39134600I-628300J-47D01*
G01*
X220410700Y-78034140D02*
G75*
G03*
X219780874Y-77404300I-629800J40D01*
G01*
X299835900Y-23753704D02*
G75*
G03*
X300465446Y-24383200I629500J4D01*
G01*
X173420634Y-81914300D02*
G75*
G03*
X174050000Y-81284934I-34J629400D01*
G01*
X111009200Y-99882397D02*
G75*
G03*
X111634662Y-100507900I625500J-3D01*
G01*
X78800000Y-99878784D02*
G75*
G03*
X79429116Y-100507900I629100J-16D01*
G01*
X221674925Y-61654738D02*
G75*
G03*
X222304437Y-62284175I629475J38D01*
G01*
X161095500Y-43397044D02*
G75*
G03*
X161612790Y-43914300I517300J44D01*
G01*
X74229393Y-77404300D02*
G75*
G03*
X73600000Y-78033693I7J-629400D01*
G01*
X94215300Y-23756637D02*
G75*
G03*
X93414886Y-22956200I-800400J37D01*
G01*
X36171800Y-61585688D02*
G75*
G03*
X35542299Y-60956200I-629500J-12D01*
G01*
X222722500Y-99879199D02*
G75*
G03*
X223351168Y-100507900I628700J-1D01*
G01*
X301134468Y-70824352D02*
G75*
G03*
X301763280Y-71453232I628832J-48D01*
G01*
X106765962Y-62258100D02*
G75*
G03*
X107393800Y-61630262I38J627800D01*
G01*
X145602700Y-43285057D02*
G75*
G03*
X146231950Y-43914300I629200J-43D01*
G01*
X67979200Y-78036687D02*
G75*
G03*
X67346783Y-77404300I-632400J-13D01*
G01*
X257956900Y-23584935D02*
G75*
G03*
X257328201Y-22956200I-628700J35D01*
G01*
X79774641Y-39193700D02*
G75*
G03*
X79040000Y-39928288I-41J-734600D01*
G01*
X188528486Y-51312200D02*
G75*
G03*
X187900000Y-51940697I14J-628500D01*
G01*
X49616998Y-62258100D02*
G75*
G03*
X50243800Y-61631298I2J626800D01*
G01*
X125815423Y-62258100D02*
G75*
G03*
X126443800Y-61629723I-23J628400D01*
G01*
X302121727Y-60956200D02*
G75*
G03*
X301134400Y-61943527I-27J-987300D01*
G01*
X277435300Y-78074543D02*
G75*
G03*
X278067013Y-78706200I631700J43D01*
G01*
X248592400Y-61665899D02*
G75*
G03*
X247960214Y-61033700I-632200J-1D01*
G01*
X52664843Y-24258100D02*
G75*
G03*
X53293800Y-23629143I-43J629000D01*
G01*
X246802492Y-72163606D02*
G75*
G03*
X246173374Y-71534508I-629092J6D01*
G01*
X113193735Y-72220314D02*
G75*
G03*
X112561751Y-71588265I-631935J114D01*
G01*
X244341915Y-62020960D02*
G75*
G03*
X243354601Y-61033685I-987315J-40D01*
G01*
X159247805Y-42612400D02*
G75*
G03*
X158259400Y-43600836I-5J-988400D01*
G01*
X135406379Y-99206194D02*
G75*
G03*
X136035794Y-98576785I21J629394D01*
G01*
X94935616Y-62258100D02*
G75*
G03*
X93946800Y-63246916I-16J-988800D01*
G01*
X158264554Y-43500000D02*
G75*
G03*
X158259400Y-43505154I46J-5200D01*
G01*
X24382188Y-69862506D02*
G75*
G03*
X23753506Y-70491182I12J-628694D01*
G01*
X168850000Y-59406326D02*
G75*
G03*
X168220174Y-58776500I-629800J26D01*
G01*
X163170500Y-97733614D02*
G75*
G03*
X163799347Y-98362400I628800J14D01*
G01*
X192152244Y-45001353D02*
G75*
G03*
X192779566Y-45628756I627356J-47D01*
G01*
X173420826Y-43914300D02*
G75*
G03*
X174050000Y-43285126I-26J629200D01*
G01*
X56263900Y-61630063D02*
G75*
G03*
X56891873Y-62258100I628000J-37D01*
G01*
X130750002Y-78033467D02*
G75*
G03*
X130191588Y-77405495I-634702J-2133D01*
G01*
X159833412Y-58776500D02*
G75*
G03*
X160809400Y-57800519I-12J976000D01*
G01*
X193118806Y-51312200D02*
G75*
G03*
X193748400Y-50682617I-6J629600D01*
G01*
X112326932Y-77404300D02*
G75*
G03*
X111700000Y-78031232I-32J-626900D01*
G01*
X117143800Y-34815864D02*
G75*
G03*
X118083544Y-35755600I939700J-36D01*
G01*
X111009200Y-99831796D02*
G75*
G03*
X110383563Y-99206200I-625600J-4D01*
G01*
X234915500Y-39936671D02*
G75*
G03*
X234285048Y-39306200I-630500J-29D01*
G01*
X303406468Y-72082568D02*
G75*
G03*
X302777064Y-71453232I-629368J-32D01*
G01*
X56263800Y-61584711D02*
G75*
G03*
X55635325Y-60956200I-628500J11D01*
G01*
X312015473Y-24383200D02*
G75*
G03*
X312643800Y-23754873I27J628300D01*
G01*
X99602379Y-100507900D02*
G75*
G03*
X100231300Y-99878979I21J628900D01*
G01*
X71714554Y-24258100D02*
G75*
G03*
X72343800Y-23628854I46J629200D01*
G01*
X301134399Y-61946839D02*
G75*
G03*
X300143773Y-60956201I-990599J39D01*
G01*
X285145600Y-61629432D02*
G75*
G03*
X285774300Y-62258100I628700J32D01*
G01*
X94215300Y-23756637D02*
G75*
G03*
X95318886Y-24860200I1103600J37D01*
G01*
X282365100Y-61898049D02*
G75*
G03*
X281423330Y-60956200I-941800J49D01*
G01*
X75085500Y-61584526D02*
G75*
G03*
X74457230Y-60956200I-628300J26D01*
G01*
X245335522Y-61033700D02*
G75*
G03*
X244341900Y-62027322I-22J-993600D01*
G01*
X176401500Y-81285061D02*
G75*
G03*
X177030724Y-81914300I629200J-39D01*
G01*
X264729698Y-77404300D02*
G75*
G03*
X264100000Y-78033998I2J-629700D01*
G01*
X277435300Y-78034230D02*
G75*
G03*
X276805402Y-77404300I-629900J30D01*
G01*
X111625648Y-60956200D02*
G75*
G03*
X110643800Y-61938038I-48J-981800D01*
G01*
X78300900Y-23628945D02*
G75*
G03*
X78930150Y-24258100I629200J45D01*
G01*
X242413236Y-24383200D02*
G75*
G03*
X241433200Y-25363236I-36J-980000D01*
G01*
X60501824Y-24258100D02*
G75*
G03*
X59440000Y-25319911I-24J-1061800D01*
G01*
X40730558Y-24258100D02*
G75*
G03*
X39709400Y-25279258I42J-1021200D01*
G01*
X169479091Y-97060500D02*
G75*
G03*
X168850000Y-97689591I9J-629100D01*
G01*
X244341992Y-70906952D02*
G75*
G03*
X244969456Y-71534508I627508J-48D01*
G01*
X59440000Y-25190342D02*
G75*
G03*
X58507758Y-24258100I-932200J42D01*
G01*
X259146045Y-62666600D02*
G75*
G03*
X259775000Y-62037645I-45J629000D01*
G01*
X36171800Y-61628168D02*
G75*
G03*
X36801719Y-62258100I629900J-32D01*
G01*
X234915600Y-39936671D02*
G75*
G03*
X235435062Y-40456200I519500J-29D01*
G01*
X97680615Y-24860200D02*
G75*
G03*
X96683500Y-25857315I-15J-997100D01*
G01*
X67979200Y-78075704D02*
G75*
G03*
X68609692Y-78706200I630500J4D01*
G01*
X292768700Y-39828383D02*
G75*
G03*
X293396545Y-40456200I627800J-17D01*
G01*
X179859400Y-82896290D02*
G75*
G03*
X178877410Y-81914300I-982000J-10D01*
G01*
X279758534Y-39134600D02*
G75*
G03*
X279130600Y-39762534I-34J-627900D01*
G01*
X292964844Y-24383200D02*
G75*
G03*
X293593800Y-23754244I-44J629000D01*
G01*
X280597100Y-23585363D02*
G75*
G03*
X279967870Y-22956200I-629200J-37D01*
G01*
X158259370Y-52354431D02*
G75*
G03*
X158887099Y-52982130I627730J31D01*
G01*
X150428243Y-97060500D02*
G75*
G03*
X149800000Y-97688743I-43J-628200D01*
G01*
X154372918Y-81914300D02*
G75*
G03*
X155000000Y-81287218I-18J627100D01*
G01*
X117140000Y-40456200D02*
G75*
G03*
X117143800Y-40452400I0J3800D01*
G01*
X163170600Y-97690417D02*
G75*
G03*
X162540694Y-97060500I-629900J17D01*
G01*
X93280253Y-75414100D02*
G75*
G03*
X92650000Y-76044253I-53J-630200D01*
G01*
X268670836Y-100507900D02*
G75*
G03*
X269300000Y-99878736I-36J629200D01*
G01*
X218666913Y-100507900D02*
G75*
G03*
X219293800Y-99881013I-13J626900D01*
G01*
X178869888Y-97060500D02*
G75*
G03*
X179859400Y-96071034I12J989500D01*
G01*
X299836000Y-23585068D02*
G75*
G03*
X299207082Y-22956200I-628900J-32D01*
G01*
X96683509Y-37420476D02*
G75*
G03*
X97310779Y-38047791I627291J-24D01*
G01*
X161095500Y-43202029D02*
G75*
G03*
X160505905Y-42612400I-589600J29D01*
G01*
X110643800Y-61937394D02*
G75*
G03*
X109662606Y-60956200I-981200J-6D01*
G01*
X240725000Y-60956200D02*
G75*
G03*
X240802500Y-61033700I77500J0D01*
G01*
X220410700Y-78077656D02*
G75*
G03*
X221039292Y-78706200I628600J56D01*
G01*
X93946800Y-63246147D02*
G75*
G03*
X92958753Y-62258100I-988000J47D01*
G01*
X305079700Y-61792541D02*
G75*
G03*
X305545293Y-62258100I465600J41D01*
G01*
X109814876Y-24860200D02*
G75*
G03*
X110443800Y-24231276I24J628900D01*
G01*
X161160200Y-81289110D02*
G75*
G03*
X161785378Y-81914300I625200J10D01*
G01*
X136035791Y-95808814D02*
G75*
G03*
X135404489Y-95177509I-631291J14D01*
G01*
X226226127Y-75888617D02*
G75*
G03*
X225596117Y-76518560I-27J-629983D01*
G01*
X113127600Y-61628554D02*
G75*
G03*
X113757089Y-62258100I629500J-46D01*
G01*
X113127500Y-61587696D02*
G75*
G03*
X112496023Y-60956200I-631500J-4D01*
G01*
X255212900Y-99839856D02*
G75*
G03*
X254579324Y-99206200I-633600J56D01*
G01*
X283385190Y-60956279D02*
G75*
G03*
X282365179Y-61976255I10J-1020021D01*
G01*
X96683500Y-25836664D02*
G75*
G03*
X95707036Y-24860200I-976500J-36D01*
G01*
X245680382Y-77404300D02*
G75*
G03*
X245050000Y-78034682I18J-630400D01*
G01*
X145602700Y-36384775D02*
G75*
G03*
X144973532Y-35755600I-629200J-25D01*
G01*
X257957000Y-23753766D02*
G75*
G03*
X258586370Y-24383200I629400J-34D01*
G01*
X255213000Y-99878113D02*
G75*
G03*
X255842705Y-100507900I629700J-87D01*
G01*
X90937600Y-61663050D02*
G75*
G03*
X90230696Y-60956200I-706900J-50D01*
G01*
X90764363Y-24258100D02*
G75*
G03*
X91393800Y-23628663I37J629400D01*
G01*
X260483200Y-25389697D02*
G75*
G03*
X259476703Y-24383200I-1006500J-3D01*
G01*
X22521487Y-39154300D02*
G75*
G03*
X21887500Y-39788287I13J-634000D01*
G01*
X75085500Y-61628720D02*
G75*
G03*
X75714936Y-62258100I629400J20D01*
G01*
X245742946Y-77404272D02*
G75*
G03*
X246802472Y-76344792I54J1059472D01*
G01*
X92362753Y-39823010D02*
G75*
G03*
X91733371Y-39193647I-629353J10D01*
G01*
X192152100Y-44547122D02*
G75*
G03*
X191519341Y-43914300I-632800J22D01*
G01*
X318678232Y-62258100D02*
G75*
G03*
X319306300Y-61630032I-32J628100D01*
G01*
X128177940Y-100507900D02*
G75*
G03*
X128806300Y-99879540I-40J628400D01*
G01*
X87110400Y-78078755D02*
G75*
G03*
X87737937Y-78706200I627500J55D01*
G01*
X56414100Y-23629389D02*
G75*
G03*
X57042772Y-24258100I628700J-11D01*
G01*
X180844536Y-81914300D02*
G75*
G03*
X179859400Y-82899427I-36J-985100D01*
G01*
X40939978Y-35677842D02*
G75*
G03*
X40619041Y-34902976I-1095778J42D01*
G01*
X34010100Y-39828841D02*
G75*
G03*
X34637407Y-40456200I627300J-59D01*
G01*
X118179524Y-35755600D02*
G75*
G03*
X117143800Y-36791324I-24J-1035700D01*
G01*
X28766890Y-69862510D02*
G75*
G03*
X29394210Y-69235180I10J627310D01*
G01*
X176401500Y-81242870D02*
G75*
G03*
X175771015Y-80612400I-630500J-30D01*
G01*
X273916607Y-24383200D02*
G75*
G03*
X274543800Y-23756007I-7J627200D01*
G01*
X161160200Y-81241199D02*
G75*
G03*
X160531377Y-80612400I-628800J-1D01*
G01*
X241433187Y-25369324D02*
G75*
G03*
X240447125Y-24383213I-986087J24D01*
G01*
X254864974Y-24383200D02*
G75*
G03*
X255493800Y-23754374I26J628800D01*
G01*
X239465000Y-23755043D02*
G75*
G03*
X240093249Y-24383200I628200J43D01*
G01*
X278551751Y-22956200D02*
G75*
G03*
X277562800Y-23945121I-51J-988900D01*
G01*
X34010100Y-39783767D02*
G75*
G03*
X33380659Y-39154300I-629400J67D01*
G01*
X90937600Y-61789972D02*
G75*
G03*
X91405674Y-62258100I468100J-28D01*
G01*
X297249294Y-62258100D02*
G75*
G03*
X297875000Y-61632394I6J625700D01*
G01*
X246802400Y-76490133D02*
G75*
G03*
X247716639Y-77404300I914200J33D01*
G01*
X305079700Y-61573346D02*
G75*
G03*
X304462588Y-60956200I-617100J46D01*
G01*
X298810007Y-39154300D02*
G75*
G03*
X298180600Y-39783707I-7J-629400D01*
G01*
X277562800Y-23922243D02*
G75*
G03*
X276596757Y-22956200I-966000J43D01*
G01*
X280597000Y-23754094D02*
G75*
G03*
X281226139Y-24383200I629100J-6D01*
G01*
X93318576Y-75414100D02*
G75*
G03*
X93946800Y-74785775I-76J628300D01*
G01*
X55179173Y-77404300D02*
G75*
G03*
X54550000Y-78033473I27J-629200D01*
G01*
X285145700Y-61586488D02*
G75*
G03*
X284515355Y-60956200I-630300J-12D01*
G01*
X112326932Y-77404300D02*
G75*
G03*
X113193800Y-76537432I-32J866900D01*
G01*
X98090000Y-38677952D02*
G75*
G03*
X97459848Y-38047800I-630200J-48D01*
G01*
X39709404Y-33541107D02*
G75*
G03*
X40029171Y-34313104I1091796J7D01*
G01*
X176842300Y-43243137D02*
G75*
G03*
X176211555Y-42612400I-630700J37D01*
G01*
X239441892Y-22956199D02*
G75*
G03*
X239465099Y-22932993I8J23199D01*
G01*
X56414000Y-23585637D02*
G75*
G03*
X55784592Y-22956200I-629400J37D01*
G01*
X240095194Y-62284200D02*
G75*
G03*
X240725000Y-61654369I6J629800D01*
G01*
X113193800Y-76522048D02*
G75*
G03*
X114076052Y-77404300I882300J48D01*
G01*
X261459828Y-24383200D02*
G75*
G03*
X260483200Y-25359844I-28J-976600D01*
G01*
X220626017Y-40456200D02*
G75*
G03*
X219998100Y-41084117I-17J-627900D01*
G01*
X92362800Y-39823010D02*
G75*
G03*
X92995994Y-40456200I633200J10D01*
G01*
X222530609Y-39306200D02*
G75*
G03*
X221900000Y-39936809I-9J-630600D01*
G01*
X39709400Y-25234127D02*
G75*
G03*
X38733373Y-24258100I-976000J27D01*
G01*
X34201900Y-23629002D02*
G75*
G03*
X34830998Y-24258100I629100J2D01*
G01*
X187900000Y-97689175D02*
G75*
G03*
X187271325Y-97060500I-628700J-25D01*
G01*
X23753500Y-78076906D02*
G75*
G03*
X24382800Y-78706200I629300J6D01*
G01*
X160809400Y-57774356D02*
G75*
G03*
X161811544Y-58776500I1002100J-44D01*
G01*
X240725000Y-60956200D02*
G75*
G03*
X240804000Y-61035200I79000J0D01*
G01*
X303406400Y-78077381D02*
G75*
G03*
X304035219Y-78706200I628800J-19D01*
G01*
X317224400Y-39782929D02*
G75*
G03*
X316595771Y-39154300I-628600J29D01*
G01*
X222722500Y-99835069D02*
G75*
G03*
X222093597Y-99206200I-628900J-31D01*
G01*
X258271800Y-78077349D02*
G75*
G03*
X258900621Y-78706200I628800J-51D01*
G01*
X150430559Y-58776500D02*
G75*
G03*
X149800000Y-59407059I41J-630600D01*
G01*
X207579173Y-77404300D02*
G75*
G03*
X206950000Y-78033473I27J-629200D01*
G01*
X202013700Y-99879016D02*
G75*
G03*
X202642584Y-100507900I628900J16D01*
G01*
X179859400Y-96081341D02*
G75*
G03*
X180838559Y-97060500I979200J41D01*
G01*
X192471084Y-81914300D02*
G75*
G03*
X193100000Y-81285384I16J628900D01*
G01*
X247241164Y-100507900D02*
G75*
G03*
X247868800Y-99880264I36J627600D01*
G01*
X226577298Y-75888500D02*
G75*
G03*
X227206100Y-75259748I2J628800D01*
G01*
X258271700Y-78033142D02*
G75*
G03*
X257642938Y-77404300I-628800J42D01*
G01*
X117143800Y-23585119D02*
G75*
G03*
X116514881Y-22956200I-628900J19D01*
G01*
X87110500Y-78032272D02*
G75*
G03*
X86482475Y-77404300I-628000J-28D01*
G01*
X158259400Y-43620059D02*
G75*
G03*
X157251741Y-42612400I-1007700J-41D01*
G01*
X87715023Y-62258100D02*
G75*
G03*
X88343800Y-61629323I-23J628800D01*
G01*
X239480621Y-18904116D02*
G75*
G03*
X239414729Y-18876800I-65921J-65884D01*
G01*
X68663560Y-62258100D02*
G75*
G03*
X69293800Y-61627860I40J630200D01*
G01*
X176842300Y-43284317D02*
G75*
G03*
X177472275Y-43914300I630000J17D01*
G01*
X214765300Y-18876800D02*
X214765300Y-18846000D01*
X219725000Y-18876800D02*
X214765300Y-18876800D01*
D20*
X34201900Y-21456200D02*
X40705418Y-21456200D01*
X48093800Y-22956200D02*
X41624071Y-22956200D01*
X41164450Y-22496579D02*
X41164450Y-21915232D01*
X41164500Y-22496579D02*
G75*
G03*
X41624071Y-22956200I459600J-21D01*
G01*
X41164400Y-21915232D02*
G75*
G03*
X40705418Y-21456200I-459000J32D01*
G01*
D21*
X59750000Y-80206200D02*
X59750000Y-81392628D01*
X155000000Y-62285868D02*
X155000000Y-61612400D01*
X256972034Y-81508100D02*
X268670418Y-81508100D01*
X103580094Y-80838051D02*
X103580094Y-80883821D01*
X255087044Y-96404300D02*
X257365956Y-96404300D01*
X169478389Y-77810500D02*
X187269889Y-77810500D01*
X216475000Y-59456200D02*
X216475000Y-58050563D01*
X163950000Y-27500000D02*
X150779194Y-27500000D01*
X64093800Y-59456200D02*
X64093800Y-58780627D01*
X232767900Y-42585352D02*
X232767900Y-43368554D01*
X254575000Y-59456200D02*
X254575000Y-58783579D01*
X102660762Y-43258100D02*
X84867602Y-43258100D01*
X314106300Y-58784159D02*
X314106300Y-59456200D01*
X97292730Y-59456200D02*
X102193800Y-59456200D01*
X236635947Y-80206200D02*
X231200000Y-80206200D01*
X177924695Y-62893983D02*
X177924686Y-62241524D01*
X23500000Y-57898100D02*
X23500000Y-59343700D01*
X110578324Y-58154300D02*
X115185931Y-58154300D01*
X204588400Y-62687200D02*
X204618400Y-62687200D01*
X99131923Y-20154300D02*
X86824150Y-20154300D01*
X121759186Y-81508100D02*
X135320461Y-81508100D01*
X288393800Y-21456200D02*
X288393800Y-20783690D01*
X53684906Y-58154300D02*
X57745892Y-58154300D01*
X298280600Y-57175795D02*
X298280600Y-57183090D01*
X48093800Y-20783185D02*
X48093800Y-21456200D01*
X309983224Y-42584165D02*
X309983222Y-42628709D01*
X59001893Y-59456200D02*
X64093800Y-59456200D01*
X263696725Y-20826163D02*
X263696727Y-20783210D01*
X253509400Y-89794684D02*
X253509400Y-81190677D01*
X178513960Y-41282052D02*
X178523612Y-41272400D01*
X214089551Y-44069200D02*
X216843613Y-44069200D01*
X168850000Y-40439122D02*
X168850000Y-41112400D01*
X296533848Y-80206200D02*
X296281653Y-80206190D01*
X53684906Y-58154300D02*
X51275726Y-58154300D01*
X99760636Y-20783018D02*
X99760637Y-20827449D01*
X256059400Y-95425632D02*
X256059400Y-95431944D01*
X104204373Y-81508100D02*
X116273486Y-81508100D01*
X163950000Y-27500000D02*
X165600849Y-27500000D01*
X298549454Y-80833523D02*
X298549454Y-80888540D01*
X149800000Y-28497404D02*
X149800000Y-25838064D01*
X300343800Y-106312500D02*
X295925083Y-106312500D01*
X81210402Y-21456200D02*
X86193800Y-21456200D01*
X282640698Y-20825450D02*
X282640699Y-20784188D01*
X177295554Y-61612400D02*
X174050000Y-61612400D01*
X74228662Y-96404300D02*
X87419910Y-96404300D01*
X296533848Y-80206200D02*
X297922131Y-80206200D01*
X180092534Y-100492787D02*
X180092533Y-100533721D01*
X51202392Y-43258100D02*
X49480344Y-43258100D01*
X159844725Y-77810500D02*
X150427421Y-77810500D01*
X28180500Y-41956200D02*
X27087500Y-41956200D01*
X109438100Y-44251059D02*
X109438100Y-44241283D01*
X28180500Y-50432357D02*
X28180500Y-41956200D01*
X213460365Y-58470094D02*
X213460365Y-44698386D01*
X197095018Y-61612400D02*
X193100000Y-61612400D01*
X284330600Y-42628557D02*
X284330600Y-41956200D01*
X105872812Y-20154300D02*
X149169702Y-20154300D01*
X213460365Y-58470094D02*
X213460365Y-58471296D01*
X237892230Y-81508100D02*
X249620983Y-81508100D01*
X204598100Y-62910890D02*
X204617400Y-62891590D01*
X65190000Y-42630029D02*
X65190000Y-41956200D01*
X105243800Y-21456200D02*
X105243800Y-20783312D01*
X21962500Y-57269385D02*
X21962500Y-51691005D01*
X32536146Y-42585500D02*
X32536146Y-42646351D01*
X215409400Y-81188537D02*
X215409400Y-81162312D01*
X231243800Y-21456200D02*
X231243800Y-20780365D01*
X212267642Y-59456200D02*
X212474301Y-59456193D01*
X253509400Y-81190677D02*
X253509400Y-81187546D01*
X51275726Y-58154300D02*
X45673308Y-58154300D01*
X257365956Y-96404300D02*
X263471989Y-96404300D01*
X115818152Y-58825797D02*
X115818152Y-58786518D01*
X33165195Y-43275400D02*
X45511054Y-43275400D01*
X193100000Y-100536782D02*
X193100000Y-99862400D01*
X207084853Y-89416381D02*
X207084853Y-94257637D01*
X264100000Y-97706200D02*
X264100000Y-97032311D01*
X252466727Y-80206200D02*
X252524949Y-80206202D01*
X156538594Y-61612400D02*
X155000000Y-61612400D01*
X88049602Y-97076923D02*
X88049600Y-97033966D01*
X97850000Y-80879305D02*
X97850000Y-80206200D01*
X178513960Y-41282052D02*
X178513933Y-40439858D01*
X67143800Y-21456200D02*
X67143800Y-20784044D01*
X43859200Y-83019028D02*
X43859200Y-80835123D01*
X246230600Y-41956200D02*
X247886952Y-41956200D01*
X177884554Y-39810500D02*
X169478622Y-39810500D01*
X163513213Y-77810500D02*
X159844725Y-77810500D01*
X245284979Y-21456200D02*
X250293800Y-21456200D01*
X250293800Y-21456200D02*
X250293800Y-20783745D01*
X60555766Y-20154300D02*
X48722685Y-20154300D01*
X43859200Y-80835123D02*
X43859204Y-81052419D01*
X204618400Y-62687200D02*
X204618400Y-62890590D01*
X122340000Y-41956200D02*
X122340000Y-42627778D01*
X264326734Y-21456200D02*
X269343800Y-21456200D01*
X217104198Y-57421365D02*
X231789667Y-57421365D01*
X29001900Y-21456200D02*
X29001900Y-20784204D01*
X254490746Y-80206200D02*
X255709082Y-80206200D01*
X52166400Y-44271301D02*
X52166400Y-57263626D01*
X22592905Y-51060600D02*
X27552257Y-51060600D01*
X45043800Y-58783808D02*
X45043800Y-59456200D01*
X212267642Y-59456200D02*
X214445269Y-59456200D01*
X214563951Y-88811602D02*
X207689632Y-88811602D01*
X205247315Y-59456200D02*
X212267642Y-59456200D01*
X119914213Y-80206200D02*
X116900000Y-80206200D01*
X242668800Y-97706200D02*
X242668800Y-97033300D01*
X59750000Y-80206200D02*
X64697315Y-80206200D01*
X43230277Y-80206200D02*
X33556300Y-80206200D01*
X232767900Y-43368554D02*
X232767900Y-45672634D01*
X149800000Y-41112400D02*
X149800000Y-28497404D01*
X269300000Y-80206200D02*
X274625413Y-80206200D01*
X88678905Y-97706200D02*
X95031300Y-97706200D01*
X29631804Y-20154300D02*
X41582773Y-20154300D01*
X147627185Y-62914300D02*
X154371568Y-62914300D01*
X305080031Y-41956200D02*
X307097462Y-41956200D01*
X83772382Y-58154300D02*
X96032002Y-58154300D01*
X180722700Y-101163900D02*
X192472882Y-101163900D01*
X85299726Y-81508100D02*
X97221205Y-81508100D01*
X273625000Y-58783655D02*
X273625000Y-59456200D01*
X269973208Y-20154300D02*
X282010825Y-20154300D01*
X121759186Y-81508100D02*
X121172426Y-81508100D01*
X73600000Y-97706200D02*
X73600000Y-97032962D01*
X109438100Y-44251059D02*
X109438100Y-57198718D01*
X58376113Y-58830419D02*
X58376113Y-58784522D01*
X250250000Y-80206200D02*
X252466727Y-80206200D01*
X114190115Y-97706200D02*
X123606300Y-97706200D01*
X310612580Y-43258100D02*
X321795197Y-43258100D01*
X252466727Y-80206200D02*
X254490746Y-80206200D01*
X275254372Y-80835159D02*
X275254372Y-80880575D01*
X212150000Y-80206200D02*
X214453288Y-80206200D01*
X290865545Y-43258100D02*
X302752772Y-43258100D01*
X121874308Y-58154300D02*
X146369319Y-58154300D01*
X146999200Y-58784181D02*
X146999200Y-62286315D01*
X159808258Y-62914300D02*
X157761634Y-62914300D01*
X250923245Y-20154300D02*
X263067842Y-20154300D01*
X27843800Y-106693700D02*
X43230910Y-106693700D01*
X250250000Y-80879083D02*
X250250000Y-80206200D01*
X110421283Y-43258100D02*
X107882906Y-43258100D01*
X108510597Y-58154300D02*
X108025414Y-58154300D01*
X290237273Y-42585858D02*
X290237270Y-42629786D01*
X231243800Y-21366000D02*
X216746900Y-21366000D01*
X251647300Y-58826157D02*
X251647300Y-44236609D01*
X216698447Y-80206200D02*
X217735281Y-80206200D01*
X84240000Y-42630498D02*
X84240000Y-41956200D01*
X105243800Y-21456200D02*
X100389405Y-21456200D01*
X299506018Y-58154300D02*
X313476441Y-58154300D01*
X102193800Y-58783109D02*
X102193800Y-59456200D01*
X217472741Y-43440072D02*
X217472741Y-25332127D01*
X264651685Y-43258100D02*
X250624861Y-43258100D01*
X110578324Y-58154300D02*
X110393706Y-58154304D01*
X193100000Y-99862400D02*
X196489734Y-99862400D01*
X65326762Y-80835647D02*
X65326762Y-80878104D01*
X288350000Y-80206200D02*
X294290151Y-80206200D01*
X166230959Y-40483204D02*
X166230959Y-28130110D01*
X248465253Y-42534536D02*
X248465253Y-42625832D01*
X271882617Y-43258100D02*
X283701057Y-43258100D01*
X78800000Y-80206200D02*
X78800000Y-80877661D01*
X288350000Y-80879632D02*
X288350000Y-80206200D01*
X155629763Y-101163900D02*
X173421057Y-101163900D01*
X204618400Y-62687200D02*
X204618400Y-60085115D01*
X283271433Y-21456200D02*
X288393800Y-21456200D01*
X232767900Y-58414384D02*
X232767900Y-58829311D01*
X303380600Y-41956200D02*
X305080031Y-41956200D01*
X162304073Y-62914300D02*
X159808258Y-62914300D01*
X227100000Y-41956200D02*
X232138748Y-41956200D01*
X116900000Y-80206200D02*
X116900000Y-80881586D01*
X210002723Y-97706200D02*
X214093800Y-97706200D01*
X122747300Y-97706200D02*
X122747300Y-82489879D01*
X95031300Y-97706200D02*
X95031300Y-97033054D01*
X64720127Y-58154300D02*
X77046870Y-58154300D01*
X269343800Y-21456200D02*
X269343800Y-20783708D01*
X59120662Y-82021966D02*
X44856262Y-82021966D01*
X211520186Y-81514900D02*
X205227017Y-81514900D01*
X48850864Y-42584857D02*
X48850861Y-42628577D01*
X284330600Y-41956200D02*
X289607578Y-41956200D01*
X299176914Y-81516000D02*
X313915683Y-81516000D01*
X53684906Y-58154300D02*
X53228137Y-58154302D01*
X77676265Y-58827554D02*
X77676265Y-58783693D01*
X218831683Y-81508100D02*
X230570731Y-81508100D01*
X168850000Y-41112400D02*
X166860155Y-41112400D01*
X298280600Y-51272863D02*
X298280600Y-57175795D01*
X305080031Y-41956200D02*
X305106433Y-41956201D01*
X197724297Y-62891590D02*
X197724292Y-62241669D01*
X67773544Y-20154300D02*
X79953353Y-20154300D01*
X255430005Y-90423920D02*
X254138636Y-90423920D01*
X42212164Y-20884791D02*
X42212164Y-20783668D01*
X265280600Y-41956200D02*
X270622362Y-41956200D01*
X307097462Y-41956200D02*
X309355253Y-41956200D01*
X294290151Y-80206200D02*
X296533848Y-80206200D01*
X289023190Y-20154300D02*
X306814026Y-20154300D01*
X232767900Y-45672634D02*
X232767900Y-56042971D01*
X168850000Y-79112400D02*
X168850000Y-78438889D01*
X178523612Y-41272400D02*
X187513726Y-41272400D01*
X255204279Y-58154300D02*
X272995645Y-58154300D01*
X271252125Y-42585963D02*
X271252125Y-42627608D01*
X256059400Y-95425632D02*
X256059400Y-91053315D01*
X246230600Y-41956200D02*
X246230600Y-43733888D01*
X120543340Y-80879003D02*
X120543340Y-80835316D01*
X256339220Y-80836338D02*
X256339220Y-80875286D01*
X216698447Y-80206200D02*
X216391784Y-80206189D01*
X231869865Y-20154300D02*
X244026521Y-20154300D01*
X295296900Y-105684317D02*
X295296900Y-81018682D01*
X86193800Y-20784650D02*
X86193800Y-21456200D01*
X23612500Y-59456200D02*
X22421600Y-59456200D01*
X214093800Y-95514195D02*
X214093800Y-97706200D01*
X160809400Y-76834650D02*
X160809400Y-63896924D01*
X204598100Y-80885983D02*
X204598100Y-62910890D01*
X23500000Y-57898100D02*
X22591215Y-57898100D01*
X135950000Y-80878561D02*
X135950000Y-80206200D01*
X78304913Y-59456200D02*
X83143800Y-59456200D01*
X252277343Y-59456200D02*
X254575000Y-59456200D01*
X232767900Y-56042971D02*
X232767900Y-58414384D01*
X212150000Y-80206200D02*
X212150000Y-80885086D01*
X168850000Y-79112400D02*
X164768180Y-79112400D01*
X305522547Y-50643941D02*
X298909522Y-50643941D01*
X121243800Y-59456200D02*
X121243800Y-58784808D01*
X113560462Y-97076570D02*
X113560460Y-97035033D01*
X187900000Y-78440611D02*
X187900000Y-79112400D01*
X161791997Y-62914309D02*
X162304073Y-62914300D01*
X116448558Y-59456200D02*
X121243800Y-59456200D01*
X27087500Y-41956200D02*
X31906825Y-41956200D01*
X162304073Y-62914300D02*
X177904378Y-62914300D01*
X204618400Y-62890590D02*
X204617400Y-62891590D01*
X299506018Y-58154300D02*
X297309390Y-58154300D01*
X275881897Y-81508100D02*
X287721532Y-81508100D01*
X149800000Y-20784598D02*
X149800000Y-25838064D01*
X231243800Y-21456200D02*
X231243800Y-21366000D01*
X257365956Y-96404300D02*
X257038024Y-96404289D01*
X103290000Y-41956200D02*
X103290000Y-42628862D01*
X46140000Y-41956200D02*
X48222210Y-41956200D01*
X314543800Y-80887883D02*
X314543800Y-80206200D01*
X110578324Y-58154300D02*
X108025414Y-58154300D01*
X265280600Y-41956200D02*
X265280600Y-42629185D01*
X299506018Y-58154300D02*
X299259123Y-58154304D01*
X215409400Y-81188537D02*
X215409400Y-87966153D01*
X216746900Y-21366000D02*
X214765300Y-21366000D01*
X107253917Y-42629063D02*
X107253920Y-42585949D01*
X149800000Y-79112400D02*
X149800000Y-78437921D01*
X214765266Y-24071285D02*
X214765266Y-21365959D01*
X123606300Y-97706200D02*
X122747300Y-97706200D01*
X46140000Y-42646454D02*
X46140000Y-41956200D01*
X84671359Y-80837175D02*
X84671359Y-80879733D01*
X96662929Y-58826391D02*
X96662930Y-58785235D01*
X216840775Y-24700161D02*
X215394142Y-24700161D01*
X157225096Y-62377762D02*
X157225096Y-62298902D01*
X292675000Y-58782798D02*
X292675000Y-59456200D01*
X155000000Y-99862400D02*
X155000000Y-100534137D01*
X106624176Y-41956200D02*
X103290000Y-41956200D01*
X51202392Y-43258100D02*
X53693515Y-43258100D01*
X243297800Y-96404300D02*
X255087044Y-96404300D01*
X269300000Y-80878518D02*
X269300000Y-80206200D01*
X233394789Y-59456200D02*
X235525000Y-59456200D01*
X78800000Y-80206200D02*
X84040384Y-80206200D01*
X214445269Y-59456200D02*
X216475000Y-59456200D01*
X67143800Y-21456200D02*
X61813079Y-21456200D01*
X53693515Y-43258100D02*
X64561929Y-43258100D01*
X174050000Y-99862400D02*
X179462147Y-99862400D01*
X218233028Y-80703947D02*
X218233028Y-80909445D01*
X322424400Y-42628897D02*
X322424400Y-41956200D01*
X306148918Y-42904744D02*
X306148918Y-50017570D01*
X307443800Y-20784074D02*
X307443800Y-21456200D01*
X97850000Y-80206200D02*
X102948243Y-80206200D01*
X303380600Y-42630272D02*
X303380600Y-41956200D01*
X65956758Y-81508100D02*
X78169561Y-81508100D01*
X245601988Y-44362500D02*
X233758319Y-44362500D01*
X231200000Y-80878831D02*
X231200000Y-80206200D01*
X107882906Y-43258100D02*
X108445147Y-43258102D01*
X83143800Y-59456200D02*
X83143800Y-58782882D01*
X42842032Y-21514684D02*
X48035316Y-21514684D01*
X160809400Y-76834650D02*
X160809400Y-76845825D01*
X214453288Y-80206200D02*
X216698447Y-80206200D01*
X108025414Y-58154300D02*
X102822609Y-58154300D01*
X232767908Y-56443102D02*
X232767900Y-56042971D01*
X95660054Y-96404300D02*
X112929702Y-96404300D01*
X43859200Y-106065410D02*
X43859200Y-83019028D01*
X297309390Y-58154300D02*
X293303498Y-58154300D01*
X207711516Y-94884300D02*
X213463905Y-94884300D01*
X249097521Y-43258100D02*
X250624861Y-43258100D01*
X174050000Y-99862400D02*
X174050000Y-100534957D01*
X121709678Y-43258100D02*
X110421283Y-43258100D01*
X113560400Y-97076570D02*
G75*
G03*
X114190115Y-97706200I629700J70D01*
G01*
X269973208Y-20154300D02*
G75*
G03*
X269343800Y-20783708I-8J-629400D01*
G01*
X88049600Y-97076923D02*
G75*
G03*
X88678905Y-97706200I629300J23D01*
G01*
X215409400Y-81162312D02*
G75*
G03*
X214453288Y-80206200I-956100J12D01*
G01*
X255087044Y-96404300D02*
G75*
G03*
X256059400Y-95431944I-44J972400D01*
G01*
X107253900Y-42585949D02*
G75*
G03*
X106624176Y-41956200I-629700J49D01*
G01*
X102822609Y-58154300D02*
G75*
G03*
X102193800Y-58783109I-9J-628800D01*
G01*
X164138800Y-78436111D02*
G75*
G03*
X163513213Y-77810500I-625600J11D01*
G01*
X166231000Y-40483204D02*
G75*
G03*
X166860155Y-41112400I629200J4D01*
G01*
X113560500Y-97035033D02*
G75*
G03*
X112929702Y-96404300I-630800J-67D01*
G01*
X177924700Y-62241524D02*
G75*
G03*
X177295554Y-61612400I-629100J24D01*
G01*
X110421283Y-43258100D02*
G75*
G03*
X109438100Y-44241283I17J-983200D01*
G01*
X51275726Y-58154300D02*
G75*
G03*
X52166400Y-57263626I-26J890700D01*
G01*
X32536200Y-42646351D02*
G75*
G03*
X33165195Y-43275400I629000J-49D01*
G01*
X237265700Y-80835962D02*
G75*
G03*
X236635947Y-80206200I-629800J-38D01*
G01*
X149800000Y-20784598D02*
G75*
G03*
X149169702Y-20154300I-630300J-2D01*
G01*
X103580100Y-80883821D02*
G75*
G03*
X104204373Y-81508100I624300J21D01*
G01*
X309983300Y-42584165D02*
G75*
G03*
X309355253Y-41956200I-628000J-35D01*
G01*
X295296900Y-81212949D02*
G75*
G03*
X294290151Y-80206200I-1006700J49D01*
G01*
X177904378Y-62914295D02*
G75*
G03*
X177924695Y-62893983I22J20295D01*
G01*
X248465300Y-42534536D02*
G75*
G03*
X247886952Y-41956200I-578300J36D01*
G01*
X263696700Y-20783210D02*
G75*
G03*
X263067842Y-20154300I-628900J10D01*
G01*
X58376100Y-58784522D02*
G75*
G03*
X57745892Y-58154300I-630200J22D01*
G01*
X212474301Y-59456165D02*
G75*
G03*
X213460365Y-58470094I-1J986065D01*
G01*
X84240000Y-42630498D02*
G75*
G03*
X84867602Y-43258100I627600J-2D01*
G01*
X287721532Y-81508100D02*
G75*
G03*
X288350000Y-80879632I-32J628500D01*
G01*
X121709678Y-43258100D02*
G75*
G03*
X122340000Y-42627778I22J630300D01*
G01*
X252625809Y-43258100D02*
G75*
G03*
X251647300Y-44236609I-9J-978500D01*
G01*
X295296900Y-105684317D02*
G75*
G03*
X295925083Y-106312500I628200J17D01*
G01*
X309983200Y-42628709D02*
G75*
G03*
X310612580Y-43258100I629400J9D01*
G01*
X42212200Y-20783668D02*
G75*
G03*
X41582773Y-20154300I-629400J-32D01*
G01*
X293303498Y-58154300D02*
G75*
G03*
X292675000Y-58782798I2J-628500D01*
G01*
X313915683Y-81516000D02*
G75*
G03*
X314543800Y-80887883I17J628100D01*
G01*
X275254400Y-80835159D02*
G75*
G03*
X274625413Y-80206200I-629000J-41D01*
G01*
X45673308Y-58154300D02*
G75*
G03*
X45043800Y-58783808I-8J-629500D01*
G01*
X302752772Y-43258100D02*
G75*
G03*
X303380600Y-42630272I28J627800D01*
G01*
X48035316Y-21514700D02*
G75*
G03*
X48093800Y-21456200I-16J58500D01*
G01*
X248465200Y-42625832D02*
G75*
G03*
X249097521Y-43258100I632300J32D01*
G01*
X282640700Y-20825450D02*
G75*
G03*
X283271433Y-21456200I630700J-50D01*
G01*
X88049600Y-97033966D02*
G75*
G03*
X87419910Y-96404300I-629700J-34D01*
G01*
X245601988Y-44362500D02*
G75*
G03*
X246230600Y-43733888I12J628600D01*
G01*
X214563951Y-88811600D02*
G75*
G03*
X215409400Y-87966153I49J845400D01*
G01*
X27552257Y-51060600D02*
G75*
G03*
X28180500Y-50432357I43J628200D01*
G01*
X207084800Y-94257637D02*
G75*
G03*
X207711516Y-94884300I626700J37D01*
G01*
X216843613Y-44069241D02*
G75*
G03*
X217472741Y-43440072I-13J629141D01*
G01*
X43230910Y-106693700D02*
G75*
G03*
X43859200Y-106065410I-10J628300D01*
G01*
X77676300Y-58783693D02*
G75*
G03*
X77046870Y-58154300I-629400J-7D01*
G01*
X146999200Y-58784181D02*
G75*
G03*
X146369319Y-58154300I-629900J-19D01*
G01*
X197724300Y-62241669D02*
G75*
G03*
X197095018Y-61612400I-629300J-31D01*
G01*
X96662900Y-58826391D02*
G75*
G03*
X97292730Y-59456200I629800J-9D01*
G01*
X48850800Y-42628577D02*
G75*
G03*
X49480344Y-43258100I629500J-23D01*
G01*
X314106300Y-58784159D02*
G75*
G03*
X313476441Y-58154300I-629900J-41D01*
G01*
X123729079Y-81508100D02*
G75*
G03*
X122747300Y-82489879I21J-981800D01*
G01*
X231789667Y-57421308D02*
G75*
G03*
X232767908Y-56443102I33J978208D01*
G01*
X290237200Y-42629786D02*
G75*
G03*
X290865545Y-43258100I628300J-14D01*
G01*
X187900000Y-78440611D02*
G75*
G03*
X187269889Y-77810500I-630100J11D01*
G01*
X217472739Y-25332127D02*
G75*
G03*
X216840775Y-24700161I-631939J27D01*
G01*
X251647300Y-44280539D02*
G75*
G03*
X250624861Y-43258100I-1022400J39D01*
G01*
X107253900Y-42629063D02*
G75*
G03*
X107882906Y-43258100I629000J-37D01*
G01*
X21962500Y-57269385D02*
G75*
G03*
X22591215Y-57898100I628700J-15D01*
G01*
X232767935Y-58414384D02*
G75*
G03*
X231774881Y-57421365I-993035J-16D01*
G01*
X204598100Y-80885983D02*
G75*
G03*
X205227017Y-81514900I628900J-17D01*
G01*
X244655200Y-20782980D02*
G75*
G03*
X244026521Y-20154300I-628700J-20D01*
G01*
X164138800Y-78483055D02*
G75*
G03*
X164768180Y-79112400I629400J55D01*
G01*
X64720127Y-58154300D02*
G75*
G03*
X64093800Y-58780627I-27J-626300D01*
G01*
X180092500Y-100492787D02*
G75*
G03*
X179462147Y-99862400I-630400J-13D01*
G01*
X249620983Y-81508100D02*
G75*
G03*
X250250000Y-80879083I17J629000D01*
G01*
X159844725Y-77810500D02*
G75*
G03*
X160809400Y-76845825I-25J964700D01*
G01*
X150797404Y-27500000D02*
G75*
G03*
X149800000Y-28497404I-4J-997400D01*
G01*
X83772382Y-58154300D02*
G75*
G03*
X83143800Y-58782882I18J-628600D01*
G01*
X271252100Y-42627608D02*
G75*
G03*
X271882617Y-43258100I630500J8D01*
G01*
X275254400Y-80880575D02*
G75*
G03*
X275881897Y-81508100I627500J-25D01*
G01*
X217104198Y-57421400D02*
G75*
G03*
X216475000Y-58050563I2J-629200D01*
G01*
X256059380Y-91053315D02*
G75*
G03*
X255430005Y-90423920I-629380J15D01*
G01*
X298909522Y-50643900D02*
G75*
G03*
X298280600Y-51272863I-22J-628900D01*
G01*
X74228662Y-96404300D02*
G75*
G03*
X73600000Y-97032962I38J-628700D01*
G01*
X307443800Y-20784074D02*
G75*
G03*
X306814026Y-20154300I-629800J-26D01*
G01*
X150427421Y-77810500D02*
G75*
G03*
X149800000Y-78437921I-21J-627400D01*
G01*
X149800000Y-26520770D02*
G75*
G03*
X150779194Y-27500000I979200J-30D01*
G01*
X120543300Y-80835316D02*
G75*
G03*
X119914213Y-80206200I-629100J16D01*
G01*
X231869865Y-20154300D02*
G75*
G03*
X231243800Y-20780365I35J-626100D01*
G01*
X214765239Y-24071285D02*
G75*
G03*
X215394142Y-24700161I628861J-15D01*
G01*
X321795197Y-43258100D02*
G75*
G03*
X322424400Y-42628897I3J629200D01*
G01*
X108510597Y-58154300D02*
G75*
G03*
X109438100Y-57226797I3J927500D01*
G01*
X105872812Y-20154300D02*
G75*
G03*
X105243800Y-20783312I-12J-629000D01*
G01*
X211520186Y-81514900D02*
G75*
G03*
X212150000Y-80885086I14J629800D01*
G01*
X230570731Y-81508100D02*
G75*
G03*
X231200000Y-80878831I-31J629300D01*
G01*
X218233000Y-80909445D02*
G75*
G03*
X218831683Y-81508100I598700J45D01*
G01*
X65326700Y-80835647D02*
G75*
G03*
X64697315Y-80206200I-629400J47D01*
G01*
X232767900Y-43368554D02*
G75*
G03*
X233761846Y-44362500I993900J-46D01*
G01*
X160809400Y-63915442D02*
G75*
G03*
X159808258Y-62914300I-1001100J42D01*
G01*
X61183500Y-20826671D02*
G75*
G03*
X61813079Y-21456200I629600J71D01*
G01*
X297309390Y-58154300D02*
G75*
G03*
X298280600Y-57183090I10J971200D01*
G01*
X307097462Y-41956118D02*
G75*
G03*
X306148918Y-42904744I38J-948582D01*
G01*
X244655200Y-20826422D02*
G75*
G03*
X245284979Y-21456200I629800J22D01*
G01*
X298549400Y-80888540D02*
G75*
G03*
X299176914Y-81516000I627500J40D01*
G01*
X169478389Y-77810500D02*
G75*
G03*
X168850000Y-78438889I11J-628400D01*
G01*
X67773544Y-20154300D02*
G75*
G03*
X67143800Y-20784044I-44J-629700D01*
G01*
X53179616Y-43258100D02*
G75*
G03*
X52166400Y-44271301I-16J-1013200D01*
G01*
X264100000Y-97032311D02*
G75*
G03*
X263471989Y-96404300I-628000J11D01*
G01*
X273625000Y-58783655D02*
G75*
G03*
X272995645Y-58154300I-629400J-45D01*
G01*
X43859234Y-81052419D02*
G75*
G03*
X44828770Y-82021966I969566J19D01*
G01*
X97221205Y-81508100D02*
G75*
G03*
X97850000Y-80879305I-5J628800D01*
G01*
X78169561Y-81508100D02*
G75*
G03*
X78800000Y-80877661I39J630400D01*
G01*
X251647300Y-58826157D02*
G75*
G03*
X252277343Y-59456200I630000J-43D01*
G01*
X268670418Y-81508100D02*
G75*
G03*
X269300000Y-80878518I-18J629600D01*
G01*
X116273486Y-81508100D02*
G75*
G03*
X116900000Y-80881586I14J626500D01*
G01*
X65326800Y-80878104D02*
G75*
G03*
X65956758Y-81508100I630000J4D01*
G01*
X271252200Y-42585963D02*
G75*
G03*
X270622362Y-41956200I-629800J-37D01*
G01*
X160809494Y-76834650D02*
G75*
G03*
X161785269Y-77810506I975806J-50D01*
G01*
X243297800Y-96404300D02*
G75*
G03*
X242668800Y-97033300I0J-629000D01*
G01*
X196500500Y-99873166D02*
G75*
G03*
X196489734Y-99862400I-10800J-34D01*
G01*
X121874308Y-58154300D02*
G75*
G03*
X121243800Y-58784808I-8J-630500D01*
G01*
X58376100Y-58830419D02*
G75*
G03*
X59001893Y-59456200I625800J19D01*
G01*
X157225100Y-62377762D02*
G75*
G03*
X157761634Y-62914300I536500J-38D01*
G01*
X232767900Y-42585352D02*
G75*
G03*
X232138748Y-41956200I-629200J-48D01*
G01*
X157225100Y-62298902D02*
G75*
G03*
X156538594Y-61612400I-686500J2D01*
G01*
X216391784Y-80206200D02*
G75*
G03*
X215409400Y-81188537I-84J-982300D01*
G01*
X86824150Y-20154300D02*
G75*
G03*
X86193800Y-20784650I-50J-630300D01*
G01*
X166230900Y-28130110D02*
G75*
G03*
X165600849Y-27500000I-630100J10D01*
G01*
X218233000Y-80703947D02*
G75*
G03*
X217735281Y-80206200I-497700J47D01*
G01*
X29631804Y-20154300D02*
G75*
G03*
X29001900Y-20784204I-4J-629900D01*
G01*
X173421057Y-101163900D02*
G75*
G03*
X174050000Y-100534957I43J628900D01*
G01*
X32536100Y-42585500D02*
G75*
G03*
X31906825Y-41956200I-629300J0D01*
G01*
X99760600Y-20827449D02*
G75*
G03*
X100389405Y-21456200I628800J49D01*
G01*
X214089551Y-44069165D02*
G75*
G03*
X213460365Y-44698386I-51J-629135D01*
G01*
X256059411Y-95425632D02*
G75*
G03*
X257038024Y-96404289I978689J32D01*
G01*
X99760600Y-20783018D02*
G75*
G03*
X99131923Y-20154300I-628700J18D01*
G01*
X52166400Y-44222108D02*
G75*
G03*
X51202392Y-43258100I-964000J8D01*
G01*
X61183600Y-20782025D02*
G75*
G03*
X60555766Y-20154300I-627800J-75D01*
G01*
X253509380Y-89794684D02*
G75*
G03*
X254138636Y-90423920I629220J-16D01*
G01*
X298280596Y-57175795D02*
G75*
G03*
X299259123Y-58154304I978504J-5D01*
G01*
X109438098Y-44251059D02*
G75*
G03*
X108445147Y-43258102I-992998J-41D01*
G01*
X233758319Y-44362492D02*
G75*
G03*
X232767892Y-45352953I-19J-990408D01*
G01*
X155000000Y-100534137D02*
G75*
G03*
X155629763Y-101163900I629800J37D01*
G01*
X263696700Y-20826163D02*
G75*
G03*
X264326734Y-21456200I630000J-37D01*
G01*
X180092500Y-100533721D02*
G75*
G03*
X180722700Y-101163900I630200J21D01*
G01*
X283701057Y-43258100D02*
G75*
G03*
X284330600Y-42628557I43J629500D01*
G01*
X295315582Y-81000000D02*
G75*
G03*
X295296900Y-81018682I18J-18700D01*
G01*
X52166398Y-57092569D02*
G75*
G03*
X53228137Y-58154302I1061702J-31D01*
G01*
X237265700Y-80881577D02*
G75*
G03*
X237892230Y-81508100I626500J-23D01*
G01*
X96662900Y-58785235D02*
G75*
G03*
X96032002Y-58154300I-630900J35D01*
G01*
X178514000Y-40439858D02*
G75*
G03*
X177884554Y-39810500I-629400J-42D01*
G01*
X169478622Y-39810500D02*
G75*
G03*
X168850000Y-40439122I-22J-628600D01*
G01*
X214093800Y-95514195D02*
G75*
G03*
X213463905Y-94884300I-629900J-5D01*
G01*
X210002723Y-97706237D02*
G75*
G03*
X209970637Y-97738286I-23J-32063D01*
G01*
X264651685Y-43258100D02*
G75*
G03*
X265280600Y-42629185I15J628900D01*
G01*
X59120662Y-82021900D02*
G75*
G03*
X59750000Y-81392628I38J629300D01*
G01*
X305522547Y-50644018D02*
G75*
G03*
X306148918Y-50017570I-47J626418D01*
G01*
X84671300Y-80879733D02*
G75*
G03*
X85299726Y-81508100I628400J33D01*
G01*
X80581500Y-20827317D02*
G75*
G03*
X81210402Y-21456200I628900J17D01*
G01*
X115818100Y-58786518D02*
G75*
G03*
X115185931Y-58154300I-632200J18D01*
G01*
X43859200Y-80835123D02*
G75*
G03*
X43230277Y-80206200I-628900J23D01*
G01*
X187513726Y-41272410D02*
G75*
G03*
X187900000Y-41112400I-26J546310D01*
G01*
X306148899Y-42998716D02*
G75*
G03*
X305106433Y-41956201I-1042499J16D01*
G01*
X45511054Y-43275400D02*
G75*
G03*
X46140000Y-42646454I46J628900D01*
G01*
X232767900Y-58829311D02*
G75*
G03*
X233394789Y-59456200I626900J11D01*
G01*
X95660054Y-96404300D02*
G75*
G03*
X95031300Y-97033054I46J-628800D01*
G01*
X290237300Y-42585858D02*
G75*
G03*
X289607578Y-41956200I-629700J-42D01*
G01*
X207689632Y-88811653D02*
G75*
G03*
X207084853Y-89416381I-32J-604747D01*
G01*
X253509398Y-81190677D02*
G75*
G03*
X252524949Y-80206202I-984498J-23D01*
G01*
X254490746Y-80206200D02*
G75*
G03*
X253509400Y-81187546I-46J-981300D01*
G01*
X192472882Y-101163900D02*
G75*
G03*
X193100000Y-100536782I18J627100D01*
G01*
X103580100Y-80838051D02*
G75*
G03*
X102948243Y-80206200I-631900J-49D01*
G01*
X84671400Y-80837175D02*
G75*
G03*
X84040384Y-80206200I-631000J-25D01*
G01*
X48850900Y-42584857D02*
G75*
G03*
X48222210Y-41956200I-628700J-43D01*
G01*
X44856262Y-82021900D02*
G75*
G03*
X43859200Y-83019028I38J-997100D01*
G01*
X122747300Y-82496214D02*
G75*
G03*
X121759186Y-81508100I-988100J14D01*
G01*
X77676200Y-58827554D02*
G75*
G03*
X78304913Y-59456200I628700J54D01*
G01*
X109438096Y-57198718D02*
G75*
G03*
X110393706Y-58154304I955604J18D01*
G01*
X102660762Y-43258100D02*
G75*
G03*
X103290000Y-42628862I38J629200D01*
G01*
X296281653Y-80206200D02*
G75*
G03*
X295296900Y-81190905I-53J-984700D01*
G01*
X213460400Y-58471296D02*
G75*
G03*
X214445269Y-59456200I984900J-4D01*
G01*
X298549400Y-80833523D02*
G75*
G03*
X297922131Y-80206200I-627300J23D01*
G01*
X64561929Y-43258100D02*
G75*
G03*
X65190000Y-42630029I-29J628100D01*
G01*
X289023190Y-20154300D02*
G75*
G03*
X288393800Y-20783690I10J-629400D01*
G01*
X205247315Y-59456200D02*
G75*
G03*
X204618400Y-60085115I-15J-628900D01*
G01*
X256339200Y-80836338D02*
G75*
G03*
X255709082Y-80206200I-630100J38D01*
G01*
X146999200Y-62286315D02*
G75*
G03*
X147627185Y-62914300I628000J15D01*
G01*
X22592905Y-51060600D02*
G75*
G03*
X21962500Y-51691005I-5J-630400D01*
G01*
X256339200Y-80875286D02*
G75*
G03*
X256972034Y-81508100I632800J-14D01*
G01*
X250923245Y-20154300D02*
G75*
G03*
X250293800Y-20783745I-45J-629400D01*
G01*
X120543300Y-80879003D02*
G75*
G03*
X121172426Y-81508100I629100J3D01*
G01*
X115818200Y-58825797D02*
G75*
G03*
X116448558Y-59456200I630400J-3D01*
G01*
X255204279Y-58154300D02*
G75*
G03*
X254575000Y-58783579I21J-629300D01*
G01*
X154371568Y-62914300D02*
G75*
G03*
X155000000Y-62285868I32J628400D01*
G01*
X282640700Y-20784188D02*
G75*
G03*
X282010825Y-20154300I-629900J-12D01*
G01*
X135320461Y-81508100D02*
G75*
G03*
X135950000Y-80878561I39J629500D01*
G01*
X42212116Y-20884791D02*
G75*
G03*
X42842032Y-21514684I629884J-9D01*
G01*
X48722685Y-20154300D02*
G75*
G03*
X48093800Y-20783185I15J-628900D01*
G01*
X80581600Y-20782523D02*
G75*
G03*
X79953353Y-20154300I-628200J23D01*
G01*
X23500000Y-59343700D02*
G75*
G03*
X23612500Y-59456200I112500J0D01*
G01*
X161791997Y-62914300D02*
G75*
G03*
X160809400Y-63896924I3J-982600D01*
G01*
D20*
X199525300Y-18846000D02*
X27684547Y-18846000D01*
X27225000Y-19305547D02*
X27225000Y-22497242D01*
X29001900Y-22956200D02*
X27683958Y-22956200D01*
X27225000Y-22497242D02*
G75*
G03*
X27683958Y-22956200I459000J42D01*
G01*
X27684547Y-18846000D02*
G75*
G03*
X27225000Y-19305547I-47J-459500D01*
G01*
X60253823Y-22496754D02*
X60253823Y-21915601D01*
X67143800Y-22956200D02*
X60713269Y-22956200D01*
X53293800Y-21456200D02*
X59794422Y-21456200D01*
X60253800Y-21915601D02*
G75*
G03*
X59794422Y-21456200I-459400J1D01*
G01*
X60253900Y-22496754D02*
G75*
G03*
X60713269Y-22956200I459400J-46D01*
G01*
X79712716Y-22956200D02*
X86193800Y-22956200D01*
X72343800Y-21456200D02*
X78793620Y-21456200D01*
X79253051Y-22496560D02*
X79253020Y-21915576D01*
X79253000Y-21915576D02*
G75*
G03*
X78793620Y-21456200I-459400J-24D01*
G01*
X79253000Y-22496560D02*
G75*
G03*
X79712716Y-22956200I459700J60D01*
G01*
X105243800Y-22956200D02*
X98803200Y-22956200D01*
X98343689Y-22496689D02*
X98343689Y-21916815D01*
X91393800Y-21456200D02*
X97883074Y-21456200D01*
X98343700Y-22496689D02*
G75*
G03*
X98803200Y-22956200I459500J-11D01*
G01*
X98343700Y-21916815D02*
G75*
G03*
X97883074Y-21456200I-460600J15D01*
G01*
X146847200Y-21915823D02*
X146847200Y-42153008D01*
X147306592Y-42612400D02*
X149800000Y-42612400D01*
X110443800Y-21456200D02*
X146387577Y-21456200D01*
X146847200Y-21915823D02*
G75*
G03*
X146387577Y-21456200I-459600J23D01*
G01*
X146847200Y-42153008D02*
G75*
G03*
X147306592Y-42612400I459400J8D01*
G01*
X162329852Y-42612400D02*
X168850000Y-42612400D01*
X161870176Y-41572129D02*
X161870164Y-42152703D01*
X155000000Y-41112400D02*
X161410458Y-41112400D01*
X161870200Y-41572129D02*
G75*
G03*
X161410458Y-41112400I-459700J29D01*
G01*
X161870200Y-42152703D02*
G75*
G03*
X162329852Y-42612400I459700J3D01*
G01*
X174050000Y-41112400D02*
X177096475Y-41112400D01*
X187900000Y-42612400D02*
X178015832Y-42612400D01*
X174050000Y-41112400D02*
X174050000Y-41169726D01*
X177555916Y-42152484D02*
X177555916Y-41571841D01*
X177555900Y-41571841D02*
G75*
G03*
X177096475Y-41112400I-459400J41D01*
G01*
X177555900Y-42152484D02*
G75*
G03*
X178015832Y-42612400I459900J-16D01*
G01*
X195336333Y-46344200D02*
X195417904Y-46344200D01*
X193100000Y-41112400D02*
X194418254Y-41112400D01*
X198792597Y-53686377D02*
X198792597Y-59655428D01*
X198335625Y-60112400D02*
X193100000Y-60112400D01*
X195876900Y-46803196D02*
X195876900Y-52768145D01*
X196336155Y-53227400D02*
X198333620Y-53227400D01*
X194876900Y-41571046D02*
X194876900Y-45884767D01*
X195876900Y-46803196D02*
G75*
G03*
X195417904Y-46344200I-459000J-4D01*
G01*
X198335625Y-60112397D02*
G75*
G03*
X198792597Y-59655428I-25J456997D01*
G01*
X194876900Y-45884767D02*
G75*
G03*
X195336333Y-46344200I459400J-33D01*
G01*
X198792600Y-53686377D02*
G75*
G03*
X198333620Y-53227400I-459000J-23D01*
G01*
X194876900Y-41571046D02*
G75*
G03*
X194418254Y-41112400I-458600J46D01*
G01*
X195876900Y-52768145D02*
G75*
G03*
X196336155Y-53227400I459300J45D01*
G01*
X184169211Y-61612400D02*
X187900000Y-61612400D01*
X179673242Y-60075273D02*
X174087127Y-60075273D01*
X183710073Y-60075273D02*
X183710054Y-61153235D01*
X174087127Y-60075300D02*
G75*
G03*
X174050000Y-60112400I-27J-37100D01*
G01*
X183710000Y-61153235D02*
G75*
G03*
X184169211Y-61612400I459200J35D01*
G01*
X162021670Y-60571897D02*
X162021670Y-61153270D01*
X155000000Y-60112400D02*
X161562173Y-60112400D01*
X168850000Y-61612400D02*
X162480800Y-61612400D01*
X162021700Y-60571897D02*
G75*
G03*
X161562173Y-60112400I-459500J-3D01*
G01*
X162021700Y-61153270D02*
G75*
G03*
X162480800Y-61612400I459100J-30D01*
G01*
X149800000Y-61612400D02*
X148482047Y-61612400D01*
X133000878Y-40549032D02*
X133086268Y-40634422D01*
X133086268Y-40634422D02*
X133146645Y-40739004D01*
X133179100Y-40916029D02*
X133179100Y-57120582D01*
X132719271Y-40456200D02*
X132779651Y-40457405D01*
X122340000Y-40456200D02*
X132719271Y-40456200D01*
X132896296Y-40488655D02*
X133000878Y-40549032D01*
X148023100Y-58038985D02*
X148023100Y-61153453D01*
X133637818Y-57579300D02*
X147563415Y-57579300D01*
X133146645Y-40739004D02*
X133177895Y-40855649D01*
X133177895Y-40855649D02*
X133179100Y-40916029D01*
X132779651Y-40457405D02*
X132896296Y-40488655D01*
X148023100Y-58038985D02*
G75*
G03*
X147563415Y-57579300I-459700J-15D01*
G01*
X148023100Y-61153453D02*
G75*
G03*
X148482047Y-61612400I458900J-47D01*
G01*
X133179100Y-57120582D02*
G75*
G03*
X133637818Y-57579300I458700J-18D01*
G01*
X117140000Y-41956200D02*
X110734331Y-41956200D01*
X110275155Y-41497024D02*
X110275155Y-40915096D01*
X103290000Y-40456200D02*
X109816259Y-40456200D01*
X110275100Y-41497024D02*
G75*
G03*
X110734331Y-41956200I459200J24D01*
G01*
X110275200Y-40915096D02*
G75*
G03*
X109816259Y-40456200I-458900J-4D01*
G01*
X91693152Y-41956200D02*
X98090000Y-41956200D01*
X91233618Y-41496668D02*
X91233615Y-40915872D01*
X84240000Y-40456200D02*
X90773941Y-40456200D01*
X91233700Y-41496668D02*
G75*
G03*
X91693152Y-41956200I459500J-32D01*
G01*
X91233600Y-40915872D02*
G75*
G03*
X90773941Y-40456200I-459700J-28D01*
G01*
X78540000Y-41956200D02*
X79040000Y-41956200D01*
X71855361Y-54137042D02*
X78306683Y-54137042D01*
X71395500Y-40915411D02*
X71395500Y-53677181D01*
X78765000Y-42231200D02*
X78765000Y-53678725D01*
X65190000Y-40456200D02*
X70936289Y-40456200D01*
X79040000Y-41956200D02*
X78765000Y-42231200D01*
X78306683Y-54137000D02*
G75*
G03*
X78765000Y-53678725I17J458300D01*
G01*
X71395500Y-40915411D02*
G75*
G03*
X70936289Y-40456200I-459200J11D01*
G01*
X71395558Y-53677181D02*
G75*
G03*
X71855361Y-54137042I459842J-19D01*
G01*
X46140000Y-40456200D02*
X52673636Y-40456200D01*
X53133365Y-41496735D02*
X53133365Y-40915929D01*
X59990000Y-41956200D02*
X53592830Y-41956200D01*
X53133300Y-40915929D02*
G75*
G03*
X52673636Y-40456200I-459700J29D01*
G01*
X53133300Y-41496735D02*
G75*
G03*
X53592830Y-41956200I459500J35D01*
G01*
X33399765Y-40915875D02*
X33399765Y-41496606D01*
X33859359Y-41956200D02*
X40940000Y-41956200D01*
X27087500Y-40456200D02*
X32940090Y-40456200D01*
X33399800Y-40915875D02*
G75*
G03*
X32940090Y-40456200I-459700J-25D01*
G01*
X33399800Y-41496606D02*
G75*
G03*
X33859359Y-41956200I459600J6D01*
G01*
X21387500Y-60496913D02*
X21387500Y-41956200D01*
X21387500Y-41956200D02*
X21887500Y-41956200D01*
X23612500Y-60956200D02*
X21846787Y-60956200D01*
X21387500Y-60496913D02*
G75*
G03*
X21846787Y-60956200I459300J13D01*
G01*
X37015802Y-59915534D02*
X37015796Y-60497450D01*
X28812500Y-59456200D02*
X36556473Y-59456200D01*
X37474541Y-60956200D02*
X45043800Y-60956200D01*
X37015800Y-60497450D02*
G75*
G03*
X37474541Y-60956200I458700J-50D01*
G01*
X37015800Y-59915534D02*
G75*
G03*
X36556473Y-59456200I-459300J34D01*
G01*
X50243800Y-59456200D02*
X56724028Y-59456200D01*
X57642986Y-60956200D02*
X64093800Y-60956200D01*
X57183762Y-60496990D02*
X57183745Y-59915903D01*
X57183700Y-59915903D02*
G75*
G03*
X56724028Y-59456200I-459700J3D01*
G01*
X57183800Y-60496990D02*
G75*
G03*
X57642986Y-60956200I459200J-10D01*
G01*
X69293800Y-59456200D02*
X75811778Y-59456200D01*
X76271424Y-60496380D02*
X76271426Y-59915848D01*
X76731243Y-60956200D02*
X83143800Y-60956200D01*
X76271400Y-59915848D02*
G75*
G03*
X75811778Y-59456200I-459600J48D01*
G01*
X76271400Y-60496380D02*
G75*
G03*
X76731243Y-60956200I459800J-20D01*
G01*
X95320602Y-60496701D02*
X95320602Y-59915401D01*
X102193800Y-60956200D02*
X95780101Y-60956200D01*
X88343800Y-59456200D02*
X94861401Y-59456200D01*
X95320600Y-59915401D02*
G75*
G03*
X94861401Y-59456200I-459200J1D01*
G01*
X95320600Y-60496701D02*
G75*
G03*
X95780101Y-60956200I459500J1D01*
G01*
X114354225Y-60497349D02*
X114354225Y-59915786D01*
X121243800Y-60956200D02*
X114813076Y-60956200D01*
X107393800Y-59456200D02*
X113894639Y-59456200D01*
X114354300Y-60497349D02*
G75*
G03*
X114813076Y-60956200I458800J-51D01*
G01*
X114354200Y-59915786D02*
G75*
G03*
X113894639Y-59456200I-459600J-14D01*
G01*
X126443800Y-59456200D02*
X145516193Y-59456200D01*
X148023100Y-73473717D02*
X148023100Y-80152357D01*
X146434663Y-67308800D02*
X148971410Y-67308800D01*
X145975200Y-59915207D02*
X145975200Y-66849337D01*
X149431243Y-67768633D02*
X149431243Y-72554290D01*
X148970960Y-73014573D02*
X148482244Y-73014573D01*
X149800000Y-80612400D02*
X148483143Y-80612400D01*
X149431200Y-67768633D02*
G75*
G03*
X148971410Y-67308800I-459800J33D01*
G01*
X145975200Y-59915207D02*
G75*
G03*
X145516193Y-59456200I-459000J7D01*
G01*
X148023100Y-80152357D02*
G75*
G03*
X148483143Y-80612400I460000J-43D01*
G01*
X148970960Y-73014543D02*
G75*
G03*
X149431243Y-72554290I40J460243D01*
G01*
X145975200Y-66849337D02*
G75*
G03*
X146434663Y-67308800I459500J37D01*
G01*
X148482244Y-73014600D02*
G75*
G03*
X148023100Y-73473717I-44J-459100D01*
G01*
X168850000Y-80612400D02*
X162499812Y-80612400D01*
X162040367Y-79571696D02*
X162040367Y-80152955D01*
X155000000Y-79112400D02*
X161581071Y-79112400D01*
X162040400Y-80152955D02*
G75*
G03*
X162499812Y-80612400I459400J-45D01*
G01*
X162040400Y-79571696D02*
G75*
G03*
X161581071Y-79112400I-459300J-4D01*
G01*
X187900000Y-80612400D02*
X181460183Y-80612400D01*
X181000461Y-80152678D02*
X181000461Y-79572248D01*
X174050000Y-79112400D02*
X180540613Y-79112400D01*
X181000500Y-80152678D02*
G75*
G03*
X181460183Y-80612400I459700J-22D01*
G01*
X181000400Y-79572248D02*
G75*
G03*
X180540613Y-79112400I-459800J48D01*
G01*
X188514336Y-94274055D02*
X192640756Y-94274055D01*
X196841900Y-79571918D02*
X196841900Y-88921273D01*
X188056032Y-89839928D02*
X188056032Y-93815751D01*
X193100000Y-79112400D02*
X196382382Y-79112400D01*
X193100000Y-94733299D02*
X193100000Y-98362400D01*
X196382455Y-89380718D02*
X188515242Y-89380718D01*
X196841900Y-79571918D02*
G75*
G03*
X196382382Y-79112400I-459500J18D01*
G01*
X188056045Y-93815751D02*
G75*
G03*
X188514336Y-94274055I458255J-49D01*
G01*
X196382455Y-89380700D02*
G75*
G03*
X196841900Y-88921273I45J459400D01*
G01*
X193100045Y-94733299D02*
G75*
G03*
X192640756Y-94274055I-459245J-1D01*
G01*
X188515242Y-89380732D02*
G75*
G03*
X188056032Y-89839928I-42J-459168D01*
G01*
X174050000Y-98362400D02*
X180526904Y-98362400D01*
X181446377Y-99862400D02*
X187900000Y-99862400D01*
X180986472Y-99402480D02*
X180986491Y-98822003D01*
X180986500Y-98822003D02*
G75*
G03*
X180526904Y-98362400I-459600J3D01*
G01*
X180986500Y-99402480D02*
G75*
G03*
X181446377Y-99862400I459900J-20D01*
G01*
X155000000Y-98362400D02*
X161490277Y-98362400D01*
X161949879Y-98822002D02*
X161949879Y-99403306D01*
X168850000Y-99862400D02*
X162408973Y-99862400D01*
X161949900Y-98822002D02*
G75*
G03*
X161490277Y-98362400I-459600J2D01*
G01*
X161949900Y-99403306D02*
G75*
G03*
X162408973Y-99862400I459100J6D01*
G01*
X149525000Y-112236628D02*
X149525000Y-100137400D01*
X135950000Y-78706200D02*
X141394420Y-78706200D01*
X142313045Y-112696418D02*
X149065210Y-112696418D01*
X141854000Y-79165780D02*
X141854000Y-112237373D01*
X149800000Y-99862400D02*
G75*
G03*
X149525000Y-100137400I0J-275000D01*
G01*
X149065210Y-112696400D02*
G75*
G03*
X149525000Y-112236628I-10J459800D01*
G01*
X141853982Y-112237373D02*
G75*
G03*
X142313045Y-112696418I459018J-27D01*
G01*
X141854000Y-79165780D02*
G75*
G03*
X141394420Y-78706200I-459600J-20D01*
G01*
X130750000Y-80206200D02*
X124332217Y-80206200D01*
X116900000Y-78706200D02*
X123414165Y-78706200D01*
X123872879Y-79746862D02*
X123872879Y-79164914D01*
X123872900Y-79746862D02*
G75*
G03*
X124332217Y-80206200I459300J-38D01*
G01*
X123872900Y-79164914D02*
G75*
G03*
X123414165Y-78706200I-458700J14D01*
G01*
X104819739Y-79746355D02*
X104819739Y-79165056D01*
X97850000Y-78706200D02*
X104360883Y-78706200D01*
X105279584Y-80206200D02*
X111700000Y-80206200D01*
X104819800Y-79165056D02*
G75*
G03*
X104360883Y-78706200I-458900J-44D01*
G01*
X104819800Y-79746355D02*
G75*
G03*
X105279584Y-80206200I459800J-45D01*
G01*
X85734241Y-79746741D02*
X85734261Y-79165603D01*
X86193685Y-80206200D02*
X92650000Y-80206200D01*
X78800000Y-78706200D02*
X85274875Y-78706200D01*
X85734300Y-79746741D02*
G75*
G03*
X86193685Y-80206200I459400J-59D01*
G01*
X85734300Y-79165603D02*
G75*
G03*
X85274875Y-78706200I-459400J3D01*
G01*
X59750000Y-78706200D02*
X66262889Y-78706200D01*
X67182463Y-80206200D02*
X73600000Y-80206200D01*
X66722304Y-79165623D02*
X66722294Y-79746023D01*
X66722300Y-79165623D02*
G75*
G03*
X66262889Y-78706200I-459400J23D01*
G01*
X66722300Y-79746023D02*
G75*
G03*
X67182463Y-80206200I460200J23D01*
G01*
X54550000Y-80206200D02*
X45361993Y-80206200D01*
X33556300Y-78706200D02*
X44442698Y-78706200D01*
X44902529Y-79746736D02*
X44902529Y-79166031D01*
X44902500Y-79166031D02*
G75*
G03*
X44442698Y-78706200I-459800J31D01*
G01*
X44902500Y-79746736D02*
G75*
G03*
X45361993Y-80206200I459500J36D01*
G01*
X69033573Y-99206200D02*
X73600000Y-99206200D01*
X28356300Y-80206200D02*
X28356300Y-80923057D01*
X68574499Y-97640900D02*
X68574499Y-98747126D01*
X28816343Y-81383100D02*
X41071970Y-81383100D01*
X41531700Y-81842830D02*
X41531700Y-97640900D01*
X41531700Y-81842830D02*
G75*
G03*
X41071970Y-81383100I-459700J30D01*
G01*
X28356300Y-80923057D02*
G75*
G03*
X28816343Y-81383100I460000J-43D01*
G01*
X68574500Y-98747126D02*
G75*
G03*
X69033573Y-99206200I459100J26D01*
G01*
X95031300Y-99206200D02*
X87407777Y-99206200D01*
X78800000Y-97706200D02*
X86488745Y-97706200D01*
X86948239Y-98165694D02*
X86948239Y-98746662D01*
X86948300Y-98746662D02*
G75*
G03*
X87407777Y-99206200I459500J-38D01*
G01*
X86948200Y-98165694D02*
G75*
G03*
X86488745Y-97706200I-459500J-6D01*
G01*
X123606300Y-99206200D02*
X112571859Y-99206200D01*
X112112989Y-98747330D02*
X112112989Y-98165232D01*
X100231300Y-97706200D02*
X111653957Y-97706200D01*
X112113000Y-98165232D02*
G75*
G03*
X111653957Y-97706200I-459000J32D01*
G01*
X112113000Y-98747330D02*
G75*
G03*
X112571859Y-99206200I458900J30D01*
G01*
X135133252Y-97222600D02*
X132821567Y-97222600D01*
X208254392Y-97222600D02*
X208254392Y-98746980D01*
X131654054Y-97706200D02*
X128806300Y-97706200D01*
X208713612Y-99206200D02*
X214093800Y-99206200D01*
X208254400Y-98746980D02*
G75*
G03*
X208713612Y-99206200I459200J-20D01*
G01*
X131654054Y-97706166D02*
G75*
G03*
X132233525Y-97466175I46J819466D01*
G01*
X132821567Y-97222572D02*
G75*
G03*
X132233525Y-97466175I33J-831628D01*
G01*
X219293800Y-97706200D02*
X223116961Y-97706200D01*
X223576317Y-98749307D02*
X223576317Y-98165528D01*
X224033220Y-99206200D02*
X242668800Y-99206200D01*
X223576300Y-98165505D02*
G75*
G03*
X223116961Y-97706200I-459300J5D01*
G01*
X223576275Y-98165520D02*
G75*
G03*
X223576317Y-98165527I25J20D01*
G01*
X223576300Y-98749307D02*
G75*
G03*
X224033220Y-99206200I456900J7D01*
G01*
X256076051Y-98165371D02*
X256076065Y-98746753D01*
X256535523Y-99206200D02*
X264100000Y-99206200D01*
X247868800Y-97706200D02*
X255616869Y-97706200D01*
X256076100Y-98165371D02*
G75*
G03*
X255616869Y-97706200I-459200J-29D01*
G01*
X256076000Y-98746753D02*
G75*
G03*
X256535523Y-99206200I459500J53D01*
G01*
X315861084Y-78706200D02*
X314543800Y-78706200D01*
X274134633Y-97706200D02*
X269300000Y-97706200D01*
X274149430Y-97720997D02*
X274134633Y-97706200D01*
X296217600Y-97715382D02*
X296217600Y-82699047D01*
X296677447Y-82239200D02*
X315861324Y-82239200D01*
X316320700Y-81779824D02*
X316320700Y-79165816D01*
X316320700Y-79165816D02*
G75*
G03*
X315861084Y-78706200I-459600J16D01*
G01*
X315861324Y-82239200D02*
G75*
G03*
X316320700Y-81779824I-24J459400D01*
G01*
X296677447Y-82239200D02*
G75*
G03*
X296217600Y-82699047I-47J-459800D01*
G01*
X296217577Y-97715382D02*
G75*
G03*
X296232241Y-97730023I14623J-18D01*
G01*
X288350000Y-78706200D02*
X298736047Y-78706200D01*
X299654921Y-80206200D02*
X309343800Y-80206200D01*
X299195806Y-79165946D02*
X299195823Y-79747114D01*
X299195800Y-79165946D02*
G75*
G03*
X298736047Y-78706200I-459800J-54D01*
G01*
X299195800Y-79747114D02*
G75*
G03*
X299654921Y-80206200I459100J14D01*
G01*
X276674838Y-80206200D02*
X283150000Y-80206200D01*
X269300000Y-78706200D02*
X275755495Y-78706200D01*
X276215499Y-79166204D02*
X276215499Y-79746861D01*
X276215500Y-79166204D02*
G75*
G03*
X275755495Y-78706200I-460000J4D01*
G01*
X276215500Y-79746861D02*
G75*
G03*
X276674838Y-80206200I459300J-39D01*
G01*
X257178763Y-79165841D02*
X257178763Y-79746946D01*
X257638017Y-80206200D02*
X264100000Y-80206200D01*
X250250000Y-78706200D02*
X256719122Y-78706200D01*
X257178700Y-79165841D02*
G75*
G03*
X256719122Y-78706200I-459600J41D01*
G01*
X257178700Y-79746946D02*
G75*
G03*
X257638017Y-80206200I459300J46D01*
G01*
X231200000Y-78706200D02*
X237746559Y-78706200D01*
X238205978Y-79746560D02*
X238205978Y-79165619D01*
X245050000Y-80206200D02*
X238665618Y-80206200D01*
X238206000Y-79746560D02*
G75*
G03*
X238665618Y-80206200I459600J-40D01*
G01*
X238206000Y-79165619D02*
G75*
G03*
X237746559Y-78706200I-459400J19D01*
G01*
X219130646Y-79166014D02*
X219130646Y-79746661D01*
X212150000Y-78706200D02*
X218670832Y-78706200D01*
X219590185Y-80206200D02*
X226000000Y-80206200D01*
X219130700Y-79746661D02*
G75*
G03*
X219590185Y-80206200I459500J-39D01*
G01*
X219130600Y-79166014D02*
G75*
G03*
X218670832Y-78706200I-459800J14D01*
G01*
X205173100Y-63876646D02*
X205173100Y-79746708D01*
X216475000Y-60956200D02*
X216475000Y-62957094D01*
X216015194Y-63416900D02*
X205632846Y-63416900D01*
X206950000Y-80206200D02*
X205632592Y-80206200D01*
X205173100Y-79746708D02*
G75*
G03*
X205632592Y-80206200I459500J8D01*
G01*
X216015194Y-63416900D02*
G75*
G03*
X216475000Y-62957094I6J459800D01*
G01*
X205632846Y-63416900D02*
G75*
G03*
X205173100Y-63876646I-46J-459700D01*
G01*
X228380800Y-60496609D02*
X228380800Y-59893599D01*
X221675000Y-59434600D02*
X221675000Y-59456200D01*
X235525000Y-60956200D02*
X228840391Y-60956200D01*
X227921801Y-59434600D02*
X221675000Y-59434600D01*
X228380800Y-59893599D02*
G75*
G03*
X227921801Y-59434600I-459000J-1D01*
G01*
X228380800Y-60496609D02*
G75*
G03*
X228840391Y-60956200I459600J9D01*
G01*
X240725000Y-59456200D02*
X248926759Y-59456200D01*
X249845037Y-60956200D02*
X254575000Y-60956200D01*
X249386000Y-59915441D02*
X249386000Y-60497163D01*
X249386000Y-59915441D02*
G75*
G03*
X248926759Y-59456200I-459200J41D01*
G01*
X249386000Y-60497163D02*
G75*
G03*
X249845037Y-60956200I459000J-37D01*
G01*
X266885200Y-60496962D02*
X266885200Y-59915050D01*
X273625000Y-60956200D02*
X267344438Y-60956200D01*
X266426350Y-59456200D02*
X259775000Y-59456200D01*
X266885200Y-59915050D02*
G75*
G03*
X266426350Y-59456200I-458800J50D01*
G01*
X266885200Y-60496962D02*
G75*
G03*
X267344438Y-60956200I459200J-38D01*
G01*
X278825000Y-59456200D02*
X285301035Y-59456200D01*
X286219708Y-60956200D02*
X292675000Y-60956200D01*
X285760078Y-59915243D02*
X285760078Y-60496570D01*
X285760100Y-60496570D02*
G75*
G03*
X286219708Y-60956200I459600J-30D01*
G01*
X285760000Y-59915243D02*
G75*
G03*
X285301035Y-59456200I-459000J43D01*
G01*
X297875000Y-59456200D02*
X305634072Y-59456200D01*
X306093682Y-60496698D02*
X306093682Y-59915810D01*
X314106300Y-60956200D02*
X306553184Y-60956200D01*
X306093700Y-59915810D02*
G75*
G03*
X305634072Y-59456200I-459600J10D01*
G01*
X306093700Y-60496698D02*
G75*
G03*
X306553184Y-60956200I459500J-2D01*
G01*
X327033200Y-56403854D02*
X327033200Y-40915523D01*
X323122776Y-59456200D02*
X319306300Y-59456200D01*
X325607322Y-56862843D02*
X326574233Y-56862828D01*
X323125500Y-59458924D02*
X323122776Y-59456200D01*
X326573877Y-40456200D02*
X322424400Y-40456200D01*
X326574233Y-56862900D02*
G75*
G03*
X327033200Y-56403854I-33J459000D01*
G01*
X327033200Y-40915523D02*
G75*
G03*
X326573877Y-40456200I-459300J23D01*
G01*
X303380600Y-40456200D02*
X309900098Y-40456200D01*
X310359626Y-40915728D02*
X310359626Y-41496390D01*
X310819436Y-41956200D02*
X317224400Y-41956200D01*
X310359600Y-41496390D02*
G75*
G03*
X310819436Y-41956200I459800J-10D01*
G01*
X310359600Y-40915728D02*
G75*
G03*
X309900098Y-40456200I-459500J28D01*
G01*
X291313467Y-41497438D02*
X291313467Y-40915865D01*
X298180600Y-41956200D02*
X291772229Y-41956200D01*
X284330600Y-40456200D02*
X290853802Y-40456200D01*
X291313500Y-40915865D02*
G75*
G03*
X290853802Y-40456200I-459700J-35D01*
G01*
X291313400Y-41497438D02*
G75*
G03*
X291772229Y-41956200I458800J38D01*
G01*
X272209452Y-41497272D02*
X272209424Y-40915718D01*
X272668402Y-41956200D02*
X279130600Y-41956200D01*
X265280600Y-40456200D02*
X271749885Y-40456200D01*
X272209400Y-41497272D02*
G75*
G03*
X272668402Y-41956200I459000J72D01*
G01*
X272209400Y-40915718D02*
G75*
G03*
X271749885Y-40456200I-459500J18D01*
G01*
X251160594Y-41956200D02*
X260080600Y-41956200D01*
X246230600Y-40456200D02*
X250241192Y-40456200D01*
X250700800Y-40915808D02*
X250700800Y-41496406D01*
X250700800Y-41496406D02*
G75*
G03*
X251160594Y-41956200I459800J6D01*
G01*
X250700800Y-40915808D02*
G75*
G03*
X250241192Y-40456200I-459600J8D01*
G01*
X234158290Y-40915819D02*
X234158290Y-41496085D01*
X227100000Y-40456200D02*
X233698671Y-40456200D01*
X234618405Y-41956200D02*
X241030600Y-41956200D01*
X234158300Y-41496085D02*
G75*
G03*
X234618405Y-41956200I460100J-15D01*
G01*
X234158300Y-40915819D02*
G75*
G03*
X233698671Y-40456200I-459600J19D01*
G01*
X219254651Y-23415520D02*
X219254651Y-45302075D01*
X221900000Y-45302747D02*
X221900000Y-41956200D01*
X231243800Y-22956200D02*
X219713971Y-22956200D01*
X219714605Y-45762029D02*
X221440718Y-45762029D01*
X219254671Y-45302075D02*
G75*
G03*
X219714605Y-45762029I459929J-25D01*
G01*
X219713971Y-22956151D02*
G75*
G03*
X219254651Y-23415520I29J-459349D01*
G01*
X221440718Y-45762000D02*
G75*
G03*
X221900000Y-45302747I-18J459300D01*
G01*
X236443800Y-21456200D02*
X242989277Y-21456200D01*
X243448833Y-22496997D02*
X243448833Y-21915756D01*
X250293800Y-22956200D02*
X243908036Y-22956200D01*
X243448900Y-21915756D02*
G75*
G03*
X242989277Y-21456200I-459600J-44D01*
G01*
X243448800Y-22496997D02*
G75*
G03*
X243908036Y-22956200I459200J-3D01*
G01*
X262505232Y-22496419D02*
X262505232Y-21915467D01*
X269343800Y-22956200D02*
X262965013Y-22956200D01*
X255493800Y-21456200D02*
X262045965Y-21456200D01*
X262505300Y-21915467D02*
G75*
G03*
X262045965Y-21456200I-459300J-33D01*
G01*
X262505200Y-22496419D02*
G75*
G03*
X262965013Y-22956200I459800J19D01*
G01*
X274543800Y-21456200D02*
X281038023Y-21456200D01*
X281958421Y-22956200D02*
X288393800Y-22956200D01*
X281498883Y-22496636D02*
X281498916Y-21917121D01*
X281498900Y-21917121D02*
G75*
G03*
X281038023Y-21456200I-460900J21D01*
G01*
X281498900Y-22496636D02*
G75*
G03*
X281958421Y-22956200I459500J-64D01*
G01*
X293593800Y-21456200D02*
X300104400Y-21456200D01*
X301023898Y-22956200D02*
X307443800Y-22956200D01*
X300564121Y-21915921D02*
X300564121Y-22496423D01*
X300564100Y-22496423D02*
G75*
G03*
X301023898Y-22956200I459800J23D01*
G01*
X300564100Y-21915921D02*
G75*
G03*
X300104400Y-21456200I-459700J21D01*
G01*
X16137499Y-63467346D02*
X16137499Y-51062500D01*
X22606300Y-98597553D02*
X22606300Y-89162500D01*
X41883528Y-99056900D02*
X23065647Y-99056900D01*
X17862499Y-70112500D02*
X17862499Y-67631864D01*
X174237083Y-75888700D02*
X163559531Y-75888700D01*
X196766090Y-101891300D02*
X182609171Y-101891300D01*
X42343800Y-104193700D02*
X42343800Y-99517172D01*
X176564863Y-21366000D02*
X199525300Y-21366000D01*
X182150000Y-89768700D02*
X183085300Y-89768700D01*
X182150000Y-102350471D02*
X182150000Y-108818700D01*
X194772016Y-94948000D02*
X196765694Y-94948013D01*
X163100000Y-75429169D02*
X163100000Y-64250921D01*
X163100000Y-51668700D02*
X163100000Y-57253469D01*
X179944498Y-36019700D02*
X176564282Y-36019700D01*
X180404301Y-40422900D02*
X180404301Y-36479503D01*
X163558931Y-57712400D02*
X180397742Y-57712400D01*
X163559421Y-63791500D02*
X179938355Y-63791500D01*
X17862500Y-88704476D02*
X17862500Y-70112500D01*
X176104907Y-35560325D02*
X176104907Y-21825956D01*
X197225000Y-95407322D02*
X197225000Y-101432390D01*
X182150000Y-85000000D02*
X182150000Y-89768700D01*
X22606300Y-89162500D02*
X18320524Y-89162500D01*
X180397742Y-63332113D02*
X180397742Y-57712400D01*
X174698300Y-76961000D02*
X174694618Y-76957318D01*
X174694618Y-76957318D02*
X174694618Y-76287198D01*
X183085300Y-89768700D02*
X183085300Y-94948000D01*
X17862500Y-88704476D02*
G75*
G03*
X18320524Y-89162500I458000J-24D01*
G01*
X22606300Y-98597553D02*
G75*
G03*
X23065647Y-99056900I459300J-47D01*
G01*
X196766090Y-101891300D02*
G75*
G03*
X197225000Y-101432390I10J458900D01*
G01*
X197224987Y-95407322D02*
G75*
G03*
X196765694Y-94948013I-459287J22D01*
G01*
X180404300Y-36479503D02*
G75*
G03*
X179944498Y-36019700I-459800J3D01*
G01*
X163100000Y-75429169D02*
G75*
G03*
X163559531Y-75888700I459500J-31D01*
G01*
X163559421Y-63791500D02*
G75*
G03*
X163100000Y-64250921I-21J-459400D01*
G01*
X176564863Y-21366007D02*
G75*
G03*
X176104907Y-21825956I37J-459993D01*
G01*
X174694618Y-76287198D02*
G75*
G03*
X174237083Y-75888701I-459618J-65802D01*
G01*
X163100000Y-57253469D02*
G75*
G03*
X163558931Y-57712400I458900J-31D01*
G01*
X42343800Y-99517172D02*
G75*
G03*
X41883528Y-99056900I-460300J-28D01*
G01*
X179938355Y-63791442D02*
G75*
G03*
X180397742Y-63332113I45J459342D01*
G01*
X182609171Y-101891300D02*
G75*
G03*
X182150000Y-102350471I29J-459200D01*
G01*
X17862496Y-67631864D02*
G75*
G03*
X16919178Y-65354486I-3220696J4D01*
G01*
X16137462Y-63467346D02*
G75*
G03*
X16919179Y-65354485I2668838J46D01*
G01*
X176104900Y-35560325D02*
G75*
G03*
X176564282Y-36019700I459400J25D01*
G01*
X212398689Y-58698300D02*
X204352520Y-58698300D01*
X212859247Y-42918102D02*
X212858390Y-42918959D01*
X215199600Y-40729300D02*
X214966500Y-40729300D01*
X214765300Y-36606000D02*
X215199600Y-36606000D01*
X203892900Y-59157920D02*
X203892900Y-75679300D01*
X214966500Y-40729300D02*
X215538852Y-40729300D01*
X214765266Y-36605959D02*
X215538704Y-36605938D01*
X212858390Y-42918959D02*
X212858390Y-58238599D01*
X215997741Y-40270411D02*
X215997741Y-37064962D01*
X203892900Y-75679300D02*
X203693900Y-75679300D01*
X215538852Y-40729241D02*
G75*
G03*
X215997741Y-40270411I48J458841D01*
G01*
X204352520Y-58698300D02*
G75*
G03*
X203892900Y-59157920I-20J-459600D01*
G01*
X212398689Y-58698290D02*
G75*
G03*
X212858390Y-58238599I11J459690D01*
G01*
X215997762Y-37064962D02*
G75*
G03*
X215538704Y-36605938I-459062J-38D01*
G01*
X24141800Y-32012500D02*
X24141800Y-38075648D01*
X67850000Y-107056200D02*
X46038788Y-107056200D01*
X182150000Y-64187737D02*
X182150000Y-70718699D01*
X200120812Y-53107133D02*
X200120812Y-63305195D01*
X48800000Y-89162500D02*
X48800000Y-85808900D01*
X182150000Y-62939343D02*
X182150000Y-64187737D01*
X196313552Y-63763800D02*
X196227652Y-63677900D01*
X185821143Y-39937000D02*
X194875540Y-39937000D01*
X23251900Y-32012500D02*
X24141800Y-32012500D01*
X199838668Y-63731215D02*
X199722395Y-63762372D01*
X67850000Y-108300000D02*
X67850000Y-107056200D01*
X45579349Y-106596761D02*
X45579349Y-89622119D01*
X185361033Y-28675000D02*
X185361033Y-39476890D01*
X182150000Y-51668700D02*
X182150000Y-62939343D01*
X196791115Y-52649585D02*
X199663264Y-52649585D01*
X195335387Y-40396847D02*
X195335387Y-45175319D01*
X195796664Y-45636572D02*
X195868910Y-45636568D01*
X40068600Y-66516200D02*
X40068600Y-69337699D01*
X200028033Y-63585906D02*
X199942916Y-63671026D01*
X34848200Y-58040600D02*
X34848200Y-51404299D01*
X205898269Y-70112500D02*
X210725000Y-70112500D01*
X205897600Y-70111831D02*
X205898269Y-70112500D01*
X199662207Y-63763800D02*
X196313552Y-63763800D01*
X199942916Y-63671026D02*
X199838668Y-63731215D01*
X182150015Y-63194686D02*
X182150000Y-62939343D01*
X199722395Y-63762372D02*
X199662207Y-63763800D01*
X46038968Y-89162500D02*
X48800000Y-89162500D01*
X196227652Y-63677900D02*
X182633256Y-63677900D01*
X200119374Y-63365383D02*
X200088220Y-63481657D01*
X200120812Y-63305195D02*
X200119374Y-63365383D01*
X200088220Y-63481657D02*
X200028033Y-63585906D01*
X201200000Y-107840353D02*
X201200000Y-73794300D01*
X208343800Y-108300000D02*
X201659647Y-108300000D01*
X196329429Y-46097064D02*
X196329429Y-52187899D01*
X182659837Y-63677900D02*
G75*
G03*
X182150000Y-64187737I-37J-509800D01*
G01*
X196329432Y-46097064D02*
G75*
G03*
X195868910Y-45636568I-460532J-36D01*
G01*
X46038968Y-89162449D02*
G75*
G03*
X45579349Y-89622119I32J-459651D01*
G01*
X182150100Y-63194686D02*
G75*
G03*
X182633256Y-63677900I483200J-14D01*
G01*
X200120815Y-53107133D02*
G75*
G03*
X199663264Y-52649585I-457515J33D01*
G01*
X195335328Y-45175319D02*
G75*
G03*
X195796664Y-45636572I461272J19D01*
G01*
X45579400Y-106596761D02*
G75*
G03*
X46038788Y-107056200I459400J-39D01*
G01*
X196329415Y-52187899D02*
G75*
G03*
X196791115Y-52649585I461685J-1D01*
G01*
X195335300Y-40396847D02*
G75*
G03*
X194875540Y-39937000I-459800J47D01*
G01*
X35189999Y-51062500D02*
G75*
G03*
X34848200Y-51404299I1J-341800D01*
G01*
X39293799Y-70112500D02*
G75*
G03*
X40068600Y-69337699I1J774800D01*
G01*
X182150000Y-70718699D02*
X182149999Y-70718700D01*
X24141743Y-38075649D02*
G75*
G03*
X24146509Y-38080357I4757J49D01*
G01*
X185361100Y-39476890D02*
G75*
G03*
X185821143Y-39937000I460000J-110D01*
G01*
X201200000Y-107840353D02*
G75*
G03*
X201659647Y-108300000I459600J-47D01*
G01*
X222432000Y-56526573D02*
X216690211Y-56526573D01*
X226160411Y-96398244D02*
X226161848Y-96399681D01*
X216230600Y-56066962D02*
X216230600Y-46674953D01*
X213949900Y-40543832D02*
X213949900Y-40148100D01*
X54050000Y-90529200D02*
X54050000Y-83114000D01*
X236918800Y-108300000D02*
X231700000Y-108300000D01*
X187336902Y-31525000D02*
X187336902Y-38572967D01*
X187796884Y-39032949D02*
X195825471Y-39032949D01*
X220385100Y-32471658D02*
X220385100Y-38629600D01*
X220709614Y-93780387D02*
X225702384Y-93780387D01*
X42343800Y-38363126D02*
X42343800Y-32012500D01*
X67850000Y-89689400D02*
X67850000Y-89162500D01*
X216690353Y-46215200D02*
X218059468Y-46215200D01*
X58343800Y-66516200D02*
X58343800Y-70112500D01*
X220250000Y-85092643D02*
X220250000Y-93320773D01*
X225493800Y-32012500D02*
X220844258Y-32012500D01*
X67364252Y-101644107D02*
X54509731Y-101644107D01*
X229412200Y-70112500D02*
X229412200Y-75898500D01*
X196284800Y-39492278D02*
X196284800Y-40543796D01*
X48143900Y-38822600D02*
X42803274Y-38822600D01*
X68663977Y-101644107D02*
X67364252Y-101644107D01*
X226160411Y-94179555D02*
X226160411Y-96398244D01*
X196743904Y-41002900D02*
X213490832Y-41002900D01*
X68338262Y-101644098D02*
X68663968Y-101644098D01*
X88823322Y-101644107D02*
X68663977Y-101644107D01*
X54050000Y-90529200D02*
X54050000Y-101184376D01*
X220255098Y-85087545D02*
X220250000Y-85092643D01*
X67849999Y-89162500D02*
X67849999Y-101155821D01*
X89281300Y-108300000D02*
X89281300Y-102102085D01*
X53210500Y-54781200D02*
X53210500Y-52091999D01*
X229049400Y-70112500D02*
X229412200Y-70112500D01*
X229775000Y-70112500D02*
X229412200Y-70112500D01*
X229049400Y-64479436D02*
X229049400Y-70112500D01*
X218518300Y-45756368D02*
X218518300Y-38629600D01*
X67849999Y-101155821D02*
X67849999Y-101158360D01*
X229060721Y-64468115D02*
X229049400Y-64479436D01*
X187336851Y-38572967D02*
G75*
G03*
X187796884Y-39032949I460049J67D01*
G01*
X218059468Y-46215200D02*
G75*
G03*
X218518300Y-45756368I32J458800D01*
G01*
X216690353Y-46215200D02*
G75*
G03*
X216230600Y-46674953I47J-459800D01*
G01*
X54239999Y-51062500D02*
G75*
G03*
X53210500Y-52091999I1J-1029500D01*
G01*
X89281293Y-102102085D02*
G75*
G03*
X88823322Y-101644107I-457993J-15D01*
G01*
X54049993Y-101184376D02*
G75*
G03*
X54509731Y-101644107I459707J-24D01*
G01*
X196284800Y-40543796D02*
G75*
G03*
X196743904Y-41002900I459100J-4D01*
G01*
X67850002Y-101155821D02*
G75*
G03*
X68338262Y-101644098I488298J21D01*
G01*
X220250013Y-93320773D02*
G75*
G03*
X220709614Y-93780387I459587J-27D01*
G01*
X220844258Y-32012500D02*
G75*
G03*
X220385100Y-32471658I42J-459200D01*
G01*
X213490832Y-41002900D02*
G75*
G03*
X213949900Y-40543832I-32J459100D01*
G01*
X42343800Y-38363126D02*
G75*
G03*
X42803274Y-38822600I459500J26D01*
G01*
X231700000Y-108300038D02*
G75*
G03*
X231687038Y-108312962I0J-12962D01*
G01*
X196284851Y-39492278D02*
G75*
G03*
X195825471Y-39032949I-459351J-22D01*
G01*
X68663968Y-101644098D02*
X68663977Y-101644107D01*
X226160397Y-94179557D02*
G75*
G03*
X225702384Y-93780388I-459897J-65343D01*
G01*
X67364252Y-101644099D02*
G75*
G03*
X67849999Y-101158360I48J485699D01*
G01*
X216230627Y-56066962D02*
G75*
G03*
X216690211Y-56526573I459573J-38D01*
G01*
X258350000Y-108300000D02*
X258350000Y-101397400D01*
X239300000Y-84589627D02*
X239300000Y-95675181D01*
X246385200Y-62337600D02*
X246385200Y-69653335D01*
X86899999Y-87929874D02*
X86899999Y-89162500D01*
X239307930Y-84581697D02*
X239300000Y-84589627D01*
X247779700Y-75898500D02*
X247779700Y-70112500D01*
X253950700Y-41212035D02*
X253950036Y-41211371D01*
X61393800Y-37774297D02*
X61393800Y-32012500D01*
X251954636Y-40753530D02*
X251954636Y-39741711D01*
X248825000Y-70112500D02*
X247779700Y-70112500D01*
X84615345Y-85645220D02*
X86440479Y-85645256D01*
X77391632Y-74812509D02*
X77393800Y-74810341D01*
X73290000Y-38234100D02*
X61853603Y-38234100D01*
X251495225Y-39282300D02*
X245003540Y-39282300D01*
X235280600Y-57678100D02*
X235280600Y-51062500D01*
X244543799Y-38822559D02*
X244543799Y-32012500D01*
X117856300Y-108300000D02*
X117856300Y-101379000D01*
X246844365Y-70112500D02*
X247779700Y-70112500D01*
X253950036Y-41211371D02*
X252353628Y-41211371D01*
X86900000Y-87929875D02*
X86900000Y-95526800D01*
X73290000Y-38234100D02*
X73290000Y-51062500D01*
X77393800Y-74810341D02*
X77393800Y-70112500D01*
X86899999Y-87929874D02*
X86899978Y-86104759D01*
X251954596Y-40753530D02*
G75*
G03*
X252353628Y-41211371I464504J2030D01*
G01*
X61393800Y-37774297D02*
G75*
G03*
X61853603Y-38234100I459800J-3D01*
G01*
X244543800Y-38822559D02*
G75*
G03*
X245003540Y-39282300I459700J-41D01*
G01*
X251954600Y-39741711D02*
G75*
G03*
X251495225Y-39282300I-459400J11D01*
G01*
X246385200Y-69653335D02*
G75*
G03*
X246844365Y-70112500I459200J35D01*
G01*
X86900044Y-86104759D02*
G75*
G03*
X86440479Y-85645256I-459544J-41D01*
G01*
X91209785Y-56500000D02*
X91209785Y-52192714D01*
X266154229Y-74930518D02*
X267416594Y-74930497D01*
X267874999Y-62558957D02*
X267874999Y-70112500D01*
X105950000Y-85191560D02*
X105950000Y-89162500D01*
X80443800Y-30585600D02*
X80443800Y-32012500D01*
X96000000Y-66390300D02*
X96000000Y-69668701D01*
X124887068Y-82525058D02*
X124904334Y-82542324D01*
X272593586Y-89744993D02*
X272593586Y-90091430D01*
X263593800Y-38979112D02*
X263593800Y-32012500D01*
X266159800Y-62098900D02*
X267414942Y-62098900D01*
X124887068Y-82364800D02*
X124887068Y-82525058D01*
X263612414Y-92771907D02*
X258809684Y-92771907D01*
X79984270Y-37191260D02*
X77461702Y-37191260D01*
X267874999Y-74472084D02*
X267874999Y-70112500D01*
X254675200Y-55127380D02*
X254610996Y-55063176D01*
X263598488Y-38983800D02*
X263593800Y-38979112D01*
X92340000Y-46858000D02*
X92340000Y-51062499D01*
X105961810Y-85179750D02*
X105950000Y-85191560D01*
X266154229Y-74930518D02*
X266159800Y-74924947D01*
X273052791Y-90550635D02*
X276011864Y-90550635D01*
X124996800Y-89162500D02*
X125000000Y-89162500D01*
X80443799Y-32012500D02*
X80443799Y-36731731D01*
X264070621Y-89285600D02*
X272134193Y-89285600D01*
X77001900Y-38839100D02*
X77001900Y-37651062D01*
X277400000Y-89689400D02*
X277400000Y-89162500D01*
X263612414Y-92771907D02*
X263612414Y-89743807D01*
X258349999Y-89162500D02*
X258349999Y-92312222D01*
X254675200Y-55127380D02*
X254675200Y-51407101D01*
X124887068Y-82364800D02*
X124887068Y-89049569D01*
X264070621Y-89285614D02*
G75*
G03*
X263612414Y-89743807I-21J-458186D01*
G01*
X272593600Y-89744993D02*
G75*
G03*
X272134193Y-89285600I-459400J-7D01*
G01*
X92339999Y-51062485D02*
G75*
G03*
X91209785Y-52192714I1J-1130215D01*
G01*
X258349993Y-92312222D02*
G75*
G03*
X258809684Y-92771907I459707J22D01*
G01*
X96000000Y-69668701D02*
G75*
G03*
X96443799Y-70112500I443800J1D01*
G01*
X267875000Y-62558957D02*
G75*
G03*
X267414942Y-62098900I-460100J-43D01*
G01*
X254675200Y-51407101D02*
G75*
G03*
X254330599Y-51062500I-344600J1D01*
G01*
X272593565Y-90091430D02*
G75*
G03*
X273052791Y-90550635I459235J30D01*
G01*
X124887100Y-89049569D02*
G75*
G03*
X124999999Y-89162500I112900J-31D01*
G01*
X77461702Y-37191300D02*
G75*
G03*
X77001900Y-37651062I-2J-459800D01*
G01*
X276011864Y-90550599D02*
G75*
G03*
X277399999Y-89162500I36J1388099D01*
G01*
X92340000Y-51062499D02*
X92339999Y-51062500D01*
X267416594Y-74930499D02*
G75*
G03*
X267874999Y-74472084I6J458399D01*
G01*
X79984270Y-37191199D02*
G75*
G03*
X80443799Y-36731731I30J459499D01*
G01*
X99953633Y-39036100D02*
X111379602Y-39036100D01*
X111390000Y-51062500D02*
X111390000Y-46855391D01*
X282643800Y-38259300D02*
X282643800Y-32012500D01*
X213181589Y-40090639D02*
X213181589Y-39722577D01*
X197414619Y-38704496D02*
X197414619Y-40090288D01*
X115953514Y-76589600D02*
X131103846Y-76589600D01*
X197873894Y-40549563D02*
X212722665Y-40549563D01*
X292430600Y-55682631D02*
X292430600Y-51062500D01*
X286934000Y-66516200D02*
X286925000Y-66516200D01*
X287691190Y-56142032D02*
X291971199Y-56142032D01*
X115493800Y-64475741D02*
X115493800Y-76129886D01*
X286925000Y-66516200D02*
X286925000Y-70112500D01*
X270724708Y-52335611D02*
X270724718Y-55682616D01*
X99493800Y-32012500D02*
X99493800Y-38576267D01*
X286934000Y-59081000D02*
X286934000Y-56517468D01*
X132024025Y-77627321D02*
X143590284Y-77627321D01*
X270724708Y-52335611D02*
X272107488Y-52335611D01*
X144050000Y-78087037D02*
X144050000Y-108818700D01*
X195795586Y-38244000D02*
X196954123Y-38244000D01*
X115501861Y-64467680D02*
X115493800Y-64475741D01*
X286414898Y-56142032D02*
X287691190Y-56142032D01*
X286414898Y-56142032D02*
X286426186Y-56142032D01*
X195809816Y-38229770D02*
X195809816Y-34058147D01*
X131564230Y-77049984D02*
X131564230Y-77167526D01*
X271184135Y-56142032D02*
X286414898Y-56142032D01*
X213641097Y-39263069D02*
X215273241Y-39263069D01*
X287691190Y-56142032D02*
X287421262Y-56142036D01*
X111390000Y-46855391D02*
G75*
G03*
X111384609Y-46850000I-5400J-9D01*
G01*
X291971199Y-56142000D02*
G75*
G03*
X292430600Y-55682631I1J459400D01*
G01*
X111379602Y-39036114D02*
G75*
G03*
X111391583Y-39031137I-2J16914D01*
G01*
X131564179Y-77167526D02*
G75*
G03*
X132024025Y-77627321I459821J26D01*
G01*
X212722665Y-40549489D02*
G75*
G03*
X213181589Y-40090639I35J458889D01*
G01*
X287421262Y-56142000D02*
G75*
G03*
X286934000Y-56629304I38J-487300D01*
G01*
X270724668Y-55682616D02*
G75*
G03*
X271184135Y-56142032I459432J16D01*
G01*
X131564200Y-77049984D02*
G75*
G03*
X131103846Y-76589600I-460400J-16D01*
G01*
X286933968Y-56649877D02*
G75*
G03*
X286426186Y-56142032I-507768J77D01*
G01*
X99493800Y-38576267D02*
G75*
G03*
X99953633Y-39036100I459800J-33D01*
G01*
X144049979Y-78087037D02*
G75*
G03*
X143590284Y-77627321I-459679J37D01*
G01*
X195795586Y-38244016D02*
G75*
G03*
X195809816Y-38229770I14J14216D01*
G01*
X197414637Y-40090288D02*
G75*
G03*
X197873894Y-40549563I459263J-12D01*
G01*
X286951468Y-56500000D02*
G75*
G03*
X286934000Y-56517468I32J-17500D01*
G01*
X213641097Y-39263089D02*
G75*
G03*
X213181589Y-39722577I3J-459511D01*
G01*
X272107488Y-52335599D02*
G75*
G03*
X273380599Y-51062500I12J1273099D01*
G01*
X115493800Y-76129886D02*
G75*
G03*
X115953514Y-76589600I459700J-14D01*
G01*
X197414600Y-38704496D02*
G75*
G03*
X196954123Y-38244000I-460500J-4D01*
G01*
X315328100Y-95087500D02*
X319456904Y-95087500D01*
X197524589Y-26571432D02*
X197524612Y-25459216D01*
X320555327Y-76597300D02*
X320410409Y-76597294D01*
X149564818Y-94672341D02*
X149564818Y-94672590D01*
X319914800Y-94629604D02*
X319914800Y-77086146D01*
X149564818Y-87594396D02*
X149564818Y-94672341D01*
X197524589Y-36145713D02*
X197524589Y-26571432D01*
X324652500Y-56933646D02*
X324652500Y-58136552D01*
X148936686Y-95162400D02*
X149074745Y-95162403D01*
X301693800Y-32012500D02*
X301693800Y-36867877D01*
X144509358Y-74616959D02*
X145556009Y-74616959D01*
X144050000Y-36949594D02*
X144056694Y-36942900D01*
X146015500Y-75076450D02*
X146015500Y-86674715D01*
X311474400Y-55548330D02*
X311474400Y-51062500D01*
X303593800Y-94627722D02*
X303593800Y-89162500D01*
X163100000Y-104705552D02*
X163100000Y-108818700D01*
X324652500Y-58136552D02*
X324652500Y-76138674D01*
X302153223Y-37327300D02*
X327025563Y-37327300D01*
X314126998Y-95087500D02*
X304053578Y-95087500D01*
X143592800Y-70718700D02*
X144050000Y-70718700D01*
X144056694Y-51662005D02*
X144056694Y-36942900D01*
X308356300Y-70112500D02*
X308356300Y-76138354D01*
X197524589Y-26571432D02*
X197524589Y-26207677D01*
X324192993Y-56007900D02*
X311933970Y-56007900D01*
X327485100Y-37786837D02*
X327485100Y-57240072D01*
X163105779Y-104699773D02*
X163100000Y-104705552D01*
X143592800Y-56854800D02*
X143592800Y-52125899D01*
X163100000Y-94701980D02*
X163100000Y-89768700D01*
X314843800Y-103812500D02*
X314843800Y-95580109D01*
X144049999Y-70718700D02*
X144049999Y-74157600D01*
X178450000Y-25000000D02*
X197065405Y-25000000D01*
X143592800Y-66650000D02*
X143592800Y-70718700D01*
X146966800Y-95621837D02*
X146966800Y-101038900D01*
X199525266Y-36605959D02*
X197984835Y-36605959D01*
X324652500Y-56933646D02*
X324652513Y-57150534D01*
X314126998Y-95087500D02*
X314351189Y-95087499D01*
X148936686Y-95162400D02*
X147426237Y-95162400D01*
X319425954Y-76597300D02*
X320555327Y-76597300D01*
X327026572Y-57698600D02*
X325090452Y-57698600D01*
X324652500Y-56933646D02*
X324652500Y-56467407D01*
X144050000Y-72595600D02*
X144050000Y-70718700D01*
X314126998Y-95087500D02*
X315328100Y-95087500D01*
X146474993Y-87134208D02*
X149104630Y-87134208D01*
X150054628Y-95162400D02*
X162639580Y-95162400D01*
X308815246Y-76597300D02*
X319425954Y-76597300D01*
X150054628Y-95162400D02*
X148936686Y-95162400D01*
X320555327Y-76597300D02*
X324193874Y-76597300D01*
X144050041Y-74157600D02*
G75*
G03*
X144509358Y-74616959I459359J0D01*
G01*
X308356300Y-76138354D02*
G75*
G03*
X308815246Y-76597300I458900J-46D01*
G01*
X324193874Y-76597300D02*
G75*
G03*
X324652500Y-76138674I26J458600D01*
G01*
X147426237Y-95162400D02*
G75*
G03*
X146966800Y-95621837I-37J-459400D01*
G01*
X197524541Y-36145713D02*
G75*
G03*
X197984835Y-36605959I460259J13D01*
G01*
X315328100Y-95087500D02*
G75*
G03*
X314843800Y-95571800I0J-484300D01*
G01*
X311474400Y-55548330D02*
G75*
G03*
X311933970Y-56007900I459600J30D01*
G01*
X149564800Y-94672590D02*
G75*
G03*
X150054628Y-95162400I489800J-10D01*
G01*
X319456904Y-95087500D02*
G75*
G03*
X319914800Y-94629604I-4J457900D01*
G01*
X324652500Y-56467407D02*
G75*
G03*
X324192993Y-56007900I-459500J7D01*
G01*
X162639580Y-95162400D02*
G75*
G03*
X163100000Y-94701980I20J460400D01*
G01*
X146015541Y-75076450D02*
G75*
G03*
X145556009Y-74616959I-459541J-50D01*
G01*
X327485100Y-37786837D02*
G75*
G03*
X327025563Y-37327300I-459500J37D01*
G01*
X319914800Y-77086146D02*
G75*
G03*
X319425954Y-76597300I-488800J46D01*
G01*
X301693800Y-36867877D02*
G75*
G03*
X302153223Y-37327300I459400J-23D01*
G01*
X320410409Y-76597300D02*
G75*
G03*
X319914800Y-77092882I-9J-495600D01*
G01*
X325090452Y-57698600D02*
G75*
G03*
X324652500Y-58136552I48J-438000D01*
G01*
X314843801Y-95580109D02*
G75*
G03*
X314351189Y-95087499I-492601J9D01*
G01*
X149074745Y-95162318D02*
G75*
G03*
X149564818Y-94672341I55J490018D01*
G01*
X146015492Y-86674715D02*
G75*
G03*
X146474993Y-87134208I459508J15D01*
G01*
X144049999Y-51668700D02*
G75*
G03*
X143592800Y-52125899I1J-457200D01*
G01*
X144049999Y-51668694D02*
G75*
G03*
X144056694Y-51662005I1J6694D01*
G01*
X197524600Y-25459216D02*
G75*
G03*
X197065405Y-25000000I-459200J16D01*
G01*
X327026572Y-57698600D02*
G75*
G03*
X327485100Y-57240072I28J458500D01*
G01*
X303593800Y-94627722D02*
G75*
G03*
X304053578Y-95087500I459800J22D01*
G01*
X324652500Y-57150534D02*
G75*
G03*
X325200613Y-57698600I548100J34D01*
G01*
X149564792Y-87594396D02*
G75*
G03*
X149104630Y-87134208I-460192J-4D01*
G01*
X186481969Y-39026576D02*
X186481969Y-27786321D01*
X215988362Y-41459300D02*
X196295618Y-41459300D01*
X195834800Y-40998482D02*
X195834800Y-39943679D01*
X214765300Y-34066000D02*
X215988107Y-34066000D01*
X195376221Y-39485100D02*
X186940493Y-39485100D01*
X216447741Y-34525634D02*
X216447741Y-40999921D01*
X195834800Y-40998482D02*
G75*
G03*
X196295618Y-41459300I460800J-18D01*
G01*
X216447700Y-34525634D02*
G75*
G03*
X215988107Y-34066000I-459600J34D01*
G01*
X186482407Y-27785869D02*
G75*
G03*
X186481970Y-27786321I-7J-431D01*
G01*
X186481900Y-39026576D02*
G75*
G03*
X186940493Y-39485100I458600J76D01*
G01*
X195834800Y-39943679D02*
G75*
G03*
X195376221Y-39485100I-458600J-21D01*
G01*
X215988362Y-41459241D02*
G75*
G03*
X216447741Y-40999921I38J459341D01*
G01*
X201303200Y-42191900D02*
X216438857Y-42191900D01*
X216437912Y-31526000D02*
X214765300Y-31526000D01*
X216897741Y-41733016D02*
X216897741Y-31985829D01*
X164119000Y-38970900D02*
X164119000Y-30169000D01*
X216897700Y-31985829D02*
G75*
G03*
X216437912Y-31526000I-459800J29D01*
G01*
X164119000Y-30169000D02*
G75*
G03*
X163950000Y-30000000I-169000J0D01*
G01*
X216438857Y-42191841D02*
G75*
G03*
X216897741Y-41733016I43J458841D01*
G01*
X305089300Y-108353126D02*
X305089300Y-106049235D01*
X305548735Y-105589800D02*
X316771205Y-105589800D01*
X317688904Y-103238474D02*
X327506183Y-103238474D01*
X317229700Y-105131305D02*
X317229700Y-103697678D01*
X327966300Y-102778357D02*
X327966300Y-24133100D01*
X300343800Y-108812500D02*
X304629926Y-108812500D01*
X327506183Y-103238500D02*
G75*
G03*
X327966300Y-102778357I17J460100D01*
G01*
X305548735Y-105589800D02*
G75*
G03*
X305089300Y-106049235I-35J-459400D01*
G01*
X316771205Y-105589800D02*
G75*
G03*
X317229700Y-105131305I-5J458500D01*
G01*
X317688904Y-103238500D02*
G75*
G03*
X317229700Y-103697678I-4J-459200D01*
G01*
X304629926Y-108812500D02*
G75*
G03*
X305089300Y-108353126I-26J459400D01*
G01*
M02*
