G04 #@! TF.GenerationSoftware,KiCad,Pcbnew,7.0.9*
G04 #@! TF.CreationDate,2024-04-06T13:59:54+09:00*
G04 #@! TF.ProjectId,avain,61766169-6e2e-46b6-9963-61645f706362,rev?*
G04 #@! TF.SameCoordinates,Original*
G04 #@! TF.FileFunction,Soldermask,Bot*
G04 #@! TF.FilePolarity,Negative*
%FSLAX46Y46*%
G04 Gerber Fmt 4.6, Leading zero omitted, Abs format (unit mm)*
G04 Created by KiCad (PCBNEW 7.0.9) date 2024-04-06 13:59:54*
%MOMM*%
%LPD*%
G01*
G04 APERTURE LIST*
%ADD10C,3.100000*%
%ADD11C,5.000000*%
%ADD12R,3.000000X3.500000*%
%ADD13R,0.950000X1.300000*%
%ADD14R,2.200000X0.820000*%
%ADD15C,4.500000*%
%ADD16C,2.000000*%
%ADD17R,3.200000X2.500000*%
%ADD18R,1.300000X0.950000*%
%ADD19C,1.250000*%
G04 APERTURE END LIST*
D10*
X26601900Y-32012500D03*
D11*
X31601900Y-28312500D03*
D10*
X31601900Y-34212500D03*
D12*
X23251899Y-32012500D03*
X35151900Y-34212500D03*
D13*
X235743800Y-92262500D03*
X235743800Y-88712500D03*
X73818800Y-69662500D03*
X73818800Y-73212500D03*
X259556300Y-35112500D03*
X259556300Y-31562500D03*
X178593800Y-73818700D03*
X178593800Y-70268700D03*
D14*
X244700000Y-80206200D03*
X250600000Y-80206200D03*
X250600000Y-78706200D03*
X244700000Y-78706200D03*
D13*
X111918800Y-69662500D03*
X111918800Y-73212500D03*
D15*
X17287500Y-20250000D03*
D13*
X33337500Y-69662500D03*
X33337500Y-73212500D03*
X273843800Y-92262500D03*
X273843800Y-88712500D03*
D16*
X27843800Y-104193700D03*
X27843800Y-109193700D03*
X27843800Y-106693700D03*
D17*
X35343800Y-101093700D03*
X35343800Y-112293700D03*
D16*
X42343800Y-109193700D03*
X42343800Y-104193700D03*
D14*
X54200000Y-80206200D03*
X60100000Y-80206200D03*
X60100000Y-78706200D03*
X54200000Y-78706200D03*
X21537500Y-41956200D03*
X27437500Y-41956200D03*
X27437500Y-40456200D03*
X21537500Y-40456200D03*
X174400000Y-41112400D03*
X168500000Y-41112400D03*
X168500000Y-42612400D03*
X174400000Y-42612400D03*
X79150000Y-97706200D03*
X73250000Y-97706200D03*
X73250000Y-99206200D03*
X79150000Y-99206200D03*
X59640000Y-41956200D03*
X65540000Y-41956200D03*
X65540000Y-40456200D03*
X59640000Y-40456200D03*
X149450000Y-99862400D03*
X155350000Y-99862400D03*
X155350000Y-98362400D03*
X149450000Y-98362400D03*
D18*
X223275000Y-18876800D03*
X219725000Y-18876800D03*
D10*
X128350000Y-89162500D03*
D11*
X133350000Y-85462500D03*
D10*
X133350000Y-91362500D03*
D12*
X124999999Y-89162500D03*
X136900000Y-91362500D03*
D14*
X116790000Y-41956200D03*
X122690000Y-41956200D03*
X122690000Y-40456200D03*
X116790000Y-40456200D03*
D10*
X306943800Y-89162500D03*
D11*
X311943800Y-85462500D03*
D10*
X311943800Y-91362500D03*
D12*
X303593799Y-89162500D03*
X315493800Y-91362500D03*
D10*
X305043800Y-32012500D03*
D11*
X310043800Y-28312500D03*
D10*
X310043800Y-34212500D03*
D12*
X301693799Y-32012500D03*
X313593800Y-34212500D03*
D10*
X261700000Y-89162500D03*
D11*
X266700000Y-85462500D03*
D10*
X266700000Y-91362500D03*
D12*
X258349999Y-89162500D03*
X270250000Y-91362500D03*
D14*
X312993800Y-21456200D03*
X307093800Y-21456200D03*
X307093800Y-22956200D03*
X312993800Y-22956200D03*
D10*
X314824400Y-51062500D03*
D11*
X319824400Y-47362500D03*
D10*
X319824400Y-53262500D03*
D12*
X311474399Y-51062500D03*
X323374400Y-53262500D03*
D19*
X199525266Y-18845959D03*
X199525266Y-21365959D03*
X199525266Y-23905959D03*
X199525266Y-26435959D03*
X199525266Y-28985959D03*
X199525266Y-31525959D03*
X199525266Y-34065959D03*
X199525266Y-36605959D03*
X199525266Y-39145959D03*
X202065266Y-39145959D03*
X204615266Y-39145959D03*
X207145600Y-39145959D03*
X209695600Y-39145959D03*
X212225266Y-39145959D03*
X214765266Y-36605959D03*
X214765266Y-34065959D03*
X214765266Y-31525959D03*
X214765266Y-28985959D03*
X214765266Y-26435959D03*
X214765266Y-21365959D03*
X214765266Y-18845959D03*
D14*
X91743800Y-21456200D03*
X85843800Y-21456200D03*
X85843800Y-22956200D03*
X91743800Y-22956200D03*
D10*
X166450000Y-70718700D03*
D11*
X171450000Y-67018700D03*
D10*
X171450000Y-72918700D03*
D12*
X163099999Y-70718700D03*
X175000000Y-72918700D03*
D16*
X300343800Y-103812500D03*
X300343800Y-108812500D03*
X300343800Y-106312500D03*
D17*
X307843800Y-100712500D03*
X307843800Y-111912500D03*
D16*
X314843800Y-108812500D03*
X314843800Y-103812500D03*
D10*
X228843800Y-32012500D03*
D11*
X233843800Y-28312500D03*
D10*
X233843800Y-34212500D03*
D12*
X225493799Y-32012500D03*
X237393800Y-34212500D03*
D10*
X280750000Y-89162500D03*
D11*
X285750000Y-85462500D03*
D10*
X285750000Y-91362500D03*
D12*
X277399999Y-89162500D03*
X289300000Y-91362500D03*
D10*
X95690000Y-51062500D03*
D11*
X100690000Y-47362500D03*
D10*
X100690000Y-53262500D03*
D12*
X92339999Y-51062500D03*
X104240000Y-53262500D03*
D13*
X292893800Y-92262500D03*
X292893800Y-88712500D03*
D14*
X107743800Y-59456200D03*
X101843800Y-59456200D03*
X101843800Y-60956200D03*
X107743800Y-60956200D03*
D10*
X185500000Y-70718700D03*
D11*
X190500000Y-67018700D03*
D10*
X190500000Y-72918700D03*
D12*
X182149999Y-70718700D03*
X194050000Y-72918700D03*
D14*
X248218800Y-97706200D03*
X242318800Y-97706200D03*
X242318800Y-99206200D03*
X248218800Y-99206200D03*
X255843800Y-21456200D03*
X249943800Y-21456200D03*
X249943800Y-22956200D03*
X255843800Y-22956200D03*
D13*
X92868800Y-69662500D03*
X92868800Y-73212500D03*
D14*
X50593800Y-59456200D03*
X44693800Y-59456200D03*
X44693800Y-60956200D03*
X50593800Y-60956200D03*
D13*
X50006300Y-50612500D03*
X50006300Y-54162500D03*
D10*
X102843800Y-32012500D03*
D11*
X107843800Y-28312500D03*
D10*
X107843800Y-34212500D03*
D12*
X99493799Y-32012500D03*
X111393800Y-34212500D03*
D10*
X76640000Y-51062500D03*
D11*
X81640000Y-47362500D03*
D10*
X81640000Y-53262500D03*
D12*
X73289999Y-51062500D03*
X85190000Y-53262500D03*
D10*
X311706300Y-70112500D03*
D11*
X316706300Y-66412500D03*
D10*
X316706300Y-72312500D03*
D12*
X308356299Y-70112500D03*
X320256300Y-72312500D03*
D14*
X308993800Y-80206200D03*
X314893800Y-80206200D03*
X314893800Y-78706200D03*
X308993800Y-78706200D03*
D10*
X271225000Y-70112500D03*
D11*
X276225000Y-66412500D03*
D10*
X276225000Y-72312500D03*
D12*
X267874999Y-70112500D03*
X279775000Y-72312500D03*
D15*
X325637500Y-113050000D03*
D14*
X187550000Y-61612400D03*
X193450000Y-61612400D03*
X193450000Y-60112400D03*
X187550000Y-60112400D03*
X69643800Y-59456200D03*
X63743800Y-59456200D03*
X63743800Y-60956200D03*
X69643800Y-60956200D03*
D10*
X38540000Y-51062500D03*
D11*
X43540000Y-47362500D03*
D10*
X43540000Y-53262500D03*
D12*
X35189999Y-51062500D03*
X47090000Y-53262500D03*
D10*
X295780600Y-51062500D03*
D11*
X300780600Y-47362500D03*
D10*
X300780600Y-53262500D03*
D12*
X292430599Y-51062500D03*
X304330600Y-53262500D03*
D13*
X130968800Y-69662500D03*
X130968800Y-73212500D03*
D10*
X80743800Y-70112500D03*
D11*
X85743800Y-66412500D03*
D10*
X85743800Y-72312500D03*
D12*
X77393799Y-70112500D03*
X89293800Y-72312500D03*
D13*
X159543800Y-108368700D03*
X159543800Y-111918700D03*
X230981300Y-54162500D03*
X230981300Y-50612500D03*
D14*
X193450000Y-41112400D03*
X187550000Y-41112400D03*
X187550000Y-42612400D03*
X193450000Y-42612400D03*
X297830600Y-41956200D03*
X303730600Y-41956200D03*
X303730600Y-40456200D03*
X297830600Y-40456200D03*
D13*
X197643800Y-92950000D03*
X197643800Y-89400000D03*
X133350000Y-107762500D03*
X133350000Y-111312500D03*
X216693800Y-92262500D03*
X216693800Y-88712500D03*
D14*
X279175000Y-59456200D03*
X273275000Y-59456200D03*
X273275000Y-60956200D03*
X279175000Y-60956200D03*
X293943800Y-21456200D03*
X288043800Y-21456200D03*
X288043800Y-22956200D03*
X293943800Y-22956200D03*
D10*
X118843800Y-70112500D03*
D11*
X123843800Y-66412500D03*
D10*
X123843800Y-72312500D03*
D12*
X115493799Y-70112500D03*
X127393800Y-72312500D03*
D13*
X307181300Y-54162500D03*
X307181300Y-50612500D03*
D14*
X282800000Y-80206200D03*
X288700000Y-80206200D03*
X288700000Y-78706200D03*
X282800000Y-78706200D03*
X73250000Y-80206200D03*
X79150000Y-80206200D03*
X79150000Y-78706200D03*
X73250000Y-78706200D03*
X319656300Y-59456200D03*
X313756300Y-59456200D03*
X313756300Y-60956200D03*
X319656300Y-60956200D03*
D13*
X182500000Y-26725000D03*
X182500000Y-30275000D03*
D15*
X17287500Y-113050000D03*
D14*
X130400000Y-80206200D03*
X136300000Y-80206200D03*
X136300000Y-78706200D03*
X130400000Y-78706200D03*
D13*
X264318800Y-73212500D03*
X264318800Y-69662500D03*
D10*
X90250000Y-89162500D03*
D11*
X95250000Y-85462500D03*
D10*
X95250000Y-91362500D03*
D12*
X86899999Y-89162500D03*
X98800000Y-91362500D03*
D13*
X140493800Y-88712500D03*
X140493800Y-92262500D03*
X326231300Y-54162500D03*
X326231300Y-50612500D03*
X269081300Y-54162500D03*
X269081300Y-50612500D03*
D10*
X114740000Y-51062500D03*
D11*
X119740000Y-47362500D03*
D10*
X119740000Y-53262500D03*
D12*
X111389999Y-51062500D03*
X123290000Y-53262500D03*
D13*
X159543800Y-70268700D03*
X159543800Y-73818700D03*
D14*
X274893800Y-21456200D03*
X268993800Y-21456200D03*
X268993800Y-22956200D03*
X274893800Y-22956200D03*
D15*
X325637500Y-20250000D03*
D13*
X38100000Y-88712500D03*
X38100000Y-92262500D03*
D14*
X111350000Y-80206200D03*
X117250000Y-80206200D03*
X117250000Y-78706200D03*
X111350000Y-78706200D03*
D10*
X147400000Y-51668700D03*
D11*
X152400000Y-47968700D03*
D10*
X152400000Y-53868700D03*
D12*
X144049999Y-51668700D03*
X155950000Y-53868700D03*
D14*
X129156300Y-97706200D03*
X123256300Y-97706200D03*
X123256300Y-99206200D03*
X129156300Y-99206200D03*
X155350000Y-79112400D03*
X149450000Y-79112400D03*
X149450000Y-80612400D03*
X155350000Y-80612400D03*
D13*
X197643800Y-73900000D03*
X197643800Y-70350000D03*
D14*
X278780600Y-41956200D03*
X284680600Y-41956200D03*
X284680600Y-40456200D03*
X278780600Y-40456200D03*
D10*
X261700000Y-108300000D03*
D11*
X266700000Y-104600000D03*
D10*
X266700000Y-110500000D03*
D12*
X258349999Y-108300000D03*
X270250000Y-110500000D03*
D14*
X149450000Y-61612400D03*
X155350000Y-61612400D03*
X155350000Y-60112400D03*
X149450000Y-60112400D03*
D10*
X166450000Y-51668700D03*
D11*
X171450000Y-47968700D03*
D10*
X171450000Y-53868700D03*
D12*
X163099999Y-51668700D03*
X175000000Y-53868700D03*
D10*
X42643800Y-70112500D03*
D11*
X47643800Y-66412500D03*
D10*
X47643800Y-72312500D03*
D12*
X39293799Y-70112500D03*
X51193800Y-72312500D03*
D14*
X260125000Y-59456200D03*
X254225000Y-59456200D03*
X254225000Y-60956200D03*
X260125000Y-60956200D03*
D10*
X109300000Y-89162500D03*
D11*
X114300000Y-85462500D03*
D10*
X114300000Y-91362500D03*
D12*
X105949999Y-89162500D03*
X117850000Y-91362500D03*
D10*
X238630600Y-51062500D03*
D11*
X243630600Y-47362500D03*
D10*
X243630600Y-53262500D03*
D12*
X235280599Y-51062500D03*
X247180600Y-53262500D03*
D13*
X302418800Y-73212500D03*
X302418800Y-69662500D03*
X240506300Y-35112500D03*
X240506300Y-31562500D03*
X178593800Y-89318700D03*
X178593800Y-92868700D03*
X121443800Y-88712500D03*
X121443800Y-92262500D03*
D14*
X28006300Y-80206200D03*
X33906300Y-80206200D03*
X33906300Y-78706200D03*
X28006300Y-78706200D03*
D10*
X214075000Y-70112500D03*
D11*
X219075000Y-66412500D03*
D10*
X219075000Y-72312500D03*
D12*
X210724999Y-70112500D03*
X222625000Y-72312500D03*
D14*
X206600000Y-80206200D03*
X212500000Y-80206200D03*
X212500000Y-78706200D03*
X206600000Y-78706200D03*
D10*
X61693800Y-70112500D03*
D11*
X66693800Y-66412500D03*
D10*
X66693800Y-72312500D03*
D12*
X58343799Y-70112500D03*
X70243800Y-72312500D03*
D13*
X250031300Y-54162500D03*
X250031300Y-50612500D03*
X316706300Y-35112500D03*
X316706300Y-31562500D03*
X83343800Y-107762500D03*
X83343800Y-111312500D03*
D10*
X242650000Y-89162500D03*
D11*
X247650000Y-85462500D03*
D10*
X247650000Y-91362500D03*
D12*
X239299999Y-89162500D03*
X251200000Y-91362500D03*
D10*
X185500000Y-89768700D03*
D11*
X190500000Y-86068700D03*
D10*
X190500000Y-91968700D03*
D12*
X182149999Y-89768700D03*
X194050000Y-91968700D03*
D14*
X193450000Y-79112400D03*
X187550000Y-79112400D03*
X187550000Y-80612400D03*
X193450000Y-80612400D03*
D13*
X69056300Y-50612500D03*
X69056300Y-54162500D03*
D14*
X88693800Y-59456200D03*
X82793800Y-59456200D03*
X82793800Y-60956200D03*
X88693800Y-60956200D03*
D13*
X245268800Y-73212500D03*
X245268800Y-69662500D03*
X38100000Y-31562500D03*
X38100000Y-35112500D03*
X102393800Y-88712500D03*
X102393800Y-92262500D03*
D10*
X211693800Y-108300000D03*
D11*
X216693800Y-104600000D03*
D10*
X216693800Y-110500000D03*
D12*
X208343799Y-108300000D03*
X220243800Y-110500000D03*
D10*
X99793800Y-70112500D03*
D11*
X104793800Y-66412500D03*
D10*
X104793800Y-72312500D03*
D12*
X96443799Y-70112500D03*
X108343800Y-72312500D03*
D13*
X159543800Y-89318700D03*
X159543800Y-92868700D03*
X54768800Y-69662500D03*
X54768800Y-73212500D03*
D10*
X71200000Y-89162500D03*
D11*
X76200000Y-85462500D03*
D10*
X76200000Y-91362500D03*
D12*
X67849999Y-89162500D03*
X79750000Y-91362500D03*
D14*
X187550000Y-99862400D03*
X193450000Y-99862400D03*
X193450000Y-98362400D03*
X187550000Y-98362400D03*
X240680600Y-41956200D03*
X246580600Y-41956200D03*
X246580600Y-40456200D03*
X240680600Y-40456200D03*
X40590000Y-41956200D03*
X46490000Y-41956200D03*
X46490000Y-40456200D03*
X40590000Y-40456200D03*
D10*
X240268800Y-108300000D03*
D11*
X245268800Y-104600000D03*
D10*
X245268800Y-110500000D03*
D12*
X236918799Y-108300000D03*
X248818800Y-110500000D03*
D14*
X259730600Y-41956200D03*
X265630600Y-41956200D03*
X265630600Y-40456200D03*
X259730600Y-40456200D03*
X29162500Y-59456200D03*
X23262500Y-59456200D03*
X23262500Y-60956200D03*
X29162500Y-60956200D03*
D10*
X57590000Y-51062500D03*
D11*
X62590000Y-47362500D03*
D10*
X62590000Y-53262500D03*
D12*
X54239999Y-51062500D03*
X66140000Y-53262500D03*
D13*
X47625000Y-104918700D03*
X47625000Y-108468700D03*
D10*
X92631300Y-108300000D03*
D11*
X97631300Y-104600000D03*
D10*
X97631300Y-110500000D03*
D12*
X89281299Y-108300000D03*
X101181300Y-110500000D03*
D13*
X197643800Y-112000000D03*
X197643800Y-108450000D03*
D10*
X252175000Y-70112500D03*
D11*
X257175000Y-66412500D03*
D10*
X257175000Y-72312500D03*
D12*
X248824999Y-70112500D03*
X260725000Y-72312500D03*
D10*
X204550000Y-89162500D03*
D11*
X209550000Y-85462500D03*
D10*
X209550000Y-91362500D03*
D12*
X201199999Y-89162500D03*
X213100000Y-91362500D03*
D16*
X163950000Y-25000000D03*
X163950000Y-30000000D03*
X163950000Y-27500000D03*
D17*
X171450000Y-21900000D03*
X171450000Y-33100000D03*
D16*
X178450000Y-30000000D03*
X178450000Y-25000000D03*
D14*
X155350000Y-41112400D03*
X149450000Y-41112400D03*
X149450000Y-42612400D03*
X155350000Y-42612400D03*
D10*
X64743800Y-32012500D03*
D11*
X69743800Y-28312500D03*
D10*
X69743800Y-34212500D03*
D12*
X61393799Y-32012500D03*
X73293800Y-34212500D03*
D14*
X316874400Y-41956200D03*
X322774400Y-41956200D03*
X322774400Y-40456200D03*
X316874400Y-40456200D03*
D13*
X273843800Y-111312500D03*
X273843800Y-107762500D03*
X223837500Y-111312500D03*
X223837500Y-107762500D03*
D14*
X168500000Y-61612400D03*
X174400000Y-61612400D03*
X174400000Y-60112400D03*
X168500000Y-60112400D03*
X263750000Y-80206200D03*
X269650000Y-80206200D03*
X269650000Y-78706200D03*
X263750000Y-78706200D03*
D13*
X126206300Y-50612500D03*
X126206300Y-54162500D03*
D14*
X53643800Y-21456200D03*
X47743800Y-21456200D03*
X47743800Y-22956200D03*
X53643800Y-22956200D03*
D10*
X147400000Y-89768700D03*
D11*
X152400000Y-86068700D03*
D10*
X152400000Y-91968700D03*
D12*
X144049999Y-89768700D03*
X155950000Y-91968700D03*
D13*
X83343800Y-88712500D03*
X83343800Y-92262500D03*
X297656300Y-35112500D03*
X297656300Y-31562500D03*
D14*
X298225000Y-59456200D03*
X292325000Y-59456200D03*
X292325000Y-60956200D03*
X298225000Y-60956200D03*
D10*
X83793800Y-32012500D03*
D11*
X88793800Y-28312500D03*
D10*
X88793800Y-34212500D03*
D12*
X80443799Y-32012500D03*
X92343800Y-34212500D03*
D10*
X257680600Y-51062500D03*
D11*
X262680600Y-47362500D03*
D10*
X262680600Y-53262500D03*
D12*
X254330599Y-51062500D03*
X266230600Y-53262500D03*
D13*
X283368800Y-73212500D03*
X283368800Y-69662500D03*
D10*
X166450000Y-108818700D03*
D11*
X171450000Y-105118700D03*
D10*
X171450000Y-111018700D03*
D12*
X163099999Y-108818700D03*
X175000000Y-111018700D03*
D10*
X19487500Y-51062500D03*
D11*
X24487500Y-47362500D03*
D10*
X24487500Y-53262500D03*
D12*
X16137499Y-51062500D03*
X28037500Y-53262500D03*
D14*
X34551900Y-21456200D03*
X28651900Y-21456200D03*
X28651900Y-22956200D03*
X34551900Y-22956200D03*
D13*
X95250000Y-31562500D03*
X95250000Y-35112500D03*
X226218800Y-73212500D03*
X226218800Y-69662500D03*
X197500000Y-54775000D03*
X197500000Y-51225000D03*
D10*
X45693800Y-32012500D03*
D11*
X50693800Y-28312500D03*
D10*
X50693800Y-34212500D03*
D12*
X42343799Y-32012500D03*
X54243800Y-34212500D03*
D10*
X185500000Y-108818700D03*
D11*
X190500000Y-105118700D03*
D10*
X190500000Y-111018700D03*
D12*
X182149999Y-108818700D03*
X194050000Y-111018700D03*
D13*
X178593800Y-108368700D03*
X178593800Y-111918700D03*
D14*
X219643800Y-97706200D03*
X213743800Y-97706200D03*
X213743800Y-99206200D03*
X219643800Y-99206200D03*
X110793800Y-21456200D03*
X104893800Y-21456200D03*
X104893800Y-22956200D03*
X110793800Y-22956200D03*
D13*
X114300000Y-31562500D03*
X114300000Y-35112500D03*
D10*
X21212500Y-70112500D03*
D11*
X26212500Y-66412500D03*
D10*
X26212500Y-72312500D03*
D12*
X17862499Y-70112500D03*
X29762500Y-72312500D03*
D13*
X323850000Y-73212500D03*
X323850000Y-69662500D03*
D14*
X269650000Y-97706200D03*
X263750000Y-97706200D03*
X263750000Y-99206200D03*
X269650000Y-99206200D03*
D13*
X319087500Y-92262500D03*
X319087500Y-88712500D03*
X252412500Y-111312500D03*
X252412500Y-107762500D03*
X254793800Y-92262500D03*
X254793800Y-88712500D03*
D14*
X92300000Y-80206200D03*
X98200000Y-80206200D03*
X98200000Y-78706200D03*
X92300000Y-78706200D03*
D10*
X223600000Y-89162500D03*
D11*
X228600000Y-85462500D03*
D10*
X228600000Y-91362500D03*
D12*
X220249999Y-89162500D03*
X232150000Y-91362500D03*
D13*
X30956300Y-50612500D03*
X30956300Y-54162500D03*
D14*
X241075000Y-59456200D03*
X235175000Y-59456200D03*
X235175000Y-60956200D03*
X241075000Y-60956200D03*
X78690000Y-41956200D03*
X84590000Y-41956200D03*
X84590000Y-40456200D03*
X78690000Y-40456200D03*
D10*
X52150000Y-89162500D03*
D11*
X57150000Y-85462500D03*
D10*
X57150000Y-91362500D03*
D12*
X48799999Y-89162500D03*
X60700000Y-91362500D03*
D10*
X166450000Y-89768700D03*
D11*
X171450000Y-86068700D03*
D10*
X171450000Y-91968700D03*
D12*
X163099999Y-89768700D03*
X175000000Y-91968700D03*
D14*
X225650000Y-80206200D03*
X231550000Y-80206200D03*
X231550000Y-78706200D03*
X225650000Y-78706200D03*
D10*
X290275000Y-70112500D03*
D11*
X295275000Y-66412500D03*
D10*
X295275000Y-72312500D03*
D12*
X286924999Y-70112500D03*
X298825000Y-72312500D03*
D14*
X221550000Y-41956200D03*
X227450000Y-41956200D03*
X227450000Y-40456200D03*
X221550000Y-40456200D03*
X100581300Y-97706200D03*
X94681300Y-97706200D03*
X94681300Y-99206200D03*
X100581300Y-99206200D03*
D10*
X121206300Y-108300000D03*
D11*
X126206300Y-104600000D03*
D10*
X126206300Y-110500000D03*
D12*
X117856299Y-108300000D03*
X129756300Y-110500000D03*
D14*
X97740000Y-41956200D03*
X103640000Y-41956200D03*
X103640000Y-40456200D03*
X97740000Y-40456200D03*
X168500000Y-99862400D03*
X174400000Y-99862400D03*
X174400000Y-98362400D03*
X168500000Y-98362400D03*
D10*
X219580600Y-51062500D03*
D11*
X224580600Y-47362500D03*
D10*
X224580600Y-53262500D03*
D12*
X216230599Y-51062500D03*
X228130600Y-53262500D03*
D13*
X159543800Y-51218700D03*
X159543800Y-54768700D03*
D10*
X247893800Y-32012500D03*
D11*
X252893800Y-28312500D03*
D10*
X252893800Y-34212500D03*
D12*
X244543799Y-32012500D03*
X256443800Y-34212500D03*
D14*
X174400000Y-79112400D03*
X168500000Y-79112400D03*
X168500000Y-80612400D03*
X174400000Y-80612400D03*
D10*
X276730600Y-51062500D03*
D11*
X281730600Y-47362500D03*
D10*
X281730600Y-53262500D03*
D12*
X273380599Y-51062500D03*
X285280600Y-53262500D03*
D13*
X178593800Y-54768700D03*
X178593800Y-51218700D03*
X107156300Y-50612500D03*
X107156300Y-54162500D03*
X57150000Y-31562500D03*
X57150000Y-35112500D03*
D10*
X147400000Y-70718700D03*
D11*
X152400000Y-67018700D03*
D10*
X152400000Y-72918700D03*
D12*
X144049999Y-70718700D03*
X155950000Y-72918700D03*
D13*
X104775000Y-107762500D03*
X104775000Y-111312500D03*
D10*
X266943800Y-32012500D03*
D11*
X271943800Y-28312500D03*
D10*
X271943800Y-34212500D03*
D12*
X263593799Y-32012500D03*
X275493800Y-34212500D03*
D10*
X285993800Y-32012500D03*
D11*
X290993800Y-28312500D03*
D10*
X290993800Y-34212500D03*
D12*
X282643799Y-32012500D03*
X294543800Y-34212500D03*
D14*
X126793800Y-59456200D03*
X120893800Y-59456200D03*
X120893800Y-60956200D03*
X126793800Y-60956200D03*
D13*
X319087500Y-108087500D03*
X319087500Y-104537500D03*
X64293800Y-88712500D03*
X64293800Y-92262500D03*
D14*
X222025000Y-59456200D03*
X216125000Y-59456200D03*
X216125000Y-60956200D03*
X222025000Y-60956200D03*
D10*
X233125000Y-70112500D03*
D11*
X238125000Y-66412500D03*
D10*
X238125000Y-72312500D03*
D12*
X229774999Y-70112500D03*
X241675000Y-72312500D03*
D10*
X185500000Y-51668700D03*
D11*
X190500000Y-47968700D03*
D10*
X190500000Y-53868700D03*
D12*
X182149999Y-51668700D03*
X194050000Y-53868700D03*
D13*
X278606300Y-35112500D03*
X278606300Y-31562500D03*
D10*
X71200000Y-108300000D03*
D11*
X76200000Y-104600000D03*
D10*
X76200000Y-110500000D03*
D12*
X67849999Y-108300000D03*
X79750000Y-110500000D03*
D13*
X76200000Y-31562500D03*
X76200000Y-35112500D03*
D14*
X236793800Y-21456200D03*
X230893800Y-21456200D03*
X230893800Y-22956200D03*
X236793800Y-22956200D03*
X72693800Y-21456200D03*
X66793800Y-21456200D03*
X66793800Y-22956200D03*
X72693800Y-22956200D03*
D13*
X288131300Y-54162500D03*
X288131300Y-50612500D03*
D10*
X147400000Y-108818700D03*
D11*
X152400000Y-105118700D03*
D10*
X152400000Y-111018700D03*
D12*
X144049999Y-108818700D03*
X155950000Y-111018700D03*
D13*
X88106300Y-50612500D03*
X88106300Y-54162500D03*
D10*
X25956300Y-89162500D03*
D11*
X30956300Y-85462500D03*
D10*
X30956300Y-91362500D03*
D12*
X22606299Y-89162500D03*
X34506300Y-91362500D03*
M02*
