G04 #@! TF.GenerationSoftware,KiCad,Pcbnew,7.0.9*
G04 #@! TF.CreationDate,2024-04-06T13:59:54+09:00*
G04 #@! TF.ProjectId,avain,61766169-6e2e-46b6-9963-61645f706362,rev?*
G04 #@! TF.SameCoordinates,Original*
G04 #@! TF.FileFunction,Soldermask,Top*
G04 #@! TF.FilePolarity,Negative*
%FSLAX46Y46*%
G04 Gerber Fmt 4.6, Leading zero omitted, Abs format (unit mm)*
G04 Created by KiCad (PCBNEW 7.0.9) date 2024-04-06 13:59:54*
%MOMM*%
%LPD*%
G01*
G04 APERTURE LIST*
%ADD10C,3.100000*%
%ADD11C,5.000000*%
%ADD12C,4.500000*%
%ADD13C,2.000000*%
%ADD14R,3.200000X2.500000*%
%ADD15C,1.250000*%
%ADD16O,2.500000X1.500000*%
%ADD17O,1.500000X2.500000*%
G04 APERTURE END LIST*
D10*
X26601900Y-32012500D03*
D11*
X31601900Y-28312500D03*
D10*
X31601900Y-34212500D03*
D12*
X17287500Y-20250000D03*
D13*
X27843800Y-104193700D03*
X27843800Y-109193700D03*
X27843800Y-106693700D03*
D14*
X35343800Y-101093700D03*
X35343800Y-112293700D03*
D13*
X42343800Y-109193700D03*
X42343800Y-104193700D03*
D10*
X128350000Y-89162500D03*
D11*
X133350000Y-85462500D03*
D10*
X133350000Y-91362500D03*
X306943800Y-89162500D03*
D11*
X311943800Y-85462500D03*
D10*
X311943800Y-91362500D03*
X305043800Y-32012500D03*
D11*
X310043800Y-28312500D03*
D10*
X310043800Y-34212500D03*
X261700000Y-89162500D03*
D11*
X266700000Y-85462500D03*
D10*
X266700000Y-91362500D03*
X314824400Y-51062500D03*
D11*
X319824400Y-47362500D03*
D10*
X319824400Y-53262500D03*
D15*
X199525266Y-18845959D03*
D16*
X199024986Y-18845959D03*
D15*
X199525266Y-21365959D03*
D16*
X199024986Y-21365959D03*
D15*
X199525266Y-23905959D03*
D16*
X199024986Y-23905959D03*
D15*
X199525266Y-26435959D03*
D16*
X199024986Y-26435959D03*
D15*
X199525266Y-28985959D03*
D16*
X199024986Y-28985959D03*
D15*
X199525266Y-31525959D03*
D16*
X199024986Y-31525959D03*
D15*
X199525266Y-34065959D03*
D16*
X199024986Y-34065959D03*
D15*
X199525266Y-36605959D03*
D16*
X199024986Y-36605959D03*
D15*
X199525266Y-39145959D03*
D16*
X199024986Y-39145959D03*
D17*
X202065266Y-39640300D03*
D15*
X202065266Y-39145959D03*
D17*
X204615266Y-39640300D03*
D15*
X204615266Y-39145959D03*
D17*
X207145600Y-39640300D03*
D15*
X207145600Y-39145959D03*
D17*
X209695600Y-39640300D03*
D15*
X209695600Y-39145959D03*
D17*
X212225266Y-39640300D03*
D15*
X212225266Y-39145959D03*
D16*
X215265600Y-36605959D03*
D15*
X214765266Y-36605959D03*
D16*
X215265600Y-34065959D03*
D15*
X214765266Y-34065959D03*
D16*
X215265600Y-31525959D03*
D15*
X214765266Y-31525959D03*
D16*
X215265600Y-28985959D03*
D15*
X214765266Y-28985959D03*
D16*
X215265600Y-26435959D03*
D15*
X214765266Y-26435959D03*
D16*
X215265600Y-21365959D03*
D15*
X214765266Y-21365959D03*
D16*
X215265600Y-18845959D03*
D15*
X214765266Y-18845959D03*
D10*
X166450000Y-70718700D03*
D11*
X171450000Y-67018700D03*
D10*
X171450000Y-72918700D03*
D13*
X300343800Y-103812500D03*
X300343800Y-108812500D03*
X300343800Y-106312500D03*
D14*
X307843800Y-100712500D03*
X307843800Y-111912500D03*
D13*
X314843800Y-108812500D03*
X314843800Y-103812500D03*
D10*
X228843800Y-32012500D03*
D11*
X233843800Y-28312500D03*
D10*
X233843800Y-34212500D03*
X280750000Y-89162500D03*
D11*
X285750000Y-85462500D03*
D10*
X285750000Y-91362500D03*
X95690000Y-51062500D03*
D11*
X100690000Y-47362500D03*
D10*
X100690000Y-53262500D03*
X185500000Y-70718700D03*
D11*
X190500000Y-67018700D03*
D10*
X190500000Y-72918700D03*
X102843800Y-32012500D03*
D11*
X107843800Y-28312500D03*
D10*
X107843800Y-34212500D03*
X76640000Y-51062500D03*
D11*
X81640000Y-47362500D03*
D10*
X81640000Y-53262500D03*
X311706300Y-70112500D03*
D11*
X316706300Y-66412500D03*
D10*
X316706300Y-72312500D03*
X271225000Y-70112500D03*
D11*
X276225000Y-66412500D03*
D10*
X276225000Y-72312500D03*
D12*
X325637500Y-113050000D03*
D10*
X38540000Y-51062500D03*
D11*
X43540000Y-47362500D03*
D10*
X43540000Y-53262500D03*
X295780600Y-51062500D03*
D11*
X300780600Y-47362500D03*
D10*
X300780600Y-53262500D03*
X80743800Y-70112500D03*
D11*
X85743800Y-66412500D03*
D10*
X85743800Y-72312500D03*
X118843800Y-70112500D03*
D11*
X123843800Y-66412500D03*
D10*
X123843800Y-72312500D03*
D12*
X17287500Y-113050000D03*
D10*
X90250000Y-89162500D03*
D11*
X95250000Y-85462500D03*
D10*
X95250000Y-91362500D03*
X114740000Y-51062500D03*
D11*
X119740000Y-47362500D03*
D10*
X119740000Y-53262500D03*
D12*
X325637500Y-20250000D03*
D10*
X147400000Y-51668700D03*
D11*
X152400000Y-47968700D03*
D10*
X152400000Y-53868700D03*
X261700000Y-108300000D03*
D11*
X266700000Y-104600000D03*
D10*
X266700000Y-110500000D03*
X166450000Y-51668700D03*
D11*
X171450000Y-47968700D03*
D10*
X171450000Y-53868700D03*
X42643800Y-70112500D03*
D11*
X47643800Y-66412500D03*
D10*
X47643800Y-72312500D03*
X109300000Y-89162500D03*
D11*
X114300000Y-85462500D03*
D10*
X114300000Y-91362500D03*
X238630600Y-51062500D03*
D11*
X243630600Y-47362500D03*
D10*
X243630600Y-53262500D03*
X214075000Y-70112500D03*
D11*
X219075000Y-66412500D03*
D10*
X219075000Y-72312500D03*
X61693800Y-70112500D03*
D11*
X66693800Y-66412500D03*
D10*
X66693800Y-72312500D03*
X242650000Y-89162500D03*
D11*
X247650000Y-85462500D03*
D10*
X247650000Y-91362500D03*
X185500000Y-89768700D03*
D11*
X190500000Y-86068700D03*
D10*
X190500000Y-91968700D03*
X211693800Y-108300000D03*
D11*
X216693800Y-104600000D03*
D10*
X216693800Y-110500000D03*
X99793800Y-70112500D03*
D11*
X104793800Y-66412500D03*
D10*
X104793800Y-72312500D03*
X71200000Y-89162500D03*
D11*
X76200000Y-85462500D03*
D10*
X76200000Y-91362500D03*
X240268800Y-108300000D03*
D11*
X245268800Y-104600000D03*
D10*
X245268800Y-110500000D03*
X57590000Y-51062500D03*
D11*
X62590000Y-47362500D03*
D10*
X62590000Y-53262500D03*
X92631300Y-108300000D03*
D11*
X97631300Y-104600000D03*
D10*
X97631300Y-110500000D03*
X252175000Y-70112500D03*
D11*
X257175000Y-66412500D03*
D10*
X257175000Y-72312500D03*
X204550000Y-89162500D03*
D11*
X209550000Y-85462500D03*
D10*
X209550000Y-91362500D03*
D13*
X163950000Y-25000000D03*
X163950000Y-30000000D03*
X163950000Y-27500000D03*
D14*
X171450000Y-21900000D03*
X171450000Y-33100000D03*
D13*
X178450000Y-30000000D03*
X178450000Y-25000000D03*
D10*
X64743800Y-32012500D03*
D11*
X69743800Y-28312500D03*
D10*
X69743800Y-34212500D03*
X147400000Y-89768700D03*
D11*
X152400000Y-86068700D03*
D10*
X152400000Y-91968700D03*
X83793800Y-32012500D03*
D11*
X88793800Y-28312500D03*
D10*
X88793800Y-34212500D03*
X257680600Y-51062500D03*
D11*
X262680600Y-47362500D03*
D10*
X262680600Y-53262500D03*
X166450000Y-108818700D03*
D11*
X171450000Y-105118700D03*
D10*
X171450000Y-111018700D03*
X19487500Y-51062500D03*
D11*
X24487500Y-47362500D03*
D10*
X24487500Y-53262500D03*
X45693800Y-32012500D03*
D11*
X50693800Y-28312500D03*
D10*
X50693800Y-34212500D03*
X185500000Y-108818700D03*
D11*
X190500000Y-105118700D03*
D10*
X190500000Y-111018700D03*
X21212500Y-70112500D03*
D11*
X26212500Y-66412500D03*
D10*
X26212500Y-72312500D03*
X223600000Y-89162500D03*
D11*
X228600000Y-85462500D03*
D10*
X228600000Y-91362500D03*
X52150000Y-89162500D03*
D11*
X57150000Y-85462500D03*
D10*
X57150000Y-91362500D03*
X166450000Y-89768700D03*
D11*
X171450000Y-86068700D03*
D10*
X171450000Y-91968700D03*
X290275000Y-70112500D03*
D11*
X295275000Y-66412500D03*
D10*
X295275000Y-72312500D03*
X121206300Y-108300000D03*
D11*
X126206300Y-104600000D03*
D10*
X126206300Y-110500000D03*
X219580600Y-51062500D03*
D11*
X224580600Y-47362500D03*
D10*
X224580600Y-53262500D03*
X247893800Y-32012500D03*
D11*
X252893800Y-28312500D03*
D10*
X252893800Y-34212500D03*
X276730600Y-51062500D03*
D11*
X281730600Y-47362500D03*
D10*
X281730600Y-53262500D03*
X147400000Y-70718700D03*
D11*
X152400000Y-67018700D03*
D10*
X152400000Y-72918700D03*
X266943800Y-32012500D03*
D11*
X271943800Y-28312500D03*
D10*
X271943800Y-34212500D03*
X285993800Y-32012500D03*
D11*
X290993800Y-28312500D03*
D10*
X290993800Y-34212500D03*
X233125000Y-70112500D03*
D11*
X238125000Y-66412500D03*
D10*
X238125000Y-72312500D03*
X185500000Y-51668700D03*
D11*
X190500000Y-47968700D03*
D10*
X190500000Y-53868700D03*
X71200000Y-108300000D03*
D11*
X76200000Y-104600000D03*
D10*
X76200000Y-110500000D03*
X147400000Y-108818700D03*
D11*
X152400000Y-105118700D03*
D10*
X152400000Y-111018700D03*
X25956300Y-89162500D03*
D11*
X30956300Y-85462500D03*
D10*
X30956300Y-91362500D03*
M02*
