G04 #@! TF.GenerationSoftware,KiCad,Pcbnew,7.0.9*
G04 #@! TF.CreationDate,2024-04-06T13:59:54+09:00*
G04 #@! TF.ProjectId,avain,61766169-6e2e-46b6-9963-61645f706362,rev?*
G04 #@! TF.SameCoordinates,Original*
G04 #@! TF.FileFunction,Legend,Top*
G04 #@! TF.FilePolarity,Positive*
%FSLAX46Y46*%
G04 Gerber Fmt 4.6, Leading zero omitted, Abs format (unit mm)*
G04 Created by KiCad (PCBNEW 7.0.9) date 2024-04-06 13:59:54*
%MOMM*%
%LPD*%
G01*
G04 APERTURE LIST*
%ADD10C,0.100000*%
%ADD11C,0.150000*%
G04 APERTURE END LIST*
D10*
X209234649Y-41433622D02*
X209067983Y-41195527D01*
X208948935Y-41433622D02*
X208948935Y-40933622D01*
X208948935Y-40933622D02*
X209139411Y-40933622D01*
X209139411Y-40933622D02*
X209187030Y-40957432D01*
X209187030Y-40957432D02*
X209210840Y-40981241D01*
X209210840Y-40981241D02*
X209234649Y-41028860D01*
X209234649Y-41028860D02*
X209234649Y-41100289D01*
X209234649Y-41100289D02*
X209210840Y-41147908D01*
X209210840Y-41147908D02*
X209187030Y-41171717D01*
X209187030Y-41171717D02*
X209139411Y-41195527D01*
X209139411Y-41195527D02*
X208948935Y-41195527D01*
X209520364Y-41433622D02*
X209472745Y-41409813D01*
X209472745Y-41409813D02*
X209448935Y-41386003D01*
X209448935Y-41386003D02*
X209425126Y-41338384D01*
X209425126Y-41338384D02*
X209425126Y-41195527D01*
X209425126Y-41195527D02*
X209448935Y-41147908D01*
X209448935Y-41147908D02*
X209472745Y-41124098D01*
X209472745Y-41124098D02*
X209520364Y-41100289D01*
X209520364Y-41100289D02*
X209591792Y-41100289D01*
X209591792Y-41100289D02*
X209639411Y-41124098D01*
X209639411Y-41124098D02*
X209663221Y-41147908D01*
X209663221Y-41147908D02*
X209687030Y-41195527D01*
X209687030Y-41195527D02*
X209687030Y-41338384D01*
X209687030Y-41338384D02*
X209663221Y-41386003D01*
X209663221Y-41386003D02*
X209639411Y-41409813D01*
X209639411Y-41409813D02*
X209591792Y-41433622D01*
X209591792Y-41433622D02*
X209520364Y-41433622D01*
X209853697Y-41100289D02*
X209948935Y-41433622D01*
X209948935Y-41433622D02*
X210044173Y-41195527D01*
X210044173Y-41195527D02*
X210139411Y-41433622D01*
X210139411Y-41433622D02*
X210234649Y-41100289D01*
X210377507Y-40933622D02*
X210687031Y-40933622D01*
X210687031Y-40933622D02*
X210520364Y-41124098D01*
X210520364Y-41124098D02*
X210591793Y-41124098D01*
X210591793Y-41124098D02*
X210639412Y-41147908D01*
X210639412Y-41147908D02*
X210663221Y-41171717D01*
X210663221Y-41171717D02*
X210687031Y-41219336D01*
X210687031Y-41219336D02*
X210687031Y-41338384D01*
X210687031Y-41338384D02*
X210663221Y-41386003D01*
X210663221Y-41386003D02*
X210639412Y-41409813D01*
X210639412Y-41409813D02*
X210591793Y-41433622D01*
X210591793Y-41433622D02*
X210448936Y-41433622D01*
X210448936Y-41433622D02*
X210401317Y-41409813D01*
X210401317Y-41409813D02*
X210377507Y-41386003D01*
X214980532Y-25600616D02*
X214813866Y-25362521D01*
X214694818Y-25600616D02*
X214694818Y-25100616D01*
X214694818Y-25100616D02*
X214885294Y-25100616D01*
X214885294Y-25100616D02*
X214932913Y-25124426D01*
X214932913Y-25124426D02*
X214956723Y-25148235D01*
X214956723Y-25148235D02*
X214980532Y-25195854D01*
X214980532Y-25195854D02*
X214980532Y-25267283D01*
X214980532Y-25267283D02*
X214956723Y-25314902D01*
X214956723Y-25314902D02*
X214932913Y-25338711D01*
X214932913Y-25338711D02*
X214885294Y-25362521D01*
X214885294Y-25362521D02*
X214694818Y-25362521D01*
X215194818Y-25338711D02*
X215361485Y-25338711D01*
X215432913Y-25600616D02*
X215194818Y-25600616D01*
X215194818Y-25600616D02*
X215194818Y-25100616D01*
X215194818Y-25100616D02*
X215432913Y-25100616D01*
X215742437Y-25100616D02*
X215790056Y-25100616D01*
X215790056Y-25100616D02*
X215837675Y-25124426D01*
X215837675Y-25124426D02*
X215861485Y-25148235D01*
X215861485Y-25148235D02*
X215885294Y-25195854D01*
X215885294Y-25195854D02*
X215909104Y-25291092D01*
X215909104Y-25291092D02*
X215909104Y-25410140D01*
X215909104Y-25410140D02*
X215885294Y-25505378D01*
X215885294Y-25505378D02*
X215861485Y-25552997D01*
X215861485Y-25552997D02*
X215837675Y-25576807D01*
X215837675Y-25576807D02*
X215790056Y-25600616D01*
X215790056Y-25600616D02*
X215742437Y-25600616D01*
X215742437Y-25600616D02*
X215694818Y-25576807D01*
X215694818Y-25576807D02*
X215671009Y-25552997D01*
X215671009Y-25552997D02*
X215647199Y-25505378D01*
X215647199Y-25505378D02*
X215623390Y-25410140D01*
X215623390Y-25410140D02*
X215623390Y-25291092D01*
X215623390Y-25291092D02*
X215647199Y-25195854D01*
X215647199Y-25195854D02*
X215671009Y-25148235D01*
X215671009Y-25148235D02*
X215694818Y-25124426D01*
X215694818Y-25124426D02*
X215742437Y-25100616D01*
X216075770Y-25100616D02*
X216385294Y-25100616D01*
X216385294Y-25100616D02*
X216218627Y-25291092D01*
X216218627Y-25291092D02*
X216290056Y-25291092D01*
X216290056Y-25291092D02*
X216337675Y-25314902D01*
X216337675Y-25314902D02*
X216361484Y-25338711D01*
X216361484Y-25338711D02*
X216385294Y-25386330D01*
X216385294Y-25386330D02*
X216385294Y-25505378D01*
X216385294Y-25505378D02*
X216361484Y-25552997D01*
X216361484Y-25552997D02*
X216337675Y-25576807D01*
X216337675Y-25576807D02*
X216290056Y-25600616D01*
X216290056Y-25600616D02*
X216147199Y-25600616D01*
X216147199Y-25600616D02*
X216099580Y-25576807D01*
X216099580Y-25576807D02*
X216075770Y-25552997D01*
X216599579Y-25600616D02*
X216599579Y-25100616D01*
X216599579Y-25291092D02*
X216647198Y-25267283D01*
X216647198Y-25267283D02*
X216742436Y-25267283D01*
X216742436Y-25267283D02*
X216790055Y-25291092D01*
X216790055Y-25291092D02*
X216813865Y-25314902D01*
X216813865Y-25314902D02*
X216837674Y-25362521D01*
X216837674Y-25362521D02*
X216837674Y-25505378D01*
X216837674Y-25505378D02*
X216813865Y-25552997D01*
X216813865Y-25552997D02*
X216790055Y-25576807D01*
X216790055Y-25576807D02*
X216742436Y-25600616D01*
X216742436Y-25600616D02*
X216647198Y-25600616D01*
X216647198Y-25600616D02*
X216599579Y-25576807D01*
X214969242Y-28152056D02*
X214802576Y-27913961D01*
X214683528Y-28152056D02*
X214683528Y-27652056D01*
X214683528Y-27652056D02*
X214874004Y-27652056D01*
X214874004Y-27652056D02*
X214921623Y-27675866D01*
X214921623Y-27675866D02*
X214945433Y-27699675D01*
X214945433Y-27699675D02*
X214969242Y-27747294D01*
X214969242Y-27747294D02*
X214969242Y-27818723D01*
X214969242Y-27818723D02*
X214945433Y-27866342D01*
X214945433Y-27866342D02*
X214921623Y-27890151D01*
X214921623Y-27890151D02*
X214874004Y-27913961D01*
X214874004Y-27913961D02*
X214683528Y-27913961D01*
X215183528Y-27890151D02*
X215350195Y-27890151D01*
X215421623Y-28152056D02*
X215183528Y-28152056D01*
X215183528Y-28152056D02*
X215183528Y-27652056D01*
X215183528Y-27652056D02*
X215421623Y-27652056D01*
X215731147Y-27652056D02*
X215778766Y-27652056D01*
X215778766Y-27652056D02*
X215826385Y-27675866D01*
X215826385Y-27675866D02*
X215850195Y-27699675D01*
X215850195Y-27699675D02*
X215874004Y-27747294D01*
X215874004Y-27747294D02*
X215897814Y-27842532D01*
X215897814Y-27842532D02*
X215897814Y-27961580D01*
X215897814Y-27961580D02*
X215874004Y-28056818D01*
X215874004Y-28056818D02*
X215850195Y-28104437D01*
X215850195Y-28104437D02*
X215826385Y-28128247D01*
X215826385Y-28128247D02*
X215778766Y-28152056D01*
X215778766Y-28152056D02*
X215731147Y-28152056D01*
X215731147Y-28152056D02*
X215683528Y-28128247D01*
X215683528Y-28128247D02*
X215659719Y-28104437D01*
X215659719Y-28104437D02*
X215635909Y-28056818D01*
X215635909Y-28056818D02*
X215612100Y-27961580D01*
X215612100Y-27961580D02*
X215612100Y-27842532D01*
X215612100Y-27842532D02*
X215635909Y-27747294D01*
X215635909Y-27747294D02*
X215659719Y-27699675D01*
X215659719Y-27699675D02*
X215683528Y-27675866D01*
X215683528Y-27675866D02*
X215731147Y-27652056D01*
X216064480Y-27652056D02*
X216374004Y-27652056D01*
X216374004Y-27652056D02*
X216207337Y-27842532D01*
X216207337Y-27842532D02*
X216278766Y-27842532D01*
X216278766Y-27842532D02*
X216326385Y-27866342D01*
X216326385Y-27866342D02*
X216350194Y-27890151D01*
X216350194Y-27890151D02*
X216374004Y-27937770D01*
X216374004Y-27937770D02*
X216374004Y-28056818D01*
X216374004Y-28056818D02*
X216350194Y-28104437D01*
X216350194Y-28104437D02*
X216326385Y-28128247D01*
X216326385Y-28128247D02*
X216278766Y-28152056D01*
X216278766Y-28152056D02*
X216135909Y-28152056D01*
X216135909Y-28152056D02*
X216088290Y-28128247D01*
X216088290Y-28128247D02*
X216064480Y-28104437D01*
X216802575Y-28152056D02*
X216802575Y-27890151D01*
X216802575Y-27890151D02*
X216778765Y-27842532D01*
X216778765Y-27842532D02*
X216731146Y-27818723D01*
X216731146Y-27818723D02*
X216635908Y-27818723D01*
X216635908Y-27818723D02*
X216588289Y-27842532D01*
X216802575Y-28128247D02*
X216754956Y-28152056D01*
X216754956Y-28152056D02*
X216635908Y-28152056D01*
X216635908Y-28152056D02*
X216588289Y-28128247D01*
X216588289Y-28128247D02*
X216564480Y-28080627D01*
X216564480Y-28080627D02*
X216564480Y-28033008D01*
X216564480Y-28033008D02*
X216588289Y-27985389D01*
X216588289Y-27985389D02*
X216635908Y-27961580D01*
X216635908Y-27961580D02*
X216754956Y-27961580D01*
X216754956Y-27961580D02*
X216802575Y-27937770D01*
X206684649Y-41433622D02*
X206517983Y-41195527D01*
X206398935Y-41433622D02*
X206398935Y-40933622D01*
X206398935Y-40933622D02*
X206589411Y-40933622D01*
X206589411Y-40933622D02*
X206637030Y-40957432D01*
X206637030Y-40957432D02*
X206660840Y-40981241D01*
X206660840Y-40981241D02*
X206684649Y-41028860D01*
X206684649Y-41028860D02*
X206684649Y-41100289D01*
X206684649Y-41100289D02*
X206660840Y-41147908D01*
X206660840Y-41147908D02*
X206637030Y-41171717D01*
X206637030Y-41171717D02*
X206589411Y-41195527D01*
X206589411Y-41195527D02*
X206398935Y-41195527D01*
X206970364Y-41433622D02*
X206922745Y-41409813D01*
X206922745Y-41409813D02*
X206898935Y-41386003D01*
X206898935Y-41386003D02*
X206875126Y-41338384D01*
X206875126Y-41338384D02*
X206875126Y-41195527D01*
X206875126Y-41195527D02*
X206898935Y-41147908D01*
X206898935Y-41147908D02*
X206922745Y-41124098D01*
X206922745Y-41124098D02*
X206970364Y-41100289D01*
X206970364Y-41100289D02*
X207041792Y-41100289D01*
X207041792Y-41100289D02*
X207089411Y-41124098D01*
X207089411Y-41124098D02*
X207113221Y-41147908D01*
X207113221Y-41147908D02*
X207137030Y-41195527D01*
X207137030Y-41195527D02*
X207137030Y-41338384D01*
X207137030Y-41338384D02*
X207113221Y-41386003D01*
X207113221Y-41386003D02*
X207089411Y-41409813D01*
X207089411Y-41409813D02*
X207041792Y-41433622D01*
X207041792Y-41433622D02*
X206970364Y-41433622D01*
X207303697Y-41100289D02*
X207398935Y-41433622D01*
X207398935Y-41433622D02*
X207494173Y-41195527D01*
X207494173Y-41195527D02*
X207589411Y-41433622D01*
X207589411Y-41433622D02*
X207684649Y-41100289D01*
X207851317Y-40981241D02*
X207875126Y-40957432D01*
X207875126Y-40957432D02*
X207922745Y-40933622D01*
X207922745Y-40933622D02*
X208041793Y-40933622D01*
X208041793Y-40933622D02*
X208089412Y-40957432D01*
X208089412Y-40957432D02*
X208113221Y-40981241D01*
X208113221Y-40981241D02*
X208137031Y-41028860D01*
X208137031Y-41028860D02*
X208137031Y-41076479D01*
X208137031Y-41076479D02*
X208113221Y-41147908D01*
X208113221Y-41147908D02*
X207827507Y-41433622D01*
X207827507Y-41433622D02*
X208137031Y-41433622D01*
X197896922Y-18022199D02*
X197658827Y-18022199D01*
X197658827Y-18022199D02*
X197658827Y-17522199D01*
X198063589Y-17760294D02*
X198230256Y-17760294D01*
X198301684Y-18022199D02*
X198063589Y-18022199D01*
X198063589Y-18022199D02*
X198063589Y-17522199D01*
X198063589Y-17522199D02*
X198301684Y-17522199D01*
X198515970Y-18022199D02*
X198515970Y-17522199D01*
X198515970Y-17522199D02*
X198635018Y-17522199D01*
X198635018Y-17522199D02*
X198706446Y-17546009D01*
X198706446Y-17546009D02*
X198754065Y-17593628D01*
X198754065Y-17593628D02*
X198777875Y-17641247D01*
X198777875Y-17641247D02*
X198801684Y-17736485D01*
X198801684Y-17736485D02*
X198801684Y-17807913D01*
X198801684Y-17807913D02*
X198777875Y-17903151D01*
X198777875Y-17903151D02*
X198754065Y-17950770D01*
X198754065Y-17950770D02*
X198706446Y-17998390D01*
X198706446Y-17998390D02*
X198635018Y-18022199D01*
X198635018Y-18022199D02*
X198515970Y-18022199D01*
X201484649Y-41433622D02*
X201317983Y-41195527D01*
X201198935Y-41433622D02*
X201198935Y-40933622D01*
X201198935Y-40933622D02*
X201389411Y-40933622D01*
X201389411Y-40933622D02*
X201437030Y-40957432D01*
X201437030Y-40957432D02*
X201460840Y-40981241D01*
X201460840Y-40981241D02*
X201484649Y-41028860D01*
X201484649Y-41028860D02*
X201484649Y-41100289D01*
X201484649Y-41100289D02*
X201460840Y-41147908D01*
X201460840Y-41147908D02*
X201437030Y-41171717D01*
X201437030Y-41171717D02*
X201389411Y-41195527D01*
X201389411Y-41195527D02*
X201198935Y-41195527D01*
X201770364Y-41433622D02*
X201722745Y-41409813D01*
X201722745Y-41409813D02*
X201698935Y-41386003D01*
X201698935Y-41386003D02*
X201675126Y-41338384D01*
X201675126Y-41338384D02*
X201675126Y-41195527D01*
X201675126Y-41195527D02*
X201698935Y-41147908D01*
X201698935Y-41147908D02*
X201722745Y-41124098D01*
X201722745Y-41124098D02*
X201770364Y-41100289D01*
X201770364Y-41100289D02*
X201841792Y-41100289D01*
X201841792Y-41100289D02*
X201889411Y-41124098D01*
X201889411Y-41124098D02*
X201913221Y-41147908D01*
X201913221Y-41147908D02*
X201937030Y-41195527D01*
X201937030Y-41195527D02*
X201937030Y-41338384D01*
X201937030Y-41338384D02*
X201913221Y-41386003D01*
X201913221Y-41386003D02*
X201889411Y-41409813D01*
X201889411Y-41409813D02*
X201841792Y-41433622D01*
X201841792Y-41433622D02*
X201770364Y-41433622D01*
X202103697Y-41100289D02*
X202198935Y-41433622D01*
X202198935Y-41433622D02*
X202294173Y-41195527D01*
X202294173Y-41195527D02*
X202389411Y-41433622D01*
X202389411Y-41433622D02*
X202484649Y-41100289D01*
X202770364Y-40933622D02*
X202817983Y-40933622D01*
X202817983Y-40933622D02*
X202865602Y-40957432D01*
X202865602Y-40957432D02*
X202889412Y-40981241D01*
X202889412Y-40981241D02*
X202913221Y-41028860D01*
X202913221Y-41028860D02*
X202937031Y-41124098D01*
X202937031Y-41124098D02*
X202937031Y-41243146D01*
X202937031Y-41243146D02*
X202913221Y-41338384D01*
X202913221Y-41338384D02*
X202889412Y-41386003D01*
X202889412Y-41386003D02*
X202865602Y-41409813D01*
X202865602Y-41409813D02*
X202817983Y-41433622D01*
X202817983Y-41433622D02*
X202770364Y-41433622D01*
X202770364Y-41433622D02*
X202722745Y-41409813D01*
X202722745Y-41409813D02*
X202698936Y-41386003D01*
X202698936Y-41386003D02*
X202675126Y-41338384D01*
X202675126Y-41338384D02*
X202651317Y-41243146D01*
X202651317Y-41243146D02*
X202651317Y-41124098D01*
X202651317Y-41124098D02*
X202675126Y-41028860D01*
X202675126Y-41028860D02*
X202698936Y-40981241D01*
X202698936Y-40981241D02*
X202722745Y-40957432D01*
X202722745Y-40957432D02*
X202770364Y-40933622D01*
X197943084Y-23011292D02*
X197919275Y-23035102D01*
X197919275Y-23035102D02*
X197847846Y-23058911D01*
X197847846Y-23058911D02*
X197800227Y-23058911D01*
X197800227Y-23058911D02*
X197728799Y-23035102D01*
X197728799Y-23035102D02*
X197681180Y-22987482D01*
X197681180Y-22987482D02*
X197657370Y-22939863D01*
X197657370Y-22939863D02*
X197633561Y-22844625D01*
X197633561Y-22844625D02*
X197633561Y-22773197D01*
X197633561Y-22773197D02*
X197657370Y-22677959D01*
X197657370Y-22677959D02*
X197681180Y-22630340D01*
X197681180Y-22630340D02*
X197728799Y-22582721D01*
X197728799Y-22582721D02*
X197800227Y-22558911D01*
X197800227Y-22558911D02*
X197847846Y-22558911D01*
X197847846Y-22558911D02*
X197919275Y-22582721D01*
X197919275Y-22582721D02*
X197943084Y-22606530D01*
X198228799Y-23058911D02*
X198181180Y-23035102D01*
X198181180Y-23035102D02*
X198157370Y-23011292D01*
X198157370Y-23011292D02*
X198133561Y-22963673D01*
X198133561Y-22963673D02*
X198133561Y-22820816D01*
X198133561Y-22820816D02*
X198157370Y-22773197D01*
X198157370Y-22773197D02*
X198181180Y-22749387D01*
X198181180Y-22749387D02*
X198228799Y-22725578D01*
X198228799Y-22725578D02*
X198300227Y-22725578D01*
X198300227Y-22725578D02*
X198347846Y-22749387D01*
X198347846Y-22749387D02*
X198371656Y-22773197D01*
X198371656Y-22773197D02*
X198395465Y-22820816D01*
X198395465Y-22820816D02*
X198395465Y-22963673D01*
X198395465Y-22963673D02*
X198371656Y-23011292D01*
X198371656Y-23011292D02*
X198347846Y-23035102D01*
X198347846Y-23035102D02*
X198300227Y-23058911D01*
X198300227Y-23058911D02*
X198228799Y-23058911D01*
X198681180Y-23058911D02*
X198633561Y-23035102D01*
X198633561Y-23035102D02*
X198609751Y-22987482D01*
X198609751Y-22987482D02*
X198609751Y-22558911D01*
X199133561Y-23058911D02*
X198847847Y-23058911D01*
X198990704Y-23058911D02*
X198990704Y-22558911D01*
X198990704Y-22558911D02*
X198943085Y-22630340D01*
X198943085Y-22630340D02*
X198895466Y-22677959D01*
X198895466Y-22677959D02*
X198847847Y-22701768D01*
X197712699Y-38283625D02*
X197546033Y-38045530D01*
X197426985Y-38283625D02*
X197426985Y-37783625D01*
X197426985Y-37783625D02*
X197617461Y-37783625D01*
X197617461Y-37783625D02*
X197665080Y-37807435D01*
X197665080Y-37807435D02*
X197688890Y-37831244D01*
X197688890Y-37831244D02*
X197712699Y-37878863D01*
X197712699Y-37878863D02*
X197712699Y-37950292D01*
X197712699Y-37950292D02*
X197688890Y-37997911D01*
X197688890Y-37997911D02*
X197665080Y-38021720D01*
X197665080Y-38021720D02*
X197617461Y-38045530D01*
X197617461Y-38045530D02*
X197426985Y-38045530D01*
X197926985Y-38021720D02*
X198093652Y-38021720D01*
X198165080Y-38283625D02*
X197926985Y-38283625D01*
X197926985Y-38283625D02*
X197926985Y-37783625D01*
X197926985Y-37783625D02*
X198165080Y-37783625D01*
X198474604Y-37783625D02*
X198522223Y-37783625D01*
X198522223Y-37783625D02*
X198569842Y-37807435D01*
X198569842Y-37807435D02*
X198593652Y-37831244D01*
X198593652Y-37831244D02*
X198617461Y-37878863D01*
X198617461Y-37878863D02*
X198641271Y-37974101D01*
X198641271Y-37974101D02*
X198641271Y-38093149D01*
X198641271Y-38093149D02*
X198617461Y-38188387D01*
X198617461Y-38188387D02*
X198593652Y-38236006D01*
X198593652Y-38236006D02*
X198569842Y-38259816D01*
X198569842Y-38259816D02*
X198522223Y-38283625D01*
X198522223Y-38283625D02*
X198474604Y-38283625D01*
X198474604Y-38283625D02*
X198426985Y-38259816D01*
X198426985Y-38259816D02*
X198403176Y-38236006D01*
X198403176Y-38236006D02*
X198379366Y-38188387D01*
X198379366Y-38188387D02*
X198355557Y-38093149D01*
X198355557Y-38093149D02*
X198355557Y-37974101D01*
X198355557Y-37974101D02*
X198379366Y-37878863D01*
X198379366Y-37878863D02*
X198403176Y-37831244D01*
X198403176Y-37831244D02*
X198426985Y-37807435D01*
X198426985Y-37807435D02*
X198474604Y-37783625D01*
X199117461Y-38283625D02*
X198831747Y-38283625D01*
X198974604Y-38283625D02*
X198974604Y-37783625D01*
X198974604Y-37783625D02*
X198926985Y-37855054D01*
X198926985Y-37855054D02*
X198879366Y-37902673D01*
X198879366Y-37902673D02*
X198831747Y-37926482D01*
X199546032Y-38283625D02*
X199546032Y-38021720D01*
X199546032Y-38021720D02*
X199522222Y-37974101D01*
X199522222Y-37974101D02*
X199474603Y-37950292D01*
X199474603Y-37950292D02*
X199379365Y-37950292D01*
X199379365Y-37950292D02*
X199331746Y-37974101D01*
X199546032Y-38259816D02*
X199498413Y-38283625D01*
X199498413Y-38283625D02*
X199379365Y-38283625D01*
X199379365Y-38283625D02*
X199331746Y-38259816D01*
X199331746Y-38259816D02*
X199307937Y-38212196D01*
X199307937Y-38212196D02*
X199307937Y-38164577D01*
X199307937Y-38164577D02*
X199331746Y-38116958D01*
X199331746Y-38116958D02*
X199379365Y-38093149D01*
X199379365Y-38093149D02*
X199498413Y-38093149D01*
X199498413Y-38093149D02*
X199546032Y-38069339D01*
X197925283Y-25556794D02*
X197901474Y-25580604D01*
X197901474Y-25580604D02*
X197830045Y-25604413D01*
X197830045Y-25604413D02*
X197782426Y-25604413D01*
X197782426Y-25604413D02*
X197710998Y-25580604D01*
X197710998Y-25580604D02*
X197663379Y-25532984D01*
X197663379Y-25532984D02*
X197639569Y-25485365D01*
X197639569Y-25485365D02*
X197615760Y-25390127D01*
X197615760Y-25390127D02*
X197615760Y-25318699D01*
X197615760Y-25318699D02*
X197639569Y-25223461D01*
X197639569Y-25223461D02*
X197663379Y-25175842D01*
X197663379Y-25175842D02*
X197710998Y-25128223D01*
X197710998Y-25128223D02*
X197782426Y-25104413D01*
X197782426Y-25104413D02*
X197830045Y-25104413D01*
X197830045Y-25104413D02*
X197901474Y-25128223D01*
X197901474Y-25128223D02*
X197925283Y-25152032D01*
X198210998Y-25604413D02*
X198163379Y-25580604D01*
X198163379Y-25580604D02*
X198139569Y-25556794D01*
X198139569Y-25556794D02*
X198115760Y-25509175D01*
X198115760Y-25509175D02*
X198115760Y-25366318D01*
X198115760Y-25366318D02*
X198139569Y-25318699D01*
X198139569Y-25318699D02*
X198163379Y-25294889D01*
X198163379Y-25294889D02*
X198210998Y-25271080D01*
X198210998Y-25271080D02*
X198282426Y-25271080D01*
X198282426Y-25271080D02*
X198330045Y-25294889D01*
X198330045Y-25294889D02*
X198353855Y-25318699D01*
X198353855Y-25318699D02*
X198377664Y-25366318D01*
X198377664Y-25366318D02*
X198377664Y-25509175D01*
X198377664Y-25509175D02*
X198353855Y-25556794D01*
X198353855Y-25556794D02*
X198330045Y-25580604D01*
X198330045Y-25580604D02*
X198282426Y-25604413D01*
X198282426Y-25604413D02*
X198210998Y-25604413D01*
X198663379Y-25604413D02*
X198615760Y-25580604D01*
X198615760Y-25580604D02*
X198591950Y-25532984D01*
X198591950Y-25532984D02*
X198591950Y-25104413D01*
X198830046Y-25152032D02*
X198853855Y-25128223D01*
X198853855Y-25128223D02*
X198901474Y-25104413D01*
X198901474Y-25104413D02*
X199020522Y-25104413D01*
X199020522Y-25104413D02*
X199068141Y-25128223D01*
X199068141Y-25128223D02*
X199091950Y-25152032D01*
X199091950Y-25152032D02*
X199115760Y-25199651D01*
X199115760Y-25199651D02*
X199115760Y-25247270D01*
X199115760Y-25247270D02*
X199091950Y-25318699D01*
X199091950Y-25318699D02*
X198806236Y-25604413D01*
X198806236Y-25604413D02*
X199115760Y-25604413D01*
X204134649Y-41433622D02*
X203967983Y-41195527D01*
X203848935Y-41433622D02*
X203848935Y-40933622D01*
X203848935Y-40933622D02*
X204039411Y-40933622D01*
X204039411Y-40933622D02*
X204087030Y-40957432D01*
X204087030Y-40957432D02*
X204110840Y-40981241D01*
X204110840Y-40981241D02*
X204134649Y-41028860D01*
X204134649Y-41028860D02*
X204134649Y-41100289D01*
X204134649Y-41100289D02*
X204110840Y-41147908D01*
X204110840Y-41147908D02*
X204087030Y-41171717D01*
X204087030Y-41171717D02*
X204039411Y-41195527D01*
X204039411Y-41195527D02*
X203848935Y-41195527D01*
X204420364Y-41433622D02*
X204372745Y-41409813D01*
X204372745Y-41409813D02*
X204348935Y-41386003D01*
X204348935Y-41386003D02*
X204325126Y-41338384D01*
X204325126Y-41338384D02*
X204325126Y-41195527D01*
X204325126Y-41195527D02*
X204348935Y-41147908D01*
X204348935Y-41147908D02*
X204372745Y-41124098D01*
X204372745Y-41124098D02*
X204420364Y-41100289D01*
X204420364Y-41100289D02*
X204491792Y-41100289D01*
X204491792Y-41100289D02*
X204539411Y-41124098D01*
X204539411Y-41124098D02*
X204563221Y-41147908D01*
X204563221Y-41147908D02*
X204587030Y-41195527D01*
X204587030Y-41195527D02*
X204587030Y-41338384D01*
X204587030Y-41338384D02*
X204563221Y-41386003D01*
X204563221Y-41386003D02*
X204539411Y-41409813D01*
X204539411Y-41409813D02*
X204491792Y-41433622D01*
X204491792Y-41433622D02*
X204420364Y-41433622D01*
X204753697Y-41100289D02*
X204848935Y-41433622D01*
X204848935Y-41433622D02*
X204944173Y-41195527D01*
X204944173Y-41195527D02*
X205039411Y-41433622D01*
X205039411Y-41433622D02*
X205134649Y-41100289D01*
X205587031Y-41433622D02*
X205301317Y-41433622D01*
X205444174Y-41433622D02*
X205444174Y-40933622D01*
X205444174Y-40933622D02*
X205396555Y-41005051D01*
X205396555Y-41005051D02*
X205348936Y-41052670D01*
X205348936Y-41052670D02*
X205301317Y-41076479D01*
X214946663Y-35772506D02*
X214779997Y-35534411D01*
X214660949Y-35772506D02*
X214660949Y-35272506D01*
X214660949Y-35272506D02*
X214851425Y-35272506D01*
X214851425Y-35272506D02*
X214899044Y-35296316D01*
X214899044Y-35296316D02*
X214922854Y-35320125D01*
X214922854Y-35320125D02*
X214946663Y-35367744D01*
X214946663Y-35367744D02*
X214946663Y-35439173D01*
X214946663Y-35439173D02*
X214922854Y-35486792D01*
X214922854Y-35486792D02*
X214899044Y-35510601D01*
X214899044Y-35510601D02*
X214851425Y-35534411D01*
X214851425Y-35534411D02*
X214660949Y-35534411D01*
X215160949Y-35510601D02*
X215327616Y-35510601D01*
X215399044Y-35772506D02*
X215160949Y-35772506D01*
X215160949Y-35772506D02*
X215160949Y-35272506D01*
X215160949Y-35272506D02*
X215399044Y-35272506D01*
X215708568Y-35272506D02*
X215756187Y-35272506D01*
X215756187Y-35272506D02*
X215803806Y-35296316D01*
X215803806Y-35296316D02*
X215827616Y-35320125D01*
X215827616Y-35320125D02*
X215851425Y-35367744D01*
X215851425Y-35367744D02*
X215875235Y-35462982D01*
X215875235Y-35462982D02*
X215875235Y-35582030D01*
X215875235Y-35582030D02*
X215851425Y-35677268D01*
X215851425Y-35677268D02*
X215827616Y-35724887D01*
X215827616Y-35724887D02*
X215803806Y-35748697D01*
X215803806Y-35748697D02*
X215756187Y-35772506D01*
X215756187Y-35772506D02*
X215708568Y-35772506D01*
X215708568Y-35772506D02*
X215660949Y-35748697D01*
X215660949Y-35748697D02*
X215637140Y-35724887D01*
X215637140Y-35724887D02*
X215613330Y-35677268D01*
X215613330Y-35677268D02*
X215589521Y-35582030D01*
X215589521Y-35582030D02*
X215589521Y-35462982D01*
X215589521Y-35462982D02*
X215613330Y-35367744D01*
X215613330Y-35367744D02*
X215637140Y-35320125D01*
X215637140Y-35320125D02*
X215660949Y-35296316D01*
X215660949Y-35296316D02*
X215708568Y-35272506D01*
X216351425Y-35772506D02*
X216065711Y-35772506D01*
X216208568Y-35772506D02*
X216208568Y-35272506D01*
X216208568Y-35272506D02*
X216160949Y-35343935D01*
X216160949Y-35343935D02*
X216113330Y-35391554D01*
X216113330Y-35391554D02*
X216065711Y-35415363D01*
X216565710Y-35772506D02*
X216565710Y-35272506D01*
X216565710Y-35462982D02*
X216613329Y-35439173D01*
X216613329Y-35439173D02*
X216708567Y-35439173D01*
X216708567Y-35439173D02*
X216756186Y-35462982D01*
X216756186Y-35462982D02*
X216779996Y-35486792D01*
X216779996Y-35486792D02*
X216803805Y-35534411D01*
X216803805Y-35534411D02*
X216803805Y-35677268D01*
X216803805Y-35677268D02*
X216779996Y-35724887D01*
X216779996Y-35724887D02*
X216756186Y-35748697D01*
X216756186Y-35748697D02*
X216708567Y-35772506D01*
X216708567Y-35772506D02*
X216613329Y-35772506D01*
X216613329Y-35772506D02*
X216565710Y-35748697D01*
X197935337Y-35708410D02*
X197911528Y-35732220D01*
X197911528Y-35732220D02*
X197840099Y-35756029D01*
X197840099Y-35756029D02*
X197792480Y-35756029D01*
X197792480Y-35756029D02*
X197721052Y-35732220D01*
X197721052Y-35732220D02*
X197673433Y-35684600D01*
X197673433Y-35684600D02*
X197649623Y-35636981D01*
X197649623Y-35636981D02*
X197625814Y-35541743D01*
X197625814Y-35541743D02*
X197625814Y-35470315D01*
X197625814Y-35470315D02*
X197649623Y-35375077D01*
X197649623Y-35375077D02*
X197673433Y-35327458D01*
X197673433Y-35327458D02*
X197721052Y-35279839D01*
X197721052Y-35279839D02*
X197792480Y-35256029D01*
X197792480Y-35256029D02*
X197840099Y-35256029D01*
X197840099Y-35256029D02*
X197911528Y-35279839D01*
X197911528Y-35279839D02*
X197935337Y-35303648D01*
X198221052Y-35756029D02*
X198173433Y-35732220D01*
X198173433Y-35732220D02*
X198149623Y-35708410D01*
X198149623Y-35708410D02*
X198125814Y-35660791D01*
X198125814Y-35660791D02*
X198125814Y-35517934D01*
X198125814Y-35517934D02*
X198149623Y-35470315D01*
X198149623Y-35470315D02*
X198173433Y-35446505D01*
X198173433Y-35446505D02*
X198221052Y-35422696D01*
X198221052Y-35422696D02*
X198292480Y-35422696D01*
X198292480Y-35422696D02*
X198340099Y-35446505D01*
X198340099Y-35446505D02*
X198363909Y-35470315D01*
X198363909Y-35470315D02*
X198387718Y-35517934D01*
X198387718Y-35517934D02*
X198387718Y-35660791D01*
X198387718Y-35660791D02*
X198363909Y-35708410D01*
X198363909Y-35708410D02*
X198340099Y-35732220D01*
X198340099Y-35732220D02*
X198292480Y-35756029D01*
X198292480Y-35756029D02*
X198221052Y-35756029D01*
X198673433Y-35756029D02*
X198625814Y-35732220D01*
X198625814Y-35732220D02*
X198602004Y-35684600D01*
X198602004Y-35684600D02*
X198602004Y-35256029D01*
X199078195Y-35256029D02*
X198982957Y-35256029D01*
X198982957Y-35256029D02*
X198935338Y-35279839D01*
X198935338Y-35279839D02*
X198911528Y-35303648D01*
X198911528Y-35303648D02*
X198863909Y-35375077D01*
X198863909Y-35375077D02*
X198840100Y-35470315D01*
X198840100Y-35470315D02*
X198840100Y-35660791D01*
X198840100Y-35660791D02*
X198863909Y-35708410D01*
X198863909Y-35708410D02*
X198887719Y-35732220D01*
X198887719Y-35732220D02*
X198935338Y-35756029D01*
X198935338Y-35756029D02*
X199030576Y-35756029D01*
X199030576Y-35756029D02*
X199078195Y-35732220D01*
X199078195Y-35732220D02*
X199102004Y-35708410D01*
X199102004Y-35708410D02*
X199125814Y-35660791D01*
X199125814Y-35660791D02*
X199125814Y-35541743D01*
X199125814Y-35541743D02*
X199102004Y-35494124D01*
X199102004Y-35494124D02*
X199078195Y-35470315D01*
X199078195Y-35470315D02*
X199030576Y-35446505D01*
X199030576Y-35446505D02*
X198935338Y-35446505D01*
X198935338Y-35446505D02*
X198887719Y-35470315D01*
X198887719Y-35470315D02*
X198863909Y-35494124D01*
X198863909Y-35494124D02*
X198840100Y-35541743D01*
X214957953Y-33221066D02*
X214791287Y-32982971D01*
X214672239Y-33221066D02*
X214672239Y-32721066D01*
X214672239Y-32721066D02*
X214862715Y-32721066D01*
X214862715Y-32721066D02*
X214910334Y-32744876D01*
X214910334Y-32744876D02*
X214934144Y-32768685D01*
X214934144Y-32768685D02*
X214957953Y-32816304D01*
X214957953Y-32816304D02*
X214957953Y-32887733D01*
X214957953Y-32887733D02*
X214934144Y-32935352D01*
X214934144Y-32935352D02*
X214910334Y-32959161D01*
X214910334Y-32959161D02*
X214862715Y-32982971D01*
X214862715Y-32982971D02*
X214672239Y-32982971D01*
X215172239Y-32959161D02*
X215338906Y-32959161D01*
X215410334Y-33221066D02*
X215172239Y-33221066D01*
X215172239Y-33221066D02*
X215172239Y-32721066D01*
X215172239Y-32721066D02*
X215410334Y-32721066D01*
X215719858Y-32721066D02*
X215767477Y-32721066D01*
X215767477Y-32721066D02*
X215815096Y-32744876D01*
X215815096Y-32744876D02*
X215838906Y-32768685D01*
X215838906Y-32768685D02*
X215862715Y-32816304D01*
X215862715Y-32816304D02*
X215886525Y-32911542D01*
X215886525Y-32911542D02*
X215886525Y-33030590D01*
X215886525Y-33030590D02*
X215862715Y-33125828D01*
X215862715Y-33125828D02*
X215838906Y-33173447D01*
X215838906Y-33173447D02*
X215815096Y-33197257D01*
X215815096Y-33197257D02*
X215767477Y-33221066D01*
X215767477Y-33221066D02*
X215719858Y-33221066D01*
X215719858Y-33221066D02*
X215672239Y-33197257D01*
X215672239Y-33197257D02*
X215648430Y-33173447D01*
X215648430Y-33173447D02*
X215624620Y-33125828D01*
X215624620Y-33125828D02*
X215600811Y-33030590D01*
X215600811Y-33030590D02*
X215600811Y-32911542D01*
X215600811Y-32911542D02*
X215624620Y-32816304D01*
X215624620Y-32816304D02*
X215648430Y-32768685D01*
X215648430Y-32768685D02*
X215672239Y-32744876D01*
X215672239Y-32744876D02*
X215719858Y-32721066D01*
X216077001Y-32768685D02*
X216100810Y-32744876D01*
X216100810Y-32744876D02*
X216148429Y-32721066D01*
X216148429Y-32721066D02*
X216267477Y-32721066D01*
X216267477Y-32721066D02*
X216315096Y-32744876D01*
X216315096Y-32744876D02*
X216338905Y-32768685D01*
X216338905Y-32768685D02*
X216362715Y-32816304D01*
X216362715Y-32816304D02*
X216362715Y-32863923D01*
X216362715Y-32863923D02*
X216338905Y-32935352D01*
X216338905Y-32935352D02*
X216053191Y-33221066D01*
X216053191Y-33221066D02*
X216362715Y-33221066D01*
X216791286Y-33221066D02*
X216791286Y-32959161D01*
X216791286Y-32959161D02*
X216767476Y-32911542D01*
X216767476Y-32911542D02*
X216719857Y-32887733D01*
X216719857Y-32887733D02*
X216624619Y-32887733D01*
X216624619Y-32887733D02*
X216577000Y-32911542D01*
X216791286Y-33197257D02*
X216743667Y-33221066D01*
X216743667Y-33221066D02*
X216624619Y-33221066D01*
X216624619Y-33221066D02*
X216577000Y-33197257D01*
X216577000Y-33197257D02*
X216553191Y-33149637D01*
X216553191Y-33149637D02*
X216553191Y-33102018D01*
X216553191Y-33102018D02*
X216577000Y-33054399D01*
X216577000Y-33054399D02*
X216624619Y-33030590D01*
X216624619Y-33030590D02*
X216743667Y-33030590D01*
X216743667Y-33030590D02*
X216791286Y-33006780D01*
X211734315Y-41433622D02*
X211567649Y-41195527D01*
X211448601Y-41433622D02*
X211448601Y-40933622D01*
X211448601Y-40933622D02*
X211639077Y-40933622D01*
X211639077Y-40933622D02*
X211686696Y-40957432D01*
X211686696Y-40957432D02*
X211710506Y-40981241D01*
X211710506Y-40981241D02*
X211734315Y-41028860D01*
X211734315Y-41028860D02*
X211734315Y-41100289D01*
X211734315Y-41100289D02*
X211710506Y-41147908D01*
X211710506Y-41147908D02*
X211686696Y-41171717D01*
X211686696Y-41171717D02*
X211639077Y-41195527D01*
X211639077Y-41195527D02*
X211448601Y-41195527D01*
X212020030Y-41433622D02*
X211972411Y-41409813D01*
X211972411Y-41409813D02*
X211948601Y-41386003D01*
X211948601Y-41386003D02*
X211924792Y-41338384D01*
X211924792Y-41338384D02*
X211924792Y-41195527D01*
X211924792Y-41195527D02*
X211948601Y-41147908D01*
X211948601Y-41147908D02*
X211972411Y-41124098D01*
X211972411Y-41124098D02*
X212020030Y-41100289D01*
X212020030Y-41100289D02*
X212091458Y-41100289D01*
X212091458Y-41100289D02*
X212139077Y-41124098D01*
X212139077Y-41124098D02*
X212162887Y-41147908D01*
X212162887Y-41147908D02*
X212186696Y-41195527D01*
X212186696Y-41195527D02*
X212186696Y-41338384D01*
X212186696Y-41338384D02*
X212162887Y-41386003D01*
X212162887Y-41386003D02*
X212139077Y-41409813D01*
X212139077Y-41409813D02*
X212091458Y-41433622D01*
X212091458Y-41433622D02*
X212020030Y-41433622D01*
X212353363Y-41100289D02*
X212448601Y-41433622D01*
X212448601Y-41433622D02*
X212543839Y-41195527D01*
X212543839Y-41195527D02*
X212639077Y-41433622D01*
X212639077Y-41433622D02*
X212734315Y-41100289D01*
X213139078Y-41100289D02*
X213139078Y-41433622D01*
X213020030Y-40909813D02*
X212900983Y-41266955D01*
X212900983Y-41266955D02*
X213210506Y-41266955D01*
X197935337Y-28060141D02*
X197911528Y-28083951D01*
X197911528Y-28083951D02*
X197840099Y-28107760D01*
X197840099Y-28107760D02*
X197792480Y-28107760D01*
X197792480Y-28107760D02*
X197721052Y-28083951D01*
X197721052Y-28083951D02*
X197673433Y-28036331D01*
X197673433Y-28036331D02*
X197649623Y-27988712D01*
X197649623Y-27988712D02*
X197625814Y-27893474D01*
X197625814Y-27893474D02*
X197625814Y-27822046D01*
X197625814Y-27822046D02*
X197649623Y-27726808D01*
X197649623Y-27726808D02*
X197673433Y-27679189D01*
X197673433Y-27679189D02*
X197721052Y-27631570D01*
X197721052Y-27631570D02*
X197792480Y-27607760D01*
X197792480Y-27607760D02*
X197840099Y-27607760D01*
X197840099Y-27607760D02*
X197911528Y-27631570D01*
X197911528Y-27631570D02*
X197935337Y-27655379D01*
X198221052Y-28107760D02*
X198173433Y-28083951D01*
X198173433Y-28083951D02*
X198149623Y-28060141D01*
X198149623Y-28060141D02*
X198125814Y-28012522D01*
X198125814Y-28012522D02*
X198125814Y-27869665D01*
X198125814Y-27869665D02*
X198149623Y-27822046D01*
X198149623Y-27822046D02*
X198173433Y-27798236D01*
X198173433Y-27798236D02*
X198221052Y-27774427D01*
X198221052Y-27774427D02*
X198292480Y-27774427D01*
X198292480Y-27774427D02*
X198340099Y-27798236D01*
X198340099Y-27798236D02*
X198363909Y-27822046D01*
X198363909Y-27822046D02*
X198387718Y-27869665D01*
X198387718Y-27869665D02*
X198387718Y-28012522D01*
X198387718Y-28012522D02*
X198363909Y-28060141D01*
X198363909Y-28060141D02*
X198340099Y-28083951D01*
X198340099Y-28083951D02*
X198292480Y-28107760D01*
X198292480Y-28107760D02*
X198221052Y-28107760D01*
X198673433Y-28107760D02*
X198625814Y-28083951D01*
X198625814Y-28083951D02*
X198602004Y-28036331D01*
X198602004Y-28036331D02*
X198602004Y-27607760D01*
X198816290Y-27607760D02*
X199125814Y-27607760D01*
X199125814Y-27607760D02*
X198959147Y-27798236D01*
X198959147Y-27798236D02*
X199030576Y-27798236D01*
X199030576Y-27798236D02*
X199078195Y-27822046D01*
X199078195Y-27822046D02*
X199102004Y-27845855D01*
X199102004Y-27845855D02*
X199125814Y-27893474D01*
X199125814Y-27893474D02*
X199125814Y-28012522D01*
X199125814Y-28012522D02*
X199102004Y-28060141D01*
X199102004Y-28060141D02*
X199078195Y-28083951D01*
X199078195Y-28083951D02*
X199030576Y-28107760D01*
X199030576Y-28107760D02*
X198887719Y-28107760D01*
X198887719Y-28107760D02*
X198840100Y-28083951D01*
X198840100Y-28083951D02*
X198816290Y-28060141D01*
X214969242Y-30692206D02*
X214802576Y-30454111D01*
X214683528Y-30692206D02*
X214683528Y-30192206D01*
X214683528Y-30192206D02*
X214874004Y-30192206D01*
X214874004Y-30192206D02*
X214921623Y-30216016D01*
X214921623Y-30216016D02*
X214945433Y-30239825D01*
X214945433Y-30239825D02*
X214969242Y-30287444D01*
X214969242Y-30287444D02*
X214969242Y-30358873D01*
X214969242Y-30358873D02*
X214945433Y-30406492D01*
X214945433Y-30406492D02*
X214921623Y-30430301D01*
X214921623Y-30430301D02*
X214874004Y-30454111D01*
X214874004Y-30454111D02*
X214683528Y-30454111D01*
X215183528Y-30430301D02*
X215350195Y-30430301D01*
X215421623Y-30692206D02*
X215183528Y-30692206D01*
X215183528Y-30692206D02*
X215183528Y-30192206D01*
X215183528Y-30192206D02*
X215421623Y-30192206D01*
X215731147Y-30192206D02*
X215778766Y-30192206D01*
X215778766Y-30192206D02*
X215826385Y-30216016D01*
X215826385Y-30216016D02*
X215850195Y-30239825D01*
X215850195Y-30239825D02*
X215874004Y-30287444D01*
X215874004Y-30287444D02*
X215897814Y-30382682D01*
X215897814Y-30382682D02*
X215897814Y-30501730D01*
X215897814Y-30501730D02*
X215874004Y-30596968D01*
X215874004Y-30596968D02*
X215850195Y-30644587D01*
X215850195Y-30644587D02*
X215826385Y-30668397D01*
X215826385Y-30668397D02*
X215778766Y-30692206D01*
X215778766Y-30692206D02*
X215731147Y-30692206D01*
X215731147Y-30692206D02*
X215683528Y-30668397D01*
X215683528Y-30668397D02*
X215659719Y-30644587D01*
X215659719Y-30644587D02*
X215635909Y-30596968D01*
X215635909Y-30596968D02*
X215612100Y-30501730D01*
X215612100Y-30501730D02*
X215612100Y-30382682D01*
X215612100Y-30382682D02*
X215635909Y-30287444D01*
X215635909Y-30287444D02*
X215659719Y-30239825D01*
X215659719Y-30239825D02*
X215683528Y-30216016D01*
X215683528Y-30216016D02*
X215731147Y-30192206D01*
X216088290Y-30239825D02*
X216112099Y-30216016D01*
X216112099Y-30216016D02*
X216159718Y-30192206D01*
X216159718Y-30192206D02*
X216278766Y-30192206D01*
X216278766Y-30192206D02*
X216326385Y-30216016D01*
X216326385Y-30216016D02*
X216350194Y-30239825D01*
X216350194Y-30239825D02*
X216374004Y-30287444D01*
X216374004Y-30287444D02*
X216374004Y-30335063D01*
X216374004Y-30335063D02*
X216350194Y-30406492D01*
X216350194Y-30406492D02*
X216064480Y-30692206D01*
X216064480Y-30692206D02*
X216374004Y-30692206D01*
X216588289Y-30692206D02*
X216588289Y-30192206D01*
X216588289Y-30382682D02*
X216635908Y-30358873D01*
X216635908Y-30358873D02*
X216731146Y-30358873D01*
X216731146Y-30358873D02*
X216778765Y-30382682D01*
X216778765Y-30382682D02*
X216802575Y-30406492D01*
X216802575Y-30406492D02*
X216826384Y-30454111D01*
X216826384Y-30454111D02*
X216826384Y-30596968D01*
X216826384Y-30596968D02*
X216802575Y-30644587D01*
X216802575Y-30644587D02*
X216778765Y-30668397D01*
X216778765Y-30668397D02*
X216731146Y-30692206D01*
X216731146Y-30692206D02*
X216635908Y-30692206D01*
X216635908Y-30692206D02*
X216588289Y-30668397D01*
X197948433Y-33180814D02*
X197924624Y-33204624D01*
X197924624Y-33204624D02*
X197853195Y-33228433D01*
X197853195Y-33228433D02*
X197805576Y-33228433D01*
X197805576Y-33228433D02*
X197734148Y-33204624D01*
X197734148Y-33204624D02*
X197686529Y-33157004D01*
X197686529Y-33157004D02*
X197662719Y-33109385D01*
X197662719Y-33109385D02*
X197638910Y-33014147D01*
X197638910Y-33014147D02*
X197638910Y-32942719D01*
X197638910Y-32942719D02*
X197662719Y-32847481D01*
X197662719Y-32847481D02*
X197686529Y-32799862D01*
X197686529Y-32799862D02*
X197734148Y-32752243D01*
X197734148Y-32752243D02*
X197805576Y-32728433D01*
X197805576Y-32728433D02*
X197853195Y-32728433D01*
X197853195Y-32728433D02*
X197924624Y-32752243D01*
X197924624Y-32752243D02*
X197948433Y-32776052D01*
X198234148Y-33228433D02*
X198186529Y-33204624D01*
X198186529Y-33204624D02*
X198162719Y-33180814D01*
X198162719Y-33180814D02*
X198138910Y-33133195D01*
X198138910Y-33133195D02*
X198138910Y-32990338D01*
X198138910Y-32990338D02*
X198162719Y-32942719D01*
X198162719Y-32942719D02*
X198186529Y-32918909D01*
X198186529Y-32918909D02*
X198234148Y-32895100D01*
X198234148Y-32895100D02*
X198305576Y-32895100D01*
X198305576Y-32895100D02*
X198353195Y-32918909D01*
X198353195Y-32918909D02*
X198377005Y-32942719D01*
X198377005Y-32942719D02*
X198400814Y-32990338D01*
X198400814Y-32990338D02*
X198400814Y-33133195D01*
X198400814Y-33133195D02*
X198377005Y-33180814D01*
X198377005Y-33180814D02*
X198353195Y-33204624D01*
X198353195Y-33204624D02*
X198305576Y-33228433D01*
X198305576Y-33228433D02*
X198234148Y-33228433D01*
X198686529Y-33228433D02*
X198638910Y-33204624D01*
X198638910Y-33204624D02*
X198615100Y-33157004D01*
X198615100Y-33157004D02*
X198615100Y-32728433D01*
X199115100Y-32728433D02*
X198877005Y-32728433D01*
X198877005Y-32728433D02*
X198853196Y-32966528D01*
X198853196Y-32966528D02*
X198877005Y-32942719D01*
X198877005Y-32942719D02*
X198924624Y-32918909D01*
X198924624Y-32918909D02*
X199043672Y-32918909D01*
X199043672Y-32918909D02*
X199091291Y-32942719D01*
X199091291Y-32942719D02*
X199115100Y-32966528D01*
X199115100Y-32966528D02*
X199138910Y-33014147D01*
X199138910Y-33014147D02*
X199138910Y-33133195D01*
X199138910Y-33133195D02*
X199115100Y-33180814D01*
X199115100Y-33180814D02*
X199091291Y-33204624D01*
X199091291Y-33204624D02*
X199043672Y-33228433D01*
X199043672Y-33228433D02*
X198924624Y-33228433D01*
X198924624Y-33228433D02*
X198877005Y-33204624D01*
X198877005Y-33204624D02*
X198853196Y-33180814D01*
X197951984Y-20439090D02*
X197928175Y-20462900D01*
X197928175Y-20462900D02*
X197856746Y-20486709D01*
X197856746Y-20486709D02*
X197809127Y-20486709D01*
X197809127Y-20486709D02*
X197737699Y-20462900D01*
X197737699Y-20462900D02*
X197690080Y-20415280D01*
X197690080Y-20415280D02*
X197666270Y-20367661D01*
X197666270Y-20367661D02*
X197642461Y-20272423D01*
X197642461Y-20272423D02*
X197642461Y-20200995D01*
X197642461Y-20200995D02*
X197666270Y-20105757D01*
X197666270Y-20105757D02*
X197690080Y-20058138D01*
X197690080Y-20058138D02*
X197737699Y-20010519D01*
X197737699Y-20010519D02*
X197809127Y-19986709D01*
X197809127Y-19986709D02*
X197856746Y-19986709D01*
X197856746Y-19986709D02*
X197928175Y-20010519D01*
X197928175Y-20010519D02*
X197951984Y-20034328D01*
X198237699Y-20486709D02*
X198190080Y-20462900D01*
X198190080Y-20462900D02*
X198166270Y-20439090D01*
X198166270Y-20439090D02*
X198142461Y-20391471D01*
X198142461Y-20391471D02*
X198142461Y-20248614D01*
X198142461Y-20248614D02*
X198166270Y-20200995D01*
X198166270Y-20200995D02*
X198190080Y-20177185D01*
X198190080Y-20177185D02*
X198237699Y-20153376D01*
X198237699Y-20153376D02*
X198309127Y-20153376D01*
X198309127Y-20153376D02*
X198356746Y-20177185D01*
X198356746Y-20177185D02*
X198380556Y-20200995D01*
X198380556Y-20200995D02*
X198404365Y-20248614D01*
X198404365Y-20248614D02*
X198404365Y-20391471D01*
X198404365Y-20391471D02*
X198380556Y-20439090D01*
X198380556Y-20439090D02*
X198356746Y-20462900D01*
X198356746Y-20462900D02*
X198309127Y-20486709D01*
X198309127Y-20486709D02*
X198237699Y-20486709D01*
X198690080Y-20486709D02*
X198642461Y-20462900D01*
X198642461Y-20462900D02*
X198618651Y-20415280D01*
X198618651Y-20415280D02*
X198618651Y-19986709D01*
X198975794Y-19986709D02*
X199023413Y-19986709D01*
X199023413Y-19986709D02*
X199071032Y-20010519D01*
X199071032Y-20010519D02*
X199094842Y-20034328D01*
X199094842Y-20034328D02*
X199118651Y-20081947D01*
X199118651Y-20081947D02*
X199142461Y-20177185D01*
X199142461Y-20177185D02*
X199142461Y-20296233D01*
X199142461Y-20296233D02*
X199118651Y-20391471D01*
X199118651Y-20391471D02*
X199094842Y-20439090D01*
X199094842Y-20439090D02*
X199071032Y-20462900D01*
X199071032Y-20462900D02*
X199023413Y-20486709D01*
X199023413Y-20486709D02*
X198975794Y-20486709D01*
X198975794Y-20486709D02*
X198928175Y-20462900D01*
X198928175Y-20462900D02*
X198904366Y-20439090D01*
X198904366Y-20439090D02*
X198880556Y-20391471D01*
X198880556Y-20391471D02*
X198856747Y-20296233D01*
X198856747Y-20296233D02*
X198856747Y-20177185D01*
X198856747Y-20177185D02*
X198880556Y-20081947D01*
X198880556Y-20081947D02*
X198904366Y-20034328D01*
X198904366Y-20034328D02*
X198928175Y-20010519D01*
X198928175Y-20010519D02*
X198975794Y-19986709D01*
X214995945Y-17491456D02*
X215162611Y-17991456D01*
X215162611Y-17991456D02*
X215329278Y-17491456D01*
X215781658Y-17943837D02*
X215757849Y-17967647D01*
X215757849Y-17967647D02*
X215686420Y-17991456D01*
X215686420Y-17991456D02*
X215638801Y-17991456D01*
X215638801Y-17991456D02*
X215567373Y-17967647D01*
X215567373Y-17967647D02*
X215519754Y-17920027D01*
X215519754Y-17920027D02*
X215495944Y-17872408D01*
X215495944Y-17872408D02*
X215472135Y-17777170D01*
X215472135Y-17777170D02*
X215472135Y-17705742D01*
X215472135Y-17705742D02*
X215495944Y-17610504D01*
X215495944Y-17610504D02*
X215519754Y-17562885D01*
X215519754Y-17562885D02*
X215567373Y-17515266D01*
X215567373Y-17515266D02*
X215638801Y-17491456D01*
X215638801Y-17491456D02*
X215686420Y-17491456D01*
X215686420Y-17491456D02*
X215757849Y-17515266D01*
X215757849Y-17515266D02*
X215781658Y-17539075D01*
X216281658Y-17943837D02*
X216257849Y-17967647D01*
X216257849Y-17967647D02*
X216186420Y-17991456D01*
X216186420Y-17991456D02*
X216138801Y-17991456D01*
X216138801Y-17991456D02*
X216067373Y-17967647D01*
X216067373Y-17967647D02*
X216019754Y-17920027D01*
X216019754Y-17920027D02*
X215995944Y-17872408D01*
X215995944Y-17872408D02*
X215972135Y-17777170D01*
X215972135Y-17777170D02*
X215972135Y-17705742D01*
X215972135Y-17705742D02*
X215995944Y-17610504D01*
X215995944Y-17610504D02*
X216019754Y-17562885D01*
X216019754Y-17562885D02*
X216067373Y-17515266D01*
X216067373Y-17515266D02*
X216138801Y-17491456D01*
X216138801Y-17491456D02*
X216186420Y-17491456D01*
X216186420Y-17491456D02*
X216257849Y-17515266D01*
X216257849Y-17515266D02*
X216281658Y-17539075D01*
X215272830Y-20055416D02*
X215225211Y-20031606D01*
X215225211Y-20031606D02*
X215153782Y-20031606D01*
X215153782Y-20031606D02*
X215082354Y-20055416D01*
X215082354Y-20055416D02*
X215034735Y-20103035D01*
X215034735Y-20103035D02*
X215010925Y-20150654D01*
X215010925Y-20150654D02*
X214987116Y-20245892D01*
X214987116Y-20245892D02*
X214987116Y-20317320D01*
X214987116Y-20317320D02*
X215010925Y-20412558D01*
X215010925Y-20412558D02*
X215034735Y-20460177D01*
X215034735Y-20460177D02*
X215082354Y-20507797D01*
X215082354Y-20507797D02*
X215153782Y-20531606D01*
X215153782Y-20531606D02*
X215201401Y-20531606D01*
X215201401Y-20531606D02*
X215272830Y-20507797D01*
X215272830Y-20507797D02*
X215296639Y-20483987D01*
X215296639Y-20483987D02*
X215296639Y-20317320D01*
X215296639Y-20317320D02*
X215201401Y-20317320D01*
X215510925Y-20531606D02*
X215510925Y-20031606D01*
X215510925Y-20031606D02*
X215796639Y-20531606D01*
X215796639Y-20531606D02*
X215796639Y-20031606D01*
X216034735Y-20531606D02*
X216034735Y-20031606D01*
X216034735Y-20031606D02*
X216153783Y-20031606D01*
X216153783Y-20031606D02*
X216225211Y-20055416D01*
X216225211Y-20055416D02*
X216272830Y-20103035D01*
X216272830Y-20103035D02*
X216296640Y-20150654D01*
X216296640Y-20150654D02*
X216320449Y-20245892D01*
X216320449Y-20245892D02*
X216320449Y-20317320D01*
X216320449Y-20317320D02*
X216296640Y-20412558D01*
X216296640Y-20412558D02*
X216272830Y-20460177D01*
X216272830Y-20460177D02*
X216225211Y-20507797D01*
X216225211Y-20507797D02*
X216153783Y-20531606D01*
X216153783Y-20531606D02*
X216034735Y-20531606D01*
X197948433Y-30640122D02*
X197924624Y-30663932D01*
X197924624Y-30663932D02*
X197853195Y-30687741D01*
X197853195Y-30687741D02*
X197805576Y-30687741D01*
X197805576Y-30687741D02*
X197734148Y-30663932D01*
X197734148Y-30663932D02*
X197686529Y-30616312D01*
X197686529Y-30616312D02*
X197662719Y-30568693D01*
X197662719Y-30568693D02*
X197638910Y-30473455D01*
X197638910Y-30473455D02*
X197638910Y-30402027D01*
X197638910Y-30402027D02*
X197662719Y-30306789D01*
X197662719Y-30306789D02*
X197686529Y-30259170D01*
X197686529Y-30259170D02*
X197734148Y-30211551D01*
X197734148Y-30211551D02*
X197805576Y-30187741D01*
X197805576Y-30187741D02*
X197853195Y-30187741D01*
X197853195Y-30187741D02*
X197924624Y-30211551D01*
X197924624Y-30211551D02*
X197948433Y-30235360D01*
X198234148Y-30687741D02*
X198186529Y-30663932D01*
X198186529Y-30663932D02*
X198162719Y-30640122D01*
X198162719Y-30640122D02*
X198138910Y-30592503D01*
X198138910Y-30592503D02*
X198138910Y-30449646D01*
X198138910Y-30449646D02*
X198162719Y-30402027D01*
X198162719Y-30402027D02*
X198186529Y-30378217D01*
X198186529Y-30378217D02*
X198234148Y-30354408D01*
X198234148Y-30354408D02*
X198305576Y-30354408D01*
X198305576Y-30354408D02*
X198353195Y-30378217D01*
X198353195Y-30378217D02*
X198377005Y-30402027D01*
X198377005Y-30402027D02*
X198400814Y-30449646D01*
X198400814Y-30449646D02*
X198400814Y-30592503D01*
X198400814Y-30592503D02*
X198377005Y-30640122D01*
X198377005Y-30640122D02*
X198353195Y-30663932D01*
X198353195Y-30663932D02*
X198305576Y-30687741D01*
X198305576Y-30687741D02*
X198234148Y-30687741D01*
X198686529Y-30687741D02*
X198638910Y-30663932D01*
X198638910Y-30663932D02*
X198615100Y-30616312D01*
X198615100Y-30616312D02*
X198615100Y-30187741D01*
X199091291Y-30354408D02*
X199091291Y-30687741D01*
X198972243Y-30163932D02*
X198853196Y-30521074D01*
X198853196Y-30521074D02*
X199162719Y-30521074D01*
D11*
X29787550Y-101137450D02*
X29787550Y-101931200D01*
X29787550Y-111456200D02*
X29787550Y-112249950D01*
X29787550Y-112249950D02*
X30581300Y-112249950D01*
X30581300Y-101137450D02*
X29787550Y-101137450D01*
X40106300Y-101137450D02*
X40900050Y-101137450D01*
X40106300Y-112249950D02*
X40900050Y-112249950D01*
X40900050Y-101137450D02*
X40900050Y-101931200D01*
X40900050Y-112249950D02*
X40900050Y-111456200D01*
X302287550Y-100756250D02*
X302287550Y-101550000D01*
X302287550Y-111075000D02*
X302287550Y-111868750D01*
X302287550Y-111868750D02*
X303081300Y-111868750D01*
X303081300Y-100756250D02*
X302287550Y-100756250D01*
X312606300Y-100756250D02*
X313400050Y-100756250D01*
X312606300Y-111868750D02*
X313400050Y-111868750D01*
X313400050Y-100756250D02*
X313400050Y-101550000D01*
X313400050Y-111868750D02*
X313400050Y-111075000D01*
X165893750Y-21943750D02*
X165893750Y-22737500D01*
X165893750Y-32262500D02*
X165893750Y-33056250D01*
X165893750Y-33056250D02*
X166687500Y-33056250D01*
X166687500Y-21943750D02*
X165893750Y-21943750D01*
X176212500Y-21943750D02*
X177006250Y-21943750D01*
X176212500Y-33056250D02*
X177006250Y-33056250D01*
X177006250Y-21943750D02*
X177006250Y-22737500D01*
X177006250Y-33056250D02*
X177006250Y-32262500D01*
M02*
